<svg xmlns="http://www.w3.org/2000/svg" width="76.345" height="76.344" viewBox="0 0 76.345 76.344">
  <g id="Group_1198093" data-name="Group 1198093" transform="translate(-1025.037 -3092.655)">
    <g id="Group_1178877" data-name="Group 1178877">
      <g id="Group_1111311" data-name="Group 1111311">
        <g id="Group_1098742" data-name="Group 1098742" transform="translate(1025.482 3093.101)">
          <g id="Rectangle_400898" data-name="Rectangle 400898" transform="translate(-0.445 -0.445)" fill="#ebdad5" stroke="#741234" stroke-width="3" opacity="0.859">
            <rect width="76.345" height="76.345" rx="38.172" stroke="none"/>
            <rect x="1.5" y="1.5" width="73.345" height="73.345" rx="36.672" fill="none"/>
          </g>
          <g id="Rectangle_400907" data-name="Rectangle 400907" transform="translate(-0.446 -0.445)" fill="none" stroke="#741234" stroke-width="3">
            <rect width="76.345" height="76.345" rx="38.172" stroke="none"/>
            <rect x="1.5" y="1.5" width="73.345" height="73.345" rx="36.672" fill="none"/>
          </g>
        </g>
      </g>
    </g>
    <g id="hay_2688753" transform="translate(1008.927 3073.953)">
      <g id="Group_1182170" data-name="Group 1182170" transform="translate(33.688 33.88)">
        <path id="Path_1048782" data-name="Path 1048782" d="M87.564,46.312a2.5,2.5,0,1,1,.727-.108,2.482,2.482,0,0,1-.727.108Zm0-3.376a.878.878,0,0,0-.842,1.133.878.878,0,1,0,.842-1.133Z" transform="translate(-77.612 -41.316)" fill="#4c241d"/>
        <path id="Path_1048783" data-name="Path 1048783" d="M49.052,75.179a.809.809,0,0,1-.573-1.381l2.382-2.39a.809.809,0,1,1,1.146,1.143l-2.382,2.39A.8.8,0,0,1,49.052,75.179Z" transform="translate(-48.238 -65.129)" fill="#4c241d"/>
        <path id="Path_1048784" data-name="Path 1048784" d="M51.422,75.19a.808.808,0,0,1-.571-.236L48.46,72.571A.809.809,0,1,1,49.6,71.425l2.39,2.382a.809.809,0,0,1-.571,1.383Z" transform="translate(-48.222 -65.144)" fill="#4c241d"/>
        <circle id="Ellipse_12211" data-name="Ellipse 12211" cx="0.809" cy="0.809" r="0.809" transform="translate(21.406 6.211)" fill="#4c241d"/>
      </g>
      <g id="Group_1182171" data-name="Group 1182171" transform="translate(30 45.758)">
        <circle id="Ellipse_12212" data-name="Ellipse 12212" cx="16.19" cy="16.19" r="16.19" transform="translate(0.809 0.809)" fill="#ffce56"/>
        <path id="Path_1048785" data-name="Path 1048785" d="M47,134a17,17,0,1,1,17-17A17.019,17.019,0,0,1,47,134Zm0-32.379a15.38,15.38,0,1,0,15.38,15.38A15.4,15.4,0,0,0,47,101.625Z" transform="translate(-30 -100.006)" fill="#4c241d"/>
      </g>
      <path id="Path_1048786" data-name="Path 1048786" d="M98.047,172.1a4.047,4.047,0,1,1,4.047-4.047A4.052,4.052,0,0,1,98.047,172.1Zm0-6.476a2.428,2.428,0,1,0,2.428,2.428A2.431,2.431,0,0,0,98.047,165.625Z" transform="translate(-51.048 -105.297)" fill="#4c241d"/>
      <g id="Group_1182172" data-name="Group 1182172" transform="translate(50.238 61.947)">
        <path id="Path_1048787" data-name="Path 1048787" d="M134.008,191.017a8.091,8.091,0,0,0,4.046-7.011" transform="translate(-133.198 -183.197)" fill="#ffce56"/>
        <path id="Path_1048788" data-name="Path 1048788" d="M130.818,188.636a.809.809,0,0,1-.406-1.51,7.315,7.315,0,0,0,3.642-6.311.809.809,0,0,1,1.619,0,8.937,8.937,0,0,1-4.45,7.711A.8.8,0,0,1,130.818,188.636Z" transform="translate(-130.007 -180.006)" fill="#4c241d"/>
      </g>
      <path id="Path_1048789" data-name="Path 1048789" d="M72.753,154.981a.811.811,0,0,1-.615-.283,8.9,8.9,0,1,1,13.888-11.135.81.81,0,0,1-1.293.974,7.286,7.286,0,1,0-11.364,9.108.81.81,0,0,1-.615,1.336Z" transform="translate(-31.905 -86.154)" fill="#4c241d"/>
      <path id="Path_1048790" data-name="Path 1048790" d="M68.475,152.276a12.932,12.932,0,0,1-11.456-6.9.809.809,0,1,1,1.431-.757A11.334,11.334,0,1,0,74.127,129.5a.809.809,0,0,1,.808-1.4,12.953,12.953,0,0,1-6.46,24.179Z" transform="translate(-21.476 -76.567)" fill="#4c241d"/>
      <path id="Path_1048791" data-name="Path 1048791" d="M51.051,136.2a.811.811,0,0,1-.793-.649A13.1,13.1,0,0,1,50,132.958a12.962,12.962,0,0,1,15.514-12.7.809.809,0,1,1-.318,1.587,11.476,11.476,0,0,0-2.245-.222,11.343,11.343,0,0,0-11.106,13.6.811.811,0,0,1-.633.954A.8.8,0,0,1,51.051,136.2Z" transform="translate(-15.953 -70.201)" fill="#4c241d"/>
      <g id="Group_1182173" data-name="Group 1182173" transform="translate(63.998 33.616)">
        <path id="Path_1048792" data-name="Path 1048792" d="M212.523,44.006,210.9,65.052h-7.285L202,44.006" transform="translate(-201.191 -43.197)" fill="#ffce56"/>
        <path id="Path_1048793" data-name="Path 1048793" d="M207.714,62.672h-7.285a.809.809,0,0,1-.807-.747L198,40.879a.81.81,0,0,1,1.614-.125l1.561,20.3h5.787l1.561-20.3a.81.81,0,1,1,1.614.125l-1.619,21.046a.81.81,0,0,1-.807.747Z" transform="translate(-198 -40.007)" fill="#4c241d"/>
      </g>
      <g id="Group_1182174" data-name="Group 1182174" transform="translate(63.998 52.233)">
        <path id="Path_1048794" data-name="Path 1048794" d="M211.309,138.434h-8.095a1.214,1.214,0,0,1,0-2.428h8.095a1.214,1.214,0,1,1,0,2.428Z" transform="translate(-201.191 -135.197)" fill="#a9ba5a"/>
        <path id="Path_1048795" data-name="Path 1048795" d="M208.118,136.053h-8.095a2.024,2.024,0,0,1,0-4.047h8.095a2.024,2.024,0,0,1,0,4.047Zm-8.095-2.428a.4.4,0,0,0,0,.809h8.095a.4.4,0,0,0,0-.809Z" transform="translate(-198 -132.006)" fill="#4c241d"/>
      </g>
      <g id="Group_1182175" data-name="Group 1182175" transform="translate(63.998 54.662)">
        <path id="Path_1048796" data-name="Path 1048796" d="M211.309,150.434h-8.095a1.214,1.214,0,0,1,0-2.428h8.095a1.214,1.214,0,1,1,0,2.428Z" transform="translate(-201.191 -147.197)" fill="#a9ba5a"/>
        <path id="Path_1048797" data-name="Path 1048797" d="M208.118,148.053h-8.095a2.024,2.024,0,0,1,0-4.047h8.095a2.024,2.024,0,0,1,0,4.047Zm-8.095-2.428a.4.4,0,0,0,0,.809h8.095a.4.4,0,0,0,0-.809Z" transform="translate(-198 -144.006)" fill="#4c241d"/>
      </g>
      <path id="Path_1048798" data-name="Path 1048798" d="M215.619,53.852a.81.81,0,0,1-.808-.777L214,32.838a.809.809,0,0,1,.776-.841.792.792,0,0,1,.841.776l.809,20.237a.809.809,0,0,1-.776.841Z" transform="translate(-146.765)" fill="#4c241d"/>
      <path id="Path_1048799" data-name="Path 1048799" d="M230.811,53.853h-.033a.809.809,0,0,1-.776-.841l.809-20.237a.8.8,0,0,1,.841-.776.809.809,0,0,1,.776.841l-.809,20.237a.809.809,0,0,1-.808.777Z" transform="translate(-159.527 0)" fill="#4c241d"/>
      <g id="Group_1182176" data-name="Group 1182176" transform="translate(63.998 57.09)">
        <path id="Path_1048800" data-name="Path 1048800" d="M212.523,181.052,210.9,160.006h-7.285L202,181.052Z" transform="translate(-201.19 -159.197)" fill="#ffce56"/>
        <path id="Path_1048801" data-name="Path 1048801" d="M209.332,178.672H198.809A.81.81,0,0,1,198,177.8l1.619-21.046a.809.809,0,0,1,.807-.747h7.285a.809.809,0,0,1,.807.747l1.619,21.046a.81.81,0,0,1-.807.872Zm-9.649-1.619h8.775l-1.494-19.427h-5.787Z" transform="translate(-197.999 -156.007)" fill="#4c241d"/>
      </g>
      <path id="Path_1048802" data-name="Path 1048802" d="M214.811,181.857h-.033a.809.809,0,0,1-.776-.841l.809-20.237a.8.8,0,0,1,.841-.776.809.809,0,0,1,.776.841l-.809,20.237A.809.809,0,0,1,214.811,181.857Z" transform="translate(-146.765 -102.102)" fill="#4c241d"/>
      <path id="Path_1048803" data-name="Path 1048803" d="M231.619,181.857a.81.81,0,0,1-.808-.777L230,160.843a.809.809,0,0,1,1.617-.065l.809,20.237a.809.809,0,0,1-.776.841Z" transform="translate(-159.527 -102.102)" fill="#4c241d"/>
      <path id="Path_1048804" data-name="Path 1048804" d="M77.759,261.625H30.809a.809.809,0,0,1,0-1.619h46.95a.809.809,0,0,1,0,1.619Z" transform="translate(0 -181.869)" fill="#4c241d"/>
    </g>
  </g>
</svg>
