<svg xmlns="http://www.w3.org/2000/svg" xmlns:xlink="http://www.w3.org/1999/xlink" width="135" height="109.575" viewBox="0 0 135 109.575">
  <defs>
    <filter id="Rectangle_404858" x="0" y="0" width="135" height="109.575" filterUnits="userSpaceOnUse">
      <feOffset dx="3" dy="6" input="SourceAlpha"/>
      <feGaussianBlur stdDeviation="5" result="blur"/>
      <feFlood flood-opacity="0.161"/>
      <feComposite operator="in" in2="blur"/>
      <feComposite in="SourceGraphic"/>
    </filter>
  </defs>
  <g id="Group_1197606" data-name="Group 1197606" transform="translate(-194.467 -480.072)">
    <g id="Group_1113681" data-name="Group 1113681" transform="translate(206.467 489.072)">
      <g transform="matrix(1, 0, 0, 1, -12, -9)" filter="url(#Rectangle_404858)">
        <rect id="Rectangle_404858-2" data-name="Rectangle 404858" width="105" height="79.575" rx="8" transform="translate(12 9)" fill="#1b5e69"/>
      </g>
    </g>
    <g id="botanical_5493163" transform="translate(226.914 497.355)">
      <g id="Group_1197605" data-name="Group 1197605" transform="translate(1.564 1.016)">
        <g id="Group_1197591" data-name="Group 1197591" transform="translate(31.657 10.163)">
          <path id="Path_1060782" data-name="Path 1060782" d="M44.935,31.326a24.294,24.294,0,0,1-3.689,1.992h-.01l.447-1.992a8.43,8.43,0,0,0-6.1,2.6v-.163a6.931,6.931,0,0,0-2.764-5.529l-.132-.1a21.28,21.28,0,0,1,.874-2.368,24.283,24.283,0,0,1,7.815-9.949c.569-.427,1.159-.823,1.758-1.189A24.251,24.251,0,0,1,55.911,11a24.241,24.241,0,0,1-1.778,9.147c-.173.417-.356.833-.549,1.24a24.441,24.441,0,0,1-8.649,9.939Z" transform="translate(-32.689 -11)" fill="#ff826e"/>
        </g>
        <g id="Group_1197592" data-name="Group 1197592" transform="translate(6.098 10.163)">
          <path id="Path_1060783" data-name="Path 1060783" d="M30.629,28.236a6.926,6.926,0,0,0-2.764,5.529v.163a8.43,8.43,0,0,0-6.1-2.6l.447,1.992H22.2a24.294,24.294,0,0,1-3.689-1.992,24.441,24.441,0,0,1-8.649-9.939c-.193-.407-.376-.823-.549-1.24A24.241,24.241,0,0,1,7.539,11a24.116,24.116,0,0,1,8.953,1.707,24,24,0,0,1,3.821,1.921c.6.366,1.189.762,1.758,1.189a24.283,24.283,0,0,1,7.815,9.949,21.281,21.281,0,0,1,.874,2.368Z" transform="translate(-7.539 -11)" fill="#ff826e"/>
        </g>
        <g id="Group_1197593" data-name="Group 1197593" transform="translate(32.521 42.684)">
          <path id="Path_1060784" data-name="Path 1060784" d="M33.539,61.293A30.793,30.793,0,0,1,61.69,43H62A30.776,30.776,0,0,1,33.844,61.293Z" transform="translate(-33.539 -43)" fill="#b4dd7f"/>
        </g>
        <g id="Group_1197594" data-name="Group 1197594" transform="translate(0 42.684)">
          <path id="Path_1060785" data-name="Path 1060785" d="M30,61.293h-.3A30.793,30.793,0,0,1,1.539,43h.3A30.793,30.793,0,0,1,30,61.293Z" transform="translate(-1.539 -43)" fill="#b4dd7f"/>
        </g>
        <g id="Group_1197595" data-name="Group 1197595" transform="translate(20.326 26.423)">
          <path id="Path_1060786" data-name="Path 1060786" d="M32.871,27.874l.132.1A6.931,6.931,0,0,1,35.767,33.5v.163a8.43,8.43,0,0,1,6.1-2.6l-.447,1.992-.589,2.653A11.5,11.5,0,0,1,36,42.773,5.066,5.066,0,0,0,33.734,47V61.554H29.669V47A5.066,5.066,0,0,0,27.4,42.773a11.5,11.5,0,0,1-4.827-7.063l-.589-2.653-.447-1.992a8.43,8.43,0,0,1,6.1,2.6V33.5A6.926,6.926,0,0,1,30.4,27.976l.132-.1L31.7,27Z" transform="translate(-21.539 -27)" fill="#cf9e76"/>
        </g>
        <g id="Group_1197596" data-name="Group 1197596" transform="translate(30.489 6.098)">
          <path id="Path_1060787" data-name="Path 1060787" d="M43.155,14.693c-.6.366-1.189.762-1.758,1.189a24.283,24.283,0,0,0-7.815,9.949h-.01V19.521A39.738,39.738,0,0,0,31.539,7a14.343,14.343,0,0,1,11.616,7.693Z" transform="translate(-31.539 -7)" fill="#fc6e51"/>
        </g>
        <g id="Group_1197597" data-name="Group 1197597" transform="translate(18.872 6.098)">
          <path id="Path_1060788" data-name="Path 1060788" d="M31.725,7a39.738,39.738,0,0,0-2.033,12.521v6.311h-.01a24.283,24.283,0,0,0-7.815-9.949c-.569-.427-1.159-.823-1.758-1.189A14.321,14.321,0,0,1,31.725,7Z" transform="translate(-20.109 -7)" fill="#fc6e51"/>
        </g>
        <g id="Group_1197598" data-name="Group 1197598" transform="translate(0 20.549)">
          <path id="Path_1060789" data-name="Path 1060789" d="M18.613,31.159H14.06A39.738,39.738,0,0,0,1.539,33.192,14.3,14.3,0,0,1,9.964,21.22,24.441,24.441,0,0,0,18.613,31.159Z" transform="translate(-1.539 -21.22)" fill="#fc6e51"/>
        </g>
        <g id="Group_1197599" data-name="Group 1197599" transform="translate(43.904 20.549)">
          <path id="Path_1060790" data-name="Path 1060790" d="M59.191,25.966a14.238,14.238,0,0,1,2.622,7.226,39.738,39.738,0,0,0-12.521-2.033H44.739a24.441,24.441,0,0,0,8.649-9.939,14.283,14.283,0,0,1,5.8,4.746Z" transform="translate(-44.739 -21.22)" fill="#fc6e51"/>
        </g>
        <g id="Group_1197600" data-name="Group 1197600" transform="translate(54.879 4.065)">
          <path id="Path_1060791" data-name="Path 1060791" d="M59.218,10.468a2.156,2.156,0,0,1-3.049-3.049L57.958,5.63a2.156,2.156,0,0,1,3.049,3.049Z" transform="translate(-55.539 -5)" fill="#fc6e51"/>
        </g>
        <g id="Group_1197601" data-name="Group 1197601" transform="translate(44.717)">
          <path id="Path_1060792" data-name="Path 1060792" d="M49.6,3.033V5.065a2.033,2.033,0,0,1-4.065,0V3.033A2.039,2.039,0,0,1,47.572,1,1.987,1.987,0,0,1,49,1.6,1.987,1.987,0,0,1,49.6,3.033Z" transform="translate(-45.539 -1)" fill="#fc6e51"/>
        </g>
        <g id="Group_1197602" data-name="Group 1197602" transform="translate(0 4.065)">
          <path id="Path_1060793" data-name="Path 1060793" d="M7.007,7.419a2.156,2.156,0,0,1-3.049,3.049L2.169,8.679A2.156,2.156,0,0,1,5.218,5.63Z" transform="translate(-1.539 -5)" fill="#fc6e51"/>
        </g>
        <g id="Group_1197603" data-name="Group 1197603" transform="translate(12.195)">
          <path id="Path_1060794" data-name="Path 1060794" d="M17.6,3.033V5.065a2.033,2.033,0,1,1-4.065,0V3.033a1.987,1.987,0,0,1,.6-1.433A1.987,1.987,0,0,1,15.572,1,2.039,2.039,0,0,1,17.6,3.033Z" transform="translate(-13.539 -1)" fill="#fc6e51"/>
        </g>
        <g id="Group_1197604" data-name="Group 1197604" transform="translate(28.446 6.098)">
          <path id="Path_1060795" data-name="Path 1060795" d="M31.572,7A39.738,39.738,0,0,1,33.6,19.521v6.311h.01A21.28,21.28,0,0,0,32.74,28.2l-1.169-.874L30.4,28.2a21.28,21.28,0,0,0-.874-2.368h.01V19.521A39.738,39.738,0,0,1,31.572,7Z" transform="translate(-29.529 -7)" fill="#ff826e"/>
        </g>
      </g>
      <path id="Path_1060796" data-name="Path 1060796" d="M62.233,42.684A31.838,31.838,0,0,0,35.1,57.919V47.436a4.058,4.058,0,0,1,1.81-3.382,12.432,12.432,0,0,0,5.263-7.681l.484-2.176a25.5,25.5,0,0,0,3.1-1.676h4.262a38.52,38.52,0,0,1,12.2,1.98l1.452.485-.117-1.525a15.311,15.311,0,0,0-7.664-12.116,11.05,11.05,0,0,1,6.087,1.86l1.127-1.691a13.071,13.071,0,0,0-7-2.193,25.261,25.261,0,0,0,1.328-7.354,3.142,3.142,0,0,0,1.168.23,3.193,3.193,0,0,0,2.243-.929L62.629,9.48a3.172,3.172,0,0,0-2.243-5.415,3.193,3.193,0,0,0-2.243.929L56.356,6.781a3.145,3.145,0,0,0-.7,3.414,25.53,25.53,0,0,0-6.745,1.111A21.718,21.718,0,0,0,49.3,7.951a3.042,3.042,0,0,0,2.061-2.87V3.049a3.049,3.049,0,0,0-6.1,0V5.081a3.045,3.045,0,0,0,2,2.853,19.63,19.63,0,0,1-.628,4.18,24.941,24.941,0,0,0-2.6,1.283,15.228,15.228,0,0,0-11.9-7.3l-.078-.006-.078.006a15.225,15.225,0,0,0-11.9,7.3,25.348,25.348,0,0,0-2.6-1.283,19.64,19.64,0,0,1-.628-4.18,3.046,3.046,0,0,0,2-2.853V3.049a3.049,3.049,0,1,0-6.1,0V5.081a3.044,3.044,0,0,0,2.062,2.871,21.733,21.733,0,0,0,.388,3.354A25.5,25.5,0,0,0,8.448,10.2a3.149,3.149,0,0,0-.7-3.414L5.963,4.994A3.172,3.172,0,0,0,.548,7.237,3.148,3.148,0,0,0,1.477,9.48l1.787,1.787a3.193,3.193,0,0,0,2.243.929,3.151,3.151,0,0,0,1.169-.23A25.328,25.328,0,0,0,8,19.32a13.066,13.066,0,0,0-7,2.193L2.128,23.2a11.05,11.05,0,0,1,6.087-1.86A15.309,15.309,0,0,0,.551,33.46L.434,34.986,1.886,34.5a38.509,38.509,0,0,1,12.2-1.98h4.262a25.151,25.151,0,0,0,3.1,1.676l.484,2.176a12.427,12.427,0,0,0,5.263,7.681A4.058,4.058,0,0,1,29,47.436V57.919A31.839,31.839,0,0,0,1.872,42.684H0l.635,1.429a31.849,31.849,0,0,0,29.077,18.9h4.68a31.848,31.848,0,0,0,29.077-18.9l.636-1.429ZM47.3,3.049a1.016,1.016,0,0,1,2.033,0V5.081a1.016,1.016,0,1,1-2.033,0Zm-32.521,0a1.016,1.016,0,0,1,2.033,0V5.081a1.016,1.016,0,0,1-2.033,0ZM61.323,32.093a40.555,40.555,0,0,0-11.306-1.6H48.524a25.276,25.276,0,0,0,6.027-7.547,13.27,13.27,0,0,1,6.773,9.152ZM57.793,8.218,59.58,6.431a1.14,1.14,0,0,1,1.945.806,1.131,1.131,0,0,1-.333.806L59.405,9.83a1.14,1.14,0,0,1-1.945-.806A1.131,1.131,0,0,1,57.793,8.218ZM43.225,31.65l.258-1.162H42.216a9.521,9.521,0,0,0-5.3,1.627,7.97,7.97,0,0,0-2.505-4.133A23.132,23.132,0,0,1,55.4,12.218,23.26,23.26,0,0,1,43.225,31.65ZM31.383,26.671c-.113-.3-.224-.609-.347-.908V19.64a38.553,38.553,0,0,1,1.016-8.774,38.553,38.553,0,0,1,1.016,8.774v6.124c-.123.3-.235.6-.347.908l-.67-.5Zm10.9-12.2A25.08,25.08,0,0,0,35.1,21.855V19.639A40.557,40.557,0,0,0,33.5,8.345,13.172,13.172,0,0,1,42.285,14.474ZM30.606,8.346A40.557,40.557,0,0,0,29,19.64v2.217a25.08,25.08,0,0,0-7.183-7.381A13.161,13.161,0,0,1,30.606,8.346Zm-25.1,1.817A1.151,1.151,0,0,1,4.7,9.83L2.914,8.043A1.14,1.14,0,0,1,3.72,6.1a1.151,1.151,0,0,1,.806.333L6.312,8.218a1.14,1.14,0,0,1-.806,1.945Zm8.583,20.326a40.555,40.555,0,0,0-11.306,1.6,13.27,13.27,0,0,1,6.773-9.152,25.28,25.28,0,0,0,6.027,7.547ZM8.7,12.218A23.132,23.132,0,0,1,29.693,27.982a7.963,7.963,0,0,0-2.505,4.133,9.527,9.527,0,0,0-5.3-1.627H20.622l.258,1.162A23.257,23.257,0,0,1,8.7,12.218ZM28.321,42.363a10.4,10.4,0,0,1-4.406-6.43l-.734-3.3a7.5,7.5,0,0,1,3.827,1.952,7.969,7.969,0,0,0,.8,2.9l.288.574,1.818-.911-.288-.573a5.89,5.89,0,0,1,1.733-7.343l.7-.52.694.52a5.889,5.889,0,0,1,1.734,7.343l-.288.574,1.818.911.288-.575a7.952,7.952,0,0,0,.8-2.9,7.5,7.5,0,0,1,3.827-1.952l-.734,3.3a10.4,10.4,0,0,1-4.406,6.43,6.087,6.087,0,0,0-2.716,5.073v13.54H31.036V47.436A6.087,6.087,0,0,0,28.321,42.363ZM3.189,44.745A29.82,29.82,0,0,1,27.359,59.1L8.208,46.908,7.116,48.623l19.077,12.14a29.818,29.818,0,0,1-23-16.018ZM37.914,60.763,56.99,48.623,55.9,46.908,36.747,59.1a29.82,29.82,0,0,1,24.17-14.35A29.821,29.821,0,0,1,37.914,60.763Z" transform="translate(0 0)"/>
    </g>
  </g>
</svg>
