<svg xmlns="http://www.w3.org/2000/svg" xmlns:xlink="http://www.w3.org/1999/xlink" width="86.423" height="86.423" viewBox="0 0 86.423 86.423">
  <defs>
    <filter id="Path_874925" x="0" y="0" width="86.423" height="86.423" filterUnits="userSpaceOnUse">
      <feOffset dy="3" input="SourceAlpha"/>
      <feGaussianBlur stdDeviation="3" result="blur"/>
      <feFlood flood-opacity="0.161"/>
      <feComposite operator="in" in2="blur"/>
      <feComposite in="SourceGraphic"/>
    </filter>
  </defs>
  <g id="Group_1198236" data-name="Group 1198236" transform="translate(-1127.525 -1027.934)">
    <g id="Group_1109835" data-name="Group 1109835" transform="translate(1136.525 1033.934)">
      <g id="Group_1107913" data-name="Group 1107913" transform="translate(0 0)">
        <g transform="matrix(1, 0, 0, 1, -9, -6)" filter="url(#Path_874925)">
          <g id="Path_874925-2" data-name="Path 874925" transform="translate(9 6)" fill="#a8cf89">
            <path d="M 34.21131896972656 66.92303466796875 C 29.79465866088867 66.92303466796875 25.51090812683105 66.05836486816406 21.47905921936035 64.35303497314453 C 17.58399963378906 62.70556640625 14.08555889129639 60.34674835205078 11.08091926574707 57.34211730957031 C 8.076289176940918 54.33747863769531 5.717468738555908 50.83903884887695 4.069998741149902 46.94397735595703 C 2.36466908454895 42.91212844848633 1.499998927116394 38.62837600708008 1.499998927116394 34.21171569824219 C 1.499998927116394 29.79465675354004 2.36466908454895 25.51090812683105 4.069998741149902 21.47905731201172 C 5.717468738555908 17.58399772644043 8.076289176940918 14.08555698394775 11.08091926574707 11.08091735839844 C 14.08555889129639 8.076287269592285 17.58399963378906 5.717467308044434 21.47905921936035 4.069997310638428 C 25.51090812683105 2.364667415618896 29.79465866088867 1.49999737739563 34.21131896972656 1.49999737739563 C 38.62797927856445 1.49999737739563 42.91172790527344 2.364667415618896 46.94358062744141 4.069997310638428 C 50.83863830566406 5.717467308044434 54.33707809448242 8.076287269592285 57.34172058105469 11.08091735839844 C 60.34634780883789 14.08555698394775 62.70516967773438 17.58399772644043 64.35263824462891 21.47905731201172 C 66.05796813964844 25.51090812683105 66.92263793945312 29.79465675354004 66.92263793945312 34.21131896972656 C 66.92263793945312 38.62837600708008 66.05796813964844 42.91212844848633 64.35263824462891 46.94397735595703 C 62.70516967773438 50.83903884887695 60.34634780883789 54.33747863769531 57.34172058105469 57.34211730957031 C 54.33707809448242 60.34674835205078 50.83863830566406 62.70556640625 46.94358062744141 64.35303497314453 C 42.91172790527344 66.05836486816406 38.62797927856445 66.92303466796875 34.21131896972656 66.92303466796875 Z" stroke="none"/>
            <path d="M 34.21131896972656 3 C 29.99649429321289 3 25.90934371948242 3.824813842773438 22.06338882446289 5.451503753662109 C 18.34711837768555 7.023353576660156 15.00894165039062 9.274223327636719 12.1415901184082 12.14158630371094 C 9.274223327636719 15.00894165039062 7.023353576660156 18.34711837768555 5.451507568359375 22.06338882446289 C 3.824813842773438 25.90933990478516 3 29.99649429321289 3 34.21171569824219 C 3 38.42654037475586 3.824813842773438 42.51369476318359 5.451507568359375 46.35964584350586 C 7.023353576660156 50.07592010498047 9.274223327636719 53.41409301757812 12.1415901184082 56.28144836425781 C 15.00894165039062 59.14881134033203 18.34711837768555 61.39968109130859 22.06338882446289 62.97152709960938 C 25.90934371948242 64.59822082519531 29.99649429321289 65.42303466796875 34.21131896972656 65.42303466796875 C 38.42613983154297 65.42303466796875 42.51329803466797 64.59822082519531 46.35924911499023 62.97152709960938 C 50.07551956176758 61.39968109130859 53.4136962890625 59.14881134033203 56.28104782104492 56.28144836425781 C 59.14841461181641 53.41409301757812 61.39928436279297 50.07592010498047 62.97113037109375 46.35964584350586 C 64.59782409667969 42.51369476318359 65.42263793945312 38.42654037475586 65.42263793945312 34.21131896972656 C 65.42263793945312 29.99649429321289 64.59782409667969 25.90933990478516 62.97113037109375 22.06338882446289 C 61.39928436279297 18.34711837768555 59.14841461181641 15.00894165039062 56.28104782104492 12.14158630371094 C 53.4136962890625 9.274223327636719 50.07551956176758 7.023353576660156 46.35924911499023 5.451503753662109 C 42.51329803466797 3.824813842773438 38.42613983154297 3 34.21131896972656 3 M 34.21131896972656 0 C 53.10570526123047 0 68.42263793945312 15.31692886352539 68.42263793945312 34.21131896972656 L 68.42263793945312 34.21171569824219 C 68.42263793945312 53.10610580444336 53.10570526123047 68.42303466796875 34.21131896972656 68.42303466796875 C 15.31692886352539 68.42303466796875 0 53.10610580444336 0 34.21171569824219 L 0 34.21131896972656 C 0 15.31692886352539 15.31692886352539 0 34.21131896972656 0 Z" stroke="none" fill="#fff"/>
          </g>
        </g>
        <g id="Path_874923" data-name="Path 874923" transform="translate(0 0)" fill="none">
          <path d="M34.211,0A34.211,34.211,0,0,1,68.423,34.211h0A34.211,34.211,0,0,1,0,34.212H0A34.211,34.211,0,0,1,34.211,0Z" stroke="none"/>
          <path d="M 34.21131896972656 3 C 29.99649429321289 3 25.90934371948242 3.824813842773438 22.06338882446289 5.451503753662109 C 18.34711837768555 7.023353576660156 15.00894165039062 9.274223327636719 12.1415901184082 12.14158630371094 C 9.274223327636719 15.00894165039062 7.023353576660156 18.34711837768555 5.451507568359375 22.06338882446289 C 3.824813842773438 25.90933990478516 3 29.99649429321289 3 34.21171569824219 C 3 38.42654037475586 3.824813842773438 42.51369476318359 5.451507568359375 46.35964584350586 C 7.023353576660156 50.07592010498047 9.274223327636719 53.41409301757812 12.1415901184082 56.28144836425781 C 15.00894165039062 59.14881134033203 18.34711837768555 61.39968109130859 22.06338882446289 62.97152709960938 C 25.90934371948242 64.59822082519531 29.99649429321289 65.42303466796875 34.21131896972656 65.42303466796875 C 38.42613983154297 65.42303466796875 42.51329803466797 64.59822082519531 46.35924911499023 62.97152709960938 C 50.07551956176758 61.39968109130859 53.4136962890625 59.14881134033203 56.28104782104492 56.28144836425781 C 59.14841461181641 53.41409301757812 61.39928436279297 50.07592010498047 62.97113037109375 46.35964584350586 C 64.59782409667969 42.51369476318359 65.42263793945312 38.42654037475586 65.42263793945312 34.21131896972656 C 65.42263793945312 29.99649429321289 64.59782409667969 25.90933990478516 62.97113037109375 22.06338882446289 C 61.39928436279297 18.34711837768555 59.14841461181641 15.00894165039062 56.28104782104492 12.14158630371094 C 53.4136962890625 9.274223327636719 50.07551956176758 7.023353576660156 46.35924911499023 5.451503753662109 C 42.51329803466797 3.824813842773438 38.42613983154297 3 34.21131896972656 3 M 34.21131896972656 0 C 53.10570526123047 0 68.42263793945312 15.31692886352539 68.42263793945312 34.21131896972656 L 68.42263793945312 34.21171569824219 C 68.42263793945312 53.10610580444336 53.10570526123047 68.42303466796875 34.21131896972656 68.42303466796875 C 15.31692886352539 68.42303466796875 0 53.10610580444336 0 34.21171569824219 L 0 34.21131896972656 C 0 15.31692886352539 15.31692886352539 0 34.21131896972656 0 Z" stroke="none" fill="#fff"/>
        </g>
      </g>
    </g>
    <g id="servir" transform="translate(1134.664 1010.081)">
      <path id="Path_1065493" data-name="Path 1065493" d="M189.381,56.029h.339a6.022,6.022,0,0,0,3.1-.858l1.915-1.149h1.338V48H180.034a1.338,1.338,0,0,0-1.089.56L176,52.683v3.346a2.676,2.676,0,0,0,2.676,2.676h9.367a1.338,1.338,0,0,0,1.338-1.338V56.029" transform="translate(-146.618 -7.331)" fill="#f5c99d"/>
      <path id="Path_1065494" data-name="Path 1065494" d="M214.022,148.684l2.007-2.676V144H208v2.007l2.007,2.676v1.338h4.014Z" transform="translate(-175.942 -95.302)" fill="#cf8300"/>
      <rect id="Rectangle_415034" data-name="Rectangle 415034" width="38.978" height="2.556" transform="translate(16.639 68.754)" fill="#eda600"/>
      <path id="Path_1065495" data-name="Path 1065495" d="M82.792,416h0a9.015,9.015,0,0,1-7.5,4.014H55.5A9.015,9.015,0,0,1,48,416H82.792Z" transform="translate(-29.324 -344.554)" fill="#cf8300"/>
      <path id="Path_1065496" data-name="Path 1065496" d="M102.05,200h0a14.05,14.05,0,0,1,14.05,14.05v1.338H88V214.05A14.05,14.05,0,0,1,102.05,200Z" transform="translate(-65.978 -146.619)" fill="#f6bb00"/>
      <path id="Path_1065497" data-name="Path 1065497" d="M55.475,40H33.415a2.011,2.011,0,0,0-1.633.841l-2.945,4.123a.669.669,0,0,0-.125.389V48.7a3.349,3.349,0,0,0,3.345,3.345h.167l.749,1a14.744,14.744,0,0,0-11.621,14.39V68.1H16.669A.669.669,0,0,0,16,68.77v2.676a.669.669,0,0,0,.669.669h1.658a9.663,9.663,0,0,0,7.85,4.014h19.79a9.663,9.663,0,0,0,7.85-4.014h1.658a.669.669,0,0,0,.669-.669V68.77a.669.669,0,0,0-.669-.669H50.792v-.669a14.744,14.744,0,0,0-11.621-14.39l.749-1h1.505a2.009,2.009,0,0,0,2.007-2.007v-.678a6.692,6.692,0,0,0,3.113-.944L48.3,47.36h.484V48.7a.669.669,0,0,0,.669.669h6.022a.669.669,0,0,0,.669-.669V40.669A.669.669,0,0,0,55.475,40ZM45.967,74.792H26.177a8.327,8.327,0,0,1-6.125-2.676h32.04A8.327,8.327,0,0,1,45.967,74.792Zm8.839-4.014H17.338V69.439H54.806Zm-5.353-3.345V68.1H22.691v-.669a13.381,13.381,0,0,1,26.763,0ZM36.072,52.712a14.813,14.813,0,0,0-1.607.088l-1.739-2.318V49.367h6.691v1.115L37.679,52.8A14.814,14.814,0,0,0,36.072,52.712Zm5.353-2.007h-.669V49.367h1.338v.669A.67.67,0,0,1,41.425,50.705Zm6.691-4.684a.669.669,0,0,0-.344.1l-1.915,1.149a5.354,5.354,0,0,1-2.754.763H34.734a1.338,1.338,0,1,1,0-2.676h5.353V44.014H34.734a2.674,2.674,0,0,0-2.316,4.015h-.36a.669.669,0,0,0-.669.669V50.59A2.01,2.01,0,0,1,30.051,48.7V45.567l2.82-3.949a.67.67,0,0,1,.544-.28H48.785v4.683Zm6.691,2.007H50.123V41.338h4.684Z" transform="translate(0)"/>
    </g>
  </g>
</svg>
