<svg xmlns="http://www.w3.org/2000/svg" xmlns:xlink="http://www.w3.org/1999/xlink" width="86.423" height="86.423" viewBox="0 0 86.423 86.423">
  <defs>
    <filter id="Path_874925" x="0" y="0" width="86.423" height="86.423" filterUnits="userSpaceOnUse">
      <feOffset dy="3" input="SourceAlpha"/>
      <feGaussianBlur stdDeviation="3" result="blur"/>
      <feFlood flood-opacity="0.161"/>
      <feComposite operator="in" in2="blur"/>
      <feComposite in="SourceGraphic"/>
    </filter>
  </defs>
  <g id="Group_1198237" data-name="Group 1198237" transform="translate(-1127.525 -1027.934)">
    <g id="Group_1109835" data-name="Group 1109835" transform="translate(1136.525 1033.934)">
      <g id="Group_1107913" data-name="Group 1107913" transform="translate(0 0)">
        <g transform="matrix(1, 0, 0, 1, -9, -6)" filter="url(#Path_874925)">
          <g id="Path_874925-2" data-name="Path 874925" transform="translate(9 6)" fill="#a8cf89">
            <path d="M 34.21131896972656 66.92303466796875 C 29.79465866088867 66.92303466796875 25.51090812683105 66.05836486816406 21.47905921936035 64.35303497314453 C 17.58399963378906 62.70556640625 14.08555889129639 60.34674835205078 11.08091926574707 57.34211730957031 C 8.076289176940918 54.33747863769531 5.717468738555908 50.83903884887695 4.069998741149902 46.94397735595703 C 2.36466908454895 42.91212844848633 1.499998927116394 38.62837600708008 1.499998927116394 34.21171569824219 C 1.499998927116394 29.79465675354004 2.36466908454895 25.51090812683105 4.069998741149902 21.47905731201172 C 5.717468738555908 17.58399772644043 8.076289176940918 14.08555698394775 11.08091926574707 11.08091735839844 C 14.08555889129639 8.076287269592285 17.58399963378906 5.717467308044434 21.47905921936035 4.069997310638428 C 25.51090812683105 2.364667415618896 29.79465866088867 1.49999737739563 34.21131896972656 1.49999737739563 C 38.62797927856445 1.49999737739563 42.91172790527344 2.364667415618896 46.94358062744141 4.069997310638428 C 50.83863830566406 5.717467308044434 54.33707809448242 8.076287269592285 57.34172058105469 11.08091735839844 C 60.34634780883789 14.08555698394775 62.70516967773438 17.58399772644043 64.35263824462891 21.47905731201172 C 66.05796813964844 25.51090812683105 66.92263793945312 29.79465675354004 66.92263793945312 34.21131896972656 C 66.92263793945312 38.62837600708008 66.05796813964844 42.91212844848633 64.35263824462891 46.94397735595703 C 62.70516967773438 50.83903884887695 60.34634780883789 54.33747863769531 57.34172058105469 57.34211730957031 C 54.33707809448242 60.34674835205078 50.83863830566406 62.70556640625 46.94358062744141 64.35303497314453 C 42.91172790527344 66.05836486816406 38.62797927856445 66.92303466796875 34.21131896972656 66.92303466796875 Z" stroke="none"/>
            <path d="M 34.21131896972656 3 C 29.99649429321289 3 25.90934371948242 3.824813842773438 22.06338882446289 5.451503753662109 C 18.34711837768555 7.023353576660156 15.00894165039062 9.274223327636719 12.1415901184082 12.14158630371094 C 9.274223327636719 15.00894165039062 7.023353576660156 18.34711837768555 5.451507568359375 22.06338882446289 C 3.824813842773438 25.90933990478516 3 29.99649429321289 3 34.21171569824219 C 3 38.42654037475586 3.824813842773438 42.51369476318359 5.451507568359375 46.35964584350586 C 7.023353576660156 50.07592010498047 9.274223327636719 53.41409301757812 12.1415901184082 56.28144836425781 C 15.00894165039062 59.14881134033203 18.34711837768555 61.39968109130859 22.06338882446289 62.97152709960938 C 25.90934371948242 64.59822082519531 29.99649429321289 65.42303466796875 34.21131896972656 65.42303466796875 C 38.42613983154297 65.42303466796875 42.51329803466797 64.59822082519531 46.35924911499023 62.97152709960938 C 50.07551956176758 61.39968109130859 53.4136962890625 59.14881134033203 56.28104782104492 56.28144836425781 C 59.14841461181641 53.41409301757812 61.39928436279297 50.07592010498047 62.97113037109375 46.35964584350586 C 64.59782409667969 42.51369476318359 65.42263793945312 38.42654037475586 65.42263793945312 34.21131896972656 C 65.42263793945312 29.99649429321289 64.59782409667969 25.90933990478516 62.97113037109375 22.06338882446289 C 61.39928436279297 18.34711837768555 59.14841461181641 15.00894165039062 56.28104782104492 12.14158630371094 C 53.4136962890625 9.274223327636719 50.07551956176758 7.023353576660156 46.35924911499023 5.451503753662109 C 42.51329803466797 3.824813842773438 38.42613983154297 3 34.21131896972656 3 M 34.21131896972656 0 C 53.10570526123047 0 68.42263793945312 15.31692886352539 68.42263793945312 34.21131896972656 L 68.42263793945312 34.21171569824219 C 68.42263793945312 53.10610580444336 53.10570526123047 68.42303466796875 34.21131896972656 68.42303466796875 C 15.31692886352539 68.42303466796875 0 53.10610580444336 0 34.21171569824219 L 0 34.21131896972656 C 0 15.31692886352539 15.31692886352539 0 34.21131896972656 0 Z" stroke="none" fill="#fff"/>
          </g>
        </g>
        <g id="Path_874923" data-name="Path 874923" transform="translate(0 0)" fill="none">
          <path d="M34.211,0A34.211,34.211,0,0,1,68.423,34.211h0A34.211,34.211,0,0,1,0,34.212H0A34.211,34.211,0,0,1,34.211,0Z" stroke="none"/>
          <path d="M 34.21131896972656 3 C 29.99649429321289 3 25.90934371948242 3.824813842773438 22.06338882446289 5.451503753662109 C 18.34711837768555 7.023353576660156 15.00894165039062 9.274223327636719 12.1415901184082 12.14158630371094 C 9.274223327636719 15.00894165039062 7.023353576660156 18.34711837768555 5.451507568359375 22.06338882446289 C 3.824813842773438 25.90933990478516 3 29.99649429321289 3 34.21171569824219 C 3 38.42654037475586 3.824813842773438 42.51369476318359 5.451507568359375 46.35964584350586 C 7.023353576660156 50.07592010498047 9.274223327636719 53.41409301757812 12.1415901184082 56.28144836425781 C 15.00894165039062 59.14881134033203 18.34711837768555 61.39968109130859 22.06338882446289 62.97152709960938 C 25.90934371948242 64.59822082519531 29.99649429321289 65.42303466796875 34.21131896972656 65.42303466796875 C 38.42613983154297 65.42303466796875 42.51329803466797 64.59822082519531 46.35924911499023 62.97152709960938 C 50.07551956176758 61.39968109130859 53.4136962890625 59.14881134033203 56.28104782104492 56.28144836425781 C 59.14841461181641 53.41409301757812 61.39928436279297 50.07592010498047 62.97113037109375 46.35964584350586 C 64.59782409667969 42.51369476318359 65.42263793945312 38.42654037475586 65.42263793945312 34.21131896972656 C 65.42263793945312 29.99649429321289 64.59782409667969 25.90933990478516 62.97113037109375 22.06338882446289 C 61.39928436279297 18.34711837768555 59.14841461181641 15.00894165039062 56.28104782104492 12.14158630371094 C 53.4136962890625 9.274223327636719 50.07551956176758 7.023353576660156 46.35924911499023 5.451503753662109 C 42.51329803466797 3.824813842773438 38.42613983154297 3 34.21131896972656 3 M 34.21131896972656 0 C 53.10570526123047 0 68.42263793945312 15.31692886352539 68.42263793945312 34.21131896972656 L 68.42263793945312 34.21171569824219 C 68.42263793945312 53.10610580444336 53.10570526123047 68.42303466796875 34.21131896972656 68.42303466796875 C 15.31692886352539 68.42303466796875 0 53.10610580444336 0 34.21171569824219 L 0 34.21131896972656 C 0 15.31692886352539 15.31692886352539 0 34.21131896972656 0 Z" stroke="none" fill="#fff"/>
        </g>
      </g>
    </g>
    <g id="construccion" transform="translate(1151.215 1048.624)">
      <g id="Group_1198260" data-name="Group 1198260" transform="translate(0.63 0.63)">
        <g id="Group_1198247" data-name="Group 1198247" transform="translate(8.816)">
          <path id="Path_1065498" data-name="Path 1065498" d="M33.923,12.335H15l.12-.6a4.108,4.108,0,0,1,3.029-3.174l.145-.586a3.631,3.631,0,0,1,2.374-2.563,4.341,4.341,0,0,1,3.149-3.149l.069-.132a2.033,2.033,0,0,1,3.64,0l.7,1.392a4.341,4.341,0,0,1,3.149,3.149A4.1,4.1,0,0,1,34.389,9.8H34.4Z" transform="translate(-15 -1)" fill="#ffeaa7"/>
        </g>
        <g id="Group_1198248" data-name="Group 1198248" transform="translate(0 7.557)">
          <path id="Path_1065499" data-name="Path 1065499" d="M3.809,14.052,7.3,26.854H4.149l-3.1-11.788A1.7,1.7,0,0,1,1,14.707v-.277a1.43,1.43,0,0,1,2.809-.378Z" transform="translate(-1 -13)" fill="#d3a06c"/>
        </g>
        <g id="Group_1198249" data-name="Group 1198249" transform="translate(7.557 11.335)">
          <path id="Path_1065500" data-name="Path 1065500" d="M33.183,19l-.46,2.519H13.63a.632.632,0,0,1-.63-.63V19.63a.632.632,0,0,1,.63-.63H33.183Z" transform="translate(-13 -19)" fill="#aab2bd"/>
        </g>
        <g id="Group_1198250" data-name="Group 1198250" transform="translate(8.816 13.854)">
          <path id="Path_1065501" data-name="Path 1065501" d="M33.464,23,31.373,34.335H26.965a.632.632,0,0,0-.63.63v5.668H22.21l.346-7.557h.63a.632.632,0,0,0,.63-.63V31.186a.632.632,0,0,0-.63-.63H17.406A1.869,1.869,0,0,0,15.63,29.3L15,23Z" transform="translate(-15 -23)" fill="#ccd1d9"/>
        </g>
        <g id="Group_1198251" data-name="Group 1198251" transform="translate(28.904 1.259)">
          <path id="Path_1065502" data-name="Path 1065502" d="M55.779,4.259V5.519A1.263,1.263,0,0,1,54.52,6.778H46.9l.5-2.746A1.257,1.257,0,0,1,48.644,3H54.52A1.263,1.263,0,0,1,55.779,4.259Z" transform="translate(-46.9 -3)" fill="#b27946"/>
        </g>
        <g id="Group_1198252" data-name="Group 1198252" transform="translate(25.189 5.038)">
          <path id="Path_1065503" data-name="Path 1065503" d="M47.3,9,43.519,29.151H41l2.091-11.335.46-2.519.472-2.538L44.715,9Z" transform="translate(-41 -9)" fill="#cf9e76"/>
        </g>
        <g id="Group_1198253" data-name="Group 1198253" transform="translate(9.446 21.411)">
          <path id="Path_1065504" data-name="Path 1065504" d="M17.782,35h5.775a.632.632,0,0,1,.63.63v1.259a.632.632,0,0,1-.63.63H16a1.887,1.887,0,0,0,1.889-1.889,1.746,1.746,0,0,0-.113-.63Z" transform="translate(-16 -35)" fill="#969faa"/>
        </g>
        <g id="Group_1198254" data-name="Group 1198254" transform="translate(1.259 21.411)">
          <path id="Path_1065505" data-name="Path 1065505" d="M9.3,35.63a1.887,1.887,0,0,0,1.889,1.889H3.63a.632.632,0,0,1-.63-.63V35.63A.632.632,0,0,1,3.63,35H9.411A1.746,1.746,0,0,0,9.3,35.63Z" transform="translate(-3 -35)" fill="#969faa"/>
        </g>
        <g id="Group_1198255" data-name="Group 1198255" transform="translate(2.519 23.93)">
          <path id="Path_1065506" data-name="Path 1065506" d="M18.854,39l-.346,7.557h-.283a.632.632,0,0,0-.63.63v5.038a.632.632,0,0,0,.63.63H6.833a1.261,1.261,0,0,1-1.259-1.2L5,39H18.854Z" transform="translate(-5 -39)" fill="#ccd1d9"/>
        </g>
        <g id="Group_1198256" data-name="Group 1198256" transform="translate(7.557 20.151)">
          <path id="Path_1065507" data-name="Path 1065507" d="M16.665,34.259a1.746,1.746,0,0,1,.113.63,1.889,1.889,0,1,1-3.778,0,1.746,1.746,0,0,1,.113-.63,1.882,1.882,0,0,1,3.552,0Z" transform="translate(-13 -33)" fill="#aab2bd"/>
        </g>
        <g id="Group_1198257" data-name="Group 1198257" transform="translate(25.189 31.486)">
          <path id="Path_1065508" data-name="Path 1065508" d="M51.076,51.63v5.038a.632.632,0,0,1-.63.63H41V51h9.446A.632.632,0,0,1,51.076,51.63Z" transform="translate(-41 -51)" fill="#b27946"/>
        </g>
        <g id="Group_1198258" data-name="Group 1198258" transform="translate(20.151 25.189)">
          <path id="Path_1065509" data-name="Path 1065509" d="M43.076,41.63V47.3H33V41.63a.632.632,0,0,1,.63-.63h8.816A.632.632,0,0,1,43.076,41.63Z" transform="translate(-33 -41)" fill="#d3a06c"/>
        </g>
        <g id="Group_1198259" data-name="Group 1198259" transform="translate(15.113 31.486)">
          <path id="Path_1065510" data-name="Path 1065510" d="M35.076,51v6.3H25.63a.632.632,0,0,1-.63-.63V51.63a.632.632,0,0,1,.63-.63h9.446Z" transform="translate(-25 -51)" fill="#d3a06c"/>
        </g>
      </g>
      <g id="Group_1198261" data-name="Group 1198261" transform="translate(0 0)">
        <path id="Path_1065511" data-name="Path 1065511" d="M37.154,1.259H31.275a1.889,1.889,0,0,0-1.858,1.547l-.848,4.6A4.75,4.75,0,0,0,26.328,5.79,4.944,4.944,0,0,0,23.11,2.618l-.572-1.144a2.668,2.668,0,0,0-4.71-.118A4.945,4.945,0,0,0,14.6,4.56,4.239,4.239,0,0,0,12.13,7.447l-.059.238a4.756,4.756,0,0,0-3.122,3.554l-.02.1H8.816a1.261,1.261,0,0,0-1.259,1.259v1.259a1.261,1.261,0,0,0,1.259,1.259h.06l.514,5.144a2.513,2.513,0,0,0-1.484,1.153h-.5L4.043,9.073A2.058,2.058,0,0,0,0,9.615v.276a2.065,2.065,0,0,0,.067.524l2.894,11H2.519A1.261,1.261,0,0,0,1.259,22.67V23.93a1.261,1.261,0,0,0,1.259,1.259h.028L3.094,37.24a1.886,1.886,0,0,0,1.887,1.8H35.265a1.261,1.261,0,0,0,1.259-1.259V32.746a1.261,1.261,0,0,0-1.259-1.259H31.486V26.448a1.261,1.261,0,0,0-1.259-1.259H29.1L32.639,6.3h4.515a1.891,1.891,0,0,0,1.889-1.889V3.149A1.891,1.891,0,0,0,37.154,1.259ZM12.747,8.8l.367-.092.238-.953a2.984,2.984,0,0,1,1.96-2.117l.328-.109.084-.336a3.692,3.692,0,0,1,2.69-2.69l.281-.07.2-.392a1.408,1.408,0,0,1,2.519,0l.826,1.651.281.07a3.691,3.691,0,0,1,2.69,2.69l.092.367.367.091a3.491,3.491,0,0,1,2.526,2.55l-.346,1.878H10.225A3.485,3.485,0,0,1,12.747,8.8Zm-3.931,3.8h18.8l-.232,1.259H8.816Zm18.334,2.519L25.295,25.189H21.411a1.261,1.261,0,0,0-1.259,1.259v5.038H17.318l.287-6.3h.028a1.261,1.261,0,0,0,1.259-1.259V22.67a1.261,1.261,0,0,0-1.259-1.259H12.244a2.515,2.515,0,0,0-1.591-1.186l-.511-5.111ZM12.595,22.67h5.038V23.93H12.244A2.493,2.493,0,0,0,12.595,22.67Zm-2.519-1.259A1.259,1.259,0,1,1,8.816,22.67,1.261,1.261,0,0,1,10.076,21.411ZM1.286,10.093a.774.774,0,0,1-.026-.2V9.615A.8.8,0,0,1,2.828,9.4L6.1,21.411H4.264ZM2.519,22.67H7.557a2.493,2.493,0,0,0,.35,1.259H2.519Zm6.86,2.519a13.587,13.587,0,0,1-5.153,9.2l-.418-9.2Zm-4.4,12.595a.628.628,0,0,1-.629-.6L4.294,35.9a14.849,14.849,0,0,0,6.351-10.708h5.7l-.288,6.343a1.259,1.259,0,0,0-.942,1.214v5.038Zm11.391-5.038h8.816v5.038H16.373Zm18.892,5.038H26.448V32.746h8.816Zm-5.038-6.3H21.411V26.448h8.816Zm-2.412-6.3h-1.24L30.055,6.3h1.3ZM37.784,4.408a.63.63,0,0,1-.63.63H30.287l.369-2a.63.63,0,0,1,.619-.515h5.878a.63.63,0,0,1,.63.63Z" transform="translate(0 0)"/>
        <path id="Path_1065512" data-name="Path 1065512" d="M28,8.519h1.259a1.261,1.261,0,0,1,1.259-1.259V6A2.521,2.521,0,0,0,28,8.519Z" transform="translate(-10.368 -2.222)"/>
        <path id="Path_1065513" data-name="Path 1065513" d="M22,14.519h1.259a1.261,1.261,0,0,1,1.259-1.259V12A2.521,2.521,0,0,0,22,14.519Z" transform="translate(-8.146 -4.443)"/>
        <path id="Path_1065514" data-name="Path 1065514" d="M36,12v1.259a1.261,1.261,0,0,1,1.259,1.259h1.259A2.521,2.521,0,0,0,36,12Z" transform="translate(-13.33 -4.443)"/>
      </g>
    </g>
  </g>
</svg>
