<svg xmlns="http://www.w3.org/2000/svg" xmlns:xlink="http://www.w3.org/1999/xlink" width="86.423" height="86.423" viewBox="0 0 86.423 86.423">
  <defs>
    <filter id="Path_874925" x="0" y="0" width="86.423" height="86.423" filterUnits="userSpaceOnUse">
      <feOffset dy="3" input="SourceAlpha"/>
      <feGaussianBlur stdDeviation="3" result="blur"/>
      <feFlood flood-opacity="0.161"/>
      <feComposite operator="in" in2="blur"/>
      <feComposite in="SourceGraphic"/>
    </filter>
  </defs>
  <g id="Group_1198235" data-name="Group 1198235" transform="translate(-1127.525 -1027.934)">
    <g id="Group_1109835" data-name="Group 1109835" transform="translate(1136.525 1033.934)">
      <g id="Group_1107913" data-name="Group 1107913" transform="translate(0 0)">
        <g transform="matrix(1, 0, 0, 1, -9, -6)" filter="url(#Path_874925)">
          <g id="Path_874925-2" data-name="Path 874925" transform="translate(9 6)" fill="#a8cf89">
            <path d="M 34.21131896972656 66.92303466796875 C 29.79465866088867 66.92303466796875 25.51090812683105 66.05836486816406 21.47905921936035 64.35303497314453 C 17.58399963378906 62.70556640625 14.08555889129639 60.34674835205078 11.08091926574707 57.34211730957031 C 8.076289176940918 54.33747863769531 5.717468738555908 50.83903884887695 4.069998741149902 46.94397735595703 C 2.36466908454895 42.91212844848633 1.499998927116394 38.62837600708008 1.499998927116394 34.21171569824219 C 1.499998927116394 29.79465675354004 2.36466908454895 25.51090812683105 4.069998741149902 21.47905731201172 C 5.717468738555908 17.58399772644043 8.076289176940918 14.08555698394775 11.08091926574707 11.08091735839844 C 14.08555889129639 8.076287269592285 17.58399963378906 5.717467308044434 21.47905921936035 4.069997310638428 C 25.51090812683105 2.364667415618896 29.79465866088867 1.49999737739563 34.21131896972656 1.49999737739563 C 38.62797927856445 1.49999737739563 42.91172790527344 2.364667415618896 46.94358062744141 4.069997310638428 C 50.83863830566406 5.717467308044434 54.33707809448242 8.076287269592285 57.34172058105469 11.08091735839844 C 60.34634780883789 14.08555698394775 62.70516967773438 17.58399772644043 64.35263824462891 21.47905731201172 C 66.05796813964844 25.51090812683105 66.92263793945312 29.79465675354004 66.92263793945312 34.21131896972656 C 66.92263793945312 38.62837600708008 66.05796813964844 42.91212844848633 64.35263824462891 46.94397735595703 C 62.70516967773438 50.83903884887695 60.34634780883789 54.33747863769531 57.34172058105469 57.34211730957031 C 54.33707809448242 60.34674835205078 50.83863830566406 62.70556640625 46.94358062744141 64.35303497314453 C 42.91172790527344 66.05836486816406 38.62797927856445 66.92303466796875 34.21131896972656 66.92303466796875 Z" stroke="none"/>
            <path d="M 34.21131896972656 3 C 29.99649429321289 3 25.90934371948242 3.824813842773438 22.06338882446289 5.451503753662109 C 18.34711837768555 7.023353576660156 15.00894165039062 9.274223327636719 12.1415901184082 12.14158630371094 C 9.274223327636719 15.00894165039062 7.023353576660156 18.34711837768555 5.451507568359375 22.06338882446289 C 3.824813842773438 25.90933990478516 3 29.99649429321289 3 34.21171569824219 C 3 38.42654037475586 3.824813842773438 42.51369476318359 5.451507568359375 46.35964584350586 C 7.023353576660156 50.07592010498047 9.274223327636719 53.41409301757812 12.1415901184082 56.28144836425781 C 15.00894165039062 59.14881134033203 18.34711837768555 61.39968109130859 22.06338882446289 62.97152709960938 C 25.90934371948242 64.59822082519531 29.99649429321289 65.42303466796875 34.21131896972656 65.42303466796875 C 38.42613983154297 65.42303466796875 42.51329803466797 64.59822082519531 46.35924911499023 62.97152709960938 C 50.07551956176758 61.39968109130859 53.4136962890625 59.14881134033203 56.28104782104492 56.28144836425781 C 59.14841461181641 53.41409301757812 61.39928436279297 50.07592010498047 62.97113037109375 46.35964584350586 C 64.59782409667969 42.51369476318359 65.42263793945312 38.42654037475586 65.42263793945312 34.21131896972656 C 65.42263793945312 29.99649429321289 64.59782409667969 25.90933990478516 62.97113037109375 22.06338882446289 C 61.39928436279297 18.34711837768555 59.14841461181641 15.00894165039062 56.28104782104492 12.14158630371094 C 53.4136962890625 9.274223327636719 50.07551956176758 7.023353576660156 46.35924911499023 5.451503753662109 C 42.51329803466797 3.824813842773438 38.42613983154297 3 34.21131896972656 3 M 34.21131896972656 0 C 53.10570526123047 0 68.42263793945312 15.31692886352539 68.42263793945312 34.21131896972656 L 68.42263793945312 34.21171569824219 C 68.42263793945312 53.10610580444336 53.10570526123047 68.42303466796875 34.21131896972656 68.42303466796875 C 15.31692886352539 68.42303466796875 0 53.10610580444336 0 34.21171569824219 L 0 34.21131896972656 C 0 15.31692886352539 15.31692886352539 0 34.21131896972656 0 Z" stroke="none" fill="#fff"/>
          </g>
        </g>
        <g id="Path_874923" data-name="Path 874923" transform="translate(0 0)" fill="none">
          <path d="M34.211,0A34.211,34.211,0,0,1,68.423,34.211h0A34.211,34.211,0,0,1,0,34.212H0A34.211,34.211,0,0,1,34.211,0Z" stroke="none"/>
          <path d="M 34.21131896972656 3 C 29.99649429321289 3 25.90934371948242 3.824813842773438 22.06338882446289 5.451503753662109 C 18.34711837768555 7.023353576660156 15.00894165039062 9.274223327636719 12.1415901184082 12.14158630371094 C 9.274223327636719 15.00894165039062 7.023353576660156 18.34711837768555 5.451507568359375 22.06338882446289 C 3.824813842773438 25.90933990478516 3 29.99649429321289 3 34.21171569824219 C 3 38.42654037475586 3.824813842773438 42.51369476318359 5.451507568359375 46.35964584350586 C 7.023353576660156 50.07592010498047 9.274223327636719 53.41409301757812 12.1415901184082 56.28144836425781 C 15.00894165039062 59.14881134033203 18.34711837768555 61.39968109130859 22.06338882446289 62.97152709960938 C 25.90934371948242 64.59822082519531 29.99649429321289 65.42303466796875 34.21131896972656 65.42303466796875 C 38.42613983154297 65.42303466796875 42.51329803466797 64.59822082519531 46.35924911499023 62.97152709960938 C 50.07551956176758 61.39968109130859 53.4136962890625 59.14881134033203 56.28104782104492 56.28144836425781 C 59.14841461181641 53.41409301757812 61.39928436279297 50.07592010498047 62.97113037109375 46.35964584350586 C 64.59782409667969 42.51369476318359 65.42263793945312 38.42654037475586 65.42263793945312 34.21131896972656 C 65.42263793945312 29.99649429321289 64.59782409667969 25.90933990478516 62.97113037109375 22.06338882446289 C 61.39928436279297 18.34711837768555 59.14841461181641 15.00894165039062 56.28104782104492 12.14158630371094 C 53.4136962890625 9.274223327636719 50.07551956176758 7.023353576660156 46.35924911499023 5.451503753662109 C 42.51329803466797 3.824813842773438 38.42613983154297 3 34.21131896972656 3 M 34.21131896972656 0 C 53.10570526123047 0 68.42263793945312 15.31692886352539 68.42263793945312 34.21131896972656 L 68.42263793945312 34.21171569824219 C 68.42263793945312 53.10610580444336 53.10570526123047 68.42303466796875 34.21131896972656 68.42303466796875 C 15.31692886352539 68.42303466796875 0 53.10610580444336 0 34.21171569824219 L 0 34.21131896972656 C 0 15.31692886352539 15.31692886352539 0 34.21131896972656 0 Z" stroke="none" fill="#fff"/>
        </g>
      </g>
    </g>
    <g id="aerosol-de-limpieza" transform="translate(1058.745 1046.381)">
      <g id="Group_1198245" data-name="Group 1198245" transform="translate(105.473 2.823)">
        <path id="Path_1065479" data-name="Path 1065479" d="M214.232,31.55H201.32a1.435,1.435,0,1,0,0,2.869h1.887l-3.147,5.769a1.435,1.435,0,0,0,2.519,1.374l2.745-4.991-.294-1.119,1.406-.9a2.86,2.86,0,0,1,2.057,2.738v3.587h5.739V38.006a1.435,1.435,0,0,1,1.435-1.435h.717a1.435,1.435,0,0,0,1.435-1.435,3.587,3.587,0,0,0-3.587-3.587Z" transform="translate(-199.885 -31.55)" fill="#eceaec"/>
        <path id="Path_1065480" data-name="Path 1065480" d="M303.262,34.975l.009,1.326a1.469,1.469,0,0,1-1.074,1.4,3.593,3.593,0,0,0-2.318,2.213.689.689,0,0,1-.624.5h-3.173v3.587h5.738V41.124a1.435,1.435,0,0,1,1.435-1.435h.717a1.425,1.425,0,0,0,1.434-1.384A3.583,3.583,0,0,0,303.262,34.975Z" transform="translate(-287.474 -34.669)" fill="#dbd8db"/>
        <path id="Path_1065481" data-name="Path 1065481" d="M230.266,128.458v-7.3a1.435,1.435,0,0,0-1.435-1.435h-5.738a1.435,1.435,0,1,0,0,2.869,1.435,1.435,0,0,1,1.435,1.435v4.388a2.869,2.869,0,0,1-1.962,2.722l-2.722.907a5.738,5.738,0,0,0-3.924,5.444v12.362a4.3,4.3,0,0,0,4.3,4.3h8.608a4.3,4.3,0,0,0,4.3-4.3V135.385a4.9,4.9,0,0,0-1.435-3.463,4.9,4.9,0,0,1-1.435-3.464Z" transform="translate(-214.485 -111.837)" fill="#7ad7ee"/>
        <path id="Path_1065482" data-name="Path 1065482" d="M202.757,34.419h-1.435a1.435,1.435,0,1,1,0-2.869h1.435Z" transform="translate(-199.888 -31.55)" fill="#dbd8db"/>
        <path id="Path_1065483" data-name="Path 1065483" d="M260.3,360.211a4.3,4.3,0,0,1-4.3,4.3,4.3,4.3,0,0,1,4.3,4.3,4.3,4.3,0,0,1,4.3-4.3A4.3,4.3,0,0,1,260.3,360.211Z" transform="translate(-250.979 -330.801)" fill="#fff"/>
        <path id="Path_1065484" data-name="Path 1065484" d="M306.966,296.082a2.869,2.869,0,0,1-2.869,2.869,2.869,2.869,0,0,1,2.869,2.869,2.869,2.869,0,0,1,2.869-2.869A2.869,2.869,0,0,1,306.966,296.082Z" transform="translate(-294.772 -272.411)" fill="#fff"/>
        <path id="Path_1065485" data-name="Path 1065485" d="M236.174,128.458v-7.3a1.435,1.435,0,0,0-1.435-1.435h-.717v8.731a7,7,0,0,0,2.065,4.985,2.764,2.764,0,0,1,.8,1.942v14.47a2.154,2.154,0,0,1-2.152,2.152H222.408a4.3,4.3,0,0,0,3.723,2.152h8.608a4.3,4.3,0,0,0,4.3-4.3V135.385a4.9,4.9,0,0,0-1.435-3.463A4.9,4.9,0,0,1,236.174,128.458Z" transform="translate(-220.393 -111.837)" fill="#4bc3ef"/>
        <g id="Group_1198244" data-name="Group 1198244" transform="translate(2.148 2.869)">
          <path id="Path_1065486" data-name="Path 1065486" d="M223.891,65.766h3.292l1.112-2.021-3.23-.131Z" transform="translate(-223.891 -63.614)" fill="#dbd8db"/>
        </g>
      </g>
      <g id="Group_1198246" data-name="Group 1198246" transform="translate(96.194 0)">
        <path id="Path_1065487" data-name="Path 1065487" d="M210.749,44.331a4.2,4.2,0,0,1-1.238-2.989v-7.3a2.109,2.109,0,0,0-1.435-2v-.874a.764.764,0,0,1,.763-.763h.717a2.108,2.108,0,0,0,2.106-2.106,4.263,4.263,0,0,0-4.258-4.258H194.494a2.106,2.106,0,1,0,0,4.211h.756l-2.605,4.776a2.106,2.106,0,0,0,3.7,2.017l2.327-4.266a.671.671,0,1,0-1.178-.643l-2.327,4.266a.765.765,0,0,1-.672.4.752.752,0,0,1-.364-.093.765.765,0,0,1-.3-1.036l2.956-5.419H198.8a2.2,2.2,0,0,1,2.2,2.2v1.591a2.105,2.105,0,0,0,.671,4.1.764.764,0,0,1,.763.763V41.3a2.2,2.2,0,0,1-1.5,2.085l-2.722.907a6.4,6.4,0,0,0-4.383,6.081V62.739a4.981,4.981,0,0,0,4.975,4.975h8.608a4.981,4.981,0,0,0,4.975-4.975V48.269a5.532,5.532,0,0,0-1.631-3.938ZM193.73,26.156a.764.764,0,0,1,.764-.763h.763v1.527h-.763A.764.764,0,0,1,193.73,26.156Zm5.067.763h-2.2V25.392h10.806a2.919,2.919,0,0,1,2.915,2.915.764.764,0,0,1-.763.763h-.717a2.108,2.108,0,0,0-2.106,2.106v.763h-4.4V30.46a3.544,3.544,0,0,0-3.54-3.54Zm12.24,35.82a3.637,3.637,0,0,1-3.633,3.633H198.8a3.637,3.637,0,0,1-3.633-3.633V50.377a5.061,5.061,0,0,1,3.465-4.807l2.722-.907a3.534,3.534,0,0,0,1.787-1.337h1.4a.671.671,0,0,0,0-1.342h-.829a3.551,3.551,0,0,0,.066-.68v-.847h.763a.671.671,0,1,0,0-1.342h-.763V37.587h.763a.671.671,0,1,0,0-1.342h-.874a2.109,2.109,0,0,0-2-1.435.764.764,0,0,1,0-1.527h5.739a.764.764,0,0,1,.763.764v7.3A5.533,5.533,0,0,0,209.8,45.28a4.2,4.2,0,0,1,1.238,2.989V62.739Z" transform="translate(-183.78 -21.898)"/>
        <path id="Path_1065488" data-name="Path 1065488" d="M257.78,357.015a4.978,4.978,0,0,0-4.3,2.481,5.013,5.013,0,0,0-1.81-1.81,5.012,5.012,0,0,0,1.809-1.809q.123.211.267.411a.671.671,0,0,0,1.089-.785,3.606,3.606,0,0,1-.683-2.121.671.671,0,0,0-1.342,0,3.637,3.637,0,0,1-3.633,3.633.671.671,0,1,0,0,1.342,3.637,3.637,0,0,1,3.633,3.633.671.671,0,1,0,1.342,0,3.637,3.637,0,0,1,3.633-3.633.671.671,0,1,0,0-1.342Z" transform="translate(-234.872 -321.149)"/>
        <path id="Path_1065489" data-name="Path 1065489" d="M303.008,291.451a2.2,2.2,0,0,1-2.2-2.2.671.671,0,0,0-1.342,0,2.2,2.2,0,0,1-2.2,2.2.671.671,0,0,0,0,1.342,2.2,2.2,0,0,1,2.2,2.2.671.671,0,0,0,1.342,0,2.2,2.2,0,0,1,2.2-2.2.671.671,0,0,0,0-1.342Zm-2.869,1.469a3.57,3.57,0,0,0-.8-.8,3.571,3.571,0,0,0,.8-.8,3.57,3.57,0,0,0,.8.8A3.568,3.568,0,0,0,300.138,292.92Z" transform="translate(-278.665 -262.759)"/>
        <path id="Path_1065490" data-name="Path 1065490" d="M101.84,40.753a.671.671,0,0,0-.671-.671h-4.3a.671.671,0,0,0,0,1.342h4.3A.671.671,0,0,0,101.84,40.753Z" transform="translate(-96.194 -36.495)"/>
        <path id="Path_1065491" data-name="Path 1065491" d="M132.1,1.505,129.229.071a.671.671,0,0,0-.6,1.2L131.5,2.706a.671.671,0,1,0,.6-1.2Z" transform="translate(-125.388 0)"/>
        <path id="Path_1065492" data-name="Path 1065492" d="M131.5,64.2l-2.869,1.435a.671.671,0,1,0,.6,1.2L132.1,65.4a.671.671,0,0,0-.6-1.2Z" transform="translate(-125.388 -58.39)"/>
      </g>
    </g>
  </g>
</svg>
