<svg xmlns="http://www.w3.org/2000/svg" width="72" height="72" viewBox="0 0 72 72">
  <g id="Group_1182329" data-name="Group 1182329" transform="translate(-419 -1121)">
    <path id="Path_824488" data-name="Path 824488" d="M36,0A36,36,0,1,1,0,36,36,36,0,0,1,36,0Z" transform="translate(419 1121)" fill="#a8cf89"/>
    <g id="archivo-pdf_1_" data-name="archivo-pdf (1)" transform="translate(433.628 1133.47)">
      <g id="Group_1096603" data-name="Group 1096603" transform="translate(0.689 0.689)">
        <g id="Group_1096601" data-name="Group 1096601">
          <path id="Path_842680" data-name="Path 842680" d="M65.7,45.656H40.351A2.757,2.757,0,0,1,37.594,42.9V10.257A2.757,2.757,0,0,1,40.351,7.5H65.7a2.757,2.757,0,0,1,2.757,2.757V42.9A2.757,2.757,0,0,1,65.7,45.656Z" transform="translate(-34.828 -7.5)" fill="#f7f6f7"/>
          <path id="Path_842681" data-name="Path 842681" d="M316.163,7.5h-2.757a2.757,2.757,0,0,1,2.757,2.757V42.9a2.757,2.757,0,0,1-2.757,2.757h2.757a2.757,2.757,0,0,0,2.757-2.757V10.257A2.757,2.757,0,0,0,316.163,7.5Z" transform="translate(-285.289 -7.5)" fill="#e2d8ec"/>
          <path id="Path_842682" data-name="Path 842682" d="M41.14,230.258H10.257A2.757,2.757,0,0,1,7.5,227.5V205.257a2.757,2.757,0,0,1,2.757-2.757H23.708a2.39,2.39,0,0,1,2.318,1.81L26.5,206.2a2.39,2.39,0,0,0,2.318,1.81H41.14a2.757,2.757,0,0,1,2.757,2.757V227.5A2.757,2.757,0,0,1,41.14,230.258Z" transform="translate(-7.5 -184.577)" fill="#f7e07f"/>
          <g id="Group_1096600" data-name="Group 1096600" transform="translate(13.451 17.923)">
            <path id="Path_842683" data-name="Path 842683" d="M156.16,204.31l.474,1.895a2.39,2.39,0,0,0,2.318,1.81h2.757a2.39,2.39,0,0,1-2.318-1.81l-.474-1.895a2.39,2.39,0,0,0-2.318-1.81h-2.757A2.39,2.39,0,0,1,156.16,204.31Z" transform="translate(-153.842 -202.5)" fill="#f0d16f"/>
            <path id="Path_842684" data-name="Path 842684" d="M346.257,262.5H343.5a2.757,2.757,0,0,1,2.757,2.757v16.728a2.757,2.757,0,0,1-2.757,2.757h2.757a2.757,2.757,0,0,0,2.757-2.757V265.257A2.757,2.757,0,0,0,346.257,262.5Z" transform="translate(-326.068 -256.985)" fill="#f0d16f"/>
          </g>
          <path id="Path_842685" data-name="Path 842685" d="M109.588,56.636H89.009a.46.46,0,0,1-.46-.46V52.96a.46.46,0,0,1,.46-.46h20.58a.46.46,0,0,1,.46.46v3.217A.46.46,0,0,1,109.588,56.636Z" transform="translate(-81.1 -48.364)" fill="#e2dfe3"/>
        </g>
        <g id="Group_1096602" data-name="Group 1096602" transform="translate(28.45 28.45)">
          <g id="Group_1096602-2" data-name="Group 1096602" transform="translate(0 0.4)">
            <path id="Path_850923" data-name="Path 850923" d="M8.615,0A8.615,8.615,0,1,1,0,8.615,8.615,8.615,0,0,1,8.615,0Z" transform="translate(0 0)" fill="#79cd34"/>
            <path id="Path_842686" data-name="Path 842686" d="M397.146,317.033a8.685,8.685,0,0,0-1.379.11,8.616,8.616,0,0,1,0,17.01,8.616,8.616,0,1,0,1.379-17.12Z" transform="translate(-388.53 -317.033)" fill="#529918"/>
            <g id="Icon_feather-link-2" data-name="Icon feather-link-2" transform="translate(4.103 10.308) rotate(-45)">
              <path id="Path_1842" data-name="Path 1842" d="M5.584,0h1.2a1.994,1.994,0,1,1,0,3.988h-1.2m-2.393,0h-1.2A1.994,1.994,0,1,1,1.994,0h1.2" transform="translate(0 0)" fill="none" stroke="#000" stroke-linecap="round" stroke-linejoin="round" stroke-width="1"/>
              <path id="Path_1843" data-name="Path 1843" d="M0,0H3.191" transform="translate(2.792 1.994)" fill="none" stroke="#000" stroke-linecap="round" stroke-linejoin="round" stroke-width="1"/>
            </g>
          </g>
        </g>
      </g>
      <path id="Path_842688" data-name="Path 842688" d="M29.638,12.408H8.139a.689.689,0,0,0,0,1.379h21.5a.689.689,0,0,0,0-1.379Zm-.46-8.272H24.617a.689.689,0,1,0,0,1.379h4.331V8.272H8.828V5.515H21.4a.689.689,0,0,0,0-1.379H8.6A1.15,1.15,0,0,0,7.449,5.285V8.5A1.15,1.15,0,0,0,8.6,9.651h20.58A1.15,1.15,0,0,0,30.327,8.5V5.285a1.15,1.15,0,0,0-1.149-1.149Zm.46,11.03H8.139a.689.689,0,0,0,0,1.379h21.5a.689.689,0,0,0,0-1.379Zm0,5.515H21.926a.689.689,0,0,0,0,1.379h7.712a.689.689,0,0,0,0-1.379Zm0-2.757H21.926a.689.689,0,0,0,0,1.379h7.712a.689.689,0,0,0,0-1.379Zm8.139,10.527V26.885a3.452,3.452,0,0,0-2.766-3.379V3.447A3.451,3.451,0,0,0,31.564,0H6.212A3.451,3.451,0,0,0,2.766,3.447V17.991A3.452,3.452,0,0,0,0,21.37v9.781a.689.689,0,1,0,1.379,0V21.37A2.07,2.07,0,0,1,3.447,19.3H16.9a1.7,1.7,0,0,1,1.65,1.287l.473,1.9a3.074,3.074,0,0,0,2.987,2.332H34.33A2.07,2.07,0,0,1,36.4,26.885V28.55a9.3,9.3,0,0,0-3.512,17.131H3.447a2.07,2.07,0,0,1-2.068-2.068V34.368a.689.689,0,1,0-1.379,0v9.245A3.451,3.451,0,0,0,3.447,47.06H34.33a3.4,3.4,0,0,0,1.284-.249,9.3,9.3,0,1,0,2.162-18.36Zm-4.144-5.013H22.008a1.7,1.7,0,0,1-1.649-1.287l-.474-1.9A3.076,3.076,0,0,0,16.9,17.923H4.144V3.447A2.07,2.07,0,0,1,6.212,1.379H31.564a2.07,2.07,0,0,1,2.068,2.068Zm4.123,22.243a7.926,7.926,0,1,1,7.926-7.926A7.935,7.935,0,0,1,37.755,45.681Z" transform="translate(0)"/>
    </g>
  </g>
</svg>
