<svg xmlns="http://www.w3.org/2000/svg" xmlns:xlink="http://www.w3.org/1999/xlink" width="86.423" height="86.423" viewBox="0 0 86.423 86.423">
  <defs>
    <filter id="Path_874925" x="0" y="0" width="86.423" height="86.423" filterUnits="userSpaceOnUse">
      <feOffset dy="3" input="SourceAlpha"/>
      <feGaussianBlur stdDeviation="3" result="blur"/>
      <feFlood flood-opacity="0.161"/>
      <feComposite operator="in" in2="blur"/>
      <feComposite in="SourceGraphic"/>
    </filter>
  </defs>
  <g id="Group_1198241" data-name="Group 1198241" transform="translate(-1127.525 -1027.934)">
    <g id="Group_1109835" data-name="Group 1109835" transform="translate(1136.525 1033.934)">
      <g id="Group_1107913" data-name="Group 1107913" transform="translate(0 0)">
        <g transform="matrix(1, 0, 0, 1, -9, -6)" filter="url(#Path_874925)">
          <g id="Path_874925-2" data-name="Path 874925" transform="translate(9 6)" fill="#a8cf89">
            <path d="M 34.21131896972656 66.92303466796875 C 29.79465866088867 66.92303466796875 25.51090812683105 66.05836486816406 21.47905921936035 64.35303497314453 C 17.58399963378906 62.70556640625 14.08555889129639 60.34674835205078 11.08091926574707 57.34211730957031 C 8.076289176940918 54.33747863769531 5.717468738555908 50.83903884887695 4.069998741149902 46.94397735595703 C 2.36466908454895 42.91212844848633 1.499998927116394 38.62837600708008 1.499998927116394 34.21171569824219 C 1.499998927116394 29.79465675354004 2.36466908454895 25.51090812683105 4.069998741149902 21.47905731201172 C 5.717468738555908 17.58399772644043 8.076289176940918 14.08555698394775 11.08091926574707 11.08091735839844 C 14.08555889129639 8.076287269592285 17.58399963378906 5.717467308044434 21.47905921936035 4.069997310638428 C 25.51090812683105 2.364667415618896 29.79465866088867 1.49999737739563 34.21131896972656 1.49999737739563 C 38.62797927856445 1.49999737739563 42.91172790527344 2.364667415618896 46.94358062744141 4.069997310638428 C 50.83863830566406 5.717467308044434 54.33707809448242 8.076287269592285 57.34172058105469 11.08091735839844 C 60.34634780883789 14.08555698394775 62.70516967773438 17.58399772644043 64.35263824462891 21.47905731201172 C 66.05796813964844 25.51090812683105 66.92263793945312 29.79465675354004 66.92263793945312 34.21131896972656 C 66.92263793945312 38.62837600708008 66.05796813964844 42.91212844848633 64.35263824462891 46.94397735595703 C 62.70516967773438 50.83903884887695 60.34634780883789 54.33747863769531 57.34172058105469 57.34211730957031 C 54.33707809448242 60.34674835205078 50.83863830566406 62.70556640625 46.94358062744141 64.35303497314453 C 42.91172790527344 66.05836486816406 38.62797927856445 66.92303466796875 34.21131896972656 66.92303466796875 Z" stroke="none"/>
            <path d="M 34.21131896972656 3 C 29.99649429321289 3 25.90934371948242 3.824813842773438 22.06338882446289 5.451503753662109 C 18.34711837768555 7.023353576660156 15.00894165039062 9.274223327636719 12.1415901184082 12.14158630371094 C 9.274223327636719 15.00894165039062 7.023353576660156 18.34711837768555 5.451507568359375 22.06338882446289 C 3.824813842773438 25.90933990478516 3 29.99649429321289 3 34.21171569824219 C 3 38.42654037475586 3.824813842773438 42.51369476318359 5.451507568359375 46.35964584350586 C 7.023353576660156 50.07592010498047 9.274223327636719 53.41409301757812 12.1415901184082 56.28144836425781 C 15.00894165039062 59.14881134033203 18.34711837768555 61.39968109130859 22.06338882446289 62.97152709960938 C 25.90934371948242 64.59822082519531 29.99649429321289 65.42303466796875 34.21131896972656 65.42303466796875 C 38.42613983154297 65.42303466796875 42.51329803466797 64.59822082519531 46.35924911499023 62.97152709960938 C 50.07551956176758 61.39968109130859 53.4136962890625 59.14881134033203 56.28104782104492 56.28144836425781 C 59.14841461181641 53.41409301757812 61.39928436279297 50.07592010498047 62.97113037109375 46.35964584350586 C 64.59782409667969 42.51369476318359 65.42263793945312 38.42654037475586 65.42263793945312 34.21131896972656 C 65.42263793945312 29.99649429321289 64.59782409667969 25.90933990478516 62.97113037109375 22.06338882446289 C 61.39928436279297 18.34711837768555 59.14841461181641 15.00894165039062 56.28104782104492 12.14158630371094 C 53.4136962890625 9.274223327636719 50.07551956176758 7.023353576660156 46.35924911499023 5.451503753662109 C 42.51329803466797 3.824813842773438 38.42613983154297 3 34.21131896972656 3 M 34.21131896972656 0 C 53.10570526123047 0 68.42263793945312 15.31692886352539 68.42263793945312 34.21131896972656 L 68.42263793945312 34.21171569824219 C 68.42263793945312 53.10610580444336 53.10570526123047 68.42303466796875 34.21131896972656 68.42303466796875 C 15.31692886352539 68.42303466796875 0 53.10610580444336 0 34.21171569824219 L 0 34.21131896972656 C 0 15.31692886352539 15.31692886352539 0 34.21131896972656 0 Z" stroke="none" fill="#fff"/>
          </g>
        </g>
        <g id="Path_874923" data-name="Path 874923" transform="translate(0 0)" fill="none">
          <path d="M34.211,0A34.211,34.211,0,0,1,68.423,34.211h0A34.211,34.211,0,0,1,0,34.212H0A34.211,34.211,0,0,1,34.211,0Z" stroke="none"/>
          <path d="M 34.21131896972656 3 C 29.99649429321289 3 25.90934371948242 3.824813842773438 22.06338882446289 5.451503753662109 C 18.34711837768555 7.023353576660156 15.00894165039062 9.274223327636719 12.1415901184082 12.14158630371094 C 9.274223327636719 15.00894165039062 7.023353576660156 18.34711837768555 5.451507568359375 22.06338882446289 C 3.824813842773438 25.90933990478516 3 29.99649429321289 3 34.21171569824219 C 3 38.42654037475586 3.824813842773438 42.51369476318359 5.451507568359375 46.35964584350586 C 7.023353576660156 50.07592010498047 9.274223327636719 53.41409301757812 12.1415901184082 56.28144836425781 C 15.00894165039062 59.14881134033203 18.34711837768555 61.39968109130859 22.06338882446289 62.97152709960938 C 25.90934371948242 64.59822082519531 29.99649429321289 65.42303466796875 34.21131896972656 65.42303466796875 C 38.42613983154297 65.42303466796875 42.51329803466797 64.59822082519531 46.35924911499023 62.97152709960938 C 50.07551956176758 61.39968109130859 53.4136962890625 59.14881134033203 56.28104782104492 56.28144836425781 C 59.14841461181641 53.41409301757812 61.39928436279297 50.07592010498047 62.97113037109375 46.35964584350586 C 64.59782409667969 42.51369476318359 65.42263793945312 38.42654037475586 65.42263793945312 34.21131896972656 C 65.42263793945312 29.99649429321289 64.59782409667969 25.90933990478516 62.97113037109375 22.06338882446289 C 61.39928436279297 18.34711837768555 59.14841461181641 15.00894165039062 56.28104782104492 12.14158630371094 C 53.4136962890625 9.274223327636719 50.07551956176758 7.023353576660156 46.35924911499023 5.451503753662109 C 42.51329803466797 3.824813842773438 38.42613983154297 3 34.21131896972656 3 M 34.21131896972656 0 C 53.10570526123047 0 68.42263793945312 15.31692886352539 68.42263793945312 34.21131896972656 L 68.42263793945312 34.21171569824219 C 68.42263793945312 53.10610580444336 53.10570526123047 68.42303466796875 34.21131896972656 68.42303466796875 C 15.31692886352539 68.42303466796875 0 53.10610580444336 0 34.21171569824219 L 0 34.21131896972656 C 0 15.31692886352539 15.31692886352539 0 34.21131896972656 0 Z" stroke="none" fill="#fff"/>
        </g>
      </g>
    </g>
    <g id="Insecticide" transform="translate(1150.685 1048.095)">
      <g id="Filled" transform="translate(0.627 0.627)">
        <rect id="Rectangle_415036" data-name="Rectangle 415036" width="26" height="30" rx="13" transform="translate(12.374 8.374)" fill="#81c784"/>
        <path id="Path_1065557" data-name="Path 1065557" d="M296,72h6.266v3.759H296Z" transform="translate(-273.443 -66.987)" fill="#66bb6a"/>
        <path id="Path_1065558" data-name="Path 1065558" d="M0,0H10.025V3.759H0Z" transform="translate(3.759 5.013) rotate(90)" fill="#d9d1cc"/>
        <path id="Path_1065559" data-name="Path 1065559" d="M22.266,60.386V86.7a1.88,1.88,0,0,1-3.759,0V67.278H16V86.7a4.386,4.386,0,1,0,8.772,0V61.013a2.506,2.506,0,0,1,2.506-2.506h.627a2.506,2.506,0,0,1,2.506,2.506h2.506A5.013,5.013,0,0,0,27.905,56H26.652A4.386,4.386,0,0,0,22.266,60.386Z" transform="translate(-15.373 -52.241)" fill="#e2dbd5"/>
        <path id="Path_1065560" data-name="Path 1065560" d="M320,8h2.506v5.013H320Z" transform="translate(-295.563 -8)" fill="#49ad4d"/>
        <path id="Path_1065561" data-name="Path 1065561" d="M1.253,0H5.013V2.506H1.253A1.253,1.253,0,1,1,1.253,0Z" transform="translate(3.133) rotate(90)" fill="#e2dbd5"/>
        <path id="Path_1065562" data-name="Path 1065562" d="M329.438,75.759V72h-1.4a6.177,6.177,0,0,1-2.555,3.759Z" transform="translate(-300.615 -66.987)" fill="#49ad4d"/>
        <path id="Path_1065563" data-name="Path 1065563" d="M168,154.1v2.818a2.506,2.506,0,0,0,2.506,2.506h21.3a2.506,2.506,0,0,0,2.506-2.506V131.855a2.5,2.5,0,0,0-.677-1.712A30.729,30.729,0,0,1,168,154.1Z" transform="translate(-155.468 -120.576)" fill="#66bb6a"/>
        <path id="Path_1065564" data-name="Path 1065564" d="M11.759,146.594A6.9,6.9,0,0,1,8,149.264v1.513h3.759Z" transform="translate(-8 -135.739)" fill="#c4bcb7"/>
        <path id="Path_1065565" data-name="Path 1065565" d="M24.772,350.855a16.361,16.361,0,0,1-2.506,3.072v4.537a1.88,1.88,0,0,1-3.759,0v-1.838A16.182,16.182,0,0,1,16,357.675v.788a4.386,4.386,0,0,0,8.772,0Z" transform="translate(-15.373 -324.002)" fill="#d9d1cc"/>
        <circle id="Ellipse_12309" data-name="Ellipse 12309" cx="1.5" cy="1.5" r="1.5" transform="translate(20.374 9.374)" fill="#c8e6c9"/>
        <circle id="Ellipse_12310" data-name="Ellipse 12310" cx="0.5" cy="0.5" r="0.5" transform="translate(24.374 10.374)" fill="#c8e6c9"/>
        <circle id="Ellipse_12311" data-name="Ellipse 12311" cx="1.253" cy="1.253" r="1.253" transform="translate(0.627 5.304)" fill="#efebe8"/>
        <ellipse id="Ellipse_12312" data-name="Ellipse 12312" cx="0.5" cy="1" rx="0.5" ry="1" transform="translate(1.374 8.374)" fill="#efebe8"/>
        <circle id="Ellipse_12313" data-name="Ellipse 12313" cx="10.5" cy="10.5" r="10.5" transform="translate(15.374 13.374)" fill="#ea6049"/>
        <path id="Path_1065566" data-name="Path 1065566" d="M1.253,0H6.266A1.253,1.253,0,0,1,7.519,1.253V5.013A3.759,3.759,0,1,1,0,5.013V1.253A1.253,1.253,0,0,1,1.253,0Z" transform="translate(21.008 24.867) rotate(-45)" fill="#e2dbd5"/>
        <path id="Path_1065567" data-name="Path 1065567" d="M1.88,0a1.88,1.88,0,0,1,1.88,1.88v1.88H0V1.88A1.88,1.88,0,0,1,1.88,0Z" transform="translate(19.679 20.879) rotate(-45)" fill="#e2dbd5"/>
        <path id="Path_1065568" data-name="Path 1065568" d="M285.368,253.093c0,.075.006.151.006.228a4.376,4.376,0,0,1-1.583,3.372l.741.741,2.659-2.658-1.329-1.329A1.875,1.875,0,0,0,285.368,253.093Z" transform="translate(-262.191 -233.897)" fill="#d9d1cc"/>
        <path id="Path_1065569" data-name="Path 1065569" d="M327.873,289.463l-1.139-1.139a9.4,9.4,0,0,1-4.091,6.538,3.759,3.759,0,0,0,5.23-5.4Z" transform="translate(-297.999 -266.368)" fill="#d9d1cc"/>
        <g id="Group_1198275" data-name="Group 1198275" transform="translate(20.677 20.051)">
          <ellipse id="Ellipse_12314" data-name="Ellipse 12314" cx="0.5" cy="1" rx="0.5" ry="1" transform="translate(1.696 3.323)" fill="#efebe8"/>
          <ellipse id="Ellipse_12315" data-name="Ellipse 12315" cx="1" cy="0.5" rx="1" ry="0.5" transform="translate(-0.304 0.323)" fill="#efebe8"/>
        </g>
      </g>
      <g id="Outline">
        <path id="Path_1065570" data-name="Path 1065570" d="M118.076,8.772h-6.892V5.639a.627.627,0,0,0-.627-.627H109.3V1.253h2.506a.627.627,0,0,0,0-1.253h-8.772a.627.627,0,0,0,0,1.253h2.506V5.013h-1.253a.627.627,0,0,0-.627.627V8.772h-3.8a5.647,5.647,0,0,0-5.6-5.013H93.013A5.018,5.018,0,0,0,88,8.772v1.88a.627.627,0,0,0,1.253,0V8.772a3.764,3.764,0,0,1,3.759-3.759h1.253a4.392,4.392,0,0,1,4.341,3.759H96.772a3.136,3.136,0,0,0-3.133,3.133V36.968A3.136,3.136,0,0,0,96.772,40.1h21.3a3.136,3.136,0,0,0,3.133-3.133V26.316a.627.627,0,1,0-1.253,0V36.968a1.882,1.882,0,0,1-1.88,1.88h-21.3a1.882,1.882,0,0,1-1.88-1.88V11.905a1.882,1.882,0,0,1,1.88-1.88h21.3a1.882,1.882,0,0,1,1.88,1.88v9.4a.627.627,0,0,0,1.253,0v-9.4A3.136,3.136,0,0,0,118.076,8.772ZM106.8,1.253h1.253V5.013H106.8Zm3.133,7.519h-5.013V6.266h5.013Z" transform="translate(-81.108)"/>
        <path id="Path_1065571" data-name="Path 1065571" d="M20.532,81.253a.627.627,0,1,0,0-1.253h-.627a3.136,3.136,0,0,0-3.133,3.133v25.69a3.759,3.759,0,0,1-7.519,0V97.544a.627.627,0,0,0-1.253,0v11.278a5.013,5.013,0,0,0,10.025,0V83.133a1.882,1.882,0,0,1,1.88-1.88Z" transform="translate(-7.373 -73.734)"/>
        <path id="Path_1065572" data-name="Path 1065572" d="M211.995,172.123a.623.623,0,0,0-.226-.266,11.273,11.273,0,1,0-15.906,15.906.623.623,0,0,0,.266.226,11.273,11.273,0,0,0,15.866-15.866Zm-18.742,7.149a10.036,10.036,0,0,1,17.292-6.9l-4.19,4.19-.665-.665.886-.886c.44-.44-.031-.95-.292-1.97a.627.627,0,1,0-1.189.4l.321.962-.69.69a1.882,1.882,0,0,0-2.138.365c-.639-.533-1.135-1.5-2.444-1.609v-1.358a.627.627,0,0,0-1.253,0v1.573a2.494,2.494,0,0,0-1,.826h-1.5a.627.627,0,1,0,0,1.253h1.048c-.129,1.613,1.163,2.283,1.61,2.86a1.88,1.88,0,0,0-.368,2.14l-.688.688-.962-.321a.627.627,0,1,0-.4,1.189l1.329.443c.584.195.839-.45,1.527-1.037l.665.665-3.773,3.773A10,10,0,0,1,193.253,179.272Zm6.677.614.443-.443,3.1-3.1a.627.627,0,0,1,.886,0l1.108,1.108-4.431,4.431c-.974-1.043-1.291-1.119-1.291-1.551A.622.622,0,0,1,199.931,179.886Zm-1.253-3.544a1.255,1.255,0,0,1,2.139-.886l.886.886-1.772,1.772C199.307,177.4,198.677,177.132,198.677,176.341Zm7.677,1.994a3.943,3.943,0,0,1,1.582,2.88,3.133,3.133,0,0,1-5.348,2.215l-.665-.665Zm-9.011,9.011,3.7-3.695a11.3,11.3,0,0,0,1.14,1.075c-.619.722-1.265.974-1.07,1.56l.443,1.329a.627.627,0,1,0,1.189-.4l-.321-.962.912-.912a4.385,4.385,0,0,0,5.6-5.6l.912-.912.962.321a.627.627,0,1,0,.4-1.189c-1.019-.26-1.53-.732-1.97-.292l-.918.918a11.322,11.322,0,0,0-1.075-1.14l4.112-4.112a10.02,10.02,0,0,1-14.01,14.01Z" transform="translate(-176.962 -154.836)"/>
        <circle id="Ellipse_12316" data-name="Ellipse 12316" cx="0.5" cy="0.5" r="0.5" transform="translate(7 13)"/>
        <circle id="Ellipse_12317" data-name="Ellipse 12317" cx="0.5" cy="0.5" r="0.5" transform="translate(1 21)"/>
        <ellipse id="Ellipse_12318" data-name="Ellipse 12318" cx="1" cy="0.5" rx="1" ry="0.5" transform="translate(36 12)"/>
        <circle id="Ellipse_12319" data-name="Ellipse 12319" cx="0.5" cy="0.5" r="0.5" transform="translate(39 23)"/>
        <circle id="Ellipse_12320" data-name="Ellipse 12320" cx="0.5" cy="0.5" r="0.5" transform="translate(15 36)"/>
        <ellipse id="Ellipse_12321" data-name="Ellipse 12321" cx="1" cy="0.5" rx="1" ry="0.5" transform="translate(36 36)"/>
        <path id="Path_1065573" data-name="Path 1065573" d="M.627,18.8a.627.627,0,1,0,1.253,0V16.291H3.133v18.8a2.506,2.506,0,1,0,5.013,0V15.664a.627.627,0,1,0-1.253,0V35.088a1.253,1.253,0,0,1-2.506,0v-18.8a.627.627,0,0,0,.627-.627V5.639a.627.627,0,0,0-.627-.627V1.88a1.88,1.88,0,1,0-3.759,0V5.013A.627.627,0,0,0,0,5.639V15.664a.627.627,0,0,0,.627.627ZM1.88,1.88a.627.627,0,1,1,1.253,0V5.013H1.88ZM1.253,6.266H3.759v8.772H1.253Z"/>
      </g>
    </g>
  </g>
</svg>
