<svg xmlns="http://www.w3.org/2000/svg" xmlns:xlink="http://www.w3.org/1999/xlink" width="86.423" height="86.423" viewBox="0 0 86.423 86.423">
  <defs>
    <filter id="Path_874925" x="0" y="0" width="86.423" height="86.423" filterUnits="userSpaceOnUse">
      <feOffset dy="3" input="SourceAlpha"/>
      <feGaussianBlur stdDeviation="3" result="blur"/>
      <feFlood flood-opacity="0.161"/>
      <feComposite operator="in" in2="blur"/>
      <feComposite in="SourceGraphic"/>
    </filter>
  </defs>
  <g id="Group_1198243" data-name="Group 1198243" transform="translate(-1127.525 -1027.934)">
    <g id="Group_1109835" data-name="Group 1109835" transform="translate(1136.525 1033.934)">
      <g id="Group_1107913" data-name="Group 1107913" transform="translate(0 0)">
        <g transform="matrix(1, 0, 0, 1, -9, -6)" filter="url(#Path_874925)">
          <g id="Path_874925-2" data-name="Path 874925" transform="translate(9 6)" fill="#a8cf89">
            <path d="M 34.21131896972656 66.92303466796875 C 29.79465866088867 66.92303466796875 25.51090812683105 66.05836486816406 21.47905921936035 64.35303497314453 C 17.58399963378906 62.70556640625 14.08555889129639 60.34674835205078 11.08091926574707 57.34211730957031 C 8.076289176940918 54.33747863769531 5.717468738555908 50.83903884887695 4.069998741149902 46.94397735595703 C 2.36466908454895 42.91212844848633 1.499998927116394 38.62837600708008 1.499998927116394 34.21171569824219 C 1.499998927116394 29.79465675354004 2.36466908454895 25.51090812683105 4.069998741149902 21.47905731201172 C 5.717468738555908 17.58399772644043 8.076289176940918 14.08555698394775 11.08091926574707 11.08091735839844 C 14.08555889129639 8.076287269592285 17.58399963378906 5.717467308044434 21.47905921936035 4.069997310638428 C 25.51090812683105 2.364667415618896 29.79465866088867 1.49999737739563 34.21131896972656 1.49999737739563 C 38.62797927856445 1.49999737739563 42.91172790527344 2.364667415618896 46.94358062744141 4.069997310638428 C 50.83863830566406 5.717467308044434 54.33707809448242 8.076287269592285 57.34172058105469 11.08091735839844 C 60.34634780883789 14.08555698394775 62.70516967773438 17.58399772644043 64.35263824462891 21.47905731201172 C 66.05796813964844 25.51090812683105 66.92263793945312 29.79465675354004 66.92263793945312 34.21131896972656 C 66.92263793945312 38.62837600708008 66.05796813964844 42.91212844848633 64.35263824462891 46.94397735595703 C 62.70516967773438 50.83903884887695 60.34634780883789 54.33747863769531 57.34172058105469 57.34211730957031 C 54.33707809448242 60.34674835205078 50.83863830566406 62.70556640625 46.94358062744141 64.35303497314453 C 42.91172790527344 66.05836486816406 38.62797927856445 66.92303466796875 34.21131896972656 66.92303466796875 Z" stroke="none"/>
            <path d="M 34.21131896972656 3 C 29.99649429321289 3 25.90934371948242 3.824813842773438 22.06338882446289 5.451503753662109 C 18.34711837768555 7.023353576660156 15.00894165039062 9.274223327636719 12.1415901184082 12.14158630371094 C 9.274223327636719 15.00894165039062 7.023353576660156 18.34711837768555 5.451507568359375 22.06338882446289 C 3.824813842773438 25.90933990478516 3 29.99649429321289 3 34.21171569824219 C 3 38.42654037475586 3.824813842773438 42.51369476318359 5.451507568359375 46.35964584350586 C 7.023353576660156 50.07592010498047 9.274223327636719 53.41409301757812 12.1415901184082 56.28144836425781 C 15.00894165039062 59.14881134033203 18.34711837768555 61.39968109130859 22.06338882446289 62.97152709960938 C 25.90934371948242 64.59822082519531 29.99649429321289 65.42303466796875 34.21131896972656 65.42303466796875 C 38.42613983154297 65.42303466796875 42.51329803466797 64.59822082519531 46.35924911499023 62.97152709960938 C 50.07551956176758 61.39968109130859 53.4136962890625 59.14881134033203 56.28104782104492 56.28144836425781 C 59.14841461181641 53.41409301757812 61.39928436279297 50.07592010498047 62.97113037109375 46.35964584350586 C 64.59782409667969 42.51369476318359 65.42263793945312 38.42654037475586 65.42263793945312 34.21131896972656 C 65.42263793945312 29.99649429321289 64.59782409667969 25.90933990478516 62.97113037109375 22.06338882446289 C 61.39928436279297 18.34711837768555 59.14841461181641 15.00894165039062 56.28104782104492 12.14158630371094 C 53.4136962890625 9.274223327636719 50.07551956176758 7.023353576660156 46.35924911499023 5.451503753662109 C 42.51329803466797 3.824813842773438 38.42613983154297 3 34.21131896972656 3 M 34.21131896972656 0 C 53.10570526123047 0 68.42263793945312 15.31692886352539 68.42263793945312 34.21131896972656 L 68.42263793945312 34.21171569824219 C 68.42263793945312 53.10610580444336 53.10570526123047 68.42303466796875 34.21131896972656 68.42303466796875 C 15.31692886352539 68.42303466796875 0 53.10610580444336 0 34.21171569824219 L 0 34.21131896972656 C 0 15.31692886352539 15.31692886352539 0 34.21131896972656 0 Z" stroke="none" fill="#fff"/>
          </g>
        </g>
        <g id="Path_874923" data-name="Path 874923" transform="translate(0 0)" fill="none">
          <path d="M34.211,0A34.211,34.211,0,0,1,68.423,34.211h0A34.211,34.211,0,0,1,0,34.212H0A34.211,34.211,0,0,1,34.211,0Z" stroke="none"/>
          <path d="M 34.21131896972656 3 C 29.99649429321289 3 25.90934371948242 3.824813842773438 22.06338882446289 5.451503753662109 C 18.34711837768555 7.023353576660156 15.00894165039062 9.274223327636719 12.1415901184082 12.14158630371094 C 9.274223327636719 15.00894165039062 7.023353576660156 18.34711837768555 5.451507568359375 22.06338882446289 C 3.824813842773438 25.90933990478516 3 29.99649429321289 3 34.21171569824219 C 3 38.42654037475586 3.824813842773438 42.51369476318359 5.451507568359375 46.35964584350586 C 7.023353576660156 50.07592010498047 9.274223327636719 53.41409301757812 12.1415901184082 56.28144836425781 C 15.00894165039062 59.14881134033203 18.34711837768555 61.39968109130859 22.06338882446289 62.97152709960938 C 25.90934371948242 64.59822082519531 29.99649429321289 65.42303466796875 34.21131896972656 65.42303466796875 C 38.42613983154297 65.42303466796875 42.51329803466797 64.59822082519531 46.35924911499023 62.97152709960938 C 50.07551956176758 61.39968109130859 53.4136962890625 59.14881134033203 56.28104782104492 56.28144836425781 C 59.14841461181641 53.41409301757812 61.39928436279297 50.07592010498047 62.97113037109375 46.35964584350586 C 64.59782409667969 42.51369476318359 65.42263793945312 38.42654037475586 65.42263793945312 34.21131896972656 C 65.42263793945312 29.99649429321289 64.59782409667969 25.90933990478516 62.97113037109375 22.06338882446289 C 61.39928436279297 18.34711837768555 59.14841461181641 15.00894165039062 56.28104782104492 12.14158630371094 C 53.4136962890625 9.274223327636719 50.07551956176758 7.023353576660156 46.35924911499023 5.451503753662109 C 42.51329803466797 3.824813842773438 38.42613983154297 3 34.21131896972656 3 M 34.21131896972656 0 C 53.10570526123047 0 68.42263793945312 15.31692886352539 68.42263793945312 34.21131896972656 L 68.42263793945312 34.21171569824219 C 68.42263793945312 53.10610580444336 53.10570526123047 68.42303466796875 34.21131896972656 68.42303466796875 C 15.31692886352539 68.42303466796875 0 53.10610580444336 0 34.21171569824219 L 0 34.21131896972656 C 0 15.31692886352539 15.31692886352539 0 34.21131896972656 0 Z" stroke="none" fill="#fff"/>
        </g>
      </g>
    </g>
    <g id="planta" transform="translate(1148.507 1045.804)">
      <g id="Group_1198276" data-name="Group 1198276" transform="translate(8.299 4.491)">
        <path id="Path_1065585" data-name="Path 1065585" d="M98.594,71.926a7.594,7.594,0,1,0,12.346-8.806q-.068-.1-.138-.188c-4.633-6.248-14.809-7.71-14.809-7.71s-1.929,10.1,2.468,16.511Q98.526,71.831,98.594,71.926Z" transform="translate(-95.572 -54.806)" fill="#a0e557"/>
        <path id="Path_1065586" data-name="Path 1065586" d="M234.521,67.491a7.762,7.762,0,1,1-12.619-9q.069-.1.141-.192c4.736-6.386,15.137-7.881,15.137-7.881s1.972,10.319-2.523,16.877C234.613,67.36,234.568,67.425,234.521,67.491Z" transform="translate(-209.477 -50.417)" fill="#a0e557"/>
      </g>
      <g id="Group_1198277" data-name="Group 1198277" transform="translate(0.869 17.522)">
        <path id="Path_1065587" data-name="Path 1065587" d="M258,216.667c-4.087-1.133-6.412-5.615-5.194-10.01s5.52-7.038,9.607-5.905q.108.03.214.063c7.134,2.141,11.521,11.761,11.521,11.761s-8.714,5.984-15.932,4.147C258.14,216.706,258.068,216.687,258,216.667Z" transform="translate(-231.424 -200.49)" fill="#62cd4d"/>
        <path id="Path_1065588" data-name="Path 1065588" d="M26.153,216.667c4.087-1.133,6.412-5.615,5.194-10.01s-5.52-7.038-9.607-5.905q-.108.03-.214.063C14.391,202.957,10,212.576,10,212.576s8.714,5.984,15.932,4.147C26.008,216.706,26.08,216.687,26.153,216.667Z" transform="translate(-10.004 -200.49)" fill="#62cd4d"/>
      </g>
      <path id="Path_1065589" data-name="Path 1065589" d="M170.239,24.964a7.459,7.459,0,1,0,14.894,0c0-.077,0-.153,0-.229-.142-7.638-7.444-9.924-7.444-14.611,0,4.687-7.3,6.972-7.444,14.61C170.24,24.81,170.239,24.887,170.239,24.964Z" transform="translate(-155.457 -9.132)" fill="#ef3c3c"/>
      <path id="Path_1065590" data-name="Path 1065590" d="M185.147,278.6a7.474,7.474,0,0,0-14.908-.068c0,.067,0,.134,0,.2.111,6.723,7.452,12.892,7.452,12.892s7.276-6.1,7.45-12.824C185.145,278.734,185.147,278.667,185.147,278.6Z" transform="translate(-155.457 -247.934)" fill="#a0e557"/>
      <path id="Path_1065591" data-name="Path 1065591" d="M21.612,167a7.459,7.459,0,1,0,5.094-14c-.072-.026-.144-.051-.216-.075-7.226-2.479-11.872,3.6-16.276,2,4.4,1.6,4.055,9.245,11.183,11.992Q21.5,166.963,21.612,167Z" transform="translate(-9.327 -138.989)" fill="#ff5d5d"/>
      <path id="Path_1065592" data-name="Path 1065592" d="M91.682,255.445a7.459,7.459,0,1,1,11.41,9.574q-.074.088-.15.173c-5.018,5.76-12.081,2.818-15.094,6.408,3.012-3.59-1.111-10.034,3.689-15.977Q91.608,255.534,91.682,255.445Z" transform="translate(-80.22 -230.49)" fill="#fe8f8d"/>
      <path id="Path_1065593" data-name="Path 1065593" d="M229.048,271.719l0-.014,0,0a7.672,7.672,0,0,0-.642,10.821q.074.088.15.173c5.018,5.76,12.081,2.818,15.094,6.408-2.7-3.223.342-8.747-2.482-14.144Z" transform="translate(-206.809 -248)" fill="#ff5d5d"/>
      <path id="Path_1065594" data-name="Path 1065594" d="M261.562,167.115a7.459,7.459,0,1,1-5.094-14c.072-.026.144-.051.216-.075,7.226-2.479,11.872,3.6,16.276,2-4.4,1.6-4.055,9.245-11.183,11.992C261.705,167.061,261.634,167.088,261.562,167.115Z" transform="translate(-229.374 -139.092)" fill="#fe8f8d"/>
      <path id="Path_1065595" data-name="Path 1065595" d="M44.379,29.247a31.907,31.907,0,0,0-4.709-7.122c.2-.356.387-.705.57-1.045,1.076-2,2.006-3.72,3.642-4.315a.868.868,0,0,0-.594-1.632c-1.635.6-3.456-.128-5.563-.965-.231-.092-.467-.185-.707-.279a32.365,32.365,0,0,0-.163-9.562.868.868,0,0,0-.976-.7A32.3,32.3,0,0,0,26.6,6.681c-.234-.27-.468-.533-.7-.791C24.4,4.2,23.1,2.733,23.1.992a.868.868,0,0,0-1.737,0c0,1.741-1.3,3.2-2.809,4.9-.289.324-.584.656-.878,1a32.09,32.09,0,0,0-8.83-2.841.868.868,0,0,0-.976.7A32.15,32.15,0,0,0,7.651,13.8c-.309.119-.61.239-.9.355-2.108.837-3.928,1.56-5.563.965A.868.868,0,1,0,.59,16.756c1.636.6,2.566,2.319,3.642,4.315.187.347.378.7.578,1.058A31.349,31.349,0,0,0,.079,29.247a.868.868,0,0,0,.3,1.076,31.411,31.411,0,0,0,7.556,3.612c.006.362.016.716.026,1.06.066,2.267.123,4.225-1,5.558a.868.868,0,0,0,1.33,1.116c1.119-1.333,3.056-1.617,5.3-1.946a31.792,31.792,0,0,0,3.391-.629,29.11,29.11,0,0,0,4.693,5.262.868.868,0,0,0,1.117,0A28.945,28.945,0,0,0,27.486,39.1a31.975,31.975,0,0,0,3.379.625c2.244.329,4.182.613,5.3,1.946a.868.868,0,0,0,1.33-1.116c-1.119-1.333-1.062-3.291-1-5.558.01-.341.02-.688.026-1.04a31.961,31.961,0,0,0,7.555-3.631A.868.868,0,0,0,44.379,29.247Zm-3.618-12.27a19.516,19.516,0,0,0-2.049,3.279c-1.177,2.182-2.386,4.425-4.78,5.95a.875.875,0,0,0-.075.046,10.367,10.367,0,0,1-1.774.881q-.1.038-.193.073h0a7.374,7.374,0,0,1-2.525.449,6.691,6.691,0,0,1-5.956-3.439L28.13,22.5l3.62.918a.868.868,0,0,0,.427-1.683l-1.146-.291,1.964-.715A.868.868,0,1,0,32.4,19.1l-4.79,1.743.756-2.677a.868.868,0,0,0-1.671-.472l-1.1,3.881-2.783,1.013a6.884,6.884,0,0,1,4.573-7.742c.065-.024.13-.046.2-.07A10.329,10.329,0,0,1,29.54,14.3l0,0,.051-.01a9.654,9.654,0,0,1,1.267-.084,16.691,16.691,0,0,1,6.224,1.569A19.507,19.507,0,0,0,40.761,16.978ZM35.279,5.5a31.524,31.524,0,0,1,.067,7.779,13.787,13.787,0,0,0-5.264-.773,13.344,13.344,0,0,0-2.347-4.456A31.506,31.506,0,0,1,35.279,5.5ZM22.229,4a19.516,19.516,0,0,0,2.38,3.046,15.854,15.854,0,0,1,3.736,5.714h0a12.124,12.124,0,0,0-1.311.369c-.079.026-.159.054-.238.083a9.04,9.04,0,0,0-3.692,2.5V12.561L24.563,11.1a.868.868,0,0,0-1.228-1.228l-.231.231V8.717a.868.868,0,0,0-1.737,0v2.558l-.659-.659a.868.868,0,0,0-1.228,1.228l1.888,1.887V15.7a9.086,9.086,0,0,0-3.692-2.5c-.079-.029-.159-.056-.232-.081a12.168,12.168,0,0,0-1.328-.373h0a15.879,15.879,0,0,1,3.732-5.7A19.526,19.526,0,0,0,22.229,4ZM9.443,5.922a31.405,31.405,0,0,1,7.112,2.354A13.125,13.125,0,0,0,14.379,12.5a13.6,13.6,0,0,0-5.049.707A31.534,31.534,0,0,1,9.443,5.922ZM3.712,16.968a19.511,19.511,0,0,0,3.677-1.195c2.3-.915,4.673-1.856,7.488-1.485l.044.008v0a10.358,10.358,0,0,1,1.967.471c.065.022.129.044.194.067a7.191,7.191,0,0,1,4.237,4.036,8.119,8.119,0,0,0-.352,3.027,8.131,8.131,0,0,0-3.159-.717c-.026-.012-.052-.024-.079-.033l-.592-.216-.781-2.871a.868.868,0,0,0-1.676.456l.459,1.689L9.418,18.121a.868.868,0,1,0-.594,1.632l1.716.624-1,.533a.868.868,0,1,0,.814,1.534l2.389-1.267,1.673.609A9.04,9.04,0,0,0,10.8,24.4c-.054.065-.107.13-.155.191a12.159,12.159,0,0,0-.8,1.113,15.881,15.881,0,0,1-4.081-5.455A19.528,19.528,0,0,0,3.712,16.968ZM5.746,23.7A13.193,13.193,0,0,0,9.013,27.25a13.492,13.492,0,0,0-1.059,4.864A30.854,30.854,0,0,1,1.993,29.3,30.761,30.761,0,0,1,5.746,23.7ZM13.342,38a19.516,19.516,0,0,0-3.782.8A19.52,19.52,0,0,0,9.7,34.944c-.072-2.476-.146-5.021,1.161-7.536a.89.89,0,0,0,.045-.083,10.361,10.361,0,0,1,1.1-1.65q.064-.081.131-.161a6.894,6.894,0,0,1,8.75-1.705,7.925,7.925,0,0,0-.955,1.3L18.75,26.5h-4.3a.868.868,0,1,0,0,1.737h2.845l-3.176,3.785a.868.868,0,0,0,1.33,1.116l.713-.85v.958a.868.868,0,1,0,1.737,0V30.223l.9-1.074a8.938,8.938,0,0,0,2.123,5.939l.085.1a10.168,10.168,0,0,1-3.654,2,.864.864,0,0,0-.491.139l-.013.01A28.721,28.721,0,0,1,13.342,38Zm8.895,4.518a28.709,28.709,0,0,1-3.518-3.983,11.7,11.7,0,0,0,3.511-2.113,11.707,11.707,0,0,0,3.522,2.119A28.533,28.533,0,0,1,22.237,42.522ZM31.117,38a28.986,28.986,0,0,1-3.484-.658l-.024-.017a.864.864,0,0,0-.5-.138,10.048,10.048,0,0,1-4.718-3.064c-.045-.051-.09-.1-.134-.155a7.2,7.2,0,0,1-1.707-5.059,6.511,6.511,0,0,1,.864-2.9h0a6.187,6.187,0,0,1,.559-.806,8,8,0,0,0,2.048,2.373l.475.541v4.141a.868.868,0,1,0,1.737,0V30.093l4.135,4.7a.868.868,0,0,0,1.3-1.146l-.938-1.068h1.009a.868.868,0,0,0,0-1.737H29.2l-1.4-1.593a8.911,8.911,0,0,0,1.566.139,9.1,9.1,0,0,0,3.116-.553c.08-.029.158-.059.23-.087a12.157,12.157,0,0,0,1.246-.563,15.9,15.9,0,0,1,.8,6.755,19.52,19.52,0,0,0,.135,3.864A19.516,19.516,0,0,0,31.117,38Zm5.391-5.874a13.335,13.335,0,0,0-1.055-4.868,13.378,13.378,0,0,0,3.277-3.569,31.377,31.377,0,0,1,3.734,5.6A31.362,31.362,0,0,1,36.508,32.13Z" transform="translate(0)"/>
      <path id="Path_1065596" data-name="Path 1065596" d="M400.51,207.728a.869.869,0,1,0-.614-.255A.875.875,0,0,0,400.51,207.728Z" transform="translate(-364.941 -187.992)"/>
      <path id="Path_1065597" data-name="Path 1065597" d="M141.14,387.811a.869.869,0,1,0,.614.255A.874.874,0,0,0,141.14,387.811Z" transform="translate(-128.092 -354.024)"/>
    </g>
  </g>
</svg>
