<svg xmlns="http://www.w3.org/2000/svg" xmlns:xlink="http://www.w3.org/1999/xlink" width="86.423" height="86.423" viewBox="0 0 86.423 86.423">
  <defs>
    <filter id="Path_874925" x="0" y="0" width="86.423" height="86.423" filterUnits="userSpaceOnUse">
      <feOffset dy="3" input="SourceAlpha"/>
      <feGaussianBlur stdDeviation="3" result="blur"/>
      <feFlood flood-opacity="0.161"/>
      <feComposite operator="in" in2="blur"/>
      <feComposite in="SourceGraphic"/>
    </filter>
  </defs>
  <g id="Group_1198239" data-name="Group 1198239" transform="translate(-1127.525 -1027.934)">
    <g id="Group_1109835" data-name="Group 1109835" transform="translate(1136.525 1033.934)">
      <g id="Group_1107913" data-name="Group 1107913" transform="translate(0 0)">
        <g transform="matrix(1, 0, 0, 1, -9, -6)" filter="url(#Path_874925)">
          <g id="Path_874925-2" data-name="Path 874925" transform="translate(9 6)" fill="#a8cf89">
            <path d="M 34.21131896972656 66.92303466796875 C 29.79465866088867 66.92303466796875 25.51090812683105 66.05836486816406 21.47905921936035 64.35303497314453 C 17.58399963378906 62.70556640625 14.08555889129639 60.34674835205078 11.08091926574707 57.34211730957031 C 8.076289176940918 54.33747863769531 5.717468738555908 50.83903884887695 4.069998741149902 46.94397735595703 C 2.36466908454895 42.91212844848633 1.499998927116394 38.62837600708008 1.499998927116394 34.21171569824219 C 1.499998927116394 29.79465675354004 2.36466908454895 25.51090812683105 4.069998741149902 21.47905731201172 C 5.717468738555908 17.58399772644043 8.076289176940918 14.08555698394775 11.08091926574707 11.08091735839844 C 14.08555889129639 8.076287269592285 17.58399963378906 5.717467308044434 21.47905921936035 4.069997310638428 C 25.51090812683105 2.364667415618896 29.79465866088867 1.49999737739563 34.21131896972656 1.49999737739563 C 38.62797927856445 1.49999737739563 42.91172790527344 2.364667415618896 46.94358062744141 4.069997310638428 C 50.83863830566406 5.717467308044434 54.33707809448242 8.076287269592285 57.34172058105469 11.08091735839844 C 60.34634780883789 14.08555698394775 62.70516967773438 17.58399772644043 64.35263824462891 21.47905731201172 C 66.05796813964844 25.51090812683105 66.92263793945312 29.79465675354004 66.92263793945312 34.21131896972656 C 66.92263793945312 38.62837600708008 66.05796813964844 42.91212844848633 64.35263824462891 46.94397735595703 C 62.70516967773438 50.83903884887695 60.34634780883789 54.33747863769531 57.34172058105469 57.34211730957031 C 54.33707809448242 60.34674835205078 50.83863830566406 62.70556640625 46.94358062744141 64.35303497314453 C 42.91172790527344 66.05836486816406 38.62797927856445 66.92303466796875 34.21131896972656 66.92303466796875 Z" stroke="none"/>
            <path d="M 34.21131896972656 3 C 29.99649429321289 3 25.90934371948242 3.824813842773438 22.06338882446289 5.451503753662109 C 18.34711837768555 7.023353576660156 15.00894165039062 9.274223327636719 12.1415901184082 12.14158630371094 C 9.274223327636719 15.00894165039062 7.023353576660156 18.34711837768555 5.451507568359375 22.06338882446289 C 3.824813842773438 25.90933990478516 3 29.99649429321289 3 34.21171569824219 C 3 38.42654037475586 3.824813842773438 42.51369476318359 5.451507568359375 46.35964584350586 C 7.023353576660156 50.07592010498047 9.274223327636719 53.41409301757812 12.1415901184082 56.28144836425781 C 15.00894165039062 59.14881134033203 18.34711837768555 61.39968109130859 22.06338882446289 62.97152709960938 C 25.90934371948242 64.59822082519531 29.99649429321289 65.42303466796875 34.21131896972656 65.42303466796875 C 38.42613983154297 65.42303466796875 42.51329803466797 64.59822082519531 46.35924911499023 62.97152709960938 C 50.07551956176758 61.39968109130859 53.4136962890625 59.14881134033203 56.28104782104492 56.28144836425781 C 59.14841461181641 53.41409301757812 61.39928436279297 50.07592010498047 62.97113037109375 46.35964584350586 C 64.59782409667969 42.51369476318359 65.42263793945312 38.42654037475586 65.42263793945312 34.21131896972656 C 65.42263793945312 29.99649429321289 64.59782409667969 25.90933990478516 62.97113037109375 22.06338882446289 C 61.39928436279297 18.34711837768555 59.14841461181641 15.00894165039062 56.28104782104492 12.14158630371094 C 53.4136962890625 9.274223327636719 50.07551956176758 7.023353576660156 46.35924911499023 5.451503753662109 C 42.51329803466797 3.824813842773438 38.42613983154297 3 34.21131896972656 3 M 34.21131896972656 0 C 53.10570526123047 0 68.42263793945312 15.31692886352539 68.42263793945312 34.21131896972656 L 68.42263793945312 34.21171569824219 C 68.42263793945312 53.10610580444336 53.10570526123047 68.42303466796875 34.21131896972656 68.42303466796875 C 15.31692886352539 68.42303466796875 0 53.10610580444336 0 34.21171569824219 L 0 34.21131896972656 C 0 15.31692886352539 15.31692886352539 0 34.21131896972656 0 Z" stroke="none" fill="#fff"/>
          </g>
        </g>
        <g id="Path_874923" data-name="Path 874923" transform="translate(0 0)" fill="none">
          <path d="M34.211,0A34.211,34.211,0,0,1,68.423,34.211h0A34.211,34.211,0,0,1,0,34.212H0A34.211,34.211,0,0,1,34.211,0Z" stroke="none"/>
          <path d="M 34.21131896972656 3 C 29.99649429321289 3 25.90934371948242 3.824813842773438 22.06338882446289 5.451503753662109 C 18.34711837768555 7.023353576660156 15.00894165039062 9.274223327636719 12.1415901184082 12.14158630371094 C 9.274223327636719 15.00894165039062 7.023353576660156 18.34711837768555 5.451507568359375 22.06338882446289 C 3.824813842773438 25.90933990478516 3 29.99649429321289 3 34.21171569824219 C 3 38.42654037475586 3.824813842773438 42.51369476318359 5.451507568359375 46.35964584350586 C 7.023353576660156 50.07592010498047 9.274223327636719 53.41409301757812 12.1415901184082 56.28144836425781 C 15.00894165039062 59.14881134033203 18.34711837768555 61.39968109130859 22.06338882446289 62.97152709960938 C 25.90934371948242 64.59822082519531 29.99649429321289 65.42303466796875 34.21131896972656 65.42303466796875 C 38.42613983154297 65.42303466796875 42.51329803466797 64.59822082519531 46.35924911499023 62.97152709960938 C 50.07551956176758 61.39968109130859 53.4136962890625 59.14881134033203 56.28104782104492 56.28144836425781 C 59.14841461181641 53.41409301757812 61.39928436279297 50.07592010498047 62.97113037109375 46.35964584350586 C 64.59782409667969 42.51369476318359 65.42263793945312 38.42654037475586 65.42263793945312 34.21131896972656 C 65.42263793945312 29.99649429321289 64.59782409667969 25.90933990478516 62.97113037109375 22.06338882446289 C 61.39928436279297 18.34711837768555 59.14841461181641 15.00894165039062 56.28104782104492 12.14158630371094 C 53.4136962890625 9.274223327636719 50.07551956176758 7.023353576660156 46.35924911499023 5.451503753662109 C 42.51329803466797 3.824813842773438 38.42613983154297 3 34.21131896972656 3 M 34.21131896972656 0 C 53.10570526123047 0 68.42263793945312 15.31692886352539 68.42263793945312 34.21131896972656 L 68.42263793945312 34.21171569824219 C 68.42263793945312 53.10610580444336 53.10570526123047 68.42303466796875 34.21131896972656 68.42303466796875 C 15.31692886352539 68.42303466796875 0 53.10610580444336 0 34.21171569824219 L 0 34.21131896972656 C 0 15.31692886352539 15.31692886352539 0 34.21131896972656 0 Z" stroke="none" fill="#fff"/>
        </g>
      </g>
    </g>
    <g id="mermelada" transform="translate(1139.631 1049.74)">
      <g id="Group_1198268" data-name="Group 1198268" transform="translate(18.346 0.531)">
        <rect id="Rectangle_415035" data-name="Rectangle 415035" width="25.519" height="4.261" rx="2.131" transform="translate(0)" fill="#724b3b"/>
        <path id="Path_1065524" data-name="Path 1065524" d="M41.888,16.625H22.817a7.394,7.394,0,0,1-2.2,5.256,3.43,3.43,0,0,0-1.021,2.447V44.676a3.448,3.448,0,0,0,3.448,3.448H41.664a3.448,3.448,0,0,0,3.448-3.448V24.328a3.43,3.43,0,0,0-1.021-2.447,7.4,7.4,0,0,1-2.2-5.256Z" transform="translate(-19.593 -12.364)" fill="#f4d844"/>
        <path id="Path_1065525" data-name="Path 1065525" d="M19.593,48.425H45.112V64.7H19.593Z" transform="translate(-19.593 -35.026)" fill="#fae8d8"/>
        <path id="Path_1065526" data-name="Path 1065526" d="M68.454,60.4a1.644,1.644,0,0,0-1.318-.475,2.471,2.471,0,0,0,.172-1.343l-.073-.482-.482-.073a2.471,2.471,0,0,0-1.343.172,1.645,1.645,0,0,0-.475-1.318l-.6-.6-1.008,1.013a1.644,1.644,0,0,0-.46,1.437,1.615,1.615,0,0,1,1.761,1.983,1.615,1.615,0,0,1,1.986,1.76,1.643,1.643,0,0,0,1.437-.46L69.057,61Z" transform="translate(-50.415 -40.621)" fill="#c2db4c"/>
        <g id="Group_1198267" data-name="Group 1198267" transform="translate(6.877 18.091)">
          <circle id="Ellipse_12308" data-name="Ellipse 12308" cx="1.618" cy="1.618" r="1.618" transform="translate(3.432 2.661)" fill="#5e35b1"/>
          <path id="Path_1065527" data-name="Path 1065527" d="M51.1,69.648a1.609,1.609,0,0,1,.765-.427,1.618,1.618,0,1,0-1.192,1.192A1.609,1.609,0,0,1,51.1,69.648Z" transform="translate(-47.197 -66.513)" fill="#7e57c2"/>
          <path id="Path_1065528" data-name="Path 1065528" d="M65.029,81.284a1.616,1.616,0,0,0-1.524-.427,1.607,1.607,0,0,1-1.192,1.192,1.618,1.618,0,1,0,2.716-.765Z" transform="translate(-56.883 -76.197)" fill="#9575cd"/>
          <path id="Path_1065529" data-name="Path 1065529" d="M56.1,85.526A1.615,1.615,0,0,1,55.671,84a1.617,1.617,0,0,1-1.523-.427l-.022-.024a1.618,1.618,0,1,0,2,2Z" transform="translate(-50.241 -78.151)" fill="#7e57c2"/>
          <path id="Path_1065530" data-name="Path 1065530" d="M65,72.728a1.615,1.615,0,0,1,.427,1.524,1.616,1.616,0,0,1,1.524.427c.011.011.02.022.029.033A1.618,1.618,0,1,0,64.971,72.7C64.982,72.709,64.994,72.717,65,72.728Z" transform="translate(-58.81 -69.593)" fill="#7e57c2"/>
          <g id="Group_1198266" data-name="Group 1198266" transform="translate(4.211)">
            <path id="Path_1065531" data-name="Path 1065531" d="M65.087,75.666l.03.032C65.107,75.688,65.1,75.676,65.087,75.666Z" transform="translate(-63.103 -72.531)" fill="#9575cd"/>
            <path id="Path_1065532" data-name="Path 1065532" d="M60.54,67.179a1.609,1.609,0,0,1,.765-.428,1.618,1.618,0,0,0-3.122-.842l.033.029a1.615,1.615,0,0,1,.427,1.523,1.616,1.616,0,0,1,1.492.4,1.609,1.609,0,0,1,.406-.678Z" transform="translate(-58.182 -64.755)" fill="#9575cd"/>
          </g>
          <path id="Path_1065533" data-name="Path 1065533" d="M48.664,79.122a1.609,1.609,0,0,1,.7-.412l.022.024a1.616,1.616,0,0,1-.427-1.523,1.617,1.617,0,0,1-1.523-.427l-.022-.024a1.617,1.617,0,0,0,.818,3.127A1.609,1.609,0,0,1,48.664,79.122Z" transform="translate(-45.483 -73.311)" fill="#9575cd"/>
          <path id="Path_1065534" data-name="Path 1065534" d="M46.709,88.1a1.616,1.616,0,0,1-.427-1.523,1.617,1.617,0,0,1-1.523-.427l-.005-.006A1.619,1.619,0,1,0,46.717,88.1Z" transform="translate(-43.528 -79.995)" fill="#5e35b1"/>
        </g>
      </g>
      <g id="Group_1198269" data-name="Group 1198269" transform="translate(17.843 0.022)">
        <path id="Path_1065535" data-name="Path 1065535" d="M52.488,14.853H51.123a.5.5,0,0,0,0,1.006h1.365a.5.5,0,1,0,0-1.006Z" transform="translate(-41.202 -10.592)"/>
        <path id="Path_1065536" data-name="Path 1065536" d="M44.368,3.636V1.674A1.654,1.654,0,0,0,42.716.022H19.5a1.654,1.654,0,0,0-1.652,1.652V3.636A1.654,1.654,0,0,0,19.5,5.288h1.552a6.951,6.951,0,0,1-2.032,4.4,3.917,3.917,0,0,0-1.171,2.8V32.836a3.955,3.955,0,0,0,3.951,3.951H40.417a3.955,3.955,0,0,0,3.951-3.951V12.49a3.917,3.917,0,0,0-1.171-2.8,6.951,6.951,0,0,1-2.032-4.4h1.552a1.654,1.654,0,0,0,1.651-1.653ZM43.362,29.7H18.849V14.426H43.362Zm-2.945,6.083H21.794a2.948,2.948,0,0,1-2.945-2.945V30.7H43.362v2.132a2.948,2.948,0,0,1-2.945,2.946ZM42.49,10.4a2.918,2.918,0,0,1,.872,2.089v.931H18.849v-.931a2.918,2.918,0,0,1,.872-2.089,7.962,7.962,0,0,0,2.334-5.111h2.615a.5.5,0,1,0,0-1.006H19.5a.647.647,0,0,1-.646-.646V1.674a.647.647,0,0,1,.646-.646H42.718a.647.647,0,0,1,.646.646V3.636a.647.647,0,0,1-.646.646H32.226a.5.5,0,0,0,0,1.006h7.93A7.962,7.962,0,0,0,42.49,10.4Z" transform="translate(-17.843 -0.022)"/>
        <path id="Path_1065537" data-name="Path 1065537" d="M43.9,67.277a2.073,2.073,0,0,0,1.777-.97,2.089,2.089,0,0,0,2.685-.721,2.115,2.115,0,0,0,2.422-.409.5.5,0,0,0-.711-.711,1.141,1.141,0,0,1-1.577,0,1.1,1.1,0,0,1-.324-.792,2.124,2.124,0,0,0,1.109-1.109,1.1,1.1,0,0,1,.791.324c.01.01.021.017.032.026a.5.5,0,0,0,.354.154.51.51,0,0,0,.144-.021,2.111,2.111,0,0,0,1.391-1.326,2.148,2.148,0,0,0,1.4-.623l1.01-1.009a.5.5,0,0,0,0-.711l-.6-.6a2.144,2.144,0,0,0-1.016-.57,2.96,2.96,0,0,0,.014-.967l-.073-.482a.5.5,0,0,0-.422-.422l-.482-.073a2.968,2.968,0,0,0-.967.014,2.144,2.144,0,0,0-.571-1.016l-.6-.6a.5.5,0,0,0-.711,0l-1.01,1.01a2.151,2.151,0,0,0-.623,1.4,2.044,2.044,0,0,0-1.037.8A2.119,2.119,0,0,0,43.473,60.7a2.09,2.09,0,0,0-.721,2.685,2.117,2.117,0,0,0,1.149,3.9Zm-.789-1.331a1.106,1.106,0,0,1,.293-1.784,2.092,2.092,0,0,0,1.09.4,2.111,2.111,0,0,0,.4,1.088,1.1,1.1,0,0,1-.207.293,1.117,1.117,0,0,1-1.578,0Zm2.107-4.059a2.1,2.1,0,0,0,.2.76,2.026,2.026,0,0,0-.763.917,1.111,1.111,0,0,1-.542-2.087A2.094,2.094,0,0,0,45.221,61.887Zm1.325-.95a1.115,1.115,0,0,1,1.577,0l0,0a1.115,1.115,0,0,1,0,1.576,1.142,1.142,0,0,1-1.577,0,1.115,1.115,0,0,1,0-1.577Zm2.662-.711a1.143,1.143,0,0,1,1.578,0,1.111,1.111,0,0,1-.23,1.753,2.092,2.092,0,0,0-1.107-.413,2.1,2.1,0,0,0-.416-1.109A1.11,1.11,0,0,1,49.208,60.225ZM45.82,65.191a1.118,1.118,0,0,1,0-1.578,1.106,1.106,0,0,1,.253-.185,2.1,2.1,0,0,0,1.1.411,2.092,2.092,0,0,0,.408,1.1,1.1,1.1,0,0,1-.185.252A1.117,1.117,0,0,1,45.82,65.191Zm3.505-9.469.247.247a1.141,1.141,0,0,1,.33.916.5.5,0,0,0,.7.509,1.969,1.969,0,0,1,1.07-.139l.115.018.018.115a1.964,1.964,0,0,1-.139,1.07.5.5,0,0,0,.509.7,1.144,1.144,0,0,1,.916.33l.248.249-.655.653a1.14,1.14,0,0,1-.592.313,2.11,2.11,0,0,0-1.935-1.8,2.108,2.108,0,0,0-1.8-1.934,1.142,1.142,0,0,1,.313-.59Zm-.491,2.552a1.1,1.1,0,0,1,.324.792,2.046,2.046,0,0,0-.906.749,2.1,2.1,0,0,0-.759-.2,2.093,2.093,0,0,0-.413-1.107,1.1,1.1,0,0,1,.176-.23,1.142,1.142,0,0,1,1.577,0Zm-4.24.711a1.117,1.117,0,0,1,1.577,0l0,0a1.1,1.1,0,0,1,.323.79,2.12,2.12,0,0,0-1.11,1.11,1.114,1.114,0,0,1-.792-1.9Z" transform="translate(-34.904 -38.852)"/>
      </g>
    </g>
  </g>
</svg>
