<svg xmlns="http://www.w3.org/2000/svg" xmlns:xlink="http://www.w3.org/1999/xlink" width="86.423" height="86.423" viewBox="0 0 86.423 86.423">
  <defs>
    <filter id="Path_874925" x="0" y="0" width="86.423" height="86.423" filterUnits="userSpaceOnUse">
      <feOffset dy="3" input="SourceAlpha"/>
      <feGaussianBlur stdDeviation="3" result="blur"/>
      <feFlood flood-opacity="0.161"/>
      <feComposite operator="in" in2="blur"/>
      <feComposite in="SourceGraphic"/>
    </filter>
  </defs>
  <g id="Group_1198238" data-name="Group 1198238" transform="translate(-1127.525 -1027.934)">
    <g id="Group_1109835" data-name="Group 1109835" transform="translate(1136.525 1033.934)">
      <g id="Group_1107913" data-name="Group 1107913" transform="translate(0 0)">
        <g transform="matrix(1, 0, 0, 1, -9, -6)" filter="url(#Path_874925)">
          <g id="Path_874925-2" data-name="Path 874925" transform="translate(9 6)" fill="#a8cf89">
            <path d="M 34.21131896972656 66.92303466796875 C 29.79465866088867 66.92303466796875 25.51090812683105 66.05836486816406 21.47905921936035 64.35303497314453 C 17.58399963378906 62.70556640625 14.08555889129639 60.34674835205078 11.08091926574707 57.34211730957031 C 8.076289176940918 54.33747863769531 5.717468738555908 50.83903884887695 4.069998741149902 46.94397735595703 C 2.36466908454895 42.91212844848633 1.499998927116394 38.62837600708008 1.499998927116394 34.21171569824219 C 1.499998927116394 29.79465675354004 2.36466908454895 25.51090812683105 4.069998741149902 21.47905731201172 C 5.717468738555908 17.58399772644043 8.076289176940918 14.08555698394775 11.08091926574707 11.08091735839844 C 14.08555889129639 8.076287269592285 17.58399963378906 5.717467308044434 21.47905921936035 4.069997310638428 C 25.51090812683105 2.364667415618896 29.79465866088867 1.49999737739563 34.21131896972656 1.49999737739563 C 38.62797927856445 1.49999737739563 42.91172790527344 2.364667415618896 46.94358062744141 4.069997310638428 C 50.83863830566406 5.717467308044434 54.33707809448242 8.076287269592285 57.34172058105469 11.08091735839844 C 60.34634780883789 14.08555698394775 62.70516967773438 17.58399772644043 64.35263824462891 21.47905731201172 C 66.05796813964844 25.51090812683105 66.92263793945312 29.79465675354004 66.92263793945312 34.21131896972656 C 66.92263793945312 38.62837600708008 66.05796813964844 42.91212844848633 64.35263824462891 46.94397735595703 C 62.70516967773438 50.83903884887695 60.34634780883789 54.33747863769531 57.34172058105469 57.34211730957031 C 54.33707809448242 60.34674835205078 50.83863830566406 62.70556640625 46.94358062744141 64.35303497314453 C 42.91172790527344 66.05836486816406 38.62797927856445 66.92303466796875 34.21131896972656 66.92303466796875 Z" stroke="none"/>
            <path d="M 34.21131896972656 3 C 29.99649429321289 3 25.90934371948242 3.824813842773438 22.06338882446289 5.451503753662109 C 18.34711837768555 7.023353576660156 15.00894165039062 9.274223327636719 12.1415901184082 12.14158630371094 C 9.274223327636719 15.00894165039062 7.023353576660156 18.34711837768555 5.451507568359375 22.06338882446289 C 3.824813842773438 25.90933990478516 3 29.99649429321289 3 34.21171569824219 C 3 38.42654037475586 3.824813842773438 42.51369476318359 5.451507568359375 46.35964584350586 C 7.023353576660156 50.07592010498047 9.274223327636719 53.41409301757812 12.1415901184082 56.28144836425781 C 15.00894165039062 59.14881134033203 18.34711837768555 61.39968109130859 22.06338882446289 62.97152709960938 C 25.90934371948242 64.59822082519531 29.99649429321289 65.42303466796875 34.21131896972656 65.42303466796875 C 38.42613983154297 65.42303466796875 42.51329803466797 64.59822082519531 46.35924911499023 62.97152709960938 C 50.07551956176758 61.39968109130859 53.4136962890625 59.14881134033203 56.28104782104492 56.28144836425781 C 59.14841461181641 53.41409301757812 61.39928436279297 50.07592010498047 62.97113037109375 46.35964584350586 C 64.59782409667969 42.51369476318359 65.42263793945312 38.42654037475586 65.42263793945312 34.21131896972656 C 65.42263793945312 29.99649429321289 64.59782409667969 25.90933990478516 62.97113037109375 22.06338882446289 C 61.39928436279297 18.34711837768555 59.14841461181641 15.00894165039062 56.28104782104492 12.14158630371094 C 53.4136962890625 9.274223327636719 50.07551956176758 7.023353576660156 46.35924911499023 5.451503753662109 C 42.51329803466797 3.824813842773438 38.42613983154297 3 34.21131896972656 3 M 34.21131896972656 0 C 53.10570526123047 0 68.42263793945312 15.31692886352539 68.42263793945312 34.21131896972656 L 68.42263793945312 34.21171569824219 C 68.42263793945312 53.10610580444336 53.10570526123047 68.42303466796875 34.21131896972656 68.42303466796875 C 15.31692886352539 68.42303466796875 0 53.10610580444336 0 34.21171569824219 L 0 34.21131896972656 C 0 15.31692886352539 15.31692886352539 0 34.21131896972656 0 Z" stroke="none" fill="#fff"/>
          </g>
        </g>
        <g id="Path_874923" data-name="Path 874923" transform="translate(0 0)" fill="none">
          <path d="M34.211,0A34.211,34.211,0,0,1,68.423,34.211h0A34.211,34.211,0,0,1,0,34.212H0A34.211,34.211,0,0,1,34.211,0Z" stroke="none"/>
          <path d="M 34.21131896972656 3 C 29.99649429321289 3 25.90934371948242 3.824813842773438 22.06338882446289 5.451503753662109 C 18.34711837768555 7.023353576660156 15.00894165039062 9.274223327636719 12.1415901184082 12.14158630371094 C 9.274223327636719 15.00894165039062 7.023353576660156 18.34711837768555 5.451507568359375 22.06338882446289 C 3.824813842773438 25.90933990478516 3 29.99649429321289 3 34.21171569824219 C 3 38.42654037475586 3.824813842773438 42.51369476318359 5.451507568359375 46.35964584350586 C 7.023353576660156 50.07592010498047 9.274223327636719 53.41409301757812 12.1415901184082 56.28144836425781 C 15.00894165039062 59.14881134033203 18.34711837768555 61.39968109130859 22.06338882446289 62.97152709960938 C 25.90934371948242 64.59822082519531 29.99649429321289 65.42303466796875 34.21131896972656 65.42303466796875 C 38.42613983154297 65.42303466796875 42.51329803466797 64.59822082519531 46.35924911499023 62.97152709960938 C 50.07551956176758 61.39968109130859 53.4136962890625 59.14881134033203 56.28104782104492 56.28144836425781 C 59.14841461181641 53.41409301757812 61.39928436279297 50.07592010498047 62.97113037109375 46.35964584350586 C 64.59782409667969 42.51369476318359 65.42263793945312 38.42654037475586 65.42263793945312 34.21131896972656 C 65.42263793945312 29.99649429321289 64.59782409667969 25.90933990478516 62.97113037109375 22.06338882446289 C 61.39928436279297 18.34711837768555 59.14841461181641 15.00894165039062 56.28104782104492 12.14158630371094 C 53.4136962890625 9.274223327636719 50.07551956176758 7.023353576660156 46.35924911499023 5.451503753662109 C 42.51329803466797 3.824813842773438 38.42613983154297 3 34.21131896972656 3 M 34.21131896972656 0 C 53.10570526123047 0 68.42263793945312 15.31692886352539 68.42263793945312 34.21131896972656 L 68.42263793945312 34.21171569824219 C 68.42263793945312 53.10610580444336 53.10570526123047 68.42303466796875 34.21131896972656 68.42303466796875 C 15.31692886352539 68.42303466796875 0 53.10610580444336 0 34.21171569824219 L 0 34.21131896972656 C 0 15.31692886352539 15.31692886352539 0 34.21131896972656 0 Z" stroke="none" fill="#fff"/>
        </g>
      </g>
    </g>
    <g id="heno" transform="translate(1149.765 961.336)">
      <g id="Group_1198264" data-name="Group 1198264" transform="translate(0.614 95.363)">
        <g id="Group_1198262" data-name="Group 1198262" transform="translate(0 0)">
          <path id="Path_1065515" data-name="Path 1065515" d="M144.956,124.983v-21.5a1.229,1.229,0,0,0-2.457,0v21.5Zm16.138,0v-21.5a1.229,1.229,0,0,0-2.457,0v21.5Z" transform="translate(-131.44 -102.251)" fill="#bababe" fill-rule="evenodd"/>
          <path id="Path_1065516" data-name="Path 1065516" d="M22.5,131.38v1.843l1.229,1.229L22.5,135.681v1.843l1.229,1.229h8.6V118.479A1.232,1.232,0,0,0,31.1,117.25H23.729L22.5,118.479v1.843l1.229,1.229L22.5,122.779v1.843l1.229,1.229L22.5,127.08v1.843l1.229,1.229Zm28.425,7.372h8.6l1.229-1.229v-1.843l-1.229-1.229,1.229-1.229V131.38l-1.229-1.229,1.229-1.229V127.08l-1.229-1.229,1.229-1.229v-1.843l-1.229-1.229,1.229-1.229v-1.843l-1.229-1.229H52.154a1.232,1.232,0,0,0-1.229,1.229Zm-16.138,0h13.68V118.479a1.232,1.232,0,0,0-1.229-1.229H36.016a1.232,1.232,0,0,0-1.229,1.229Z" transform="translate(-21.271 -116.021)" fill="#ffee89" fill-rule="evenodd"/>
          <path id="Path_1065517" data-name="Path 1065517" d="M120,138.753h1.843V118.479a1.232,1.232,0,0,0-1.229-1.229H120Zm6.144-21.5v21.5H124.3V118.479a1.232,1.232,0,0,1,1.229-1.229Zm9.994,21.5v-21.5h.614a1.232,1.232,0,0,1,1.229,1.229v20.274Zm6.144-21.5v21.5h-1.843V118.479a1.232,1.232,0,0,1,1.229-1.229Z" transform="translate(-110.784 -116.021)" fill="#ffe200" fill-rule="evenodd"/>
          <path id="Path_1065518" data-name="Path 1065518" d="M7.5,379.75H48.212v2.457H7.5Z" transform="translate(-7.5 -357.018)" fill="#ffaa81" fill-rule="evenodd"/>
          <path id="Path_1065519" data-name="Path 1065519" d="M144.956,359.093V357.25H142.5v1.843Zm16.138,0V357.25h-2.457v1.843Z" transform="translate(-131.44 -336.362)" fill="#7a797f" fill-rule="evenodd"/>
          <path id="Path_1065520" data-name="Path 1065520" d="M7.5,379.75H9.343v2.457H7.5Z" transform="translate(-7.5 -357.018)" fill="#ff905b" fill-rule="evenodd"/>
        </g>
        <g id="Group_1198263" data-name="Group 1198263" transform="translate(18.513 3.072)">
          <path id="Path_1065521" data-name="Path 1065521" d="M237.186,140.979h-1.229V139.75h1.229Zm-2.457,0H233.5V139.75h1.229Z" transform="translate(-233.5 -139.75)" fill="#fff"/>
        </g>
      </g>
      <g id="Group_1198265" data-name="Group 1198265" transform="translate(0 94.749)">
        <path id="Path_1065522" data-name="Path 1065522" d="M444.5,402.25h1.229v1.229H444.5Z" transform="translate(-408.088 -377.061)"/>
        <path id="Path_1065523" data-name="Path 1065523" d="M40.352,117.481l.36-.36v-2.352l-.974-.974.974-.974v-2.352l-.974-.974.974-.974v-2.352l-.974-.974.974-.974v-2.352l-.974-.974.974-.974V97.566l-1.589-1.589H31.5a1.833,1.833,0,0,0-.679.13,1.843,1.843,0,0,0-3.556,0,1.833,1.833,0,0,0-.679-.13H15.359a1.833,1.833,0,0,0-.679.13,1.843,1.843,0,0,0-3.556,0,1.833,1.833,0,0,0-.679-.13H6.758v1.229h3.686a.615.615,0,0,1,.614.614v2.371L8.48,99.676l-.241,1.2,2.819.564v5.285H8.36v1.229h2.7v5.333l-2.578.516.241,1.2,2.337-.467v2.937H3.326l-.869-.869v-1.334l1.483-1.483-1.483-1.483v-1.334l1.483-1.483-1.483-1.483v-1.334l1.483-1.483L2.457,103.71v-1.334l1.483-1.483L2.457,99.41V98.075l.869-.869h2.2V95.978H2.817L1.229,97.566v2.352l.974.974-.974.974v2.352l.974.974-.974.974v2.352l.974.974-.974.974v2.352l.974.974-.974.974v2.352l.36.36H0v3.686H35.183v-1.229H1.229v-1.229H40.712v1.229H38.869v1.229h3.072v-3.686ZM31.5,97.207h7.118l.869.869v1.334L38,100.893l1.483,1.483v1.334L38,105.193l1.483,1.483v1.334L38,109.494l1.483,1.483v1.334L38,113.794l1.483,1.483v1.334l-.869.869H30.882v-2.937l2.337.467.241-1.2-2.578-.516v-5.333h2.7v-1.229h-2.7v-5.285l2.819-.564-.241-1.2-2.578.516V97.821a.615.615,0,0,1,.614-.614Zm-3.072-.614a.614.614,0,0,1,1.229,0v20.889H28.425Zm-13.066.614H26.582a.615.615,0,0,1,.614.614v5.394l-2.337-.467-.241,1.2,2.578.516v5.8l-2.337.467.241,1.2,2.1-.419v5.96H14.745v-5.96l2.1.419.241-1.2-2.337-.467v-5.8l2.578-.516-.241-1.2-2.337.467V97.821a.615.615,0,0,1,.614-.614Zm-3.072-.614a.614.614,0,0,1,1.229,0v20.889H12.287Z" transform="translate(0 -94.749)"/>
      </g>
    </g>
  </g>
</svg>
