<svg xmlns="http://www.w3.org/2000/svg" xmlns:xlink="http://www.w3.org/1999/xlink" width="86.423" height="86.423" viewBox="0 0 86.423 86.423">
  <defs>
    <filter id="Path_874925" x="0" y="0" width="86.423" height="86.423" filterUnits="userSpaceOnUse">
      <feOffset dy="3" input="SourceAlpha"/>
      <feGaussianBlur stdDeviation="3" result="blur"/>
      <feFlood flood-opacity="0.161"/>
      <feComposite operator="in" in2="blur"/>
      <feComposite in="SourceGraphic"/>
    </filter>
  </defs>
  <g id="Group_1111691" data-name="Group 1111691" transform="translate(-1127.525 -1027.933)">
    <g id="Group_1109835" data-name="Group 1109835" transform="translate(1136.525 1033.934)">
      <g id="Group_1107913" data-name="Group 1107913" transform="translate(0 0)">
        <g transform="matrix(1, 0, 0, 1, -9, -6)" filter="url(#Path_874925)">
          <g id="Path_874925-2" data-name="Path 874925" transform="translate(9 6)" fill="#a8cf89">
            <path d="M 34.21131896972656 66.92303466796875 C 29.79465866088867 66.92303466796875 25.51090812683105 66.05836486816406 21.47905921936035 64.35303497314453 C 17.58399963378906 62.70556640625 14.08555889129639 60.34674835205078 11.08091926574707 57.34211730957031 C 8.076289176940918 54.33747863769531 5.717468738555908 50.83903884887695 4.069998741149902 46.94397735595703 C 2.36466908454895 42.91212844848633 1.499998927116394 38.62837600708008 1.499998927116394 34.21171569824219 C 1.499998927116394 29.79465675354004 2.36466908454895 25.51090812683105 4.069998741149902 21.47905731201172 C 5.717468738555908 17.58399772644043 8.076289176940918 14.08555698394775 11.08091926574707 11.08091735839844 C 14.08555889129639 8.076287269592285 17.58399963378906 5.717467308044434 21.47905921936035 4.069997310638428 C 25.51090812683105 2.364667415618896 29.79465866088867 1.49999737739563 34.21131896972656 1.49999737739563 C 38.62797927856445 1.49999737739563 42.91172790527344 2.364667415618896 46.94358062744141 4.069997310638428 C 50.83863830566406 5.717467308044434 54.33707809448242 8.076287269592285 57.34172058105469 11.08091735839844 C 60.34634780883789 14.08555698394775 62.70516967773438 17.58399772644043 64.35263824462891 21.47905731201172 C 66.05796813964844 25.51090812683105 66.92263793945312 29.79465675354004 66.92263793945312 34.21131896972656 C 66.92263793945312 38.62837600708008 66.05796813964844 42.91212844848633 64.35263824462891 46.94397735595703 C 62.70516967773438 50.83903884887695 60.34634780883789 54.33747863769531 57.34172058105469 57.34211730957031 C 54.33707809448242 60.34674835205078 50.83863830566406 62.70556640625 46.94358062744141 64.35303497314453 C 42.91172790527344 66.05836486816406 38.62797927856445 66.92303466796875 34.21131896972656 66.92303466796875 Z" stroke="none"/>
            <path d="M 34.21131896972656 3 C 29.99649429321289 3 25.90934371948242 3.824813842773438 22.06338882446289 5.451503753662109 C 18.34711837768555 7.023353576660156 15.00894165039062 9.274223327636719 12.1415901184082 12.14158630371094 C 9.274223327636719 15.00894165039062 7.023353576660156 18.34711837768555 5.451507568359375 22.06338882446289 C 3.824813842773438 25.90933990478516 3 29.99649429321289 3 34.21171569824219 C 3 38.42654037475586 3.824813842773438 42.51369476318359 5.451507568359375 46.35964584350586 C 7.023353576660156 50.07592010498047 9.274223327636719 53.41409301757812 12.1415901184082 56.28144836425781 C 15.00894165039062 59.14881134033203 18.34711837768555 61.39968109130859 22.06338882446289 62.97152709960938 C 25.90934371948242 64.59822082519531 29.99649429321289 65.42303466796875 34.21131896972656 65.42303466796875 C 38.42613983154297 65.42303466796875 42.51329803466797 64.59822082519531 46.35924911499023 62.97152709960938 C 50.07551956176758 61.39968109130859 53.4136962890625 59.14881134033203 56.28104782104492 56.28144836425781 C 59.14841461181641 53.41409301757812 61.39928436279297 50.07592010498047 62.97113037109375 46.35964584350586 C 64.59782409667969 42.51369476318359 65.42263793945312 38.42654037475586 65.42263793945312 34.21131896972656 C 65.42263793945312 29.99649429321289 64.59782409667969 25.90933990478516 62.97113037109375 22.06338882446289 C 61.39928436279297 18.34711837768555 59.14841461181641 15.00894165039062 56.28104782104492 12.14158630371094 C 53.4136962890625 9.274223327636719 50.07551956176758 7.023353576660156 46.35924911499023 5.451503753662109 C 42.51329803466797 3.824813842773438 38.42613983154297 3 34.21131896972656 3 M 34.21131896972656 0 C 53.10570526123047 0 68.42263793945312 15.31692886352539 68.42263793945312 34.21131896972656 L 68.42263793945312 34.21171569824219 C 68.42263793945312 53.10610580444336 53.10570526123047 68.42303466796875 34.21131896972656 68.42303466796875 C 15.31692886352539 68.42303466796875 0 53.10610580444336 0 34.21171569824219 L 0 34.21131896972656 C 0 15.31692886352539 15.31692886352539 0 34.21131896972656 0 Z" stroke="none" fill="#fff"/>
          </g>
        </g>
        <g id="Path_874923" data-name="Path 874923" transform="translate(0 0)" fill="none">
          <path d="M34.211,0A34.211,34.211,0,0,1,68.423,34.211h0A34.211,34.211,0,0,1,0,34.212H0A34.211,34.211,0,0,1,34.211,0Z" stroke="none"/>
          <path d="M 34.21131896972656 3 C 29.99649429321289 3 25.90934371948242 3.824813842773438 22.06338882446289 5.451503753662109 C 18.34711837768555 7.023353576660156 15.00894165039062 9.274223327636719 12.1415901184082 12.14158630371094 C 9.274223327636719 15.00894165039062 7.023353576660156 18.34711837768555 5.451507568359375 22.06338882446289 C 3.824813842773438 25.90933990478516 3 29.99649429321289 3 34.21171569824219 C 3 38.42654037475586 3.824813842773438 42.51369476318359 5.451507568359375 46.35964584350586 C 7.023353576660156 50.07592010498047 9.274223327636719 53.41409301757812 12.1415901184082 56.28144836425781 C 15.00894165039062 59.14881134033203 18.34711837768555 61.39968109130859 22.06338882446289 62.97152709960938 C 25.90934371948242 64.59822082519531 29.99649429321289 65.42303466796875 34.21131896972656 65.42303466796875 C 38.42613983154297 65.42303466796875 42.51329803466797 64.59822082519531 46.35924911499023 62.97152709960938 C 50.07551956176758 61.39968109130859 53.4136962890625 59.14881134033203 56.28104782104492 56.28144836425781 C 59.14841461181641 53.41409301757812 61.39928436279297 50.07592010498047 62.97113037109375 46.35964584350586 C 64.59782409667969 42.51369476318359 65.42263793945312 38.42654037475586 65.42263793945312 34.21131896972656 C 65.42263793945312 29.99649429321289 64.59782409667969 25.90933990478516 62.97113037109375 22.06338882446289 C 61.39928436279297 18.34711837768555 59.14841461181641 15.00894165039062 56.28104782104492 12.14158630371094 C 53.4136962890625 9.274223327636719 50.07551956176758 7.023353576660156 46.35924911499023 5.451503753662109 C 42.51329803466797 3.824813842773438 38.42613983154297 3 34.21131896972656 3 M 34.21131896972656 0 C 53.10570526123047 0 68.42263793945312 15.31692886352539 68.42263793945312 34.21131896972656 L 68.42263793945312 34.21171569824219 C 68.42263793945312 53.10610580444336 53.10570526123047 68.42303466796875 34.21131896972656 68.42303466796875 C 15.31692886352539 68.42303466796875 0 53.10610580444336 0 34.21171569824219 L 0 34.21131896972656 C 0 15.31692886352539 15.31692886352539 0 34.21131896972656 0 Z" stroke="none" fill="#fff"/>
        </g>
      </g>
    </g>
    <g id="guantes-de-goma_copia" data-name="guantes-de-goma copia" transform="translate(1147.24 1047.18)">
      <path id="Path_1033916" data-name="Path 1033916" d="M14.307-.036a2.491,2.491,0,0,1,1.969,2.79A2.415,2.415,0,0,1,19.558,5.38a2.384,2.384,0,0,1,3.26,1.867c-.144,3.915.266,8.068.021,11.958-.138,2.188-.984,4.324-1.312,6.483L22.8,38.119l.725.4.631-.356,1.3-12.4c.026-.631-.9-2.579.009-2.823,1.131-.305,1.094,2.08,1.316,2.753L25.548,38.035H37.2c-.038-.368-.046-.746-.079-1.115a.486.486,0,0,0-.085-.2c-.305-3.348-.59-6.711-.986-10.054a3.613,3.613,0,0,1,.862-2.337c1.632-1.974,4-3.743,5.7-5.7a1.428,1.428,0,0,0-1.43-2.249c-1.067.14-1.533,1.945-2.842,1.679a1.511,1.511,0,0,1-1.062-.949,15.786,15.786,0,0,0,0-1.641c.035-3.075-.026-6.155,0-9.231a.985.985,0,0,0-1.962-.156l-.025,8.508a.668.668,0,0,1-1.278,0L33.924,1.884A.985.985,0,0,0,32.03,2.3l-.036,12.354a.67.67,0,0,1-1.258-.062l-.018-9.747a.985.985,0,0,0-1.969.082l-.018,9.747c-.167.75-1.3.461-1.3.018V7.306c0-.254-.421-.614-.656-.7a.98.98,0,0,0-1.307.784c.165,3.821-.237,7.852-.009,11.649.034.554.42,1.814.09,2.192a3.114,3.114,0,0,1-.331.224c-.929.194-1.027-1.65-1.066-2.257-.248-3.946.137-8.2.057-12.168a2.391,2.391,0,0,1,3.224-1.659A2.418,2.418,0,0,1,30.72,2.75,2.529,2.529,0,0,1,32.607-.04h.821a2.56,2.56,0,0,1,1.655,1.257,6.181,6.181,0,0,1,.232.671V4.063a2.391,2.391,0,0,1,3.107,1.282,4.584,4.584,0,0,1,.175.481V16.7c.391-.264.662-.694,1.027-.982a2.761,2.761,0,0,1,3.894,3.894c-1.533,1.937-4.087,3.688-5.62,5.621a2.282,2.282,0,0,0-.524,1.347l1.151,11.485a2.023,2.023,0,0,1-.257,3.908H24.319l-.848-.479-.957.479H8.564a2.049,2.049,0,0,1-.093-3.908c.217-3.586.837-7.158,1.077-10.739a2.456,2.456,0,0,0-.45-2.093C7.565,23.3,5.011,21.547,3.478,19.61a2.76,2.76,0,0,1,3.894-3.894c.365.289.637.719,1.027.982V5.83a4.5,4.5,0,0,1,.175-.481,2.392,2.392,0,0,1,3.107-1.282V1.811c0-.035.217-.559.26-.642a2.569,2.569,0,0,1,1.627-1.2h.738ZM5.528,16.375a1.414,1.414,0,0,0-1.219,2.162c1.7,2.013,4.129,3.791,5.773,5.8a3.7,3.7,0,0,1,.863,2.336L9.793,38.036H21.445c-.038-.368-.046-.746-.079-1.115a.485.485,0,0,0-.085-.2c-.333-3.649-.655-7.309-1.074-10.953a44.158,44.158,0,0,0,1.32-8.493c.011-.6,0-1.2,0-1.805.022-2.638-.016-5.28,0-7.918A.985.985,0,0,0,19.565,7.4l-.025,7.277a.67.67,0,0,1-1.258.062l-.036-9.81a.985.985,0,0,0-1.962-.156l-.025,9.821a.671.671,0,0,1-1.234.12L14.964,2.3a.985.985,0,0,0-1.894-.416l-.138,12.826a.672.672,0,0,1-1.234-.12l-.025-8.508a.985.985,0,0,0-1.962.156c-.238,3.4.317,7.238,0,10.588a1.319,1.319,0,0,1-2.177.94c-.73-.525-.932-1.394-2.011-1.395ZM9.876,40.662c4.083.1,8.182-.078,12.266,0a.659.659,0,0,0,.084-1.315c-4.112.082-8.24-.1-12.35,0-.544.014-1.45-.173-1.482.617C8.357,40.835,9.3,40.646,9.876,40.662Zm15.754,0c4.083.1,8.182-.078,12.266,0a.659.659,0,0,0,.084-1.315c-4.112.082-8.24-.1-12.35,0-.544.014-1.45-.173-1.482.617C24.111,40.835,25.056,40.646,25.63,40.662Z" fill="#020201"/>
      <path id="Path_1033917" data-name="Path 1033917" d="M43.75,26.21a.69.69,0,0,0-1.308.128,4.926,4.926,0,0,0,.12,1.839.71.71,0,0,0,1.188-.162,44.184,44.184,0,0,1-1.32,8.493c.419,3.644.742,7.306,1.074,10.953a10.818,10.818,0,0,1-4.43-.535,7.98,7.98,0,0,1-5.005-7.875c.068-1.328.662-3.6.178-4.775a5.088,5.088,0,0,0-.834-1.136c-1.653-1.873-3.726-3.554-5.419-5.412l-.245-.616c1.079,0,1.281.869,2.011,1.395a1.318,1.318,0,0,0,2.177-.94c.314-3.35-.242-7.187,0-10.588a.985.985,0,0,1,1.962-.156l.025,8.508a.671.671,0,0,0,1.234.12l.138-12.826a.985.985,0,0,1,1.894.416l.061,12.41a.671.671,0,0,0,1.234-.12l.025-9.821a.985.985,0,0,1,1.962.156l.036,9.81a.67.67,0,0,0,1.258-.062l.025-7.277a.985.985,0,0,1,1.962.156c-.016,2.639.021,5.28,0,7.918Z" transform="translate(-22.222 -10.738)" fill="#f7c35f"/>
      <path id="Path_1033918" data-name="Path 1033918" d="M232.467,26.192a.71.71,0,0,0-1.188-.162,4.926,4.926,0,0,0-.12,1.839.662.662,0,0,0,1.308-.036,1.511,1.511,0,0,0,1.062.949c1.31.265,1.776-1.539,2.842-1.679a1.428,1.428,0,0,1,1.43,2.249c-1.7,1.958-4.072,3.727-5.7,5.7a3.611,3.611,0,0,0-.862,2.337c.4,3.343.682,6.706.986,10.054a8.414,8.414,0,0,1-8.272-3.749c-2.117-3.5-.621-5.744-.67-9.252-.026-1.9-1.325-4.542-1.319-6.565l0-10.547c.235.084.656.443.656.7v7.385c0,.443,1.128.733,1.3-.018l.017-9.747a.985.985,0,0,1,1.969-.082l.018,9.747a.67.67,0,0,0,1.258.062l.036-12.354a.985.985,0,0,1,1.894-.416l.093,12.707a.668.668,0,0,0,1.278,0L230.5,16.8a.985.985,0,0,1,1.962.156c-.027,3.076.035,6.156,0,9.231Z" transform="translate(-195.185 -10.72)" fill="#f7c35f"/>
      <path id="Path_1033919" data-name="Path 1033919" d="M209.318,60.232l0,10.547c-.005,2.023,1.292,4.662,1.319,6.565.048,3.507-1.447,5.754.67,9.252a8.418,8.418,0,0,0,8.272,3.749.494.494,0,0,1,.085.2c.033.369.04.746.079,1.115H208.088l1.234-12.345c-.222-.673-.185-3.058-1.316-2.753l-.246-1.477a2.907,2.907,0,0,0,.331-.224c.33-.379-.056-1.639-.09-2.192-.229-3.8.174-7.828.009-11.649a.98.98,0,0,1,1.307-.784Z" transform="translate(-182.539 -53.622)" fill="#e8ab47"/>
      <path id="Path_1033920" data-name="Path 1033920" d="M16.307,150l.245.616c1.692,1.858,3.764,3.54,5.419,5.412a5.088,5.088,0,0,1,.834,1.136c.484,1.174-.112,3.447-.178,4.775a7.98,7.98,0,0,0,5.005,7.875,10.818,10.818,0,0,0,4.43.535.494.494,0,0,1,.085.2c.033.369.04.746.079,1.115H20.573l1.152-11.368a3.709,3.709,0,0,0-.863-2.336c-1.645-2.005-4.077-3.782-5.773-5.8A1.414,1.414,0,0,1,16.308,150Z" transform="translate(-10.779 -133.625)" fill="#e8ab47"/>
      <path id="Path_1033921" data-name="Path 1033921" d="M66.121,361.042a1.356,1.356,0,0,1,0-1.313c4.11-.105,8.238.08,12.35,0a.659.659,0,0,1-.084,1.315C74.3,360.965,70.2,361.146,66.121,361.042Z" transform="translate(-56.244 -320.381)" fill="#f7c35f"/>
      <path id="Path_1033922" data-name="Path 1033922" d="M210.121,361.042a1.356,1.356,0,0,1,0-1.313c4.11-.105,8.238.08,12.35,0a.659.659,0,0,1-.084,1.315C218.3,360.965,214.2,361.146,210.121,361.042Z" transform="translate(-184.49 -320.381)" fill="#f7c35f"/>
      <path id="Path_1033923" data-name="Path 1033923" d="M163.1,138.383c0,.6.011,1.2,0,1.805a.71.71,0,0,1-1.188.162,4.927,4.927,0,0,1-.12-1.839A.69.69,0,0,1,163.1,138.383Z" transform="translate(-141.57 -122.911)" fill="#fefdfb"/>
      <path id="Path_1033924" data-name="Path 1033924" d="M307.1,138.329a15.779,15.779,0,0,1,0,1.641.662.662,0,0,1-1.308.036,4.926,4.926,0,0,1,.12-1.839A.71.71,0,0,1,307.1,138.329Z" transform="translate(-269.817 -122.857)" fill="#fefdfb"/>
      <path id="Path_1033925" data-name="Path 1033925" d="M55.424,359.921a1.356,1.356,0,0,0,0,1.313c-.574-.014-1.52.174-1.482-.7C53.975,359.748,54.88,359.935,55.424,359.921Z" transform="translate(-45.547 -320.572)" fill="#e5a845"/>
      <path id="Path_1033926" data-name="Path 1033926" d="M199.424,359.921a1.356,1.356,0,0,0,0,1.313c-.574-.014-1.52.174-1.482-.7C197.975,359.748,198.88,359.935,199.424,359.921Z" transform="translate(-173.793 -320.572)" fill="#e5a845"/>
    </g>
  </g>
</svg>
