<svg xmlns="http://www.w3.org/2000/svg" xmlns:xlink="http://www.w3.org/1999/xlink" width="207.994" height="144.894" viewBox="0 0 207.994 144.894">
  <defs>
    <filter id="Rectangle_404858" x="0" y="0.122" width="207.994" height="144.772" filterUnits="userSpaceOnUse">
      <feOffset dx="3" dy="6" input="SourceAlpha"/>
      <feGaussianBlur stdDeviation="5" result="blur"/>
      <feFlood flood-opacity="0.161"/>
      <feComposite operator="in" in2="blur"/>
      <feComposite in="SourceGraphic"/>
    </filter>
  </defs>
  <g id="Group_1198073" data-name="Group 1198073" transform="translate(-197.002 -490.684)">
    <g id="Group_1113681" data-name="Group 1113681" transform="translate(209.002 499.806)">
      <g transform="matrix(1, 0, 0, 1, -12, -9.12)" filter="url(#Rectangle_404858)">
        <rect id="Rectangle_404858-2" data-name="Rectangle 404858" width="177.994" height="114.772" rx="8" transform="translate(12 9.12)" fill="#1b5e69"/>
      </g>
    </g>
    <g id="equipment_15394757" transform="translate(231.832 490.684)">
      <path id="Path_1065271" data-name="Path 1065271" d="M68.881,199.541a268.57,268.57,0,0,0-2.062,34.726c.01,10.115.335,18.21,13.319,17.488h5.3A11.069,11.069,0,0,1,96.486,262.8v13.631a4.449,4.449,0,0,1-4.44,4.44H81.44a2.026,2.026,0,0,1-1.483-.615l-2.126-2.126L75.7,280.259a2.026,2.026,0,0,1-1.483.615H71.955a2.026,2.026,0,0,1-1.483-.615l-2.126-2.126-2.126,2.126a2.026,2.026,0,0,1-1.483.615H48.461a3.474,3.474,0,0,1-2.543-1.053l-2.326-2.326a1.2,1.2,0,0,0-1.7,0l-2.326,2.326a3.474,3.474,0,0,1-2.543,1.053H28.41A4.44,4.44,0,0,1,24,275.887a286.969,286.969,0,0,0-1.068-76.346H68.882Z" transform="translate(-17.846 -146.973)" fill="#fdb0a0" fill-rule="evenodd"/>
      <path id="Path_1065272" data-name="Path 1065272" d="M77.158,251.755a25.089,25.089,0,0,0,2.979,0H80.6A11.069,11.069,0,0,1,91.646,262.8v13.631a4.449,4.449,0,0,1-4.44,4.44H81.44a2.026,2.026,0,0,1-1.483-.615l-2.126-2.126L75.7,280.259a2.249,2.249,0,0,1-.294.248,2.23,2.23,0,0,1-.294-.248l-2.126-2.126-2.126,2.126a2.268,2.268,0,0,1-.2.176,2.268,2.268,0,0,1-.2-.176l-2.126-2.126-2.126,2.126a2.248,2.248,0,0,1-.294.248,2.23,2.23,0,0,1-.294-.248l-2.126-2.126-2.126,2.126a2.026,2.026,0,0,1-1.483.615H48.46a3.474,3.474,0,0,1-2.543-1.053l-2.326-2.326a1.2,1.2,0,0,0-1.7,0l-1.572,1.572-1.572-1.572a1.2,1.2,0,0,0-1.7,0l-2.326,2.326a3.473,3.473,0,0,1-2.543,1.053H28.409A4.44,4.44,0,0,1,24,275.887a286.969,286.969,0,0,0-1.068-76.346H64.042a268.571,268.571,0,0,0-2.062,34.726c.01,10.114.335,18.21,13.319,17.488h1.86Z" transform="translate(-17.845 -146.973)" fill="#ffcec0" fill-rule="evenodd"/>
      <path id="Path_1065273" data-name="Path 1065273" d="M28.791,418.65q.952-8.863,1.318-17.873A23.83,23.83,0,0,1,52.656,418.65Z" transform="translate(-22.127 -294.111)" fill="#fdb0a0" fill-rule="evenodd"/>
      <path id="Path_1065274" data-name="Path 1065274" d="M99.29,467.26v4.922a4.449,4.449,0,0,1-4.44,4.44H84.244a2.026,2.026,0,0,1-1.483-.615l-2.126-2.126-2.126,2.126a2.026,2.026,0,0,1-1.483.615H74.759a2.026,2.026,0,0,1-1.483-.615l-2.126-2.126-2.126,2.126a2.026,2.026,0,0,1-1.483.615H51.265a3.474,3.474,0,0,1-2.543-1.053L46.4,473.242a1.2,1.2,0,0,0-1.7,0l-2.326,2.326a3.474,3.474,0,0,1-2.543,1.053H31.214a4.44,4.44,0,0,1-4.406-4.987q.271-2.183.506-4.374H99.29Z" transform="translate(-20.649 -342.721)" fill="#918591" fill-rule="evenodd"/>
      <path id="Path_1065275" data-name="Path 1065275" d="M90.011,476.623H84.244a2.026,2.026,0,0,1-1.483-.615l-2.126-2.126H75.8l-2.126,2.126a2.279,2.279,0,0,1-.2.176,2.27,2.27,0,0,1-.2-.176l-2.126-2.126H68.175l-2.126,2.126a2.027,2.027,0,0,1-1.483.615h-13.3a3.474,3.474,0,0,1-2.543-1.053L46.4,473.243a1.2,1.2,0,0,0-.89-.35H41.836a1.606,1.606,0,0,0-.18.008,1.193,1.193,0,0,0-.706.342l-2.326,2.326a3.474,3.474,0,0,1-2.543,1.053H31.214a4.44,4.44,0,0,1-4.406-4.987q.271-2.183.506-4.374H94.451v4.922a4.449,4.449,0,0,1-4.44,4.44Z" transform="translate(-20.649 -342.722)" fill="#a79ba7" fill-rule="evenodd"/>
      <rect id="Rectangle_414936" data-name="Rectangle 414936" width="52.153" height="12.716" rx="6.358" transform="translate(1.884 39.852)" fill="#f29988"/>
      <rect id="Rectangle_414937" data-name="Rectangle 414937" width="47.314" height="12.716" rx="6.358" transform="translate(1.884 39.852)" fill="#fdb0a0"/>
      <g id="Group_1198074" data-name="Group 1198074" transform="translate(0 0)">
        <path id="Path_1065276" data-name="Path 1065276" d="M95.843,15.823v8.635a11.921,11.921,0,0,0,11.9,11.9h9.006a7.872,7.872,0,0,0,7.547-5.368l1.344-3.87a4.249,4.249,0,0,1,8.028,0l1.344,3.87a7.872,7.872,0,0,0,7.546,5.368h9.006a11.921,11.921,0,0,0,11.9-11.9V15.823a3.747,3.747,0,0,0-3.739-3.739H99.582A3.747,3.747,0,0,0,95.843,15.823Z" transform="translate(-71.153 -9.911)" fill="#cee7ff" fill-rule="evenodd"/>
        <path id="Path_1065277" data-name="Path 1065277" d="M95.843,15.823v8.635a11.921,11.921,0,0,0,11.9,11.9h6.183a7.872,7.872,0,0,0,7.547-5.368l1.344-3.87a4.187,4.187,0,0,1,4.014-2.855h2.823a4.188,4.188,0,0,1,4.014,2.855l1.344,3.87a7.872,7.872,0,0,0,7.546,5.368h6.183a11.921,11.921,0,0,0,11.9-11.9V15.823a3.747,3.747,0,0,0-3.739-3.739H99.582A3.747,3.747,0,0,0,95.843,15.823Z" transform="translate(-71.153 -9.911)" fill="#e3f1ff" fill-rule="evenodd"/>
        <path id="Path_1065278" data-name="Path 1065278" d="M347.365,25.994h4.446a2.542,2.542,0,0,1,2.534,2.534v2.863a2.542,2.542,0,0,1-2.534,2.535h-4.446Z" transform="translate(-255.058 -20.081)" fill="#4eb1fc" fill-rule="evenodd"/>
        <path id="Path_1065279" data-name="Path 1065279" d="M347.365,25.994h2.329a2.542,2.542,0,0,1,2.534,2.534v2.863a2.542,2.542,0,0,1-2.534,2.535h-2.329Z" transform="translate(-255.058 -20.081)" fill="#85caff" fill-rule="evenodd"/>
        <path id="Path_1065280" data-name="Path 1065280" d="M76.859,25.994H72.413a2.542,2.542,0,0,0-2.534,2.534v2.863a2.542,2.542,0,0,0,2.534,2.535h4.446Z" transform="translate(-52.169 -20.081)" fill="#85caff" fill-rule="evenodd"/>
        <path id="Path_1065281" data-name="Path 1065281" d="M367.768,355.554c-5.684,3.549-12.565,5.57-16.264,6.514v15.951a10.4,10.4,0,0,0,1.482,5.458c2.762,4.651,9.643,8.312,14.783,11.419,5.139-3.107,12.021-6.768,14.783-11.419a10.394,10.394,0,0,0,1.482-5.458V362.068C380.333,361.124,373.452,359.1,367.768,355.554Z" transform="translate(-258.085 -261.045)" fill="#4eb1fc" fill-rule="evenodd"/>
        <path id="Path_1065282" data-name="Path 1065282" d="M366.381,358.618a63.152,63.152,0,0,1-14.877,5.691v15.951a10.394,10.394,0,0,0,1.482,5.458c2.762,4.651,9.643,8.312,14.783,11.419,4.242-2.565,9.672-5.508,12.991-9.072.18-.255.349-.513.5-.775a12.926,12.926,0,0,0,1.482-6.141V365.2a61.153,61.153,0,0,1-15.881-6.278C366.79,358.874,366.575,358.74,366.381,358.618Z" transform="translate(-258.085 -263.285)" fill="#85caff" fill-rule="evenodd"/>
        <path id="Path_1065283" data-name="Path 1065283" d="M270.636,160.623h21.451c5.186,0,2.168-10.355-5.4-10.355h-5.591c-6.7,0-3.376-4.787.155-8.318l18.1-18.1a4.72,4.72,0,1,0-6.675-6.675l3.877-3.877a4.836,4.836,0,0,0-6.84-6.84l-4.545,4.545a4.72,4.72,0,0,0-6.675-6.675l-8.925,8.925a4.37,4.37,0,1,0-6.18-6.18l-17.469,17.469c-7.646,7.646-3.882,14.16-11.287,21.566L227,153.733l21.23,21.23,8.641-8.641a18.8,18.8,0,0,1,13.76-5.7Z" transform="translate(-167.055 -76.354)" fill="#f0e3df" fill-rule="evenodd"/>
        <path id="Path_1065284" data-name="Path 1065284" d="M431.1,283.025c1.075-2.882-2.046-8.821-7.78-8.821h-5.591c-2.548,0-3.647-.692-3.836-1.744-.213,1.82,1.7,4.78,7.8,4.78l3.776.082a5.435,5.435,0,0,1,5.629,5.7Z" transform="translate(-303.689 -200.289)" fill="#d9c5bf" fill-rule="evenodd"/>
        <path id="Path_1065285" data-name="Path 1065285" d="M270.7,116.816a4.335,4.335,0,0,0-1.136-1.993,4.383,4.383,0,0,0-6.18,0l-17.469,17.469c-7.646,7.646-3.882,14.16-11.287,21.566L227,161.477l2.537,2.537,7.349-7.349c7.406-7.405,3.642-13.92,11.287-21.566l17.469-17.469a4.387,4.387,0,0,1,5.049-.815Z" transform="translate(-167.054 -84.098)" fill="#d9c5bf" fill-rule="evenodd"/>
        <path id="Path_1065286" data-name="Path 1065286" d="M378.29,106.334a4.68,4.68,0,0,0-1.186-2,4.734,4.734,0,0,0-6.675,0l-17.153,17.153a1.794,1.794,0,0,0,2.537,2.537L372.7,107.141a4.738,4.738,0,0,1,5.594-.807Z" transform="translate(-258.998 -76.353)" fill="#d9c5bf" fill-rule="evenodd"/>
        <path id="Path_1065287" data-name="Path 1065287" d="M415.466,114.167a4.793,4.793,0,0,0-1.2-2,4.85,4.85,0,0,0-6.84,0l-18.9,18.9a1.794,1.794,0,0,0,2.538,2.537l18.625-18.625a4.856,4.856,0,0,1,5.774-.8Z" transform="translate(-284.774 -82.054)" fill="#d9c5bf" fill-rule="evenodd"/>
        <path id="Path_1065288" data-name="Path 1065288" d="M437.171,154.125a4.681,4.681,0,0,0-1.186-2,4.734,4.734,0,0,0-6.675,0l-14.9,14.9a1.794,1.794,0,0,0,2.537,2.538l14.63-14.63a4.739,4.739,0,0,1,5.594-.807Z" transform="translate(-303.697 -111.297)" fill="#d9c5bf" fill-rule="evenodd"/>
        <path id="Path_1065289" data-name="Path 1065289" d="M23.59,12.156a.661.661,0,0,1,.652-.653h2.564V15.67H24.243a.66.66,0,0,1-.652-.651Zm6.98-2.535a1.86,1.86,0,0,1,1.858-1.858H92.566a1.86,1.86,0,0,1,1.858,1.858v8.634A10.029,10.029,0,0,1,84.407,28.273H75.4a5.961,5.961,0,0,1-5.769-4.105L68.289,20.3a6.132,6.132,0,0,0-11.584,0l-1.344,3.872a5.961,5.961,0,0,1-5.769,4.105H40.586A10.029,10.029,0,0,1,30.571,18.255V9.621ZM101.4,12.156v2.864a.66.66,0,0,1-.652.651H98.187V11.5h2.564A.661.661,0,0,1,101.4,12.156Zm-77.16,7.277h2.618a13.8,13.8,0,0,0,13.726,12.6h9.006A9.755,9.755,0,0,0,58.917,25.4l1.344-3.868a2.367,2.367,0,0,1,4.473,0L66.078,25.4A9.754,9.754,0,0,0,75.4,32.036h9.006a13.8,13.8,0,0,0,13.726-12.6h2.618a4.421,4.421,0,0,0,4.416-4.413V12.156a4.422,4.422,0,0,0-4.416-4.417H97.856A5.627,5.627,0,0,0,92.566,4H32.428a5.628,5.628,0,0,0-5.29,3.739H24.243a4.422,4.422,0,0,0-4.416,4.417v2.864a4.421,4.421,0,0,0,4.416,4.413Zm56.514,106.93H35.939a25.8,25.8,0,0,0-22.02-17.756A299.294,299.294,0,0,0,11.25,58.156H52.895A279.951,279.951,0,0,0,51.09,91c.007,6.167.013,12.547,3.99,16.3,2.474,2.339,6.158,3.342,11.262,3.064h5.249a9.177,9.177,0,0,1,9.166,9.168v6.825ZM78.2,135.726H67.593a.163.163,0,0,1-.153-.063l-2.126-2.124a1.877,1.877,0,0,0-2.661,0l-2.126,2.124a.163.163,0,0,1-.153.063H58.108a.163.163,0,0,1-.153-.063l-2.126-2.124a1.877,1.877,0,0,0-2.661,0l-2.126,2.124a.162.162,0,0,1-.152.063H34.613a1.6,1.6,0,0,1-1.213-.5L31.075,132.9a3.084,3.084,0,0,0-4.356,0l-2.326,2.325a1.6,1.6,0,0,1-1.212.5H14.563a2.56,2.56,0,0,1-2.539-2.874q.169-1.357.322-2.725h68.41v3.04a2.562,2.562,0,0,1-2.558,2.559ZM13.767,112.371q-.333,7.052-1.02,13.992H31.954A22.032,22.032,0,0,0,13.767,112.371ZM8.447,45.443H55.472a.69.69,0,0,1,.682.68v7.588a.69.69,0,0,1-.682.68H8.447a.69.69,0,0,1-.682-.68V46.123A.69.69,0,0,1,8.447,45.443Zm.333-7.226a1.029,1.029,0,0,1,1.015,1.016v2.446H8.447a4.386,4.386,0,0,0-.682.057v-2.5A1.029,1.029,0,0,1,8.78,38.216Zm62.811,68.391h-5.3c-.035,0-.069,0-.1,0-4.044.225-6.831-.442-8.522-2.038-2.6-2.457-2.8-7.175-2.811-13.573a273.674,273.674,0,0,1,1.856-33.02,4.451,4.451,0,0,0,3.208-4.267V46.123a4.449,4.449,0,0,0-4.446-4.445H13.558V39.233a4.779,4.779,0,1,0-9.557,0V53.711a4.45,4.45,0,0,0,3.433,4.324,285.847,285.847,0,0,1,.855,74.353,6.324,6.324,0,0,0,6.274,7.1H23.18a5.375,5.375,0,0,0,3.873-1.605l1.844-1.844,1.843,1.844a5.376,5.376,0,0,0,3.874,1.605H50.889a3.9,3.9,0,0,0,2.814-1.166l.8-.8.8.8a3.9,3.9,0,0,0,2.814,1.166h2.266a3.9,3.9,0,0,0,2.814-1.166l.8-.8.8.8a3.9,3.9,0,0,0,2.814,1.166H78.2a6.33,6.33,0,0,0,6.322-6.323V119.538a12.945,12.945,0,0,0-12.93-12.931Zm41.082-29.943c.7,1.694,2.535,2.554,5.449,2.554h5.551a6.179,6.179,0,0,1,6.054,5.613,1.286,1.286,0,0,1-.179.771.768.768,0,0,1-.509.135h-21.3a20.52,20.52,0,0,0-14.994,6.209l-7.661,7.662L66.664,81.19l6.647-6.649c4-4,5.009-7.75,5.979-11.377.905-3.377,1.759-6.568,5.229-10.036L101.865,35.78a2.458,2.458,0,0,1,3.477,3.477h0l-8.357,8.358a1.882,1.882,0,0,0,2.661,2.662L108,41.918l8.863-8.864a2.805,2.805,0,0,1,3.966,3.969L107.767,50.085a1.882,1.882,0,0,0,2.661,2.661l13.064-13.063.041-.04L128,35.17a2.921,2.921,0,0,1,4.13,4.132l-3.85,3.85L114.246,57.19a1.882,1.882,0,0,0,2.661,2.661l14.039-14.038a2.8,2.8,0,0,1,3.967,3.965L116.946,67.747c-3.79,3.792-5.187,6.707-4.272,8.918Zm24.9-24.225a6.569,6.569,0,0,0-2.446-10.834,6.685,6.685,0,0,0-9.784-9.1l-.313.315a6.5,6.5,0,0,0-1.539-2.429,6.579,6.579,0,0,0-9.289,0l-4.821,4.821a6.231,6.231,0,0,0-10.178-2.1L81.857,50.467c-4.182,4.183-5.255,8.188-6.2,11.724-.882,3.29-1.714,6.4-5,9.691l-7.978,7.977a1.882,1.882,0,0,0,0,2.661L83.752,103.6a1.874,1.874,0,0,0,2.661,0l8.992-8.99A16.875,16.875,0,0,1,107.738,89.5h21.3a4.242,4.242,0,0,0,3.382-1.468,4.864,4.864,0,0,0,1.07-3.2,10,10,0,0,0-9.817-9.378h-5.551a4.556,4.556,0,0,1-1.954-.283c.059-.488.737-2.062,3.438-4.763L137.573,52.44Zm-26.64,67.481,8.468-8.465a1.881,1.881,0,1,1,2.661,2.659l-10.2,10.2a1.883,1.883,0,0,1-1.331.551,1.733,1.733,0,0,1-.246-.017,1.874,1.874,0,0,1-1.384-.924l-3.9-6.751a1.882,1.882,0,0,1,3.26-1.882l2.672,4.626Zm17.173.767a8.6,8.6,0,0,1-1.221,4.511c-2.185,3.677-7.507,6.836-12.2,9.621q-.506.3-1,.595c-.329-.2-.663-.4-1-.595-4.7-2.785-10.017-5.944-12.2-9.621a8.6,8.6,0,0,1-1.221-4.511V106.145a61.955,61.955,0,0,0,14.424-5.783,62.074,62.074,0,0,0,14.424,5.783v14.544Zm2.347-17.816a58.3,58.3,0,0,1-15.774-6.3,1.887,1.887,0,0,0-1.993,0,58.317,58.317,0,0,1-15.775,6.3,1.883,1.883,0,0,0-1.417,1.822v15.994a12.257,12.257,0,0,0,1.749,6.432c2.675,4.5,8.436,7.92,13.518,10.936.668.4,1.321.783,1.947,1.161a1.878,1.878,0,0,0,1.947,0c.627-.378,1.279-.766,1.947-1.161,5.083-3.017,10.843-6.434,13.519-10.936a12.264,12.264,0,0,0,1.749-6.432V104.695a1.883,1.883,0,0,0-1.416-1.822Z" transform="translate(-4.001 -3.999)" fill-rule="evenodd"/>
      </g>
    </g>
  </g>
</svg>
