<svg xmlns="http://www.w3.org/2000/svg" xmlns:xlink="http://www.w3.org/1999/xlink" width="118" height="118" viewBox="0 0 118 118">
  <defs>
    <filter id="Ellipse_12115" x="0" y="0" width="118" height="118" filterUnits="userSpaceOnUse">
      <feOffset dy="3" input="SourceAlpha"/>
      <feGaussianBlur stdDeviation="3" result="blur"/>
      <feFlood flood-opacity="0.161"/>
      <feComposite operator="in" in2="blur"/>
      <feComposite in="SourceGraphic"/>
    </filter>
  </defs>
  <g id="Group_1198084" data-name="Group 1198084" transform="translate(9 6)">
    <g transform="matrix(1, 0, 0, 1, -9, -6)" filter="url(#Ellipse_12115)">
      <g id="Ellipse_12115-2" data-name="Ellipse 12115" transform="translate(9 6)" fill="#a4c0c4" stroke="#1d636d" stroke-width="1">
        <circle cx="50" cy="50" r="50" stroke="none"/>
        <circle cx="50" cy="50" r="49.5" fill="none"/>
      </g>
    </g>
    <g id="guantes-de-goma_copia" data-name="guantes-de-goma copia" transform="translate(18.66 21.075)">
      <path id="Path_1033916" data-name="Path 1033916" d="M18.669-.034a3.435,3.435,0,0,1,2.715,3.847A3.33,3.33,0,0,1,25.91,7.434a3.287,3.287,0,0,1,4.5,2.575c-.2,5.4.367,11.126.029,16.489-.19,3.017-1.356,5.962-1.809,8.94l1.751,17.142,1,.546.87-.49,1.8-17.1c.036-.87-1.237-3.556.012-3.892,1.56-.421,1.509,2.868,1.815,3.8l-1.7,17.023H50.236c-.053-.507-.063-1.029-.109-1.537a.67.67,0,0,0-.118-.273c-.421-4.616-.813-9.254-1.359-13.864a4.982,4.982,0,0,1,1.189-3.222c2.251-2.721,5.517-5.161,7.866-7.861a1.969,1.969,0,0,0-1.972-3.1c-1.471.193-2.114,2.682-3.919,2.316a2.084,2.084,0,0,1-1.465-1.308,21.768,21.768,0,0,0,0-2.263c.048-4.241-.036-8.487,0-12.729a1.358,1.358,0,0,0-2.7-.216l-.035,11.732a.921.921,0,0,1-1.762,0L45.719,2.614a1.359,1.359,0,0,0-2.611.573l-.05,17.035a.924.924,0,0,1-1.735-.086L41.3,6.7a1.359,1.359,0,0,0-2.715.113l-.024,13.44c-.231,1.035-1.786.635-1.786.024V10.09c0-.35-.581-.846-.905-.962a1.352,1.352,0,0,0-1.8,1.082c.228,5.269-.327,10.827-.012,16.063.047.763.579,2.5.124,3.023a4.3,4.3,0,0,1-.457.309c-1.281.267-1.417-2.275-1.469-3.112-.342-5.441.189-11.311.078-16.778a3.3,3.3,0,0,1,4.446-2.287A3.335,3.335,0,0,1,41.3,3.807,3.487,3.487,0,0,1,43.9-.04h1.131a3.53,3.53,0,0,1,2.282,1.733,8.523,8.523,0,0,1,.32.925v3a3.3,3.3,0,0,1,4.284,1.768,6.321,6.321,0,0,1,.241.664V23.041c.539-.364.913-.956,1.417-1.355a3.807,3.807,0,0,1,5.369,5.369c-2.114,2.672-5.636,5.085-7.75,7.751a3.147,3.147,0,0,0-.723,1.857L52.063,52.5c2.658,1.171,2.539,4.689-.355,5.389H32.474L31.3,57.229l-1.32.661H10.749A2.826,2.826,0,0,1,10.62,52.5c.3-4.945,1.154-9.871,1.484-14.808.081-1.208.18-1.875-.62-2.886-2.114-2.667-5.635-5.079-7.75-7.751A3.806,3.806,0,0,1,9.1,21.687c.5.4.878.991,1.417,1.355V8.055a6.2,6.2,0,0,1,.241-.664,3.3,3.3,0,0,1,4.284-1.768V2.513c0-.048.3-.771.359-.886A3.543,3.543,0,0,1,17.649-.034h1.018ZM6.562,22.595a1.95,1.95,0,0,0-1.681,2.981c2.34,2.776,5.693,5.227,7.961,7.992a5.1,5.1,0,0,1,1.19,3.221L12.444,52.465H28.511c-.053-.507-.063-1.029-.109-1.537a.669.669,0,0,0-.118-.273c-.459-5.031-.9-10.079-1.481-15.1.834-4.072,1.747-7.513,1.821-11.711.015-.828-.006-1.661,0-2.489.03-3.637-.023-7.28,0-10.919a1.358,1.358,0,0,0-2.7-.216L25.884,20.25a.923.923,0,0,1-1.735.086L24.1,6.809a1.358,1.358,0,0,0-2.7-.216L21.36,20.136a.926.926,0,0,1-1.7.166L19.574,3.188a1.359,1.359,0,0,0-2.611-.573L16.772,20.3a.926.926,0,0,1-1.7-.166L15.036,8.4a1.358,1.358,0,0,0-2.7.216c-.329,4.69.437,9.981,0,14.6a1.818,1.818,0,0,1-3,1.3c-1.006-.724-1.285-1.922-2.773-1.923Zm6,33.49c5.63.143,11.283-.107,16.914,0a.909.909,0,0,0,.116-1.813c-5.671.113-11.363-.142-17.03,0-.75.02-2-.238-2.044.851C10.463,56.325,11.767,56.064,12.559,56.085Zm21.724,0c5.63.143,11.283-.107,16.914,0a.909.909,0,0,0,.116-1.813c-5.671.113-11.363-.142-17.03,0-.75.02-2-.238-2.044.851C32.187,56.325,33.49,56.064,34.282,56.085Z" transform="translate(0)" fill="#020201"/>
      <path id="Path_1033917" data-name="Path 1033917" d="M49.813,31.589a.951.951,0,0,0-1.8.177,6.792,6.792,0,0,0,.166,2.536.98.98,0,0,0,1.638-.223c-.074,4.2-.987,7.638-1.821,11.711.578,5.025,1.023,10.074,1.481,15.1a14.918,14.918,0,0,1-6.108-.738,11,11,0,0,1-6.9-10.859c.094-1.831.913-4.966.246-6.585a7.016,7.016,0,0,0-1.15-1.566c-2.279-2.583-5.138-4.9-7.472-7.463l-.338-.849c1.487,0,1.767,1.2,2.773,1.923a1.818,1.818,0,0,0,3-1.3c.433-4.619-.333-9.91,0-14.6a1.358,1.358,0,0,1,2.7-.216l.035,11.732a.926.926,0,0,0,1.7.166l.19-17.687a1.359,1.359,0,0,1,2.611.573l.084,17.113a.926.926,0,0,0,1.7-.166l.035-13.543a1.358,1.358,0,0,1,2.7.216l.05,13.527a.924.924,0,0,0,1.735-.086l.035-10.035a1.358,1.358,0,0,1,2.7.216c-.023,3.639.029,7.28,0,10.919Z" transform="translate(-21.188 -10.238)" fill="#5fcef7"/>
      <path id="Path_1033918" data-name="Path 1033918" d="M236.448,31.572a.979.979,0,0,0-1.638-.223,6.793,6.793,0,0,0-.166,2.536.913.913,0,0,0,1.8-.05,2.084,2.084,0,0,0,1.465,1.308c1.806.365,2.448-2.123,3.919-2.316a1.969,1.969,0,0,1,1.972,3.1c-2.349,2.7-5.615,5.14-7.866,7.861a4.979,4.979,0,0,0-1.189,3.222c.546,4.61.94,9.248,1.359,13.864-4.53.433-9-1.193-11.406-5.17-2.919-4.821-.857-7.92-.923-12.758-.036-2.625-1.827-6.264-1.819-9.053l0-14.544c.324.116.905.611.905.962V30.5c0,.611,1.555,1.011,1.786-.024l.024-13.44a1.359,1.359,0,0,1,2.715-.113l.024,13.44a.923.923,0,0,0,1.735.086l.05-17.035a1.359,1.359,0,0,1,2.611-.573l.128,17.522a.921.921,0,0,0,1.762,0l.035-11.732a1.358,1.358,0,0,1,2.7.216c-.038,4.242.048,8.489,0,12.729Z" transform="translate(-186.099 -10.221)" fill="#5fcef7"/>
      <path id="Path_1033919" data-name="Path 1033919" d="M209.908,60.256l0,14.544c-.007,2.789,1.782,6.428,1.819,9.053.066,4.837-2,7.935.923,12.758,2.408,3.975,6.876,5.6,11.406,5.17a.681.681,0,0,1,.118.273c.045.508.056,1.029.109,1.537H208.213l1.7-17.023c-.306-.928-.255-4.216-1.815-3.8l-.339-2.037a4.006,4.006,0,0,0,.457-.309c.456-.522-.077-2.26-.124-3.023-.315-5.236.24-10.794.012-16.063a1.352,1.352,0,0,1,1.8-1.082Z" transform="translate(-174.042 -51.126)" fill="#0085cb"/>
      <path id="Path_1033920" data-name="Path 1033920" d="M16.839,150l.338.849c2.334,2.562,5.191,4.882,7.472,7.463a7.017,7.017,0,0,1,1.15,1.566c.667,1.619-.154,4.754-.246,6.585a11,11,0,0,0,6.9,10.859,14.917,14.917,0,0,0,6.108.738.681.681,0,0,1,.118.273c.045.508.056,1.029.109,1.537H22.723l1.589-15.676a5.115,5.115,0,0,0-1.19-3.221c-2.269-2.765-5.622-5.215-7.961-7.992A1.95,1.95,0,0,1,16.841,150Z" transform="translate(-10.277 -127.405)" fill="#0085cb"/>
      <path id="Path_1033921" data-name="Path 1033921" d="M66.185,361.552a1.87,1.87,0,0,1,0-1.81c5.668-.145,11.36.11,17.03,0a.909.909,0,0,1-.116,1.813C77.466,361.445,71.813,361.7,66.185,361.552Z" transform="translate(-53.626 -305.467)" fill="#5fcef7"/>
      <path id="Path_1033922" data-name="Path 1033922" d="M210.185,361.552a1.87,1.87,0,0,1,0-1.81c5.668-.145,11.36.11,17.03,0a.909.909,0,0,1-.116,1.813C221.466,361.445,215.813,361.7,210.185,361.552Z" transform="translate(-175.902 -305.467)" fill="#5fcef7"/>
      <path id="Path_1033923" data-name="Path 1033923" d="M163.606,138.54c-.006.828.015,1.661,0,2.489a.98.98,0,0,1-1.638.223,6.8,6.8,0,0,1-.166-2.536A.951.951,0,0,1,163.606,138.54Z" transform="translate(-134.98 -117.19)" fill="#fefdfb"/>
      <path id="Path_1033924" data-name="Path 1033924" d="M307.606,138.488a21.755,21.755,0,0,1,0,2.263.913.913,0,0,1-1.8.05,6.792,6.792,0,0,1,.166-2.536A.98.98,0,0,1,307.606,138.488Z" transform="translate(-257.257 -117.138)" fill="#fefdfb"/>
      <path id="Path_1033925" data-name="Path 1033925" d="M55.986,359.924a1.87,1.87,0,0,0,0,1.81c-.792-.02-2.1.24-2.044-.959C53.989,359.686,55.236,359.944,55.986,359.924Z" transform="translate(-43.427 -305.649)" fill="#0085cb"/>
      <path id="Path_1033926" data-name="Path 1033926" d="M199.986,359.924a1.87,1.87,0,0,0,0,1.81c-.792-.02-2.1.24-2.044-.959C197.989,359.686,199.236,359.944,199.986,359.924Z" transform="translate(-165.703 -305.649)" fill="#0085cb"/>
    </g>
  </g>
</svg>
