<svg xmlns="http://www.w3.org/2000/svg" xmlns:xlink="http://www.w3.org/1999/xlink" width="86.423" height="86.423" viewBox="0 0 86.423 86.423">
  <defs>
    <filter id="Path_874925" x="0" y="0" width="86.423" height="86.423" filterUnits="userSpaceOnUse">
      <feOffset dy="3" input="SourceAlpha"/>
      <feGaussianBlur stdDeviation="3" result="blur"/>
      <feFlood flood-opacity="0.161"/>
      <feComposite operator="in" in2="blur"/>
      <feComposite in="SourceGraphic"/>
    </filter>
  </defs>
  <g id="Group_1111692" data-name="Group 1111692" transform="translate(-1127.525 -1027.934)">
    <g id="Group_1109835" data-name="Group 1109835" transform="translate(1136.525 1033.934)">
      <g id="Group_1107913" data-name="Group 1107913" transform="translate(0 0)">
        <g transform="matrix(1, 0, 0, 1, -9, -6)" filter="url(#Path_874925)">
          <g id="Path_874925-2" data-name="Path 874925" transform="translate(9 6)" fill="#a8cf89">
            <path d="M 34.21131896972656 66.92303466796875 C 29.79465866088867 66.92303466796875 25.51090812683105 66.05836486816406 21.47905921936035 64.35303497314453 C 17.58399963378906 62.70556640625 14.08555889129639 60.34674835205078 11.08091926574707 57.34211730957031 C 8.076289176940918 54.33747863769531 5.717468738555908 50.83903884887695 4.069998741149902 46.94397735595703 C 2.36466908454895 42.91212844848633 1.499998927116394 38.62837600708008 1.499998927116394 34.21171569824219 C 1.499998927116394 29.79465675354004 2.36466908454895 25.51090812683105 4.069998741149902 21.47905731201172 C 5.717468738555908 17.58399772644043 8.076289176940918 14.08555698394775 11.08091926574707 11.08091735839844 C 14.08555889129639 8.076287269592285 17.58399963378906 5.717467308044434 21.47905921936035 4.069997310638428 C 25.51090812683105 2.364667415618896 29.79465866088867 1.49999737739563 34.21131896972656 1.49999737739563 C 38.62797927856445 1.49999737739563 42.91172790527344 2.364667415618896 46.94358062744141 4.069997310638428 C 50.83863830566406 5.717467308044434 54.33707809448242 8.076287269592285 57.34172058105469 11.08091735839844 C 60.34634780883789 14.08555698394775 62.70516967773438 17.58399772644043 64.35263824462891 21.47905731201172 C 66.05796813964844 25.51090812683105 66.92263793945312 29.79465675354004 66.92263793945312 34.21131896972656 C 66.92263793945312 38.62837600708008 66.05796813964844 42.91212844848633 64.35263824462891 46.94397735595703 C 62.70516967773438 50.83903884887695 60.34634780883789 54.33747863769531 57.34172058105469 57.34211730957031 C 54.33707809448242 60.34674835205078 50.83863830566406 62.70556640625 46.94358062744141 64.35303497314453 C 42.91172790527344 66.05836486816406 38.62797927856445 66.92303466796875 34.21131896972656 66.92303466796875 Z" stroke="none"/>
            <path d="M 34.21131896972656 3 C 29.99649429321289 3 25.90934371948242 3.824813842773438 22.06338882446289 5.451503753662109 C 18.34711837768555 7.023353576660156 15.00894165039062 9.274223327636719 12.1415901184082 12.14158630371094 C 9.274223327636719 15.00894165039062 7.023353576660156 18.34711837768555 5.451507568359375 22.06338882446289 C 3.824813842773438 25.90933990478516 3 29.99649429321289 3 34.21171569824219 C 3 38.42654037475586 3.824813842773438 42.51369476318359 5.451507568359375 46.35964584350586 C 7.023353576660156 50.07592010498047 9.274223327636719 53.41409301757812 12.1415901184082 56.28144836425781 C 15.00894165039062 59.14881134033203 18.34711837768555 61.39968109130859 22.06338882446289 62.97152709960938 C 25.90934371948242 64.59822082519531 29.99649429321289 65.42303466796875 34.21131896972656 65.42303466796875 C 38.42613983154297 65.42303466796875 42.51329803466797 64.59822082519531 46.35924911499023 62.97152709960938 C 50.07551956176758 61.39968109130859 53.4136962890625 59.14881134033203 56.28104782104492 56.28144836425781 C 59.14841461181641 53.41409301757812 61.39928436279297 50.07592010498047 62.97113037109375 46.35964584350586 C 64.59782409667969 42.51369476318359 65.42263793945312 38.42654037475586 65.42263793945312 34.21131896972656 C 65.42263793945312 29.99649429321289 64.59782409667969 25.90933990478516 62.97113037109375 22.06338882446289 C 61.39928436279297 18.34711837768555 59.14841461181641 15.00894165039062 56.28104782104492 12.14158630371094 C 53.4136962890625 9.274223327636719 50.07551956176758 7.023353576660156 46.35924911499023 5.451503753662109 C 42.51329803466797 3.824813842773438 38.42613983154297 3 34.21131896972656 3 M 34.21131896972656 0 C 53.10570526123047 0 68.42263793945312 15.31692886352539 68.42263793945312 34.21131896972656 L 68.42263793945312 34.21171569824219 C 68.42263793945312 53.10610580444336 53.10570526123047 68.42303466796875 34.21131896972656 68.42303466796875 C 15.31692886352539 68.42303466796875 0 53.10610580444336 0 34.21171569824219 L 0 34.21131896972656 C 0 15.31692886352539 15.31692886352539 0 34.21131896972656 0 Z" stroke="none" fill="#fff"/>
          </g>
        </g>
        <g id="Path_874923" data-name="Path 874923" transform="translate(0 0)" fill="none">
          <path d="M34.211,0A34.211,34.211,0,0,1,68.423,34.211h0A34.211,34.211,0,0,1,0,34.212H0A34.211,34.211,0,0,1,34.211,0Z" stroke="none"/>
          <path d="M 34.21131896972656 3 C 29.99649429321289 3 25.90934371948242 3.824813842773438 22.06338882446289 5.451503753662109 C 18.34711837768555 7.023353576660156 15.00894165039062 9.274223327636719 12.1415901184082 12.14158630371094 C 9.274223327636719 15.00894165039062 7.023353576660156 18.34711837768555 5.451507568359375 22.06338882446289 C 3.824813842773438 25.90933990478516 3 29.99649429321289 3 34.21171569824219 C 3 38.42654037475586 3.824813842773438 42.51369476318359 5.451507568359375 46.35964584350586 C 7.023353576660156 50.07592010498047 9.274223327636719 53.41409301757812 12.1415901184082 56.28144836425781 C 15.00894165039062 59.14881134033203 18.34711837768555 61.39968109130859 22.06338882446289 62.97152709960938 C 25.90934371948242 64.59822082519531 29.99649429321289 65.42303466796875 34.21131896972656 65.42303466796875 C 38.42613983154297 65.42303466796875 42.51329803466797 64.59822082519531 46.35924911499023 62.97152709960938 C 50.07551956176758 61.39968109130859 53.4136962890625 59.14881134033203 56.28104782104492 56.28144836425781 C 59.14841461181641 53.41409301757812 61.39928436279297 50.07592010498047 62.97113037109375 46.35964584350586 C 64.59782409667969 42.51369476318359 65.42263793945312 38.42654037475586 65.42263793945312 34.21131896972656 C 65.42263793945312 29.99649429321289 64.59782409667969 25.90933990478516 62.97113037109375 22.06338882446289 C 61.39928436279297 18.34711837768555 59.14841461181641 15.00894165039062 56.28104782104492 12.14158630371094 C 53.4136962890625 9.274223327636719 50.07551956176758 7.023353576660156 46.35924911499023 5.451503753662109 C 42.51329803466797 3.824813842773438 38.42613983154297 3 34.21131896972656 3 M 34.21131896972656 0 C 53.10570526123047 0 68.42263793945312 15.31692886352539 68.42263793945312 34.21131896972656 L 68.42263793945312 34.21171569824219 C 68.42263793945312 53.10610580444336 53.10570526123047 68.42303466796875 34.21131896972656 68.42303466796875 C 15.31692886352539 68.42303466796875 0 53.10610580444336 0 34.21171569824219 L 0 34.21131896972656 C 0 15.31692886352539 15.31692886352539 0 34.21131896972656 0 Z" stroke="none" fill="#fff"/>
        </g>
      </g>
    </g>
    <g id="proteccion-auditiva" transform="translate(1146.745 1042.113)">
      <path id="Path_1065294" data-name="Path 1065294" d="M40.692,23.961a1.579,1.579,0,0,1,.185.022c.111.015.215.022.334.044.074.007.148.022.222.037.141.022.282.044.437.074.089.015.178.037.274.059.156.037.311.082.474.126l.289.089c.044.015.089.022.141.044C42.6,21.6,39.884,9.92,26.08,9.92S9.562,21.611,9.11,24.465c.044-.015.089-.03.141-.044l.289-.089c.163-.044.319-.089.474-.126.1-.022.185-.044.274-.059.156-.03.3-.059.437-.074.074-.015.156-.022.222-.037l.334-.044a1.409,1.409,0,0,0,.185-.022l.193-.022a21.412,21.412,0,0,1,2.194-7.265.369.369,0,0,1,.222-.185l1.3-.408A13.043,13.043,0,0,1,26.146,11.5a12.908,12.908,0,0,1,10.638,4.589l1.3.408a.369.369,0,0,1,.222.185,21.709,21.709,0,0,1,2.194,7.258c.067.007.119.015.193.022Z" transform="translate(-2.096 -0.261)" fill="#4c4845"/>
      <path id="Path_1065295" data-name="Path 1065295" d="M44.519,47.292a3.96,3.96,0,0,0,2.1.46c.037-.022.067-.044.1-.067a1,1,0,0,0,.1-.082c.044-.037.082-.082.126-.126s.067-.067.1-.1l.111-.156a1.208,1.208,0,0,0,.082-.126c.037-.059.067-.126.1-.193s.052-.1.074-.148.067-.148.1-.222c.022-.052.044-.1.067-.163.03-.082.059-.171.089-.259.022-.059.037-.111.059-.171.03-.1.052-.193.082-.3.015-.059.03-.111.044-.178.03-.111.052-.222.074-.341.015-.059.022-.111.037-.171.022-.133.052-.274.074-.415a.836.836,0,0,1,.022-.133c.059-.378.1-.771.148-1.186a1.439,1.439,0,0,1,.015-.178c.015-.148.03-.3.037-.46a1.958,1.958,0,0,1,.015-.215c.007-.148.022-.289.03-.437a1.438,1.438,0,0,1,.015-.252c0-.141.015-.274.015-.415,0-.1,0-.193.007-.289,0-.133,0-.267.007-.4V38.426c0-.111,0-.215-.007-.326,0-.133,0-.259-.007-.393s-.007-.23-.015-.348-.007-.245-.015-.371-.007-.237-.015-.356-.015-.245-.015-.363-.015-.23-.015-.341-.015-.245-.022-.371-.015-.23-.022-.348-.015-.23-.022-.348l-.022-.356c-.007-.111-.015-.222-.022-.326s-.015-.237-.03-.356l-.022-.311c-.007-.119-.022-.237-.03-.356-.007-.1-.015-.2-.022-.3-.007-.119-.022-.23-.03-.341s-.015-.185-.03-.282-.022-.23-.03-.341c-.007-.089-.015-.171-.022-.259-.015-.111-.022-.222-.037-.326-.007-.082-.015-.171-.03-.252-.007-.1-.022-.2-.03-.3-.007-.082-.015-.156-.03-.237s-.022-.193-.037-.289c-.007-.067-.015-.133-.022-.193-.015-.1-.022-.193-.037-.289V29.7c-1.779.022-2.395.363-2.6.571-.645.764-1.587,10.394-1.082,15.027.178,1.638.474,1.942.534,1.987Z" transform="translate(-11.091 -5.377)" fill="#1b1d1e"/>
      <path id="Path_1065296" data-name="Path 1065296" d="M57.343,45.763c1.238-1.512,1.587-3.966,1.016-7.288-.7-4.137-2.283-6.806-4.7-7.947a7.329,7.329,0,0,0-2.172-.615c-.208-.03-.393-.052-.563-.074-.208-.022-.393-.044-.534-.074,0,0-.259-.022-.638-.044.356,2.817,1.668,14.679-.771,18.052a42.93,42.93,0,0,0,5.582-.549h.052a3.891,3.891,0,0,0,2.713-1.453Z" transform="translate(-12.408 -5.382)" fill="#fc8044"/>
      <path id="Path_1065297" data-name="Path 1065297" d="M41.769,24.575C41.391,20.03,37.558,8.91,23.983,8.91S6.576,20.03,6.2,24.575c-2.535,1.3-4.2,4.115-4.923,8.392-.6,3.566-.2,6.227,1.194,7.91A4.7,4.7,0,0,0,5.687,42.59a42.045,42.045,0,0,0,5.975.563c.237,0,.474,0,.7-.015a4.8,4.8,0,0,0,2.647-.623c.3-.23.727-.83.9-3.329.311-4.559-.43-13.871-1.372-14.812-.549-.549-1.7-.786-3.47-.793-.289,0-.526.015-.727.03a21.109,21.109,0,0,1,2.031-6.7l1.26-.4a.4.4,0,0,0,.185-.126,12.23,12.23,0,0,1,10.194-4.4h.074a12.147,12.147,0,0,1,10.1,4.4.363.363,0,0,0,.185.126l1.26.4a21.109,21.109,0,0,1,2.031,6.7c-.2-.015-.445-.022-.727-.03-1.794-.007-2.921.245-3.47.793-.942.942-1.683,10.253-1.372,14.812.171,2.506.593,3.1.9,3.329a4.862,4.862,0,0,0,2.647.623c.23.007.46.015.7.015a42.051,42.051,0,0,0,5.946-.556,4.716,4.716,0,0,0,3.24-1.713c1.394-1.683,1.794-4.344,1.194-7.91-.727-4.278-2.387-7.087-4.923-8.392Zm-7.792.326c.208-.208.823-.549,2.6-.571v.044c.015.1.022.193.037.289.007.067.015.126.022.193.015.1.022.193.037.289s.015.156.03.237.022.2.03.3c.007.082.015.163.03.252s.022.215.037.326c.007.082.015.171.022.259.007.111.022.222.03.341.007.1.015.185.03.282s.022.23.03.341.015.193.022.3.022.237.03.356l.022.311c.007.119.015.237.03.356s.015.222.022.326l.022.356c.007.119.015.23.022.348s.015.23.022.348.015.245.022.371.015.23.015.341.015.245.015.363.007.237.015.356.007.245.015.371.007.23.015.348.007.259.007.393c0,.111,0,.215.007.326V35.2c0,.133,0,.267-.007.4,0,.1,0,.193-.007.289,0,.141-.015.282-.015.415a1.438,1.438,0,0,1-.015.252c-.007.148-.015.3-.03.437a1.958,1.958,0,0,1-.015.215c-.015.156-.022.3-.037.46a1.439,1.439,0,0,1-.015.178c-.037.415-.089.815-.148,1.186a.836.836,0,0,1-.022.133c-.022.141-.044.282-.074.415-.015.059-.022.111-.037.171-.022.119-.044.23-.074.341l-.044.178c-.022.1-.052.2-.082.3a1.152,1.152,0,0,1-.059.171c-.03.089-.059.178-.089.259-.022.059-.044.111-.067.163a2.011,2.011,0,0,1-.1.222c-.022.052-.052.1-.074.148s-.067.133-.1.193a1.208,1.208,0,0,0-.082.126c-.037.052-.074.111-.111.156a1.231,1.231,0,0,1-.1.1,1.012,1.012,0,0,1-.126.126,1.268,1.268,0,0,1-.1.082c-.03.022-.067.044-.1.067a3.935,3.935,0,0,1-2.1-.46c-.059-.044-.356-.341-.534-1.987-.5-4.633.437-14.264,1.082-15.027Zm8.185,16.94a43.7,43.7,0,0,1-5.582.549c2.439-3.373,1.119-15.235.771-18.052.378.015.63.044.638.044.148.03.326.044.534.074.171.022.356.044.563.074a7.56,7.56,0,0,1,2.172.615c2.417,1.142,4,3.818,4.7,7.947.563,3.329.222,5.783-1.016,7.288a3.915,3.915,0,0,1-2.713,1.453h-.052ZM35.993,16.227l-1.3-.408A12.932,12.932,0,0,0,24.05,11.23a12.987,12.987,0,0,0-10.765,4.589l-1.3.408a.369.369,0,0,0-.222.185,21.527,21.527,0,0,0-2.194,7.265c-.059,0-.119.015-.193.022a1.579,1.579,0,0,0-.185.022c-.111.015-.215.022-.334.044-.074.007-.148.022-.222.037-.141.022-.282.044-.437.074-.089.015-.178.037-.274.059-.156.037-.311.082-.474.126-.1.03-.185.059-.289.089-.044.015-.089.03-.141.044.452-2.854,3.166-14.538,16.97-14.538S40.5,21.343,40.953,24.2c-.044-.015-.089-.03-.141-.044-.1-.037-.193-.059-.289-.089-.163-.044-.319-.089-.474-.126-.1-.022-.185-.044-.274-.059-.156-.03-.3-.059-.437-.074-.074-.015-.156-.022-.222-.037l-.334-.044A1.409,1.409,0,0,1,38.6,23.7c-.074-.007-.126-.015-.193-.022a21.348,21.348,0,0,0-2.194-7.258.369.369,0,0,0-.222-.185ZM15.072,39.921c-.178,1.638-.474,1.942-.534,1.987a3.935,3.935,0,0,1-2.1.46c-.037-.022-.067-.044-.1-.067a1,1,0,0,1-.1-.082c-.044-.037-.082-.082-.126-.126s-.067-.067-.1-.1l-.111-.156a1.207,1.207,0,0,1-.082-.126c-.037-.059-.067-.126-.1-.193s-.052-.1-.074-.148-.067-.148-.1-.222c-.022-.052-.044-.1-.067-.163-.03-.082-.059-.171-.089-.259-.022-.059-.037-.111-.059-.171-.03-.1-.052-.193-.082-.3-.015-.059-.03-.111-.044-.178-.03-.111-.052-.222-.074-.341-.015-.059-.022-.111-.037-.171-.022-.133-.052-.274-.074-.415a.836.836,0,0,0-.022-.133c-.059-.378-.1-.771-.148-1.186a1.44,1.44,0,0,0-.015-.178c-.015-.148-.03-.3-.037-.46a1.958,1.958,0,0,0-.015-.215c-.007-.148-.022-.289-.03-.437a1.439,1.439,0,0,0-.015-.252c0-.141-.015-.274-.015-.415,0-.1,0-.193-.007-.289,0-.133,0-.267-.007-.4V33.041c0-.111,0-.215.007-.326,0-.133,0-.259.007-.393s.007-.23.015-.348.007-.245.015-.371.007-.237.015-.356.015-.245.015-.363.015-.23.015-.341.015-.245.022-.371.015-.23.022-.348.015-.23.022-.348l.022-.356c.007-.111.015-.222.022-.326s.015-.237.03-.356l.022-.311c.007-.119.022-.237.03-.356.007-.1.015-.2.022-.3.007-.119.022-.23.03-.341s.015-.185.03-.282.022-.23.03-.341c.007-.089.015-.171.022-.259.015-.111.022-.222.037-.326.007-.082.015-.171.03-.252.007-.1.022-.2.03-.3.007-.082.015-.156.03-.237s.022-.193.037-.289c.007-.067.015-.133.022-.193.015-.1.022-.193.037-.289v-.044c1.779.022,2.395.363,2.6.571.652.771,1.594,10.4,1.09,15.027Zm-3.685,2.461a43.592,43.592,0,0,1-5.642-.556,3.891,3.891,0,0,1-2.713-1.453c-1.238-1.512-1.587-3.966-1.023-7.288.7-4.137,2.283-6.806,4.7-7.947a8.248,8.248,0,0,1,2.736-.689c.208-.022.393-.044.512-.067,0,0,.267-.03.66-.044-.356,2.817-1.668,14.679.771,18.052Z"/>
      <path id="Path_1065298" data-name="Path 1065298" d="M14.788,29.71v.044c-.015.1-.022.193-.037.289-.007.067-.015.126-.022.193-.015.1-.022.193-.037.289s-.015.156-.03.237-.022.2-.03.3c-.007.082-.015.163-.03.252s-.022.215-.037.326c-.007.082-.015.171-.022.259-.007.111-.022.222-.03.341-.007.1-.015.185-.03.282s-.022.23-.03.341-.015.193-.022.3-.022.237-.03.356l-.022.311c-.007.119-.015.237-.03.356s-.015.222-.022.326l-.022.356c-.007.119-.015.23-.022.348s-.015.23-.022.348-.015.245-.022.371-.015.23-.015.341-.015.245-.015.363-.007.237-.015.356-.007.245-.015.371-.007.23-.015.348-.007.259-.007.393c0,.111,0,.215-.007.326v2.143c0,.133,0,.267.007.4,0,.1,0,.193.007.289,0,.141.015.282.015.415a1.439,1.439,0,0,0,.015.252c.007.148.015.3.03.437a1.958,1.958,0,0,0,.015.215c.015.156.022.3.037.46a1.44,1.44,0,0,0,.015.178c.037.415.089.815.148,1.186a.836.836,0,0,0,.022.133c.022.141.044.282.074.415.015.059.022.111.037.171.022.119.044.23.074.341l.044.178c.022.1.052.2.082.3a1.152,1.152,0,0,0,.059.171c.03.089.059.178.089.259.022.059.044.111.067.163a2.01,2.01,0,0,0,.1.222c.022.052.052.1.074.148s.067.133.1.193a1.208,1.208,0,0,1,.082.126c.037.052.074.111.111.156a1.231,1.231,0,0,0,.1.1,1.012,1.012,0,0,0,.126.126,1.267,1.267,0,0,0,.1.082c.03.022.067.044.1.067a3.935,3.935,0,0,0,2.1-.46c.059-.044.356-.341.534-1.987.5-4.633-.437-14.264-1.09-15.027-.208-.208-.815-.549-2.6-.571Z" transform="translate(-3.4 -5.38)" fill="#1b1d1e"/>
      <path id="Path_1065299" data-name="Path 1065299" d="M10.226,29.762c-.119.022-.3.044-.512.067a8.248,8.248,0,0,0-2.736.689c-2.417,1.142-4,3.818-4.7,7.947-.563,3.329-.222,5.783,1.023,7.288a3.915,3.915,0,0,0,2.713,1.453,44.914,44.914,0,0,0,5.642.556c-2.439-3.373-1.119-15.235-.771-18.052-.393.015-.652.044-.66.044Z" transform="translate(-0.261 -5.38)" fill="#fc8044"/>
    </g>
  </g>
</svg>
