<svg xmlns="http://www.w3.org/2000/svg" xmlns:xlink="http://www.w3.org/1999/xlink" width="86.423" height="86.423" viewBox="0 0 86.423 86.423">
  <defs>
    <filter id="Path_874925" x="0" y="0" width="86.423" height="86.423" filterUnits="userSpaceOnUse">
      <feOffset dy="3" input="SourceAlpha"/>
      <feGaussianBlur stdDeviation="3" result="blur"/>
      <feFlood flood-opacity="0.161"/>
      <feComposite operator="in" in2="blur"/>
      <feComposite in="SourceGraphic"/>
    </filter>
  </defs>
  <g id="Group_1198075" data-name="Group 1198075" transform="translate(-1127.525 -1027.933)">
    <g id="Group_1109835" data-name="Group 1109835" transform="translate(1136.525 1033.934)">
      <g id="Group_1107913" data-name="Group 1107913" transform="translate(0 0)">
        <g transform="matrix(1, 0, 0, 1, -9, -6)" filter="url(#Path_874925)">
          <g id="Path_874925-2" data-name="Path 874925" transform="translate(9 6)" fill="#a8cf89">
            <path d="M 34.21131896972656 66.92303466796875 C 29.79465866088867 66.92303466796875 25.51090812683105 66.05836486816406 21.47905921936035 64.35303497314453 C 17.58399963378906 62.70556640625 14.08555889129639 60.34674835205078 11.08091926574707 57.34211730957031 C 8.076289176940918 54.33747863769531 5.717468738555908 50.83903884887695 4.069998741149902 46.94397735595703 C 2.36466908454895 42.91212844848633 1.499998927116394 38.62837600708008 1.499998927116394 34.21171569824219 C 1.499998927116394 29.79465675354004 2.36466908454895 25.51090812683105 4.069998741149902 21.47905731201172 C 5.717468738555908 17.58399772644043 8.076289176940918 14.08555698394775 11.08091926574707 11.08091735839844 C 14.08555889129639 8.076287269592285 17.58399963378906 5.717467308044434 21.47905921936035 4.069997310638428 C 25.51090812683105 2.364667415618896 29.79465866088867 1.49999737739563 34.21131896972656 1.49999737739563 C 38.62797927856445 1.49999737739563 42.91172790527344 2.364667415618896 46.94358062744141 4.069997310638428 C 50.83863830566406 5.717467308044434 54.33707809448242 8.076287269592285 57.34172058105469 11.08091735839844 C 60.34634780883789 14.08555698394775 62.70516967773438 17.58399772644043 64.35263824462891 21.47905731201172 C 66.05796813964844 25.51090812683105 66.92263793945312 29.79465675354004 66.92263793945312 34.21131896972656 C 66.92263793945312 38.62837600708008 66.05796813964844 42.91212844848633 64.35263824462891 46.94397735595703 C 62.70516967773438 50.83903884887695 60.34634780883789 54.33747863769531 57.34172058105469 57.34211730957031 C 54.33707809448242 60.34674835205078 50.83863830566406 62.70556640625 46.94358062744141 64.35303497314453 C 42.91172790527344 66.05836486816406 38.62797927856445 66.92303466796875 34.21131896972656 66.92303466796875 Z" stroke="none"/>
            <path d="M 34.21131896972656 3 C 29.99649429321289 3 25.90934371948242 3.824813842773438 22.06338882446289 5.451503753662109 C 18.34711837768555 7.023353576660156 15.00894165039062 9.274223327636719 12.1415901184082 12.14158630371094 C 9.274223327636719 15.00894165039062 7.023353576660156 18.34711837768555 5.451507568359375 22.06338882446289 C 3.824813842773438 25.90933990478516 3 29.99649429321289 3 34.21171569824219 C 3 38.42654037475586 3.824813842773438 42.51369476318359 5.451507568359375 46.35964584350586 C 7.023353576660156 50.07592010498047 9.274223327636719 53.41409301757812 12.1415901184082 56.28144836425781 C 15.00894165039062 59.14881134033203 18.34711837768555 61.39968109130859 22.06338882446289 62.97152709960938 C 25.90934371948242 64.59822082519531 29.99649429321289 65.42303466796875 34.21131896972656 65.42303466796875 C 38.42613983154297 65.42303466796875 42.51329803466797 64.59822082519531 46.35924911499023 62.97152709960938 C 50.07551956176758 61.39968109130859 53.4136962890625 59.14881134033203 56.28104782104492 56.28144836425781 C 59.14841461181641 53.41409301757812 61.39928436279297 50.07592010498047 62.97113037109375 46.35964584350586 C 64.59782409667969 42.51369476318359 65.42263793945312 38.42654037475586 65.42263793945312 34.21131896972656 C 65.42263793945312 29.99649429321289 64.59782409667969 25.90933990478516 62.97113037109375 22.06338882446289 C 61.39928436279297 18.34711837768555 59.14841461181641 15.00894165039062 56.28104782104492 12.14158630371094 C 53.4136962890625 9.274223327636719 50.07551956176758 7.023353576660156 46.35924911499023 5.451503753662109 C 42.51329803466797 3.824813842773438 38.42613983154297 3 34.21131896972656 3 M 34.21131896972656 0 C 53.10570526123047 0 68.42263793945312 15.31692886352539 68.42263793945312 34.21131896972656 L 68.42263793945312 34.21171569824219 C 68.42263793945312 53.10610580444336 53.10570526123047 68.42303466796875 34.21131896972656 68.42303466796875 C 15.31692886352539 68.42303466796875 0 53.10610580444336 0 34.21171569824219 L 0 34.21131896972656 C 0 15.31692886352539 15.31692886352539 0 34.21131896972656 0 Z" stroke="none" fill="#fff"/>
          </g>
        </g>
        <g id="Path_874923" data-name="Path 874923" transform="translate(0 0)" fill="none">
          <path d="M34.211,0A34.211,34.211,0,0,1,68.423,34.211h0A34.211,34.211,0,0,1,0,34.212H0A34.211,34.211,0,0,1,34.211,0Z" stroke="none"/>
          <path d="M 34.21131896972656 3 C 29.99649429321289 3 25.90934371948242 3.824813842773438 22.06338882446289 5.451503753662109 C 18.34711837768555 7.023353576660156 15.00894165039062 9.274223327636719 12.1415901184082 12.14158630371094 C 9.274223327636719 15.00894165039062 7.023353576660156 18.34711837768555 5.451507568359375 22.06338882446289 C 3.824813842773438 25.90933990478516 3 29.99649429321289 3 34.21171569824219 C 3 38.42654037475586 3.824813842773438 42.51369476318359 5.451507568359375 46.35964584350586 C 7.023353576660156 50.07592010498047 9.274223327636719 53.41409301757812 12.1415901184082 56.28144836425781 C 15.00894165039062 59.14881134033203 18.34711837768555 61.39968109130859 22.06338882446289 62.97152709960938 C 25.90934371948242 64.59822082519531 29.99649429321289 65.42303466796875 34.21131896972656 65.42303466796875 C 38.42613983154297 65.42303466796875 42.51329803466797 64.59822082519531 46.35924911499023 62.97152709960938 C 50.07551956176758 61.39968109130859 53.4136962890625 59.14881134033203 56.28104782104492 56.28144836425781 C 59.14841461181641 53.41409301757812 61.39928436279297 50.07592010498047 62.97113037109375 46.35964584350586 C 64.59782409667969 42.51369476318359 65.42263793945312 38.42654037475586 65.42263793945312 34.21131896972656 C 65.42263793945312 29.99649429321289 64.59782409667969 25.90933990478516 62.97113037109375 22.06338882446289 C 61.39928436279297 18.34711837768555 59.14841461181641 15.00894165039062 56.28104782104492 12.14158630371094 C 53.4136962890625 9.274223327636719 50.07551956176758 7.023353576660156 46.35924911499023 5.451503753662109 C 42.51329803466797 3.824813842773438 38.42613983154297 3 34.21131896972656 3 M 34.21131896972656 0 C 53.10570526123047 0 68.42263793945312 15.31692886352539 68.42263793945312 34.21131896972656 L 68.42263793945312 34.21171569824219 C 68.42263793945312 53.10610580444336 53.10570526123047 68.42303466796875 34.21131896972656 68.42303466796875 C 15.31692886352539 68.42303466796875 0 53.10610580444336 0 34.21171569824219 L 0 34.21131896972656 C 0 15.31692886352539 15.31692886352539 0 34.21131896972656 0 Z" stroke="none" fill="#fff"/>
        </g>
      </g>
    </g>
    <g id="lentes_copia" data-name="lentes copia" transform="translate(1144.616 954.386)">
      <path id="Path_1033941" data-name="Path 1033941" d="M0,109.768c.463-1.034,1.135-1.244,2.193-1.429C5.432,104.482,7.72,99.224,13.076,98a6.438,6.438,0,0,1,2.794-.174.8.8,0,0,1-.128,1.413,9.376,9.376,0,0,0-7.475,3.645c-1.409,1.673-2.606,3.55-3.982,5.25,1.551-.009,3.1-.284,4.643-.406,4.7-.372,9.376-.55,14.084-.608.633-.008,2.112-.417,2.087.71a.916.916,0,0,1-.876.807c-1.147.162-2.756-.033-3.974.005-1.107.035-2.258.159-3.364.207-1.632.071-3.265.1-4.9.206-3.151.212-6.908.423-9.992.924-.278.045-.423.116-.466.4a6.8,6.8,0,0,0,.014.955l.082.122a59.23,59.23,0,0,0,6.18-.567,213.873,213.873,0,0,1,36.626,0,57.337,57.337,0,0,0,5.714.617c.176-.005.379.037.517-.1a3.462,3.462,0,0,0,.045-1.026c-.042-.282-.19-.36-.465-.4A155.83,155.83,0,0,0,32.7,108.753c-1.367-.048-3.44.059-4.68-.115a.916.916,0,0,1-.876-.807c-.024-1.127,1.455-.718,2.087-.71,4.707.059,9.386.235,14.084.608,1.545.123,3.091.407,4.643.406-1.376-1.7-2.573-3.577-3.982-5.25A9.376,9.376,0,0,0,36.5,99.239a.79.79,0,0,1,.178-1.515,10.109,10.109,0,0,1,4.032.774c4.275,1.71,6.488,6.5,9.34,9.84,1.079.192,1.814.411,2.193,1.531v1.938a2.04,2.04,0,0,1-1.832,1.33l-.23,3.8c-.159.41-.342.6-.795.583-.4-.012-.644-.157-.708-.567-.1-.653.343-3.883.2-4.023-1.993-.137-3.979-.446-5.968-.612a204.649,204.649,0,0,0-36.779.305c-.915.092-1.834.245-2.754.307l.51,7.9c.521,4.506,3.032,5.118,6.733,6.276,2.457.769,4.411,1.846,7.007.733A6.175,6.175,0,0,0,20.5,125.1v-.153c-1.3-1.318-.07-3.7.767-4.987a5.771,5.771,0,0,1,9.6-.184c.587.847,1.621,2.992,1.461,4a9.22,9.22,0,0,1-.587,1.249,5.184,5.184,0,0,0,.526.9,5.9,5.9,0,0,0,5.133,2.413,36.637,36.637,0,0,0,8.31-2.709,6.468,6.468,0,0,0,2.511-3.815c.175-.848-.108-2.137,1.067-2.249,1.076.391.511,2.4.255,3.265a7.82,7.82,0,0,1-5.024,5.077c-4.384,1.606-9.467,3.579-13.089-.534-.248-.282-1.037-1.581-1.121-1.633-.173-.107-.778-.134-1.073-.253-1.532-.618-1.524-3.217-2.7-3.526-2.063-.544-1.787,2.759-3.447,3.5-.335.149-.934.161-1.144.285-.1.058-.84,1.3-1.073,1.579-2.41,2.82-5.363,2.907-8.7,1.964-4.265-1.2-8.787-2.26-9.688-7.35l-.644-8.794A2.042,2.042,0,0,1,0,111.807v-2.04Zm26.016,9.08a4.131,4.131,0,0,0-3.624,2.243c-.315.548-1.757,3.155-.217,3.034.7-.055,1.053-1.618,1.374-2.184a13.208,13.208,0,0,1,.835-1.053,2.923,2.923,0,0,1,4.064.68c.4.558.832,2.03,1.171,2.348.636.6,1.379-.051,1.067-1.016-.713-2.208-2.148-4.1-4.67-4.052Z" fill="#030303"/>
      <path id="Path_1033942" data-name="Path 1033942" d="M40.6,196.991a.916.916,0,0,0,.876.807c1.24.176,3.313.067,4.68.115A155.83,155.83,0,0,1,63.7,199.14c.276.042.423.12.465.4-2.131-.045-4.253-.425-6.378-.611a209.164,209.164,0,0,0-36.422,0c-2.124.186-4.244.579-6.378.611.042-.286.189-.357.466-.4,3.084-.5,6.842-.712,9.992-.924,1.63-.109,3.263-.135,4.9-.206,1.106-.048,2.257-.172,3.364-.207,1.218-.038,2.827.157,3.974-.005a.916.916,0,0,0,.876-.807H40.6Z" transform="translate(-13.461 -89.161)" fill="#465362"/>
      <path id="Path_1033943" data-name="Path 1033943" d="M60,235.308A204.654,204.654,0,0,1,96.779,235c1.989.166,3.976.475,5.968.612.146.139-.3,3.37-.2,4.023.064.411.311.555.708.567l-.1,2.04c-1.174.111-.892,1.4-1.067,2.249a6.476,6.476,0,0,1-2.511,3.815,36.568,36.568,0,0,1-8.31,2.709,5.9,5.9,0,0,1-5.133-2.413,5.185,5.185,0,0,1-.526-.9,9.349,9.349,0,0,0,.587-1.249c.159-1.007-.874-3.152-1.461-4a5.772,5.772,0,0,0-9.6.184c-.838,1.289-2.066,3.668-.766,4.987v.153a6.175,6.175,0,0,1-2.875,2.748c-2.6,1.113-4.55.037-7.007-.733a7.854,7.854,0,0,1-3.978-6.582L60,235.308Z" transform="translate(-53.879 -122.683)" fill="#b8e0f9"/>
      <path id="Path_1033944" data-name="Path 1033944" d="M64.019,209.639a3.427,3.427,0,0,1-.045,1.026c-.139.139-.34.1-.517.1-1.661.051-3.982-.469-5.714-.617a213.873,213.873,0,0,0-36.626,0,59.23,59.23,0,0,1-6.18.567l-.082-.122a6.968,6.968,0,0,1-.014-.955c2.133-.032,4.253-.425,6.378-.611a209.169,209.169,0,0,1,36.422,0c2.124.187,4.245.567,6.378.611Z" transform="translate(-13.312 -99.259)" fill="#2f3947"/>
      <path id="Path_1033945" data-name="Path 1033945" d="M35.764,244l.511,7.906a7.854,7.854,0,0,0,3.978,6.582c-3.7-1.158-6.211-1.769-6.733-6.276l-.51-7.9C33.929,244.245,34.848,244.092,35.764,244Z" transform="translate(-29.642 -131.375)" fill="#98d1f3"/>
      <path id="Path_1033946" data-name="Path 1033946" d="M240.632,304.993c2.522-.046,3.957,1.845,4.67,4.052.312.966-.432,1.612-1.067,1.016-.34-.318-.768-1.791-1.171-2.348a2.923,2.923,0,0,0-4.064-.681c.081-.116.1-.325.2-.461A8.152,8.152,0,0,1,240.632,304.993Z" transform="translate(-214.616 -186.145)" fill="#80b6f7"/>
      <path id="Path_1033947" data-name="Path 1033947" d="M215.048,305a8.121,8.121,0,0,0-1.431,1.579c-.1.136-.12.345-.2.461a12.755,12.755,0,0,0-.835,1.053c-.321.566-.671,2.129-1.374,2.184-1.54.12-.1-2.486.217-3.034A4.131,4.131,0,0,1,215.048,305Z" transform="translate(-189.031 -186.152)" fill="#619df6"/>
    </g>
  </g>
</svg>
