<svg xmlns="http://www.w3.org/2000/svg" xmlns:xlink="http://www.w3.org/1999/xlink" width="86.423" height="86.423" viewBox="0 0 86.423 86.423">
  <defs>
    <filter id="Path_874925" x="0" y="0" width="86.423" height="86.423" filterUnits="userSpaceOnUse">
      <feOffset dy="3" input="SourceAlpha"/>
      <feGaussianBlur stdDeviation="3" result="blur"/>
      <feFlood flood-opacity="0.161"/>
      <feComposite operator="in" in2="blur"/>
      <feComposite in="SourceGraphic"/>
    </filter>
    <clipPath id="clip-path">
      <path id="path4386" d="M0-682.665H44.174v44.174H0Z" transform="translate(0 682.665)"/>
    </clipPath>
  </defs>
  <g id="Group_1111693" data-name="Group 1111693" transform="translate(-1127.525 -1027.934)">
    <g id="Group_1109835" data-name="Group 1109835" transform="translate(1136.525 1033.934)">
      <g id="Group_1107913" data-name="Group 1107913" transform="translate(0 0)">
        <g transform="matrix(1, 0, 0, 1, -9, -6)" filter="url(#Path_874925)">
          <g id="Path_874925-2" data-name="Path 874925" transform="translate(9 6)" fill="#a8cf89">
            <path d="M 34.21131896972656 66.92303466796875 C 29.79465866088867 66.92303466796875 25.51090812683105 66.05836486816406 21.47905921936035 64.35303497314453 C 17.58399963378906 62.70556640625 14.08555889129639 60.34674835205078 11.08091926574707 57.34211730957031 C 8.076289176940918 54.33747863769531 5.717468738555908 50.83903884887695 4.069998741149902 46.94397735595703 C 2.36466908454895 42.91212844848633 1.499998927116394 38.62837600708008 1.499998927116394 34.21171569824219 C 1.499998927116394 29.79465675354004 2.36466908454895 25.51090812683105 4.069998741149902 21.47905731201172 C 5.717468738555908 17.58399772644043 8.076289176940918 14.08555698394775 11.08091926574707 11.08091735839844 C 14.08555889129639 8.076287269592285 17.58399963378906 5.717467308044434 21.47905921936035 4.069997310638428 C 25.51090812683105 2.364667415618896 29.79465866088867 1.49999737739563 34.21131896972656 1.49999737739563 C 38.62797927856445 1.49999737739563 42.91172790527344 2.364667415618896 46.94358062744141 4.069997310638428 C 50.83863830566406 5.717467308044434 54.33707809448242 8.076287269592285 57.34172058105469 11.08091735839844 C 60.34634780883789 14.08555698394775 62.70516967773438 17.58399772644043 64.35263824462891 21.47905731201172 C 66.05796813964844 25.51090812683105 66.92263793945312 29.79465675354004 66.92263793945312 34.21131896972656 C 66.92263793945312 38.62837600708008 66.05796813964844 42.91212844848633 64.35263824462891 46.94397735595703 C 62.70516967773438 50.83903884887695 60.34634780883789 54.33747863769531 57.34172058105469 57.34211730957031 C 54.33707809448242 60.34674835205078 50.83863830566406 62.70556640625 46.94358062744141 64.35303497314453 C 42.91172790527344 66.05836486816406 38.62797927856445 66.92303466796875 34.21131896972656 66.92303466796875 Z" stroke="none"/>
            <path d="M 34.21131896972656 3 C 29.99649429321289 3 25.90934371948242 3.824813842773438 22.06338882446289 5.451503753662109 C 18.34711837768555 7.023353576660156 15.00894165039062 9.274223327636719 12.1415901184082 12.14158630371094 C 9.274223327636719 15.00894165039062 7.023353576660156 18.34711837768555 5.451507568359375 22.06338882446289 C 3.824813842773438 25.90933990478516 3 29.99649429321289 3 34.21171569824219 C 3 38.42654037475586 3.824813842773438 42.51369476318359 5.451507568359375 46.35964584350586 C 7.023353576660156 50.07592010498047 9.274223327636719 53.41409301757812 12.1415901184082 56.28144836425781 C 15.00894165039062 59.14881134033203 18.34711837768555 61.39968109130859 22.06338882446289 62.97152709960938 C 25.90934371948242 64.59822082519531 29.99649429321289 65.42303466796875 34.21131896972656 65.42303466796875 C 38.42613983154297 65.42303466796875 42.51329803466797 64.59822082519531 46.35924911499023 62.97152709960938 C 50.07551956176758 61.39968109130859 53.4136962890625 59.14881134033203 56.28104782104492 56.28144836425781 C 59.14841461181641 53.41409301757812 61.39928436279297 50.07592010498047 62.97113037109375 46.35964584350586 C 64.59782409667969 42.51369476318359 65.42263793945312 38.42654037475586 65.42263793945312 34.21131896972656 C 65.42263793945312 29.99649429321289 64.59782409667969 25.90933990478516 62.97113037109375 22.06338882446289 C 61.39928436279297 18.34711837768555 59.14841461181641 15.00894165039062 56.28104782104492 12.14158630371094 C 53.4136962890625 9.274223327636719 50.07551956176758 7.023353576660156 46.35924911499023 5.451503753662109 C 42.51329803466797 3.824813842773438 38.42613983154297 3 34.21131896972656 3 M 34.21131896972656 0 C 53.10570526123047 0 68.42263793945312 15.31692886352539 68.42263793945312 34.21131896972656 L 68.42263793945312 34.21171569824219 C 68.42263793945312 53.10610580444336 53.10570526123047 68.42303466796875 34.21131896972656 68.42303466796875 C 15.31692886352539 68.42303466796875 0 53.10610580444336 0 34.21171569824219 L 0 34.21131896972656 C 0 15.31692886352539 15.31692886352539 0 34.21131896972656 0 Z" stroke="none" fill="#fff"/>
          </g>
        </g>
        <g id="Path_874923" data-name="Path 874923" transform="translate(0 0)" fill="none">
          <path d="M34.211,0A34.211,34.211,0,0,1,68.423,34.211h0A34.211,34.211,0,0,1,0,34.212H0A34.211,34.211,0,0,1,34.211,0Z" stroke="none"/>
          <path d="M 34.21131896972656 3 C 29.99649429321289 3 25.90934371948242 3.824813842773438 22.06338882446289 5.451503753662109 C 18.34711837768555 7.023353576660156 15.00894165039062 9.274223327636719 12.1415901184082 12.14158630371094 C 9.274223327636719 15.00894165039062 7.023353576660156 18.34711837768555 5.451507568359375 22.06338882446289 C 3.824813842773438 25.90933990478516 3 29.99649429321289 3 34.21171569824219 C 3 38.42654037475586 3.824813842773438 42.51369476318359 5.451507568359375 46.35964584350586 C 7.023353576660156 50.07592010498047 9.274223327636719 53.41409301757812 12.1415901184082 56.28144836425781 C 15.00894165039062 59.14881134033203 18.34711837768555 61.39968109130859 22.06338882446289 62.97152709960938 C 25.90934371948242 64.59822082519531 29.99649429321289 65.42303466796875 34.21131896972656 65.42303466796875 C 38.42613983154297 65.42303466796875 42.51329803466797 64.59822082519531 46.35924911499023 62.97152709960938 C 50.07551956176758 61.39968109130859 53.4136962890625 59.14881134033203 56.28104782104492 56.28144836425781 C 59.14841461181641 53.41409301757812 61.39928436279297 50.07592010498047 62.97113037109375 46.35964584350586 C 64.59782409667969 42.51369476318359 65.42263793945312 38.42654037475586 65.42263793945312 34.21131896972656 C 65.42263793945312 29.99649429321289 64.59782409667969 25.90933990478516 62.97113037109375 22.06338882446289 C 61.39928436279297 18.34711837768555 59.14841461181641 15.00894165039062 56.28104782104492 12.14158630371094 C 53.4136962890625 9.274223327636719 50.07551956176758 7.023353576660156 46.35924911499023 5.451503753662109 C 42.51329803466797 3.824813842773438 38.42613983154297 3 34.21131896972656 3 M 34.21131896972656 0 C 53.10570526123047 0 68.42263793945312 15.31692886352539 68.42263793945312 34.21131896972656 L 68.42263793945312 34.21171569824219 C 68.42263793945312 53.10610580444336 53.10570526123047 68.42303466796875 34.21131896972656 68.42303466796875 C 15.31692886352539 68.42303466796875 0 53.10610580444336 0 34.21171569824219 L 0 34.21131896972656 C 0 15.31692886352539 15.31692886352539 0 34.21131896972656 0 Z" stroke="none" fill="#fff"/>
        </g>
      </g>
    </g>
    <g id="g4380" transform="translate(1148.649 1727.454)">
      <g id="g4382" transform="translate(0 -682.665)">
        <g id="g4384" clip-path="url(#clip-path)">
          <g id="g4390" transform="translate(31.637 27.024)">
            <path id="path4392" d="M-34.123-238.523H-28.3a2.361,2.361,0,0,0,2.361-2.361v-10.967a1.035,1.035,0,0,0-.493-.882l-3.479-2.139a1.036,1.036,0,0,0-.542-.153h-1.77a1.035,1.035,0,0,0-.955.635L-36.4-246.7a1.035,1.035,0,0,0-.08.4v5.413a2.361,2.361,0,0,0,2.361,2.361" transform="translate(36.484 255.025)" fill="#c8effe"/>
          </g>
          <g id="g4394" transform="translate(36.033 27.025)">
            <path id="path4396" d="M-81.719-33.137l-3.48-2.139a1.034,1.034,0,0,0-.542-.153h-1.632a1.034,1.034,0,0,1,.542.153l3.48,2.139a1.035,1.035,0,0,1,.493.882v10.967a2.361,2.361,0,0,1-2.361,2.361h1.632a2.361,2.361,0,0,0,2.361-2.361V-32.255a1.035,1.035,0,0,0-.493-.882" transform="translate(87.373 35.429)" fill="#99e6fc"/>
          </g>
          <g id="g4398" transform="translate(29.136 30.757)">
            <path id="path4400" d="M0-105.541H5.894v-6.613a.689.689,0,0,0-.689-.689H0Z" transform="translate(0 112.842)" fill="#678d98"/>
          </g>
          <g id="g4402" transform="translate(29.136 30.757)">
            <path id="path4404" d="M0-105.541H5.894v-6.613a.689.689,0,0,0-.689-.689H0Z" transform="translate(0 112.842)" fill="#678d98"/>
          </g>
          <g id="g4406" transform="translate(32.645 30.757)">
            <path id="path4408" d="M-24.52,0h-1.7a.689.689,0,0,1,.689.689V7.3h1.7V.689A.689.689,0,0,0-24.52,0" transform="translate(26.216)" fill="#537984"/>
          </g>
          <g id="g4410" transform="translate(38.052 32.321)">
            <path id="path4412" d="M0-161.965H1.767a2.361,2.361,0,0,0,2.361-2.361v-8.845H2.713a1.035,1.035,0,0,0-.932.584L.1-169.117a1.035,1.035,0,0,0-.1.451Z" transform="translate(0 173.17)" fill="#60b8fe"/>
          </g>
          <g id="g4414" transform="translate(38.187 32.321)">
            <path id="path4416" d="M-37.264,0a1.039,1.039,0,0,0-.217.023V8.845a2.361,2.361,0,0,1-2.361,2.361h1.632A2.361,2.361,0,0,0-35.85,8.845V0Z" transform="translate(39.843)" fill="#27a5fe"/>
          </g>
          <g id="g4418" transform="translate(1.994 27.024)">
            <path id="path4420" d="M-118.261-238.523h-5.821a2.361,2.361,0,0,1-2.361-2.361v-10.967a1.035,1.035,0,0,1,.493-.882l3.479-2.139a1.036,1.036,0,0,1,.542-.153h1.77a1.035,1.035,0,0,1,.955.635l3.223,7.694a1.035,1.035,0,0,1,.08.4v5.413a2.361,2.361,0,0,1-2.361,2.361" transform="translate(126.442 255.025)" fill="#c8effe"/>
          </g>
          <g id="g4422" transform="translate(6.646 27.024)">
            <path id="path4424" d="M-83.975-120.386l-3.223-7.694a1.035,1.035,0,0,0-.955-.635h-1.632a1.035,1.035,0,0,1,.955.635l3.223,7.694a1.035,1.035,0,0,1,.08.4v5.413a2.361,2.361,0,0,1-2.361,2.361h1.632a2.361,2.361,0,0,0,2.361-2.361v-5.413a1.035,1.035,0,0,0-.08-.4" transform="translate(89.785 128.714)" fill="#99e6fc"/>
          </g>
          <g id="g4426" transform="translate(9.144 30.757)">
            <path id="path4428" d="M-85.194-105.541h-5.894v-6.613a.689.689,0,0,1,.689-.689h5.205Z" transform="translate(91.088 112.842)" fill="#537984"/>
          </g>
          <g id="g4430" transform="translate(10.84 30.757)">
            <path id="path4432" d="M-60.675,0h-4.2V5a2.3,2.3,0,0,0,2.3,2.3h1.9Z" transform="translate(64.873)" fill="#476666"/>
          </g>
          <g id="g4434" transform="translate(1.994 32.321)">
            <path id="path4436" d="M-59.663-161.965H-61.43a2.361,2.361,0,0,1-2.361-2.361v-8.845h1.415a1.035,1.035,0,0,1,.932.584l1.678,3.469a1.035,1.035,0,0,1,.1.451Z" transform="translate(63.791 173.17)" fill="#60b8fe"/>
          </g>
          <g id="g4438" transform="translate(1.994 32.321)">
            <path id="path4440" d="M-58.17-58.589l-1.678-3.469a1.035,1.035,0,0,0-.932-.584h-1.415v.023a1.035,1.035,0,0,1,.714.561l1.678,3.469a1.035,1.035,0,0,1,.1.451v6.7h1.632v-6.7a1.035,1.035,0,0,0-.1-.451" transform="translate(62.195 62.643)" fill="#27a5fe"/>
          </g>
          <g id="g4442" transform="translate(12.536 11.485)">
            <path id="path4444" d="M-193.535,0h-7.679a3.541,3.541,0,0,0-3.152,1.927l-2.416,4.72a2.3,2.3,0,0,0-.143.8V24.274a2.3,2.3,0,0,0,2.3,2.3h14.5a2.3,2.3,0,0,0,2.3-2.3V7.445a2.3,2.3,0,0,0-.143-.8l-2.416-4.72A3.54,3.54,0,0,0-193.535,0" transform="translate(206.925)" fill="#537984"/>
          </g>
          <g id="g4446" transform="translate(24.044 11.485)">
            <path id="path4448" d="M-107.676-96.072l-2.416-4.72a3.541,3.541,0,0,0-3.152-1.927h-1.882a3.541,3.541,0,0,1,3.152,1.927l2.416,4.72a2.3,2.3,0,0,1,.143.8v16.829a2.3,2.3,0,0,1-2.3,2.3h1.882a2.3,2.3,0,0,0,2.3-2.3V-95.273a2.3,2.3,0,0,0-.143-.8" transform="translate(115.125 102.718)" fill="#476666"/>
          </g>
          <g id="g4450" transform="translate(8.649 18.845)">
            <path id="path4452" d="M-140.509-140.079l-3.332,2.22-6.3-9.453a.534.534,0,0,1,.148-.741l2.443-1.628a.534.534,0,0,1,.741.148Z" transform="translate(150.23 149.77)" fill="#7ca1b1"/>
          </g>
          <g id="g4454" transform="translate(9.874 18.845)">
            <path id="path4456" d="M-31.738-3.445a.533.533,0,0,0-.74-.148l-.943.628-.512.342a.616.616,0,0,1,.854.171l5.639,8.461-1.946,1.3.616.924,3.332-2.22Z" transform="translate(33.933 3.683)" fill="#678d98"/>
          </g>
          <g id="g4458" transform="translate(7.585 16.664)">
            <path id="path4460" d="M-10.711-3.028-10.9-2.9a1.247,1.247,0,0,0-.346,1.73L-10.06.6-7.8-.906-8.982-2.682a1.247,1.247,0,0,0-1.73-.346" transform="translate(11.452 3.238)" fill="#ffd15c"/>
          </g>
          <g id="g4462" transform="translate(25.804 18.845)">
            <path id="path4464" d="M0-140.079l3.332,2.22,6.3-9.453a.534.534,0,0,0-.148-.741L7.04-149.68a.534.534,0,0,0-.74.148Z" transform="translate(0 149.77)" fill="#7ca1b1"/>
          </g>
          <g id="g4466" transform="translate(27.749 18.845)">
            <path id="path4468" d="M-108.955-24.832-111.4-26.46a.534.534,0,0,0-.741.148l-.319.48-.389.583a.7.7,0,0,1,.972-.195l.918.611a.535.535,0,0,1,.148.74l-5.684,8.529,1.386.924,6.3-9.453a.534.534,0,0,0-.148-.74" transform="translate(116.493 26.55)" fill="#678d98"/>
          </g>
          <g id="g4470" transform="translate(32.934 16.664)">
            <path id="path4472" d="M-42.1-3.028l.185.123a1.247,1.247,0,0,1,.346,1.73L-42.756.6-45.017-.906l1.183-1.776a1.247,1.247,0,0,1,1.73-.346" transform="translate(45.017 3.238)" fill="#ffd15c"/>
          </g>
          <g id="g4474" transform="translate(16.162 0.647)">
            <path id="path4476" d="M-156.22-52.527h-9.766a1.042,1.042,0,0,1-1.042-1.042v-1.55a1.042,1.042,0,0,1,1.042-1.042h9.766a1.042,1.042,0,0,1,1.042,1.042v1.55a1.042,1.042,0,0,1-1.042,1.042" transform="translate(167.028 56.161)" fill="#ffd15c"/>
          </g>
          <g id="g4478" transform="translate(25.174 0.647)">
            <path id="path4480" d="M-25.95,0h-1.8A1.042,1.042,0,0,1-26.7,1.042v1.55a1.042,1.042,0,0,1-1.042,1.042h1.8a1.042,1.042,0,0,0,1.042-1.042V1.042A1.042,1.042,0,0,0-25.95,0" transform="translate(27.745)" fill="#ffc344"/>
          </g>
          <g id="g4482" transform="translate(15.038 22.722)">
            <path id="path4484" d="M-142.975,0h-5.685a2.3,2.3,0,0,0-2.156,1.5l-1.907,5.147a2.3,2.3,0,0,0-.143.8v9.5a2.3,2.3,0,0,0,2.3,2.3h9.5a2.3,2.3,0,0,0,2.3-2.3v-9.5a2.3,2.3,0,0,0-.143-.8L-140.819,1.5A2.3,2.3,0,0,0-142.975,0" transform="translate(152.866 0)" fill="#c8effe"/>
          </g>
          <g id="g4486" transform="translate(23.22 22.722)">
            <path id="path4488" d="M-83.428-96.073l-1.907-5.147a2.3,2.3,0,0,0-2.156-1.5H-89.2a2.3,2.3,0,0,1,2.156,1.5l1.907,5.147a2.3,2.3,0,0,1,.143.8v9.5a2.3,2.3,0,0,1-2.3,2.3h1.709a2.3,2.3,0,0,0,2.3-2.3v-9.5a2.3,2.3,0,0,0-.143-.8" transform="translate(89.2 102.72)" fill="#99e6fc"/>
          </g>
          <g id="g4490" transform="translate(18.182 31.113)">
            <path id="path4492" d="M-98.6-113.047h-5.822a1,1,0,0,1-1-1v-5.822a1,1,0,0,1,1-1H-98.6a1,1,0,0,1,1,1v5.822a1,1,0,0,1-1,1" transform="translate(105.421 120.868)" fill="#60b8fe"/>
          </g>
          <g id="g4494" transform="translate(23.198 31.113)">
            <path id="path4496" d="M-26.1,0H-27.9a1,1,0,0,1,1,1V6.822a1,1,0,0,1-1,1H-26.1a1,1,0,0,0,1-1V1a1,1,0,0,0-1-1" transform="translate(27.901)" fill="#27a5fe"/>
          </g>
          <g id="g4498" transform="translate(15.038 22.722)">
            <path id="path4500" d="M-142.975,0h-5.685a2.3,2.3,0,0,0-2.156,1.5l-1.907,5.147a2.3,2.3,0,0,0-.143.8v9.5a2.3,2.3,0,0,0,2.3,2.3h9.5a2.3,2.3,0,0,0,2.3-2.3v-9.5a2.3,2.3,0,0,0-.143-.8L-140.819,1.5A2.3,2.3,0,0,0-142.975,0Z" transform="translate(152.866 0)" fill="none" stroke="#000" stroke-linecap="round" stroke-linejoin="round" stroke-miterlimit="10" stroke-width="1.5"/>
          </g>
          <g id="g4502" transform="translate(12.537 27.004)">
            <path id="path4504" d="M0,0V8.756a2.3,2.3,0,0,0,2.3,2.3h.2" fill="none" stroke="#000" stroke-linecap="round" stroke-linejoin="round" stroke-miterlimit="10" stroke-width="1.5"/>
          </g>
          <g id="g4506" transform="translate(29.136 27.004)">
            <path id="path4508" d="M-36.152,0V8.756a2.3,2.3,0,0,1-2.3,2.3h-.2" transform="translate(38.653)" fill="none" stroke="#000" stroke-linecap="round" stroke-linejoin="round" stroke-miterlimit="10" stroke-width="1.5"/>
          </g>
          <g id="g4510" transform="translate(21.648 11.485)">
            <path id="path4512" d="M0,0H4.278A3.54,3.54,0,0,1,7.43,1.927L9.845,6.647a2.3,2.3,0,0,1,.143.8V8.3" fill="none" stroke="#000" stroke-linecap="round" stroke-linejoin="round" stroke-miterlimit="10" stroke-width="1.5"/>
          </g>
          <g id="g4514" transform="translate(12.537 11.485)">
            <path id="path4516" d="M0-119.954v-.853a2.3,2.3,0,0,1,.143-.8l2.416-4.719a3.54,3.54,0,0,1,3.152-1.927H6.05" transform="translate(0 128.253)" fill="none" stroke="#000" stroke-linecap="round" stroke-linejoin="round" stroke-miterlimit="10" stroke-width="1.5"/>
          </g>
          <g id="g4518" transform="translate(18.182 31.113)">
            <path id="path4520" d="M-98.6-113.047h-5.822a1,1,0,0,1-1-1v-5.822a1,1,0,0,1,1-1H-98.6a1,1,0,0,1,1,1v5.822A1,1,0,0,1-98.6-113.047Z" transform="translate(105.421 120.868)" fill="none" stroke="#000" stroke-linecap="round" stroke-linejoin="round" stroke-miterlimit="10" stroke-width="1.5"/>
          </g>
          <g id="g4522" transform="translate(22.396 33.793)">
            <path id="path4524" d="M0,0H3.606" fill="none" stroke="#000" stroke-linecap="round" stroke-linejoin="round" stroke-miterlimit="10" stroke-width="1.5"/>
          </g>
          <g id="g4526" transform="translate(18.182 33.793)">
            <path id="path4528" d="M0,0H1.142" fill="none" stroke="#000" stroke-linecap="round" stroke-linejoin="round" stroke-miterlimit="10" stroke-width="1.5"/>
          </g>
          <g id="g4530" transform="translate(18.182 36.359)">
            <path id="path4532" d="M0,0H7.821" fill="none" stroke="#000" stroke-linecap="round" stroke-linejoin="round" stroke-miterlimit="10" stroke-width="1.5"/>
          </g>
          <g id="g4534" transform="translate(17.088 18.153)">
            <path id="path4536" d="M0-87.731,2.235-93.8" transform="translate(0 93.801)" fill="none" stroke="#000" stroke-linecap="round" stroke-linejoin="round" stroke-miterlimit="10" stroke-width="1.5"/>
          </g>
          <g id="g4538" transform="translate(24.85 18.153)">
            <path id="path4540" d="M-32.309-87.731l-2.235-6.07" transform="translate(34.544 93.801)" fill="none" stroke="#000" stroke-linecap="round" stroke-linejoin="round" stroke-miterlimit="10" stroke-width="1.5"/>
          </g>
          <g id="g4542" transform="translate(1.994 32.321)">
            <path id="path4544" d="M-59.663-161.965H-61.43a2.361,2.361,0,0,1-2.361-2.361v-8.845h1.415a1.035,1.035,0,0,1,.932.584l1.678,3.469a1.035,1.035,0,0,1,.1.451Z" transform="translate(63.791 173.17)" fill="none" stroke="#000" stroke-linecap="round" stroke-linejoin="round" stroke-miterlimit="10" stroke-width="1.5"/>
          </g>
          <g id="g4546" transform="translate(1.994 27.024)">
            <path id="path4548" d="M-152.39-159.486v3.108a2.361,2.361,0,0,1-2.361,2.361h-5.821a2.361,2.361,0,0,1-2.361-2.361v-10.967a1.036,1.036,0,0,1,.493-.882l3.48-2.139a1.038,1.038,0,0,1,.543-.154h1.77a1.035,1.035,0,0,1,.955.635l1.3,3.1" transform="translate(162.933 170.52)" fill="none" stroke="#000" stroke-linecap="round" stroke-linejoin="round" stroke-miterlimit="10" stroke-width="1.5"/>
          </g>
          <g id="g4550" transform="translate(9.144 36.232)">
            <path id="path4552" d="M0,0V4.267" fill="none" stroke="#000" stroke-linecap="round" stroke-linejoin="round" stroke-miterlimit="10" stroke-width="1.5"/>
          </g>
          <g id="g4554" transform="translate(9.144 30.757)">
            <path id="path4556" d="M-49.047,0h-2.7a.689.689,0,0,0-.689.689V7.3h5.894" transform="translate(52.44)" fill="none" stroke="#000" stroke-linecap="round" stroke-linejoin="round" stroke-miterlimit="10" stroke-width="1.5"/>
          </g>
          <g id="g4558" transform="translate(38.052 32.321)">
            <path id="path4560" d="M-59.663,0h-1.415a1.035,1.035,0,0,0-.932.584l-1.678,3.469a1.035,1.035,0,0,0-.1.451v6.7h1.767" transform="translate(63.791)" fill="none" stroke="#000" stroke-linecap="round" stroke-linejoin="round" stroke-miterlimit="10" stroke-width="1.5"/>
          </g>
          <g id="g4562" transform="translate(31.637 38.058)">
            <path id="path4564" d="M-152.39-23.861V-22.4a2.361,2.361,0,0,1-2.361,2.361h-5.821a2.361,2.361,0,0,1-2.361-2.361v-3.107" transform="translate(162.933 25.512)" fill="none" stroke="#000" stroke-linecap="round" stroke-linejoin="round" stroke-miterlimit="10" stroke-width="1.5"/>
          </g>
          <g id="g4566" transform="translate(33.643 27.024)">
            <path id="path4568" d="M0-53.948l1.3-3.1a1.035,1.035,0,0,1,.955-.635h1.77a1.038,1.038,0,0,1,.543.154l3.48,2.139a1.037,1.037,0,0,1,.493.882v6.452" transform="translate(0 57.68)" fill="none" stroke="#000" stroke-linecap="round" stroke-linejoin="round" stroke-miterlimit="10" stroke-width="1.5"/>
          </g>
          <g id="g4570" transform="translate(35.03 36.232)">
            <path id="path4572" d="M0,0V4.267" fill="none" stroke="#000" stroke-linecap="round" stroke-linejoin="round" stroke-miterlimit="10" stroke-width="1.5"/>
          </g>
          <g id="g4574" transform="translate(29.136 30.757)">
            <path id="path4576" d="M-36.152,0h2.7a.689.689,0,0,1,.689.689V7.3h-5.894" transform="translate(38.653)" fill="none" stroke="#000" stroke-linecap="round" stroke-linejoin="round" stroke-miterlimit="10" stroke-width="1.5"/>
          </g>
          <g id="g4578" transform="translate(8.649 18.845)">
            <path id="path4580" d="M-92.351-172.171l-6.3-9.453a.534.534,0,0,1,.148-.74l2.443-1.628a.533.533,0,0,1,.74.148l4.449,6.676" transform="translate(98.74 184.083)" fill="none" stroke="#000" stroke-linecap="round" stroke-linejoin="round" stroke-miterlimit="10" stroke-width="1.5"/>
          </g>
          <g id="g4582" transform="translate(7.585 16.664)">
            <path id="path4584" d="M-10.711-3.028-10.9-2.9a1.247,1.247,0,0,0-.346,1.73L-10.06.6-7.8-.906-8.982-2.682A1.247,1.247,0,0,0-10.711-3.028Z" transform="translate(11.452 3.238)" fill="none" stroke="#000" stroke-linecap="round" stroke-linejoin="round" stroke-miterlimit="10" stroke-width="1.5"/>
          </g>
          <g id="g4586" transform="translate(27.654 18.845)">
            <path id="path4588" d="M0-99.929,4.448-106.6a.534.534,0,0,1,.741-.148l2.443,1.628a.534.534,0,0,1,.148.74l-6.3,9.453" transform="translate(0 106.843)" fill="none" stroke="#000" stroke-linecap="round" stroke-linejoin="round" stroke-miterlimit="10" stroke-width="1.5"/>
          </g>
          <g id="g4590" transform="translate(32.934 16.664)">
            <path id="path4592" d="M-42.1-3.028l.185.123a1.247,1.247,0,0,1,.346,1.73L-42.756.6-45.017-.906l1.183-1.776A1.247,1.247,0,0,1-42.1-3.028Z" transform="translate(45.017 3.238)" fill="none" stroke="#000" stroke-linecap="round" stroke-linejoin="round" stroke-miterlimit="10" stroke-width="1.5"/>
          </g>
          <g id="g4594" transform="translate(31.067 2.441)">
            <path id="path4596" d="M0,0A5.015,5.015,0,0,1,4.58,5v9.35" fill="none" stroke="#000" stroke-linecap="round" stroke-linejoin="round" stroke-miterlimit="10" stroke-width="1.5"/>
          </g>
          <g id="g4598" transform="translate(8.233 2.423)">
            <path id="path4600" d="M0-209.767v-9.5a5.015,5.015,0,0,1,5.015-5.015H7.928" transform="translate(0 224.279)" fill="none" stroke="#000" stroke-linecap="round" stroke-linejoin="round" stroke-miterlimit="10" stroke-width="1.5"/>
          </g>
          <g id="g4602" transform="translate(16.162 0.647)">
            <path id="path4604" d="M-156.22-52.527h-9.766a1.042,1.042,0,0,1-1.042-1.042v-1.55a1.042,1.042,0,0,1,1.042-1.042h9.766a1.042,1.042,0,0,1,1.042,1.042v1.55A1.042,1.042,0,0,1-156.22-52.527Z" transform="translate(167.028 56.161)" fill="none" stroke="#000" stroke-linecap="round" stroke-linejoin="round" stroke-miterlimit="10" stroke-width="1.5"/>
          </g>
        </g>
      </g>
    </g>
  </g>
</svg>
