<svg xmlns="http://www.w3.org/2000/svg" xmlns:xlink="http://www.w3.org/1999/xlink" width="86.423" height="86.423" viewBox="0 0 86.423 86.423">
  <defs>
    <filter id="Path_874925" x="0" y="0" width="86.423" height="86.423" filterUnits="userSpaceOnUse">
      <feOffset dy="3" input="SourceAlpha"/>
      <feGaussianBlur stdDeviation="3" result="blur"/>
      <feFlood flood-opacity="0.161"/>
      <feComposite operator="in" in2="blur"/>
      <feComposite in="SourceGraphic"/>
    </filter>
  </defs>
  <g id="Group_1198076" data-name="Group 1198076" transform="translate(-1127.525 -1027.934)">
    <g id="Group_1109835" data-name="Group 1109835" transform="translate(1136.525 1033.934)">
      <g id="Group_1107913" data-name="Group 1107913" transform="translate(0 0)">
        <g transform="matrix(1, 0, 0, 1, -9, -6)" filter="url(#Path_874925)">
          <g id="Path_874925-2" data-name="Path 874925" transform="translate(9 6)" fill="#a8cf89">
            <path d="M 34.21131896972656 66.92303466796875 C 29.79465866088867 66.92303466796875 25.51090812683105 66.05836486816406 21.47905921936035 64.35303497314453 C 17.58399963378906 62.70556640625 14.08555889129639 60.34674835205078 11.08091926574707 57.34211730957031 C 8.076289176940918 54.33747863769531 5.717468738555908 50.83903884887695 4.069998741149902 46.94397735595703 C 2.36466908454895 42.91212844848633 1.499998927116394 38.62837600708008 1.499998927116394 34.21171569824219 C 1.499998927116394 29.79465675354004 2.36466908454895 25.51090812683105 4.069998741149902 21.47905731201172 C 5.717468738555908 17.58399772644043 8.076289176940918 14.08555698394775 11.08091926574707 11.08091735839844 C 14.08555889129639 8.076287269592285 17.58399963378906 5.717467308044434 21.47905921936035 4.069997310638428 C 25.51090812683105 2.364667415618896 29.79465866088867 1.49999737739563 34.21131896972656 1.49999737739563 C 38.62797927856445 1.49999737739563 42.91172790527344 2.364667415618896 46.94358062744141 4.069997310638428 C 50.83863830566406 5.717467308044434 54.33707809448242 8.076287269592285 57.34172058105469 11.08091735839844 C 60.34634780883789 14.08555698394775 62.70516967773438 17.58399772644043 64.35263824462891 21.47905731201172 C 66.05796813964844 25.51090812683105 66.92263793945312 29.79465675354004 66.92263793945312 34.21131896972656 C 66.92263793945312 38.62837600708008 66.05796813964844 42.91212844848633 64.35263824462891 46.94397735595703 C 62.70516967773438 50.83903884887695 60.34634780883789 54.33747863769531 57.34172058105469 57.34211730957031 C 54.33707809448242 60.34674835205078 50.83863830566406 62.70556640625 46.94358062744141 64.35303497314453 C 42.91172790527344 66.05836486816406 38.62797927856445 66.92303466796875 34.21131896972656 66.92303466796875 Z" stroke="none"/>
            <path d="M 34.21131896972656 3 C 29.99649429321289 3 25.90934371948242 3.824813842773438 22.06338882446289 5.451503753662109 C 18.34711837768555 7.023353576660156 15.00894165039062 9.274223327636719 12.1415901184082 12.14158630371094 C 9.274223327636719 15.00894165039062 7.023353576660156 18.34711837768555 5.451507568359375 22.06338882446289 C 3.824813842773438 25.90933990478516 3 29.99649429321289 3 34.21171569824219 C 3 38.42654037475586 3.824813842773438 42.51369476318359 5.451507568359375 46.35964584350586 C 7.023353576660156 50.07592010498047 9.274223327636719 53.41409301757812 12.1415901184082 56.28144836425781 C 15.00894165039062 59.14881134033203 18.34711837768555 61.39968109130859 22.06338882446289 62.97152709960938 C 25.90934371948242 64.59822082519531 29.99649429321289 65.42303466796875 34.21131896972656 65.42303466796875 C 38.42613983154297 65.42303466796875 42.51329803466797 64.59822082519531 46.35924911499023 62.97152709960938 C 50.07551956176758 61.39968109130859 53.4136962890625 59.14881134033203 56.28104782104492 56.28144836425781 C 59.14841461181641 53.41409301757812 61.39928436279297 50.07592010498047 62.97113037109375 46.35964584350586 C 64.59782409667969 42.51369476318359 65.42263793945312 38.42654037475586 65.42263793945312 34.21131896972656 C 65.42263793945312 29.99649429321289 64.59782409667969 25.90933990478516 62.97113037109375 22.06338882446289 C 61.39928436279297 18.34711837768555 59.14841461181641 15.00894165039062 56.28104782104492 12.14158630371094 C 53.4136962890625 9.274223327636719 50.07551956176758 7.023353576660156 46.35924911499023 5.451503753662109 C 42.51329803466797 3.824813842773438 38.42613983154297 3 34.21131896972656 3 M 34.21131896972656 0 C 53.10570526123047 0 68.42263793945312 15.31692886352539 68.42263793945312 34.21131896972656 L 68.42263793945312 34.21171569824219 C 68.42263793945312 53.10610580444336 53.10570526123047 68.42303466796875 34.21131896972656 68.42303466796875 C 15.31692886352539 68.42303466796875 0 53.10610580444336 0 34.21171569824219 L 0 34.21131896972656 C 0 15.31692886352539 15.31692886352539 0 34.21131896972656 0 Z" stroke="none" fill="#fff"/>
          </g>
        </g>
        <g id="Path_874923" data-name="Path 874923" transform="translate(0 0)" fill="none">
          <path d="M34.211,0A34.211,34.211,0,0,1,68.423,34.211h0A34.211,34.211,0,0,1,0,34.212H0A34.211,34.211,0,0,1,34.211,0Z" stroke="none"/>
          <path d="M 34.21131896972656 3 C 29.99649429321289 3 25.90934371948242 3.824813842773438 22.06338882446289 5.451503753662109 C 18.34711837768555 7.023353576660156 15.00894165039062 9.274223327636719 12.1415901184082 12.14158630371094 C 9.274223327636719 15.00894165039062 7.023353576660156 18.34711837768555 5.451507568359375 22.06338882446289 C 3.824813842773438 25.90933990478516 3 29.99649429321289 3 34.21171569824219 C 3 38.42654037475586 3.824813842773438 42.51369476318359 5.451507568359375 46.35964584350586 C 7.023353576660156 50.07592010498047 9.274223327636719 53.41409301757812 12.1415901184082 56.28144836425781 C 15.00894165039062 59.14881134033203 18.34711837768555 61.39968109130859 22.06338882446289 62.97152709960938 C 25.90934371948242 64.59822082519531 29.99649429321289 65.42303466796875 34.21131896972656 65.42303466796875 C 38.42613983154297 65.42303466796875 42.51329803466797 64.59822082519531 46.35924911499023 62.97152709960938 C 50.07551956176758 61.39968109130859 53.4136962890625 59.14881134033203 56.28104782104492 56.28144836425781 C 59.14841461181641 53.41409301757812 61.39928436279297 50.07592010498047 62.97113037109375 46.35964584350586 C 64.59782409667969 42.51369476318359 65.42263793945312 38.42654037475586 65.42263793945312 34.21131896972656 C 65.42263793945312 29.99649429321289 64.59782409667969 25.90933990478516 62.97113037109375 22.06338882446289 C 61.39928436279297 18.34711837768555 59.14841461181641 15.00894165039062 56.28104782104492 12.14158630371094 C 53.4136962890625 9.274223327636719 50.07551956176758 7.023353576660156 46.35924911499023 5.451503753662109 C 42.51329803466797 3.824813842773438 38.42613983154297 3 34.21131896972656 3 M 34.21131896972656 0 C 53.10570526123047 0 68.42263793945312 15.31692886352539 68.42263793945312 34.21131896972656 L 68.42263793945312 34.21171569824219 C 68.42263793945312 53.10610580444336 53.10570526123047 68.42303466796875 34.21131896972656 68.42303466796875 C 15.31692886352539 68.42303466796875 0 53.10610580444336 0 34.21171569824219 L 0 34.21131896972656 C 0 15.31692886352539 15.31692886352539 0 34.21131896972656 0 Z" stroke="none" fill="#fff"/>
        </g>
      </g>
    </g>
    <g id="casco" transform="translate(1147.763 984.776)">
      <path id="Path_1065300" data-name="Path 1065300" d="M46.628,92.337a20.641,20.641,0,0,0-20.641,20.641v4.763H67.268v-4.763A20.641,20.641,0,0,0,46.628,92.337Z" transform="translate(-23.655 -23.655)" fill="#ffdc64"/>
      <path id="Path_1065301" data-name="Path 1065301" d="M51.956,117.741H20.995a.794.794,0,0,1-.794-.794v-3.969a27.806,27.806,0,0,1,1.918-10.319.5.5,0,0,1,.948.108l1.67,9.688a1.588,1.588,0,0,0,1.565,1.318h8.439a1.588,1.588,0,0,0,1.565-1.318l3.121-18.1A20.641,20.641,0,0,0,22,94.182v0l-.38.189A20.628,20.628,0,0,0,9.881,112.978v4.763H9.087a.794.794,0,0,0-.794.794v1.012a.791.791,0,0,0,.541.757A72.231,72.231,0,0,0,30.521,123.3,72.23,72.23,0,0,0,52.209,120.3a.791.791,0,0,0,.541-.757v-1.012A.794.794,0,0,0,51.956,117.741Z" transform="translate(-7.549 -23.655)" fill="#ffc850"/>
      <path id="Path_1065302" data-name="Path 1065302" d="M217.943,97.666H214.66a1.588,1.588,0,0,1-1.587-1.533l-.684-19.847a1.588,1.588,0,0,1,1.587-1.642h4.652a1.588,1.588,0,0,1,1.587,1.642l-.684,19.847A1.588,1.588,0,0,1,217.943,97.666Z" transform="translate(-193.329 -7.55)" fill="#fff082"/>
      <g id="Group_1198078" data-name="Group 1198078" transform="translate(0.744 67.094)">
        <path id="Path_1065303" data-name="Path 1065303" d="M52.21,382.949a99.365,99.365,0,0,1-21.687,2.139,99.365,99.365,0,0,1-21.687-2.139.68.68,0,0,1-.51-.4.762.762,0,0,0-.031.155v1.012a.791.791,0,0,0,.541.757,72.227,72.227,0,0,0,21.687,2.995,72.231,72.231,0,0,0,21.687-2.994.791.791,0,0,0,.541-.757v-1.012a.762.762,0,0,0-.031-.155A.68.68,0,0,1,52.21,382.949Z" transform="translate(-8.294 -354.921)" fill="#ffdc64"/>
        <path id="Path_1065304" data-name="Path 1065304" d="M215.2,96.133l-.486-19.847c-.022-.9.489-1.642,1.127-1.642h-1.865a1.588,1.588,0,0,0-1.587,1.642l.684,19.847a1.588,1.588,0,0,0,1.587,1.533h1.667C215.722,97.666,215.223,96.988,215.2,96.133Z" transform="translate(-194.075 -74.644)" fill="#ffdc64"/>
      </g>
      <path id="Path_1065305" data-name="Path 1065305" d="M44.407,93.342h-.05V89.323A21.414,21.414,0,0,0,27.618,68.445,2.332,2.332,0,0,0,25.3,66.35H20.647a2.332,2.332,0,0,0-2.32,2.095A21.414,21.414,0,0,0,1.588,89.323v4.019h-.05A1.54,1.54,0,0,0,0,94.88v1.012a1.533,1.533,0,0,0,1.054,1.464,73.157,73.157,0,0,0,21.919,3.031,73.157,73.157,0,0,0,21.919-3.031,1.533,1.533,0,0,0,1.054-1.464V94.88A1.54,1.54,0,0,0,44.407,93.342ZM20.04,68.1a.837.837,0,0,1,.607-.257H25.3a.844.844,0,0,1,.843.873l-.684,19.847a.84.84,0,0,1-.843.815H21.331a.84.84,0,0,1-.843-.814L19.8,68.711A.836.836,0,0,1,20.04,68.1Zm24.417,27.8a.05.05,0,0,1-.028.049A71.654,71.654,0,0,1,22.973,98.9,71.647,71.647,0,0,1,1.517,95.941a.05.05,0,0,1-.028-.049V94.88a.05.05,0,0,1,.05-.05H30.117a.744.744,0,1,0,0-1.489H3.076V89.323a19.943,19.943,0,0,1,10.513-17.55l1.615,11.3a.744.744,0,0,0,.736.639.761.761,0,0,0,.106-.008.744.744,0,0,0,.632-.842L15,71.088a19.732,19.732,0,0,1,3.362-1.124L19,88.609a2.323,2.323,0,0,0,2.331,2.252h3.283a2.323,2.323,0,0,0,2.331-2.252l.643-18.644a19.75,19.75,0,0,1,3.362,1.124L29.268,82.867a.744.744,0,0,0,.632.842.761.761,0,0,0,.106.008.745.745,0,0,0,.736-.639l1.615-11.3a19.943,19.943,0,0,1,10.513,17.55v4.019H38.056a.744.744,0,0,0,0,1.489h6.351a.05.05,0,0,1,.05.05v1.012Z"/>
      <path id="Path_1065306" data-name="Path 1065306" d="M365.045,367.136h-1.588a.744.744,0,1,0,0,1.489h1.588a.744.744,0,0,0,0-1.489Z" transform="translate(-330.164 -273.794)"/>
      <path id="Path_1065307" data-name="Path 1065307" d="M175.886,279.3a.744.744,0,1,0-1.474.21l.227,1.588a.744.744,0,0,0,.736.639.76.76,0,0,0,.106-.008.744.744,0,0,0,.632-.842Z" transform="translate(-158.754 -193.262)"/>
      <path id="Path_1065308" data-name="Path 1065308" d="M319.555,278.671a.744.744,0,0,0-.842.632l-.227,1.588a.744.744,0,0,0,.632.842.755.755,0,0,0,.106.008.745.745,0,0,0,.736-.639l.227-1.588A.745.745,0,0,0,319.555,278.671Z" transform="translate(-289.899 -193.261)"/>
    </g>
  </g>
</svg>
