<svg xmlns="http://www.w3.org/2000/svg" xmlns:xlink="http://www.w3.org/1999/xlink" width="86.423" height="86.423" viewBox="0 0 86.423 86.423">
  <defs>
    <filter id="Path_874925" x="0" y="0" width="86.423" height="86.423" filterUnits="userSpaceOnUse">
      <feOffset dy="3" input="SourceAlpha"/>
      <feGaussianBlur stdDeviation="3" result="blur"/>
      <feFlood flood-opacity="0.161"/>
      <feComposite operator="in" in2="blur"/>
      <feComposite in="SourceGraphic"/>
    </filter>
  </defs>
  <g id="Group_1198077" data-name="Group 1198077" transform="translate(-1127.525 -1027.934)">
    <g id="Group_1109835" data-name="Group 1109835" transform="translate(1136.525 1033.934)">
      <g id="Group_1107913" data-name="Group 1107913" transform="translate(0 0)">
        <g transform="matrix(1, 0, 0, 1, -9, -6)" filter="url(#Path_874925)">
          <g id="Path_874925-2" data-name="Path 874925" transform="translate(9 6)" fill="#a8cf89">
            <path d="M 34.21131896972656 66.92303466796875 C 29.79465866088867 66.92303466796875 25.51090812683105 66.05836486816406 21.47905921936035 64.35303497314453 C 17.58399963378906 62.70556640625 14.08555889129639 60.34674835205078 11.08091926574707 57.34211730957031 C 8.076289176940918 54.33747863769531 5.717468738555908 50.83903884887695 4.069998741149902 46.94397735595703 C 2.36466908454895 42.91212844848633 1.499998927116394 38.62837600708008 1.499998927116394 34.21171569824219 C 1.499998927116394 29.79465675354004 2.36466908454895 25.51090812683105 4.069998741149902 21.47905731201172 C 5.717468738555908 17.58399772644043 8.076289176940918 14.08555698394775 11.08091926574707 11.08091735839844 C 14.08555889129639 8.076287269592285 17.58399963378906 5.717467308044434 21.47905921936035 4.069997310638428 C 25.51090812683105 2.364667415618896 29.79465866088867 1.49999737739563 34.21131896972656 1.49999737739563 C 38.62797927856445 1.49999737739563 42.91172790527344 2.364667415618896 46.94358062744141 4.069997310638428 C 50.83863830566406 5.717467308044434 54.33707809448242 8.076287269592285 57.34172058105469 11.08091735839844 C 60.34634780883789 14.08555698394775 62.70516967773438 17.58399772644043 64.35263824462891 21.47905731201172 C 66.05796813964844 25.51090812683105 66.92263793945312 29.79465675354004 66.92263793945312 34.21131896972656 C 66.92263793945312 38.62837600708008 66.05796813964844 42.91212844848633 64.35263824462891 46.94397735595703 C 62.70516967773438 50.83903884887695 60.34634780883789 54.33747863769531 57.34172058105469 57.34211730957031 C 54.33707809448242 60.34674835205078 50.83863830566406 62.70556640625 46.94358062744141 64.35303497314453 C 42.91172790527344 66.05836486816406 38.62797927856445 66.92303466796875 34.21131896972656 66.92303466796875 Z" stroke="none"/>
            <path d="M 34.21131896972656 3 C 29.99649429321289 3 25.90934371948242 3.824813842773438 22.06338882446289 5.451503753662109 C 18.34711837768555 7.023353576660156 15.00894165039062 9.274223327636719 12.1415901184082 12.14158630371094 C 9.274223327636719 15.00894165039062 7.023353576660156 18.34711837768555 5.451507568359375 22.06338882446289 C 3.824813842773438 25.90933990478516 3 29.99649429321289 3 34.21171569824219 C 3 38.42654037475586 3.824813842773438 42.51369476318359 5.451507568359375 46.35964584350586 C 7.023353576660156 50.07592010498047 9.274223327636719 53.41409301757812 12.1415901184082 56.28144836425781 C 15.00894165039062 59.14881134033203 18.34711837768555 61.39968109130859 22.06338882446289 62.97152709960938 C 25.90934371948242 64.59822082519531 29.99649429321289 65.42303466796875 34.21131896972656 65.42303466796875 C 38.42613983154297 65.42303466796875 42.51329803466797 64.59822082519531 46.35924911499023 62.97152709960938 C 50.07551956176758 61.39968109130859 53.4136962890625 59.14881134033203 56.28104782104492 56.28144836425781 C 59.14841461181641 53.41409301757812 61.39928436279297 50.07592010498047 62.97113037109375 46.35964584350586 C 64.59782409667969 42.51369476318359 65.42263793945312 38.42654037475586 65.42263793945312 34.21131896972656 C 65.42263793945312 29.99649429321289 64.59782409667969 25.90933990478516 62.97113037109375 22.06338882446289 C 61.39928436279297 18.34711837768555 59.14841461181641 15.00894165039062 56.28104782104492 12.14158630371094 C 53.4136962890625 9.274223327636719 50.07551956176758 7.023353576660156 46.35924911499023 5.451503753662109 C 42.51329803466797 3.824813842773438 38.42613983154297 3 34.21131896972656 3 M 34.21131896972656 0 C 53.10570526123047 0 68.42263793945312 15.31692886352539 68.42263793945312 34.21131896972656 L 68.42263793945312 34.21171569824219 C 68.42263793945312 53.10610580444336 53.10570526123047 68.42303466796875 34.21131896972656 68.42303466796875 C 15.31692886352539 68.42303466796875 0 53.10610580444336 0 34.21171569824219 L 0 34.21131896972656 C 0 15.31692886352539 15.31692886352539 0 34.21131896972656 0 Z" stroke="none" fill="#fff"/>
          </g>
        </g>
        <g id="Path_874923" data-name="Path 874923" transform="translate(0 0)" fill="none">
          <path d="M34.211,0A34.211,34.211,0,0,1,68.423,34.211h0A34.211,34.211,0,0,1,0,34.212H0A34.211,34.211,0,0,1,34.211,0Z" stroke="none"/>
          <path d="M 34.21131896972656 3 C 29.99649429321289 3 25.90934371948242 3.824813842773438 22.06338882446289 5.451503753662109 C 18.34711837768555 7.023353576660156 15.00894165039062 9.274223327636719 12.1415901184082 12.14158630371094 C 9.274223327636719 15.00894165039062 7.023353576660156 18.34711837768555 5.451507568359375 22.06338882446289 C 3.824813842773438 25.90933990478516 3 29.99649429321289 3 34.21171569824219 C 3 38.42654037475586 3.824813842773438 42.51369476318359 5.451507568359375 46.35964584350586 C 7.023353576660156 50.07592010498047 9.274223327636719 53.41409301757812 12.1415901184082 56.28144836425781 C 15.00894165039062 59.14881134033203 18.34711837768555 61.39968109130859 22.06338882446289 62.97152709960938 C 25.90934371948242 64.59822082519531 29.99649429321289 65.42303466796875 34.21131896972656 65.42303466796875 C 38.42613983154297 65.42303466796875 42.51329803466797 64.59822082519531 46.35924911499023 62.97152709960938 C 50.07551956176758 61.39968109130859 53.4136962890625 59.14881134033203 56.28104782104492 56.28144836425781 C 59.14841461181641 53.41409301757812 61.39928436279297 50.07592010498047 62.97113037109375 46.35964584350586 C 64.59782409667969 42.51369476318359 65.42263793945312 38.42654037475586 65.42263793945312 34.21131896972656 C 65.42263793945312 29.99649429321289 64.59782409667969 25.90933990478516 62.97113037109375 22.06338882446289 C 61.39928436279297 18.34711837768555 59.14841461181641 15.00894165039062 56.28104782104492 12.14158630371094 C 53.4136962890625 9.274223327636719 50.07551956176758 7.023353576660156 46.35924911499023 5.451503753662109 C 42.51329803466797 3.824813842773438 38.42613983154297 3 34.21131896972656 3 M 34.21131896972656 0 C 53.10570526123047 0 68.42263793945312 15.31692886352539 68.42263793945312 34.21131896972656 L 68.42263793945312 34.21171569824219 C 68.42263793945312 53.10610580444336 53.10570526123047 68.42303466796875 34.21131896972656 68.42303466796875 C 15.31692886352539 68.42303466796875 0 53.10610580444336 0 34.21171569824219 L 0 34.21131896972656 C 0 15.31692886352539 15.31692886352539 0 34.21131896972656 0 Z" stroke="none" fill="#fff"/>
        </g>
      </g>
    </g>
    <g id="bota" transform="translate(1149.475 1044.336)">
      <path id="Path_1065290" data-name="Path 1065290" d="M3,17.678V13.226A2.226,2.226,0,0,1,5.226,11h8.162v7.42H3.742Z" transform="translate(-0.774 -1.29)" fill="#596466"/>
      <path id="Path_1065291" data-name="Path 1065291" d="M43.546,34.18s-1.477,3.985-12.607,3.985H2v-3.71c0-2.968.742-6.678.742-10.388v-7.42H10.9a1.488,1.488,0,0,0,1.484-1.484V8.41a1.139,1.139,0,0,1,.749-1.076A6.447,6.447,0,0,1,15.356,7a6.447,6.447,0,0,1,2.219.334,1.139,1.139,0,0,1,.749,1.076v.074a19.73,19.73,0,0,0,.148,2.4c.052.5.134.987.23,1.469.1.542.23,1.076.386,1.6.126.482.282.95.453,1.41v.007c.193.519.4,1.031.638,1.529.208.453.43.9.675,1.328.267.49.564.957.876,1.417.267.408.564.809.876,1.195a14.234,14.234,0,0,0,1.076,1.261,14.116,14.116,0,0,0,1.054,1.054A14.233,14.233,0,0,0,26,24.237c.386.312.787.608,1.195.883.46.3.928.6,1.417.868.43.245.876.467,1.328.675.5.237,1.009.445,1.529.638.46.171.935.326,1.417.453a19.883,19.883,0,0,0,5.476.764h.527a4.371,4.371,0,0,1,4.126,2.842,8.991,8.991,0,0,1,.534,2.82Z" transform="translate(-0.516 -0.258)" fill="#f2c63a"/>
      <path id="Path_1065292" data-name="Path 1065292" d="M44.037,44.054v2.24a1.083,1.083,0,0,1-.479.9c-1.384.919-5.785,3.364-13.619,3.364-5.936,0-10.388-2.226-15.582-2.226v1.484a.742.742,0,0,1-.742.742H1.742A.742.742,0,0,1,1,49.819V44.625a.742.742,0,0,1,.742-.742H14.356c5.936,0,8.9,2.226,15.582,2.226,7.791,0,11.82-1.67,13.356-2.5A.5.5,0,0,1,44.037,44.054Z" transform="translate(-0.258 -9.686)" fill="#596466"/>
      <path id="Path_1065293" data-name="Path 1065293" d="M43.9,33.29a1.258,1.258,0,0,0-.179-.076,9.756,9.756,0,0,0-.531-2.363,5.122,5.122,0,0,0-4.824-3.332h-.527A19.314,19.314,0,0,1,18.551,8.226V8.149a1.893,1.893,0,0,0-1.232-1.771A7.242,7.242,0,0,0,14.84,6a7.25,7.25,0,0,0-2.478.379A1.893,1.893,0,0,0,11.13,8.149v.818H4.452a2.971,2.971,0,0,0-2.968,2.968V23.808a54.207,54.207,0,0,1-.4,5.688c-.155,1.471-.3,2.863-.33,4.157A1.48,1.48,0,0,0,0,34.939v5.194a1.486,1.486,0,0,0,1.484,1.484H3.71a.742.742,0,0,0,0-1.484H1.484V34.939H14.1a28.367,28.367,0,0,1,7.135,1.043,33.165,33.165,0,0,0,8.448,1.183c7.283,0,11.393-1.428,13.356-2.407v1.85a.341.341,0,0,1-.147.286c-1.468.974-5.694,3.24-13.209,3.24a36.485,36.485,0,0,1-8.159-1.151A33.456,33.456,0,0,0,14.1,37.907a.741.741,0,0,0-.742.742v1.484H6.678a.742.742,0,0,0,0,1.484h6.678a1.486,1.486,0,0,0,1.484-1.484v-.726A35.8,35.8,0,0,1,21.2,40.431a37.642,37.642,0,0,0,8.481,1.186c7.919,0,12.449-2.439,14.029-3.487a1.818,1.818,0,0,0,.811-1.522v-2.24a1.254,1.254,0,0,0-.617-1.077ZM4.452,10.452H11.13V14.9a.742.742,0,0,1-.742.742H2.968v-3.71A1.486,1.486,0,0,1,4.452,10.452ZM21.58,34.539A29.961,29.961,0,0,0,14.1,33.454H2.246c.043-1.173.174-2.454.316-3.8a55.435,55.435,0,0,0,.406-5.844V17.13h7.42A2.229,2.229,0,0,0,12.614,14.9V8.149a.4.4,0,0,1,.26-.378,5.738,5.738,0,0,1,1.966-.288,5.729,5.729,0,0,1,1.965.288.4.4,0,0,1,.261.378v.076a20.908,20.908,0,0,0,.158,2.518l-2.3.362a.742.742,0,0,0,.114,1.476.76.76,0,0,0,.116-.009l2.3-.362c.114.583.254,1.157.416,1.721l-2.212.719a.742.742,0,1,0,.458,1.411l2.208-.718c.2.558.436,1.1.686,1.638l-2.072,1.059a.742.742,0,0,0,.675,1.322l2.072-1.059c.29.521.6,1.03.931,1.522L18.729,21.2a.742.742,0,0,0,.873,1.2l1.891-1.374q.549.7,1.153,1.35l-1.652,1.652a.742.742,0,1,0,1.049,1.049l1.652-1.652q.649.605,1.35,1.153L23.67,26.466a.742.742,0,0,0,1.2.872l1.37-1.885c.492.332,1,.641,1.522.931L26.7,28.456a.742.742,0,0,0,1.322.675l1.059-2.072c.535.25,1.08.481,1.638.686l-.718,2.208a.742.742,0,0,0,1.412.459l.719-2.212a20.7,20.7,0,0,0,5.707.8h.527A3.632,3.632,0,0,1,41.8,31.356a8.222,8.222,0,0,1,.459,2.129c-1.652.8-5.547,2.2-12.576,2.2a31.908,31.908,0,0,1-8.1-1.141Z" fill="#1e1e1e"/>
    </g>
  </g>
</svg>
