<svg xmlns="http://www.w3.org/2000/svg" xmlns:xlink="http://www.w3.org/1999/xlink" width="118" height="118" viewBox="0 0 118 118">
  <defs>
    <filter id="Ellipse_12115" x="0" y="0" width="118" height="118" filterUnits="userSpaceOnUse">
      <feOffset dy="3" input="SourceAlpha"/>
      <feGaussianBlur stdDeviation="3" result="blur"/>
      <feFlood flood-opacity="0.161"/>
      <feComposite operator="in" in2="blur"/>
      <feComposite in="SourceGraphic"/>
    </filter>
  </defs>
  <g id="Group_1198080" data-name="Group 1198080" transform="translate(9 6)">
    <g transform="matrix(1, 0, 0, 1, -9, -6)" filter="url(#Ellipse_12115)">
      <g id="Ellipse_12115-2" data-name="Ellipse 12115" transform="translate(9 6)" fill="#a4c0c4" stroke="#1d636d" stroke-width="1">
        <circle cx="50" cy="50" r="50" stroke="none"/>
        <circle cx="50" cy="50" r="49.5" fill="none"/>
      </g>
    </g>
    <g id="monos_copia" data-name="monos copia" transform="translate(-71.149 -2.179)">
      <path id="Path_1033890" data-name="Path 1033890" d="M129.233,29.505l-.318.079c0,.169.24.029.318.079.927.583,7.168,4.67,7.365,5.083l5.631,22.448c.149.725-.32,1.019-.884,1.31a41.57,41.57,0,0,1-5.919,2.007,1.481,1.481,0,0,1-1.208-.077c-.426-.257-1.512-3.184-1.654-3.816-.458-2.033.077-4.276-.238-6.344-.1,2.1-.149,4.254-.079,6.344.018.552-.024,1.11,0,1.663l3.779,28.982a1.307,1.307,0,0,1-.978.937c-2.83.336-5.976,1.449-8.767,1.7a1.658,1.658,0,0,1-1.343-.2c-.951-.778-2.74-14.533-3.712-16.587l-3.572,16.568a1.03,1.03,0,0,1-.426.208c-.954.212-5.6-.856-6.893-1.125s-4.065-.279-3.777-2.086l3.645-27.6V55.665L108.494,59.9c-.442.774-.786.77-1.624.611a45.442,45.442,0,0,1-6.019-2.066c-.465-.236-.87-.515-.8-1.1l5.648-22.6a2.779,2.779,0,0,1,.654-.615,53.971,53.971,0,0,1,6.023-3.967,1.122,1.122,0,0,1,.687-.183c.008.263-.008.53,0,.791h.155l-.157-.791c0-.106,0-.212,0-.316l.318-.079-.318-.079c-.043-2.92-.4-7.589.658-10.2a7.994,7.994,0,0,1,14.121-1.163c2.072,3.331.909,7.632,1.4,11.369Zm-13.954.316v.793c-.012.047.01.106,0,.159a.366.366,0,0,0-.159.316c-.035-.035-.163.024-.159.079.012.173.234,0,.159-.079,0,.118.44.715,0,.951a5.067,5.067,0,0,0-.725-.32c-.625-.053-5.417,3.586-6.4,4.058l-.444.666-4.969,20.24,4.291,1.361,3.174-8.72c0,.022.157.039.165.385.039,1.744-.077,3.5-.006,5.246.008.192-.12.589.157.552.026-2.137.022-4.293.014-6.44a1.192,1.192,0,0,0-.171-.536c0-2.508-.061-5.972.159-8.4.01-.1-.02-.228,0-.316a1.085,1.085,0,0,1,1.744-.554,2.044,2.044,0,0,1,.481,1.42c.2,2.323-.018,5.149-.006,7.538l-.318.081.318.554c.012,3.134-.008,6.291,0,9.433l-3.635,27.733,7.045,1.371,4.183-20.4-.149-26.928c-.925-2.577-3.557-5.4-4.431-7.86a1.547,1.547,0,0,1,0-1.428c.208-.094.552-.359.793-.475a10.887,10.887,0,0,0,10.544-.632l-.075-7.54a5.8,5.8,0,0,0-11.579.008c-.214,2.333,0,5.281,0,7.689Zm13.952.951v-.791h-.155v.791Zm-1.98.159v.159Q127.4,31.011,127.251,30.931Zm.159.318v.159Q127.564,31.329,127.41,31.249ZM132.4,49.644c.831,2.858,2.139,5.56,3.023,8.4l4.283-1.357-5.089-20.716-6.336-4.179c-.587-.187-1.267.367-1.752.685l-4.27,7.581c0,8.883.267,17.744.145,26.639l4.136,20.68,6.948-1.359L130.02,58.768l.016-18.709a1.114,1.114,0,0,1,2.211-.088l-.118,9.266c.02.228.259.344.277.407Zm-9.04-16.173a19.617,19.617,0,0,1-4.439,0l2.064,3.8.45-.261,1.927-3.543ZM110.6,48.216v.159Q110.754,48.3,110.6,48.216Z" transform="translate(0 0)" fill="#020202"/>
      <path id="Path_1033891" data-name="Path 1033891" d="M264.21,203.344h-.316c-.071-2.092-.022-4.242.079-6.344C264.286,199.07,263.752,201.311,264.21,203.344Z" transform="translate(-131.646 -146.724)" fill="#555656"/>
      <path id="Path_1033892" data-name="Path 1033892" d="M166.33,91.232l.318.079-.318.079V91.23Z" transform="translate(-53.27 -61.727)" fill="#030303"/>
      <path id="Path_1033893" data-name="Path 1033893" d="M247.378,91.24V91.4c-.079-.049-.32.09-.318-.079l.318-.079Z" transform="translate(-118.145 -61.735)" fill="#525252"/>
      <path id="Path_1033894" data-name="Path 1033894" d="M125.51,102.848c.139.065.245.224.475.159.874,2.455,3.506,5.283,4.431,7.86l.149,26.928-4.183,20.4-7.045-1.371,3.635-27.733c-.006-3.142.014-6.3,0-9.433v-.634c-.012-2.388.2-5.214.006-7.538a2.05,2.05,0,0,0-.481-1.42,1.085,1.085,0,0,0-1.744.554l-.159.232.159.084c-.22,2.431-.163,5.9-.159,8.4.041.251-.167.6-.159.793l-3.174,8.72-4.291-1.361,4.969-20.24.444-.666c.984-.471,5.778-4.111,6.4-4.058a5.2,5.2,0,0,1,.725.32Zm-.839,11.134c-1.241.277-1.029,3.142-.892,4.154a2.9,2.9,0,0,0,5.291,1.2c.54-.829.5-3.176.41-4.2-.037-.4-.045-.77-.42-1.008a16.857,16.857,0,0,0-4.389-.141Z" transform="translate(-10.39 -70.805)" fill="#fd951f"/>
      <path id="Path_1033895" data-name="Path 1033895" d="M223.173,110.9a1.114,1.114,0,0,0-2.211.088l-.016,18.709,3.474,27.248-6.948,1.359-4.136-20.68c.12-8.893-.147-17.756-.145-26.639l4.27-7.581c.487-.318,1.167-.872,1.752-.685l6.336,4.179,5.089,20.716-4.283,1.357c-.884-2.838-2.192-5.54-3.023-8.4-.208-2.938.275-6.243.012-9.136a1.361,1.361,0,0,0-.171-.536Zm-8.29,3.205a.945.945,0,0,0-.5.289c-.352.409-.316,3.209-.244,3.881a2.873,2.873,0,0,0,5.672.12c.147-.882.273-3.692-.536-4.146A16.557,16.557,0,0,0,214.883,114.1Z" transform="translate(-90.927 -70.927)" fill="#f29520"/>
      <path id="Path_1033896" data-name="Path 1033896" d="M178.356,39.563c-.251-.11-.546-.509-.951-.475h-.159c0-2.406-.212-5.356,0-7.689a5.8,5.8,0,0,1,11.579-.008l.075,7.54a10.877,10.877,0,0,1-10.544.632Zm4.409-12.011c-6.571.517-5.961,12.571.905,11.854C189.92,38.754,189.37,27.033,182.765,27.551Z" transform="translate(-61.968 -9.266)" fill="#fd951f"/>
      <path id="Path_1033897" data-name="Path 1033897" d="M200.63,111.43l-1.927,3.543-.45.261-2.064-3.8a19.732,19.732,0,0,0,4.439,0Z" transform="translate(-77.266 -77.959)" fill="#e8c3ad"/>
      <path id="Path_1033898" data-name="Path 1033898" d="M263.7,154.2c-.018-.063-.255-.181-.277-.407l.118-9.266a1.394,1.394,0,0,1,.171.536C263.974,147.959,263.489,151.264,263.7,154.2Z" transform="translate(-131.292 -104.559)" fill="#555656"/>
      <path id="Path_1033899" data-name="Path 1033899" d="M151.138,188.13a1.219,1.219,0,0,1,.171.536c.008,2.147.012,4.3-.014,6.44-.277.037-.149-.359-.157-.552-.071-1.742.045-3.5.006-5.246-.008-.346-.165-.363-.165-.385C150.971,188.725,151.177,188.381,151.138,188.13Z" transform="translate(-40.934 -139.596)" fill="#454748"/>
      <path id="Path_1033900" data-name="Path 1033900" d="M178.725,93.31c-.242.116-.583.381-.793.475-.067.029-.222-.02-.316,0,.01-.053-.012-.112,0-.159.057-.212.291-.45.159-.793.4-.031.7.365.951.475Z" transform="translate(-62.336 -63.013)" fill="#090909"/>
      <path id="Path_1033901" data-name="Path 1033901" d="M177.3,97.688a1.547,1.547,0,0,0,0,1.428c-.23.065-.336-.094-.475-.159.44-.236,0-.833,0-.951a.357.357,0,0,1,.159-.316c.1-.02.251.029.316,0Z" transform="translate(-61.707 -66.914)" fill="#2d2e2e"/>
      <path id="Path_1033902" data-name="Path 1033902" d="M162.6,186.51v.634l-.318-.554.318-.081Z" transform="translate(-50.016 -138.294)" fill="#040404"/>
      <path id="Path_1033903" data-name="Path 1033903" d="M177.63,93.643V92.85h.159C177.921,93.194,177.687,93.429,177.63,93.643Z" transform="translate(-62.351 -63.028)" fill="#2d2e2e"/>
      <path id="Path_1033904" data-name="Path 1033904" d="M166.324,93.66l.157.791h-.155c-.01-.263.006-.528,0-.791Z" transform="translate(-53.265 -63.679)" fill="#030303"/>
      <rect id="Rectangle_404866" data-name="Rectangle 404866" width="0.155" height="0.791" transform="translate(129.076 29.981)" fill="#525252"/>
      <path id="Path_1033905" data-name="Path 1033905" d="M151.949,144.036l-.159-.084.159-.232C151.929,143.81,151.959,143.934,151.949,144.036Z" transform="translate(-41.586 -103.908)" fill="#454748"/>
      <path id="Path_1033906" data-name="Path 1033906" d="M238.59,98.5q.153.08,0,.159Z" transform="translate(-111.339 -67.569)" fill="#030303"/>
      <path id="Path_1033907" data-name="Path 1033907" d="M176.169,99.266c.075.075-.147.253-.159.079C176.006,99.29,176.133,99.231,176.169,99.266Z" transform="translate(-61.049 -68.176)" fill="#030303"/>
      <path id="Path_1033908" data-name="Path 1033908" d="M239.4,100.12q.153.08,0,.159Z" transform="translate(-111.99 -68.871)" fill="#030303"/>
      <path id="Path_1033909" data-name="Path 1033909" d="M153.81,186.51q.153.08,0,.159Z" transform="translate(-43.209 -138.294)" fill="#454748"/>
      <path id="Path_1033910" data-name="Path 1033910" d="M168.467,160.534a16.858,16.858,0,0,1,4.389.141c.393.249.383.611.42,1.008.094,1.025.13,3.372-.41,4.2a2.9,2.9,0,0,1-5.291-1.2c-.137-1.011-.35-3.877.892-4.154Zm2.585,2.343h-1.271c-.018.99-.263,2.557,1.2,1.913Z" transform="translate(-54.185 -117.358)" fill="#010101"/>
      <path id="Path_1033911" data-name="Path 1033911" d="M218.553,160.523a16.555,16.555,0,0,1,4.387.143c.809.454.683,3.264.536,4.146a2.873,2.873,0,0,1-5.672-.12c-.073-.67-.108-3.472.244-3.881A.95.95,0,0,1,218.553,160.523Zm2.742,2.343h-1.271c.112.729-.422,2.255.711,2.068C221.513,164.806,221.262,163.427,221.295,162.866Z" transform="translate(-94.597 -117.346)" fill="#010101"/>
      <path id="Path_1033912" data-name="Path 1033912" d="M186.9,34.041c6.6-.52,7.155,11.2.905,11.854C180.938,46.612,180.327,34.56,186.9,34.041Zm.153,2.209c-2.59.3-3.235,4.366-1.866,6.234,2.052,2.8,4.931.247,4.9-2.52-.02-1.548-1.2-3.926-3.032-3.714Z" transform="translate(-66.101 -15.756)" fill="#030202"/>
      <path id="Path_1033913" data-name="Path 1033913" d="M180.4,172.78l-.071,1.913c-1.463.644-1.218-.923-1.2-1.913Z" transform="translate(-63.538 -127.261)" fill="#2a2725"/>
      <path id="Path_1033914" data-name="Path 1033914" d="M230.445,172.78c-.033.564.218,1.94-.56,2.068-1.133.187-.6-1.339-.711-2.068Z" transform="translate(-103.748 -127.261)" fill="#2b2826"/>
      <path id="Path_1033915" data-name="Path 1033915" d="M196.008,45.307c1.83-.21,3.013,2.168,3.032,3.714.035,2.767-2.846,5.32-4.9,2.52C192.774,49.673,193.418,45.6,196.008,45.307Z" transform="translate(-75.057 -24.812)" fill="#ebc4ae"/>
    </g>
  </g>
</svg>
