<svg xmlns="http://www.w3.org/2000/svg" xmlns:xlink="http://www.w3.org/1999/xlink" width="118" height="118" viewBox="0 0 118 118">
  <defs>
    <filter id="Ellipse_12115" x="0" y="0" width="118" height="118" filterUnits="userSpaceOnUse">
      <feOffset dy="3" input="SourceAlpha"/>
      <feGaussianBlur stdDeviation="3" result="blur"/>
      <feFlood flood-opacity="0.161"/>
      <feComposite operator="in" in2="blur"/>
      <feComposite in="SourceGraphic"/>
    </filter>
  </defs>
  <g id="Group_1182213" data-name="Group 1182213" transform="translate(-745.781 -3846)">
    <g id="Group_1181949" data-name="Group 1181949" transform="translate(-54 1303)">
      <g transform="matrix(1, 0, 0, 1, 799.78, 2543)" filter="url(#Ellipse_12115)">
        <g id="Ellipse_12115-2" data-name="Ellipse 12115" transform="translate(9 6)" fill="#ebdad5" stroke="#8f726a" stroke-width="1">
          <circle cx="50" cy="50" r="50" stroke="none"/>
          <circle cx="50" cy="50" r="49.5" fill="none"/>
        </g>
      </g>
    </g>
    <g id="marketing_17388681" transform="translate(751.723 3858.714)">
      <g id="Group_1198140" data-name="Group 1198140" transform="translate(20.369 8.971)">
        <path id="Path_1065344" data-name="Path 1065344" d="M197.224,15.042a9.316,9.316,0,1,1-9.32,9.316A9.315,9.315,0,0,1,197.224,15.042Z" transform="translate(-164.809 -15.042)" fill="#fdcd56" fill-rule="evenodd"/>
        <path id="Path_1065345" data-name="Path 1065345" d="M344.608,342.446a10.7,10.7,0,1,1-10.705,10.7A10.7,10.7,0,0,1,344.608,342.446Z" transform="translate(-289.93 -295.626)" fill="#fff" fill-rule="evenodd"/>
        <path id="Path_1065346" data-name="Path 1065346" d="M296.04,238.437a2.017,2.017,0,1,1-2.017,2.016A2.016,2.016,0,0,1,296.04,238.437Z" transform="translate(-255.753 -206.491)" fill="#e4e8eb" fill-rule="evenodd"/>
        <path id="Path_1065347" data-name="Path 1065347" d="M201.456,212.762v-6.746a23.282,23.282,0,0,0,11.274-3.828v14.4a23.246,23.246,0,0,0-11.274-3.828Z" transform="translate(-176.423 -175.426)" fill="#e4e8eb" fill-rule="evenodd"/>
        <path id="Path_1065348" data-name="Path 1065348" d="M277.351,190.4a1.747,1.747,0,0,1,1.741,1.743v14.288a1.741,1.741,0,0,1-3.483,0V192.14A1.747,1.747,0,0,1,277.351,190.4Z" transform="translate(-239.973 -165.322)" fill="#f76c82" fill-rule="evenodd"/>
        <path id="Path_1065349" data-name="Path 1065349" d="M182.052,275.079h2.715l.878,7.58a.741.741,0,0,1-.576.817l-1.175.254a.716.716,0,0,1-.583-.118A.708.708,0,0,1,183,283.1Z" transform="translate(-159.794 -237.892)" fill="#cad0d7" fill-rule="evenodd"/>
        <path id="Path_1065350" data-name="Path 1065350" d="M158.795,226.413h-3.382a3.736,3.736,0,1,0,0,7.472h3.382Z" transform="translate(-133.762 -196.186)" fill="#f76c82" fill-rule="evenodd"/>
        <path id="Path_1065351" data-name="Path 1065351" d="M35.722,383.357a9.318,9.318,0,1,0-9.318-9.318A9.338,9.338,0,0,0,35.722,383.357Z" transform="translate(-26.404 -314.716)" fill="#f4f6f8" fill-rule="evenodd"/>
        <path id="Path_1065352" data-name="Path 1065352" d="M72.729,391.556a2.694,2.694,0,1,0,2.694-2.693A2.694,2.694,0,0,0,72.729,391.556Z" transform="translate(-66.104 -335.405)" fill="#efc7a4" fill-rule="evenodd"/>
        <path id="Path_1065353" data-name="Path 1065353" d="M48.119,444.545a6.241,6.241,0,0,1,12.426,0,9.288,9.288,0,0,1-12.426,0Z" transform="translate(-45.014 -378.287)" fill="#66d4f1" fill-rule="evenodd"/>
        <path id="Path_1065354" data-name="Path 1065354" d="M375.062,388.611H364.551l-1.243,9.306h13Z" transform="translate(-315.13 -335.189)" fill="#c6ea94" fill-rule="evenodd"/>
      </g>
      <path id="Path_1065355" data-name="Path 1065355" d="M41.792,47.666a4.737,4.737,0,0,1,.222-9.469H45.4a1,1,0,0,1,.692.278A23.314,23.314,0,0,0,55,35.644a2.742,2.742,0,0,1,5.481.146v4.13q.083,0,.167,0a3.018,3.018,0,0,1,0,6.036q-.084,0-.166,0v4.13A2.742,2.742,0,0,1,55,50.225a22.959,22.959,0,0,0-8.509-2.776l.715,6.174a1.737,1.737,0,0,1-1.359,1.91l-1.173.254a1.685,1.685,0,0,1-1.371-.276h0A1.679,1.679,0,0,1,42.58,54.3v0Zm4.6-7.213v4.962a26.543,26.543,0,0,1,8.6,2.52v-10A26.583,26.583,0,0,1,46.4,40.453ZM44.5,47.671h-.7l.724,6.1.662-.143Zm15.979-5.74v2a1.017,1.017,0,0,0,.165.013h0a1.015,1.015,0,0,0,1.016-1.015h0a1.015,1.015,0,0,0-1.015-1.016h0a1.031,1.031,0,0,0-.166.013ZM44.4,40.2H42.014a2.743,2.743,0,0,0-2.736,2.735h0a2.743,2.743,0,0,0,2.736,2.735H44.4Zm13.346-5.151a.743.743,0,0,0-.74.741V50.078a.74.74,0,0,0,1.481,0V35.79a.743.743,0,0,0-.74-.742ZM52.778,7.958A10.329,10.329,0,1,1,42.445,18.287,10.328,10.328,0,0,1,52.778,7.958Zm0,2.026a8.3,8.3,0,1,0,8.3,8.3,8.305,8.305,0,0,0-8.3-8.3Zm-1,13.244A3.8,3.8,0,0,1,50.2,22.214a1.013,1.013,0,1,1,1.393-1.471,1.566,1.566,0,0,0,1.186.585,1.13,1.13,0,0,0,1.237-.993,1.132,1.132,0,0,0-1.237-1,3.152,3.152,0,0,1-3.263-3.023,3.063,3.063,0,0,1,2.232-2.869l-.009-.356a1.013,1.013,0,0,1,2.025-.05l.01.4a3.327,3.327,0,0,1,1.269.7,1.013,1.013,0,1,1-1.348,1.513,1.375,1.375,0,0,0-.917-.331,1.131,1.131,0,0,0-1.237,1,1.131,1.131,0,0,0,1.237,1,3.155,3.155,0,0,1,3.263,3.023A3.061,3.061,0,0,1,53.809,23.2l.006.283a1.013,1.013,0,1,1-2.025.044Zm23.259,31.55A11.714,11.714,0,1,1,63.323,66.492,11.713,11.713,0,0,1,75.042,54.778Zm0,2.026a9.688,9.688,0,1,0,9.688,9.688A9.691,9.691,0,0,0,75.042,56.8Zm3.146,4.588H80.3a1,1,0,0,1,.992.869l1.243,9.306a1,1,0,0,1-.992,1.133h-13a1,1,0,0,1-.992-1.133l1.243-9.306a1,1,0,0,1,.992-.869h2.107v-.5a3.148,3.148,0,0,1,3.148-3.148h0a3.148,3.148,0,0,1,3.148,3.148Zm-6.3,2H70.66l-.975,7.3H80.394l-.975-7.3H78.188v.854a1,1,0,1,1-2,0v-.854H73.893v.854a1,1,0,0,1-2,0Zm4.294-2v-.5a1.146,1.146,0,0,0-1.146-1.146h0a1.146,1.146,0,0,0-1.146,1.146v.5Zm-9.9-17.457a1,1,0,1,1,0-2h2.5a1,1,0,0,1,0,2Zm-1.153-3.919a1,1,0,1,1-1-1.734l2.282-1.316a1,1,0,0,1,1,1.734Zm-1,7.571a1,1,0,1,1,1-1.734l2.281,1.317a1,1,0,0,1-1,1.734ZM51.8,30.5a1,1,0,1,1,2,0v3.719a1,1,0,1,1-2,0ZM40.525,56.035a1,1,0,1,1,1.416,1.416L39.312,60.08A1,1,0,0,1,37.9,58.664Zm21.393-2.457a1,1,0,0,1,1.416-1.416l2.629,2.629a1,1,0,0,1-1.416,1.416ZM29.681,78.614A10.319,10.319,0,1,1,40,68.294,10.339,10.339,0,0,1,29.681,78.614Zm6.736-5.451a8.317,8.317,0,1,0-13.473,0,7.244,7.244,0,0,1,13.473,0Zm-11.88,1.66a8.287,8.287,0,0,0,10.288,0,5.241,5.241,0,0,0-10.288,0Zm1.449-10.415a3.695,3.695,0,1,1,3.7,3.7A3.694,3.694,0,0,1,25.987,64.407Zm2,0a1.693,1.693,0,1,0,1.693-1.692A1.693,1.693,0,0,0,27.989,64.407Z" transform="translate(0 0)" fill-rule="evenodd"/>
    </g>
  </g>
</svg>
