<svg xmlns="http://www.w3.org/2000/svg" width="67.051" height="62.035" viewBox="0 0 67.051 62.035">
  <g id="coloring_12963289" transform="translate(-6.75 -25.838)">
    <g id="Group_1197951" data-name="Group 1197951" transform="translate(7.5 26.697)">
      <path id="Path_1064847" data-name="Path 1064847" d="M71.24,100.462l-2.96-.264H45.645a1.452,1.452,0,0,1-.954-.36L43.3,98.627a1.453,1.453,0,0,0-.954-.36h-4.2a1.452,1.452,0,0,0-.954.36l-1.394,1.212a1.453,1.453,0,0,1-.954.36H8.98a1.5,1.5,0,0,0-1.48,1.528V145.8a1.5,1.5,0,0,0,1.48,1.528H34.9a1.293,1.293,0,0,1,.849.32h0a6.513,6.513,0,0,0,4.276,1.612h.438a6.513,6.513,0,0,0,4.276-1.612h0a1.294,1.294,0,0,1,.849-.32H68.077l3.163-.264a1.5,1.5,0,0,0,1.48-1.528V101.99A1.505,1.505,0,0,0,71.24,100.462Z" transform="translate(-7.5 -88.837)" fill="#7a8c98"/>
      <g id="Group_1197944" data-name="Group 1197944" transform="translate(31.034 9.43)">
        <path id="Path_1064848" data-name="Path 1064848" d="M245.393,99.839a1.463,1.463,0,0,0,.958.36h3.8a1.452,1.452,0,0,1-.954-.36L247.8,98.627a1.453,1.453,0,0,0-.954-.36h-3.81a1.462,1.462,0,0,1,.958.36Z" transform="translate(-243.035 -98.267)" fill="#687c87"/>
        <path id="Path_1064849" data-name="Path 1064849" d="M468.948,112.927h-3.69c.821,0,.169.684.169,1.528v39.268l1.318,2.062v2.747a1.508,1.508,0,0,1-1.487,1.528h3.69a1.5,1.5,0,0,0,1.48-1.528V114.455A1.5,1.5,0,0,0,468.948,112.927Z" transform="translate(-435.978 -110.995)" fill="#687c87"/>
      </g>
      <path id="Path_1064850" data-name="Path 1064850" d="M93.576,77v45.043a.764.764,0,0,1-.764.764H65.506l-.988-.621-.988.621H36.224a.764.764,0,0,1-.764-.764V77.02a.815.815,0,0,1,.614-.791l2.887-.737a44.52,44.52,0,0,1,21.857-.037l2.712.681.988,2.071.988-2.075,2.7-.686a44.522,44.522,0,0,1,23.055.287l1.722.484A.817.817,0,0,1,93.576,77Z" transform="translate(-31.776 -67.827)" fill="#eef5f6"/>
      <g id="Group_1197946" data-name="Group 1197946" transform="translate(9.78 13.403)">
        <g id="Group_1197945" data-name="Group 1197945">
          <path id="Path_1064851" data-name="Path 1064851" d="M141.533,135.881a1.679,1.679,0,0,1-2.617-1.054q-.024-.128-.042-.257a6.084,6.084,0,0,1,2.522-5.838,1.678,1.678,0,0,1,2.617,1.054q.024.128.042.257A6.084,6.084,0,0,1,141.533,135.881Z" transform="translate(-131.291 -128.423)" fill="#fe5ca7"/>
          <path id="Path_1064852" data-name="Path 1064852" d="M113.841,203.678a1.679,1.679,0,0,1-2.617-1.054q-.024-.128-.042-.257a6.084,6.084,0,0,1,2.522-5.838,1.678,1.678,0,0,1,2.617,1.054q.024.128.042.257A6.084,6.084,0,0,1,113.841,203.678Z" transform="translate(-107.248 -187.287)" fill="#fe5ca7"/>
          <path id="Path_1064853" data-name="Path 1064853" d="M89.188,160.4a1.679,1.679,0,0,1-1.054,2.617q-.128.024-.257.042a6.084,6.084,0,0,1-5.838-2.522,1.679,1.679,0,0,1,1.054-2.617q.128-.024.257-.042A6.083,6.083,0,0,1,89.188,160.4Z" transform="translate(-81.729 -153.94)" fill="#fe5ca7"/>
          <path id="Path_1064854" data-name="Path 1064854" d="M156.985,188.09a1.679,1.679,0,0,1-1.054,2.617q-.128.024-.257.042a6.084,6.084,0,0,1-5.838-2.522,1.679,1.679,0,0,1,1.054-2.617q.128-.024.257-.042A6.084,6.084,0,0,1,156.985,188.09Z" transform="translate(-140.594 -177.984)" fill="#fe5ca7"/>
          <path id="Path_1064855" data-name="Path 1064855" d="M88.25,185.829a1.676,1.676,0,0,1,1.114,2.582q-.078.114-.161.226a6.084,6.084,0,0,1-5.912,2.345,1.676,1.676,0,0,1-1.114-2.582q.078-.114.161-.226A6.084,6.084,0,0,1,88.25,185.829Z" transform="translate(-81.868 -178.188)" fill="#fe7ab6"/>
          <path id="Path_1064856" data-name="Path 1064856" d="M155.771,157.471a1.676,1.676,0,0,1,1.114,2.582q-.078.114-.161.226a6.084,6.084,0,0,1-5.912,2.345,1.676,1.676,0,0,1-1.114-2.582q.078-.114.161-.226A6.084,6.084,0,0,1,155.771,157.471Z" transform="translate(-140.493 -153.566)" fill="#fe7ab6"/>
          <path id="Path_1064857" data-name="Path 1064857" d="M139.137,197.5a1.676,1.676,0,0,1,2.582-1.114q.114.078.226.161a6.084,6.084,0,0,1,2.345,5.912,1.676,1.676,0,0,1-2.582,1.114q-.114-.078-.226-.161A6.084,6.084,0,0,1,139.137,197.5Z" transform="translate(-131.495 -187.187)" fill="#fe7ab6"/>
          <path id="Path_1064858" data-name="Path 1064858" d="M151.506,280.686a.26.26,0,0,1,.218.247,6.165,6.165,0,0,1-7.337,6.258,6.163,6.163,0,0,1,7.12-6.5Z" transform="translate(-136.118 -260.556)" fill="#ade194"/>
          <path id="Path_1064859" data-name="Path 1064859" d="M88.764,280.686a.26.26,0,0,0-.218.247,6.165,6.165,0,0,0,7.337,6.258,6.163,6.163,0,0,0-7.12-6.5Z" transform="translate(-87.645 -260.556)" fill="#ade194"/>
          <path id="Path_1064860" data-name="Path 1064860" d="M110.779,129.985a1.676,1.676,0,0,1,2.582-1.114q.114.078.226.161a6.084,6.084,0,0,1,2.345,5.912,1.676,1.676,0,0,1-2.582,1.114q-.114-.078-.226-.161A6.084,6.084,0,0,1,110.779,129.985Z" transform="translate(-106.874 -128.563)" fill="#fe7ab6"/>
          <circle id="Ellipse_12278" data-name="Ellipse 12278" cx="2.997" cy="2.997" r="2.997" transform="translate(4.346 10.03) rotate(-67.785)" fill="#fece85"/>
        </g>
      </g>
      <g id="Group_1197948" data-name="Group 1197948" transform="translate(36.714 13.437)">
        <path id="Path_1064861" data-name="Path 1064861" d="M306.66,204.493a10.049,10.049,0,0,1-6.821,9.856,2.681,2.681,0,0,1-2.024.076h0a3,3,0,0,0-2.338.066h0a3,3,0,0,1-2.147.1,10.463,10.463,0,0,1-5.341-15.869,4.681,4.681,0,0,1,3.861-2h.158a4.834,4.834,0,0,1,3.416,1.416l.189.189a1.516,1.516,0,0,0,2.144,0l.184-.184a4.834,4.834,0,0,1,3.418-1.416h0c1.535,0,1.839.651,2.71,1.915C305.232,200.333,306.66,202.292,306.66,204.493Z" transform="translate(-286.146 -187.762)" fill="#ade194"/>
        <g id="Group_1197947" data-name="Group 1197947" transform="translate(9.618 8.971)">
          <path id="Path_1064862" data-name="Path 1064862" d="M368.6,198.76a4.68,4.68,0,0,0-3.86-2h0a4.838,4.838,0,0,0-.627.042,4.536,4.536,0,0,1,.534.639,10.407,10.407,0,0,1,1.841,5.927c0,4.633-3.168,9.667-7.341,11.041l0,0a2.791,2.791,0,0,1,1.967.107,3,3,0,0,0,2.147.1A10.462,10.462,0,0,0,368.6,198.76Z" transform="translate(-359.144 -196.761)" fill="#97da7b"/>
        </g>
        <path id="Path_1064863" data-name="Path 1064863" d="M316.227,133.272a5.709,5.709,0,0,0,4.756,1.281,5.722,5.722,0,0,0-6.526-5.82.267.267,0,0,0-.23.269A5.705,5.705,0,0,0,316.227,133.272Z" transform="translate(-310.527 -128.676)" fill="#ade194"/>
      </g>
      <g id="Group_1197950" data-name="Group 1197950" transform="translate(44.522)">
        <g id="Group_1197949" data-name="Group 1197949">
          <path id="Path_1064864" data-name="Path 1064864" d="M346.5,219.7l4.4-.357,1,3.261-4.994,4.579a.885.885,0,0,1-1.472-.793Z" transform="translate(-345.409 -193.956)" fill="#97da7b"/>
          <path id="Path_1064865" data-name="Path 1064865" d="M349.161,181.73a1.586,1.586,0,0,0,.642,2.142l2.115,1.139,2.565.77a1.586,1.586,0,0,0,2.142-.642l1.677-1.82-1.968-5.372-5.782,1.2Z" transform="translate(-348.504 -158.018)" fill="#eef5f6"/>
          <path id="Path_1064866" data-name="Path 1064866" d="M441.817,31.907a1.586,1.586,0,0,0-.642-2.142L439,27.991l-2.053-1.106a1.586,1.586,0,0,0-2.142.642L433.425,30.1l2.5,4.072,5.248.1Z" transform="translate(-421.828 -26.697)" fill="#eef5f6"/>
          <path id="Path_1064867" data-name="Path 1064867" d="M370.515,52.515,360.968,70.24l4.379,2.358,3.371.837,8.854-16.784-2.678-1.778Z" transform="translate(-358.918 -49.113)" fill="#97da7b"/>
          <path id="Path_1064868" data-name="Path 1064868" d="M375.954,182.244l-3.058,5.678a1.586,1.586,0,0,1-1.566.82l2.85,1.535a1.586,1.586,0,0,0,2.142-.642l1.392-2.585Z" transform="translate(-367.915 -161.749)" fill="#deecf1"/>
          <path id="Path_1064869" data-name="Path 1064869" d="M464.626,37.574l-3.057-1.646A1.863,1.863,0,0,1,461.842,38l-2.262,4.2,4.3.084,1.385-2.572A1.586,1.586,0,0,0,464.626,37.574Z" transform="translate(-444.537 -34.712)" fill="#deecf1"/>
          <rect id="Rectangle_414829" data-name="Rectangle 414829" width="20.132" height="3.829" transform="translate(6.429 23.486) rotate(-61.692)" fill="#80d261"/>
        </g>
      </g>
    </g>
    <g id="Group_1197959" data-name="Group 1197959" transform="translate(7.5 26.697)">
      <path id="Path_1064870" data-name="Path 1064870" d="M470.5,160.059h3a1.5,1.5,0,0,0,1.48-1.528V114.455a1.5,1.5,0,0,0-1.48-1.528h-2.015" transform="translate(-409.493 -101.566)" fill="none" stroke="#000" stroke-linecap="round" stroke-linejoin="round" stroke-miterlimit="10" stroke-width="1.5"/>
      <path id="Path_1064871" data-name="Path 1064871" d="M11.058,112.927H8.98a1.5,1.5,0,0,0-1.48,1.528v44.076a1.5,1.5,0,0,0,1.48,1.528H34.9a1.293,1.293,0,0,1,.849.32h0a6.513,6.513,0,0,0,4.276,1.612h.438a6.513,6.513,0,0,0,4.276-1.612h0a1.294,1.294,0,0,1,.849-.32H63.892" transform="translate(-7.5 -101.566)" fill="none" stroke="#000" stroke-linecap="round" stroke-linejoin="round" stroke-miterlimit="10" stroke-width="1.5"/>
      <path id="Path_1064872" data-name="Path 1064872" d="M162.317,74.166a44.529,44.529,0,0,1,8.644,1.288l3.7.93,3.686-.939a44.53,44.53,0,0,1,17.782-.857" transform="translate(-141.919 -67.826)" fill="none" stroke="#000" stroke-linecap="round" stroke-linejoin="round" stroke-miterlimit="10" stroke-width="1.5"/>
      <path id="Path_1064873" data-name="Path 1064873" d="M57.165,123.545H36.223a.764.764,0,0,1-.764-.764V77.754a.816.816,0,0,1,.614-.791l2.887-.736A44.53,44.53,0,0,1,47.5,74.915" transform="translate(-31.775 -68.562)" fill="none" stroke="#000" stroke-linecap="round" stroke-linejoin="round" stroke-miterlimit="10" stroke-width="1.5"/>
      <path id="Path_1064874" data-name="Path 1064874" d="M267,115.351v42.538a.764.764,0,0,1-.764.764H235.2" transform="translate(-205.197 -103.67)" fill="none" stroke="#000" stroke-linecap="round" stroke-linejoin="round" stroke-miterlimit="10" stroke-width="1.5"/>
      <line id="Line_575" data-name="Line 575" y2="45.775" transform="translate(32.742 8.749)" fill="none" stroke="#000" stroke-linecap="round" stroke-linejoin="round" stroke-miterlimit="10" stroke-width="1.5"/>
      <g id="Group_1197953" data-name="Group 1197953" transform="translate(9.78 13.403)">
        <line id="Line_576" data-name="Line 576" y2="10.372" transform="translate(8.253 14.776)" fill="none" stroke="#000" stroke-linecap="round" stroke-linejoin="round" stroke-miterlimit="10" stroke-width="1.5"/>
        <g id="Group_1197952" data-name="Group 1197952">
          <path id="Path_1064875" data-name="Path 1064875" d="M145.429,130.571a6.11,6.11,0,0,1,1.713-1.841,1.678,1.678,0,0,1,2.617,1.054q.024.128.042.257a6.07,6.07,0,0,1-.105,2.282" transform="translate(-137.036 -128.423)" fill="none" stroke="#000" stroke-linecap="round" stroke-linejoin="round" stroke-miterlimit="10" stroke-width="1.5"/>
          <path id="Path_1064876" data-name="Path 1064876" d="M115.584,227.257a6.108,6.108,0,0,1-1.742,1.89,1.679,1.679,0,0,1-2.617-1.054q-.024-.128-.042-.257a6.069,6.069,0,0,1,.105-2.281" transform="translate(-107.248 -212.756)" fill="none" stroke="#000" stroke-linecap="round" stroke-linejoin="round" stroke-miterlimit="10" stroke-width="1.5"/>
          <path id="Path_1064877" data-name="Path 1064877" d="M83.914,162.268a6.109,6.109,0,0,1-1.877-1.734,1.679,1.679,0,0,1,1.054-2.617q.128-.024.257-.042a6.07,6.07,0,0,1,2.281.105" transform="translate(-81.729 -153.94)" fill="none" stroke="#000" stroke-linecap="round" stroke-linejoin="round" stroke-miterlimit="10" stroke-width="1.5"/>
          <path id="Path_1064878" data-name="Path 1064878" d="M180.608,192.1a6.108,6.108,0,0,1,1.846,1.716,1.679,1.679,0,0,1-1.054,2.617q-.128.024-.257.042a6.07,6.07,0,0,1-2.282-.105" transform="translate(-166.062 -183.708)" fill="none" stroke="#000" stroke-linecap="round" stroke-linejoin="round" stroke-miterlimit="10" stroke-width="1.5"/>
          <path id="Path_1064879" data-name="Path 1064879" d="M88.646,189.287a6.09,6.09,0,0,1-5.354,1.7,1.676,1.676,0,0,1-1.114-2.582q.078-.114.161-.226a6.074,6.074,0,0,1,4.809-2.434" transform="translate(-81.87 -178.191)" fill="none" stroke="#000" stroke-linecap="round" stroke-linejoin="round" stroke-miterlimit="10" stroke-width="1.5"/>
          <path id="Path_1064880" data-name="Path 1064880" d="M156.228,159.281a6.088,6.088,0,0,1,5.462-1.81,1.676,1.676,0,0,1,1.114,2.582q-.078.114-.161.226a6.076,6.076,0,0,1-4.97,2.433" transform="translate(-146.412 -153.566)" fill="none" stroke="#000" stroke-linecap="round" stroke-linejoin="round" stroke-miterlimit="10" stroke-width="1.5"/>
          <path id="Path_1064881" data-name="Path 1064881" d="M142.51,203.135a6.088,6.088,0,0,1,1.781,5.434,1.676,1.676,0,0,1-2.582,1.114q-.114-.078-.226-.161a6.074,6.074,0,0,1-2.434-4.82" transform="translate(-131.497 -193.291)" fill="none" stroke="#000" stroke-linecap="round" stroke-linejoin="round" stroke-miterlimit="10" stroke-width="1.5"/>
          <path id="Path_1064882" data-name="Path 1064882" d="M151.712,280.723a6.165,6.165,0,0,1-7.326,6.467,6.163,6.163,0,0,1,7.326-6.467Z" transform="translate(-136.117 -260.556)" fill="none" stroke="#000" stroke-linecap="round" stroke-linejoin="round" stroke-miterlimit="10" stroke-width="1.5"/>
          <path id="Path_1064883" data-name="Path 1064883" d="M88.557,280.723a6.165,6.165,0,0,0,7.326,6.467,6.163,6.163,0,0,0-7.326-6.467Z" transform="translate(-87.645 -260.556)" fill="none" stroke="#000" stroke-linecap="round" stroke-linejoin="round" stroke-miterlimit="10" stroke-width="1.5"/>
          <path id="Path_1064884" data-name="Path 1064884" d="M112.5,135.357a6.089,6.089,0,0,1-1.718-5.373,1.676,1.676,0,0,1,2.582-1.114q.114.078.226.161a6.075,6.075,0,0,1,2.434,4.939" transform="translate(-106.874 -128.563)" fill="none" stroke="#000" stroke-linecap="round" stroke-linejoin="round" stroke-miterlimit="10" stroke-width="1.5"/>
          <circle id="Ellipse_12279" data-name="Ellipse 12279" cx="2.997" cy="2.997" r="2.997" transform="translate(4.346 10.03) rotate(-67.785)" fill="none" stroke="#000" stroke-linecap="round" stroke-linejoin="round" stroke-miterlimit="10" stroke-width="1.5"/>
        </g>
      </g>
      <g id="Group_1197954" data-name="Group 1197954" transform="translate(36.714 13.437)">
        <path id="Path_1064885" data-name="Path 1064885" d="M304.73,198.135a4.536,4.536,0,0,1,.492.6,10.462,10.462,0,0,1-5.345,15.863,3,3,0,0,1-2.147-.1h0a2.792,2.792,0,0,0-2.252,0h0a3,3,0,0,1-2.147.1,10.463,10.463,0,0,1-5.341-15.869,4.681,4.681,0,0,1,3.861-2h.158a4.834,4.834,0,0,1,2.681.813" transform="translate(-286.146 -187.763)" fill="none" stroke="#000" stroke-linecap="round" stroke-linejoin="round" stroke-miterlimit="10" stroke-width="1.5"/>
        <line id="Line_577" data-name="Line 577" y1="0.4" transform="translate(10.458 5.971)" fill="none" stroke="#000" stroke-linecap="round" stroke-linejoin="round" stroke-miterlimit="10" stroke-width="1.5"/>
        <path id="Path_1064886" data-name="Path 1064886" d="M316.223,133.273a5.709,5.709,0,0,0,4.756,1.281,5.722,5.722,0,0,0-6.755-5.782A5.708,5.708,0,0,0,316.223,133.273Z" transform="translate(-310.523 -128.676)" fill="none" stroke="#000" stroke-linecap="round" stroke-linejoin="round" stroke-miterlimit="10" stroke-width="1.5"/>
      </g>
      <g id="Group_1197957" data-name="Group 1197957" transform="translate(44.522)">
        <g id="Group_1197956" data-name="Group 1197956">
          <path id="Path_1064887" data-name="Path 1064887" d="M351.888,224.951l-4.994,4.579a.885.885,0,0,1-1.472-.793l1.075-6.69" transform="translate(-345.409 -196.308)" fill="none" stroke="#000" stroke-linecap="round" stroke-linejoin="round" stroke-miterlimit="10" stroke-width="1.5"/>
          <g id="Group_1197955" data-name="Group 1197955" transform="translate(0.47)">
            <path id="Path_1064888" data-name="Path 1064888" d="M356.412,36.948l5.074-9.42a1.586,1.586,0,0,1,2.142-.642l4.966,2.675a1.586,1.586,0,0,1,.642,2.142L356.911,54.583a1.586,1.586,0,0,1-2.142.642L349.8,52.551a1.586,1.586,0,0,1-.642-2.142l5.063-9.4" transform="translate(-348.974 -26.698)" fill="none" stroke="#000" stroke-linecap="round" stroke-linejoin="round" stroke-miterlimit="10" stroke-width="1.5"/>
            <line id="Line_578" data-name="Line 578" x1="7.487" y1="4.032" transform="translate(1.731 21.208)" fill="none" stroke="#000" stroke-linecap="round" stroke-linejoin="round" stroke-miterlimit="10" stroke-width="1.5"/>
            <line id="Line_579" data-name="Line 579" x1="7.75" y1="4.174" transform="translate(11.135 3.406)" fill="none" stroke="#000" stroke-linecap="round" stroke-linejoin="round" stroke-miterlimit="10" stroke-width="1.5"/>
          </g>
        </g>
      </g>
      <g id="Group_1197958" data-name="Group 1197958" transform="translate(9.092 45.683)">
        <line id="Line_580" data-name="Line 580" x2="18.248" fill="none" stroke="#000" stroke-linecap="round" stroke-linejoin="round" stroke-miterlimit="10" stroke-width="1.5"/>
        <line id="Line_581" data-name="Line 581" x2="18.248" transform="translate(29.052)" fill="none" stroke="#000" stroke-linecap="round" stroke-linejoin="round" stroke-miterlimit="10" stroke-width="1.5"/>
      </g>
      <line id="Line_582" data-name="Line 582" x2="12.795" transform="translate(11.818 49.754)" fill="none" stroke="#000" stroke-linecap="round" stroke-linejoin="round" stroke-miterlimit="10" stroke-width="1.5"/>
      <line id="Line_583" data-name="Line 583" x2="12.795" transform="translate(40.775 49.754)" fill="none" stroke="#000" stroke-linecap="round" stroke-linejoin="round" stroke-miterlimit="10" stroke-width="1.5"/>
    </g>
  </g>
</svg>
