<svg xmlns="http://www.w3.org/2000/svg" xmlns:xlink="http://www.w3.org/1999/xlink" width="183.533" height="187.621" viewBox="0 0 183.533 187.621">
  <defs>
    <filter id="Rectangle_404858" x="0" y="0" width="183.533" height="187.621" filterUnits="userSpaceOnUse">
      <feOffset dx="3" dy="6" input="SourceAlpha"/>
      <feGaussianBlur stdDeviation="5" result="blur"/>
      <feFlood flood-opacity="0.161"/>
      <feComposite operator="in" in2="blur"/>
      <feComposite in="SourceGraphic"/>
    </filter>
  </defs>
  <g id="Group_1197899" data-name="Group 1197899" transform="translate(-194.467 -436.35)">
    <g id="Group_1113681" data-name="Group 1113681" transform="translate(206.467 434.35)">
      <g transform="matrix(1, 0, 0, 1, -12, 2)" filter="url(#Rectangle_404858)">
        <rect id="Rectangle_404858-2" data-name="Rectangle 404858" width="153.533" height="157.621" rx="8" transform="translate(12 9)" fill="#1b5e69"/>
      </g>
    </g>
    <g id="planta" transform="translate(223.42 456.693)">
      <g id="Artboard_28" data-name="Artboard 28" transform="translate(2 3.168)">
        <path id="Path_1065459" data-name="Path 1065459" d="M25.152,56.864V44H8V82.592H25.152V56.864Z" transform="translate(4.864 46.049)" fill="#e7c192"/>
        <path id="Path_1065460" data-name="Path 1065460" d="M9.86,65.612A13.507,13.507,0,0,0,23.024,79.119V44H9.86Z" transform="translate(6.992 46.049)" fill="#fdddb6"/>
        <path id="Path_1065461" data-name="Path 1065461" d="M37.117,46.1c7.1-4.009,16.873-10.613,20.433-22.662A39.107,39.107,0,0,0,57.55,2H55.406a41.294,41.294,0,0,0-17.538,8.576,39.493,39.493,0,0,0-8.9,10.72Z" transform="translate(28.854 -2)" fill="#5a8b1c"/>
        <path id="Path_1065462" data-name="Path 1065462" d="M55.914,2H53.77a41.294,41.294,0,0,0-17.538,8.576A38.7,38.7,0,0,0,30.4,16.708l4.588,8.876a9.219,9.219,0,0,0,14.065,2.83,36.856,36.856,0,0,0,7.74-8.812A39.75,39.75,0,0,0,55.914,2Z" transform="translate(30.49 -2)" fill="#77b229"/>
        <path id="Path_1065463" data-name="Path 1065463" d="M2,46H14.864V76.016H2Z" transform="translate(-2 48.337)" fill="#e29530"/>
        <path id="Path_1065464" data-name="Path 1065464" d="M11,57h4.288v4.288H11Z" transform="translate(8.296 60.921)" fill="#393a3a"/>
        <path id="Path_1065465" data-name="Path 1065465" d="M33.923,32.128l3.066-5.746a47.34,47.34,0,0,1,11.363-13.85l-2.744-3.3A51.457,51.457,0,0,0,33.216,24.345L30.15,30.177Z" transform="translate(30.204 6.271)" fill="#446815"/>
        <path id="Path_1065466" data-name="Path 1065466" d="M46.505,48.88l-2.959-.343A34.3,34.3,0,0,1,21.527,36.981a34.755,34.755,0,0,1-7.933-16.552L11,6,33.705,9.045a28.13,28.13,0,0,1,16.209,8.062,28.516,28.516,0,0,1,8.254,20.068V38.31A10.65,10.65,0,0,1,46.505,48.88Z" transform="translate(8.296 2.576)" fill="#77b229"/>
        <path id="Path_1065467" data-name="Path 1065467" d="M45.03,5.059C43.465,3.623,38.6,6,35.746,8.983c-1.93,2.015-4.288,5.81-3.173,7.418s5.767.772,8.576-1.436C44.9,12.135,46.681,6.517,45.03,5.059Z" transform="translate(32.648 1.008)" fill="#e9f7d6"/>
        <path id="Path_1065468" data-name="Path 1065468" d="M33.705,9.045,11,6l2.594,14.365a33.448,33.448,0,0,0,.965,3.9,32.932,32.932,0,0,0,3.473,4.8A34.111,34.111,0,0,0,40.052,40.647l2.959.322a10.227,10.227,0,0,0,5.853-1.051,10.549,10.549,0,0,0,5.81-9.434V29.348a29.244,29.244,0,0,0-1.051-7.611A28.087,28.087,0,0,0,33.705,9.045Z" transform="translate(8.296 2.576)" fill="#92d631"/>
        <path id="Path_1065469" data-name="Path 1065469" d="M34.242,15.122c.386-2.594-5.382-5.939-10.377-6.8-3.43-.6-8.919-.493-9.755,1.8s3.173,6.432,7.4,7.826C26.866,19.839,33.834,17.759,34.242,15.122Z" transform="translate(11.726 4.882)" fill="#e9f7d6"/>
        <path id="Path_1065470" data-name="Path 1065470" d="M41.674,65.278h4.288V48.362a33.618,33.618,0,0,0-5.725-19.3c-.364-.536-.75-1.072-1.158-1.587A34.647,34.647,0,0,0,23.085,16.03L21.67,20.082A30.316,30.316,0,0,1,35.692,30.095c.364.472.708.943,1.029,1.394a29.566,29.566,0,0,1,4.953,16.873Z" transform="translate(20.503 14.051)" fill="#5a8b1c"/>
        <path id="Path_1065471" data-name="Path 1065471" d="M83.707,50.533a18.632,18.632,0,0,0-10.291-9.477l-1.587-.6a59.389,59.389,0,0,0-41.165.45A18.589,18.589,0,0,0,19,58.058V69.164H72.386Z" transform="translate(17.448 38.037)" fill="#89857c"/>
        <path id="Path_1065472" data-name="Path 1065472" d="M63.169,60.3H69.6L91.577,42.329A5.789,5.789,0,0,1,95.329,41h.622a5.821,5.821,0,0,1,3.666,10.334L73.889,73.161,48.16,79.593,16,77.449V60.3L37.226,47.925a19.1,19.1,0,0,1,9.712-2.637h.536a19.446,19.446,0,0,1,5.553.815L68.25,50.67A4.919,4.919,0,0,1,66.835,60.3H52.448" transform="translate(14.016 42.617)" fill="#f2b9a1"/>
        <path id="Path_1065473" data-name="Path 1065473" d="M17.5,65.869a5.66,5.66,0,0,0,5.36,5.639l26.886,1.78,25.728-6.432,24.571-20.8a5.853,5.853,0,0,0-.214-1.029,4.933,4.933,0,0,0-.386-.922,5.663,5.663,0,0,0-.493-.75l-.279-.257a7.4,7.4,0,0,0-.557-.6l-.257-.214a5.315,5.315,0,0,0-.557-.407l-.407-.236a4.115,4.115,0,0,0-.536-.257,5.276,5.276,0,0,0-.622-.193l-.407-.129a6.8,6.8,0,0,0-1.136,0h-.579A5.789,5.789,0,0,0,89.9,42.392L67.885,60.252H65.119a4.931,4.931,0,0,0,4.91-4.91,3.13,3.13,0,0,0,0-.472,4.931,4.931,0,0,0-3.452-4.288L51.354,46.015a19.553,19.553,0,0,0-5.6-.772h-.536a19.1,19.1,0,0,0-9.712,2.637L17.5,58.386Z" transform="translate(15.732 42.661)" fill="#fbe1ca"/>
        <path id="Path_1065474" data-name="Path 1065474" d="M55.614,48H32.244a2.144,2.144,0,0,0,0,4.288H50.7A4.91,4.91,0,0,0,55.614,48Z" transform="translate(30.147 50.625)" fill="#f2b9a1"/>
        <path id="Path_1065475" data-name="Path 1065475" d="M76.727,45.987a18.653,18.653,0,0,0-7.247-4.931l-1.587-.6a59.389,59.389,0,0,0-41.165.45,18.289,18.289,0,0,0-4.288,2.4v.622a5.9,5.9,0,0,0,7.7,5.617L35.326,47.9a19.489,19.489,0,0,1,10.163-.515L58.953,50.3a20.175,20.175,0,0,0,14.965-2.573Z" transform="translate(21.384 38.037)" fill="#b6b1a5"/>
        <path id="Path_1065476" data-name="Path 1065476" d="M2,46V71.728H3.565a8.576,8.576,0,0,0,8.576-8.576V46Z" transform="translate(-2 48.337)" fill="#ffc239"/>
      </g>
      <g id="Layer_33" data-name="Layer 33" transform="translate(2 0.979)">
        <path id="Path_1065477" data-name="Path 1065477" d="M111.924,84.641h-.579a8.126,8.126,0,0,0-5.081,1.8L103.8,88.478a20.583,20.583,0,0,0-10.184-8.126l-1.565-.708a61.212,61.212,0,0,0-23.584-3.473V65.58a35.591,35.591,0,0,0-2.144-12.071,12.714,12.714,0,0,0,3.3-4.76c7.333-4.288,17.152-11.213,20.733-23.584a41.208,41.208,0,0,0,0-22.619A2.144,2.144,0,0,0,88.211.981H85.617a43.438,43.438,0,0,0-18.46,9.026,41.316,41.316,0,0,0-8,9.069,30.4,30.4,0,0,0-15.008-6.432L21.575,9.6a2.139,2.139,0,0,0-2.38,2.509l2.594,14.365a36.448,36.448,0,0,0,31.8,29.888l2.98.322a10.442,10.442,0,0,0,1.415,0,12.435,12.435,0,0,0,4.674-.922,31.474,31.474,0,0,1,1.522,9.82V76.515a63.164,63.164,0,0,0-14.858,3.6A20.626,20.626,0,0,0,36.3,99.413v1.758l-2.144,1.244v-9.2a2.144,2.144,0,0,0-2.144-2.144H14.864a2.144,2.144,0,0,0-2.144,2.144v2.144H2v4.288H12.72v25.728H2v4.288H12.72v2.144a2.144,2.144,0,0,0,2.144,2.144H32.016a2.144,2.144,0,0,0,2.144-2.144v-6.282l29.866,1.994h.15a2.145,2.145,0,0,0,.515,0l25.728-6.432a2.294,2.294,0,0,0,.879-.45l25.728-21.826a8,8,0,0,0-5.1-14.172ZM70.03,13.395a38.785,38.785,0,0,1,16.4-8.083h.3a36.577,36.577,0,0,1-.386,18.7C83.6,33.184,77.041,39.1,70.609,43.175v-.257a30.231,30.231,0,0,0-1.029-7.761A46.846,46.846,0,0,1,80.557,21.971l-2.744-3.3A52.229,52.229,0,0,0,71.1,25.38a51.822,51.822,0,0,0-3.366,4.61,30.016,30.016,0,0,0-5.274-7.826,36.641,36.641,0,0,1,7.568-8.769ZM57.037,52.48l-2.959-.343A31.989,31.989,0,0,1,33.431,41.288a32.675,32.675,0,0,1-7.44-15.523L23.848,14.3l19.768,2.659A26.179,26.179,0,0,1,66.321,42.918v1.136a8.576,8.576,0,0,1-1.8,5.231,25.727,25.727,0,0,0-1.78-2.959c-.364-.536-.75-1.072-1.158-1.587A34.647,34.647,0,0,0,45.588,33.291l-1.415,4.181a30.638,30.638,0,0,1,14.022,9.991c.364.472.708.943,1.029,1.394a31.881,31.881,0,0,1,1.822,3.109,8.3,8.3,0,0,1-4.009.515ZM50.884,84.126a56.945,56.945,0,0,1,39.643-.45l1.587.6a16.316,16.316,0,0,1,8.319,6.925l-10.72,8.576a7.075,7.075,0,0,0-4.931-5.489L69.558,89.722a21.44,21.44,0,0,0-6.068-.793h-.536a21.44,21.44,0,0,0-10.72,2.916L40.592,98.555A16.273,16.273,0,0,1,50.884,84.126ZM29.872,129.665H17.008v-34.3H29.872Zm84.453-34.3L88.9,116.8l-24.914,6.432L34.16,121.218V107.3L54.314,95.554a17.152,17.152,0,0,1,8.576-2.337h.536a16.744,16.744,0,0,1,4.931.729L83.58,98.512a2.76,2.76,0,0,1-.729,5.424H68.465v4.288H85.617a2.144,2.144,0,0,0,1.351-.493l21.976-17.967a3.773,3.773,0,0,1,2.4-.836h.622a3.731,3.731,0,0,1,3.666,3.709,3.666,3.666,0,0,1-1.308,2.83Z" transform="translate(-2 -0.979)"/>
        <path id="Path_1065478" data-name="Path 1065478" d="M11,57h4.288v4.288H11Z" transform="translate(8.296 63.11)"/>
      </g>
    </g>
  </g>
</svg>
