<svg xmlns="http://www.w3.org/2000/svg" xmlns:xlink="http://www.w3.org/1999/xlink" width="118" height="118" viewBox="0 0 118 118">
  <defs>
    <filter id="Ellipse_12115" x="0" y="0" width="118" height="118" filterUnits="userSpaceOnUse">
      <feOffset dy="3" input="SourceAlpha"/>
      <feGaussianBlur stdDeviation="3" result="blur"/>
      <feFlood flood-opacity="0.161"/>
      <feComposite operator="in" in2="blur"/>
      <feComposite in="SourceGraphic"/>
    </filter>
  </defs>
  <g id="Group_1182211" data-name="Group 1182211" transform="translate(-745.781 -3846)">
    <g id="Group_1181949" data-name="Group 1181949" transform="translate(-54 1303)">
      <g transform="matrix(1, 0, 0, 1, 799.78, 2543)" filter="url(#Ellipse_12115)">
        <g id="Ellipse_12115-2" data-name="Ellipse 12115" transform="translate(9 6)" fill="#ebdad5" stroke="#8f726a" stroke-width="1">
          <circle cx="50" cy="50" r="50" stroke="none"/>
          <circle cx="50" cy="50" r="49.5" fill="none"/>
        </g>
      </g>
    </g>
    <g id="skincare_9835985" transform="translate(750.319 3845.591)">
      <g id="Layer_x0020_1" transform="translate(26.906 25.017)">
        <g id="_308433960">
          <g id="Group_1198138" data-name="Group 1198138">
            <path id="_308436408" d="M119.193,177.873a.7.7,0,0,1-.69-.628l-4.519-45.609a.684.684,0,1,1,1.36-.146l4.519,45.609a.682.682,0,0,1-.607.753C119.235,177.873,119.235,177.873,119.193,177.873Zm17.407,0h-.063a.682.682,0,0,1-.607-.753l4.519-45.609a.684.684,0,0,1,1.36.146l-4.519,45.609A.653.653,0,0,1,136.6,177.873Z" transform="translate(-113.963 -125.654)" fill-rule="evenodd"/>
            <path id="_308436576" d="M121.5,193.7a.7.7,0,0,1-.649-.46.692.692,0,0,1,.418-.879,39.791,39.791,0,0,1,24.06,0,.688.688,0,0,1-.46,1.3,38.66,38.66,0,0,0-23.181,0C121.648,193.659,121.564,193.7,121.5,193.7Zm11.821,18.871a40.22,40.22,0,0,1-10.252-1.3.683.683,0,0,1,.356-1.318,39.634,39.634,0,0,0,19.792,0,.674.674,0,0,1,.837.481.691.691,0,0,1-.481.837A38.663,38.663,0,0,1,133.322,212.572Z" transform="translate(-119.367 -172.8)" fill-rule="evenodd"/>
            <path id="_308436552" d="M136.881,350.281V357.5a1.964,1.964,0,0,0,1.967,1.967h12.114a1.964,1.964,0,0,0,1.967-1.967v-7.218Zm14.08,10.565H138.847A3.357,3.357,0,0,1,135.5,357.5V349.59a.7.7,0,0,1,.69-.69h17.428a.7.7,0,0,1,.69.69V357.5A3.331,3.331,0,0,1,150.961,360.846Z" transform="translate(-130.981 -298.061)" fill-rule="evenodd"/>
            <path id="_308435952" d="M153.618,369.281H136.19a.69.69,0,1,1,0-1.381h17.428a.69.69,0,1,1,0,1.381Z" transform="translate(-130.981 -313.086)" fill-rule="evenodd"/>
            <path id="_308435928" d="M168.257,386.389a.7.7,0,0,1-.69-.69v-2.72a.4.4,0,0,0-.4-.4h-4.791a.4.4,0,0,0-.4.4v2.72a.69.69,0,0,1-1.381,0v-2.72a1.777,1.777,0,0,1,1.778-1.778h4.791a1.777,1.777,0,0,1,1.778,1.778v2.72A.683.683,0,0,1,168.257,386.389Z" transform="translate(-150.83 -323.603)" fill-rule="evenodd"/>
            <path id="_308436144" d="M115.3,111.13h25.085v-3.787a.09.09,0,0,0-.084-.084H115.385a.09.09,0,0,0-.084.084Zm25.775,1.4H114.59a.7.7,0,0,1-.69-.69v-4.477a1.469,1.469,0,0,1,1.465-1.465h24.917a1.469,1.469,0,0,1,1.464,1.465v4.477A.666.666,0,0,1,141.077,112.532Z" transform="translate(-113.9 -105.9)" fill-rule="evenodd"/>
            <path id="_308435880" d="M139.523,221.744a8.828,8.828,0,0,0,2.511,5.314,6.047,6.047,0,0,0,4.289,1.464,6.047,6.047,0,0,0-1.464-4.289A9.231,9.231,0,0,0,139.523,221.744Zm6.695,8.159a7.319,7.319,0,0,1-5.084-1.82c-2.866-2.573-3.034-6.883-3.034-7.071a.649.649,0,0,1,.209-.5.731.731,0,0,1,.5-.209c.188,0,4.5.167,7.071,3.034a7.66,7.66,0,0,1,1.8,5.921.675.675,0,0,1-.628.628C146.741,229.882,146.469,229.9,146.218,229.9Z" transform="translate(-133.037 -196.366)" fill-rule="evenodd"/>
            <path id="_308435808" d="M178.492,228.443a6.047,6.047,0,0,0,4.289-1.464,9.078,9.078,0,0,0,2.511-5.314,8.828,8.828,0,0,0-5.314,2.511A6.173,6.173,0,0,0,178.492,228.443Zm.126,1.381c-.272,0-.544-.021-.816-.042a.675.675,0,0,1-.628-.628,7.606,7.606,0,0,1,1.8-5.921c2.573-2.866,6.883-3.034,7.071-3.034a.649.649,0,0,1,.5.209.731.731,0,0,1,.209.5c0,.188-.167,4.5-3.034,7.071A7.231,7.231,0,0,1,178.617,229.824Z" transform="translate(-163.909 -196.287)" fill-rule="evenodd"/>
            <path id="_308435184" d="M249.289,277.181a2.009,2.009,0,0,0-2.008,2.008v19.248a3.246,3.246,0,0,0,3.243,3.243H273.1a3.246,3.246,0,0,0,3.243-3.243V279.189a2.009,2.009,0,0,0-2.008-2.008Zm23.829,25.859h-22.6a4.625,4.625,0,0,1-4.624-4.624V279.168a3.366,3.366,0,0,1,3.368-3.368h25.043a3.366,3.366,0,0,1,3.368,3.368v19.248a4.572,4.572,0,0,1-4.561,4.624Z" transform="translate(-218.284 -240.254)" fill-rule="evenodd"/>
            <path id="_308435448" d="M284.633,252.113a.7.7,0,0,1-.69-.69v-4.875a1.071,1.071,0,0,0-1.067-1.067H261.348a1.071,1.071,0,0,0-1.067,1.067v4.875a.69.69,0,1,1-1.381,0v-4.875a2.451,2.451,0,0,1,2.448-2.448h21.528a2.451,2.451,0,0,1,2.448,2.448v4.875A.71.71,0,0,1,284.633,252.113Z" transform="translate(-228.564 -215.187)" fill-rule="evenodd"/>
            <path id="_308435472" d="M277.623,317.665a10.012,10.012,0,0,0,2.741,5.879,6.721,6.721,0,0,0,4.749,1.611,6.627,6.627,0,0,0-1.611-4.749A9.9,9.9,0,0,0,277.623,317.665Zm7.322,8.85a7.834,7.834,0,0,1-5.481-1.967c-3.1-2.783-3.264-7.448-3.264-7.636a.649.649,0,0,1,.209-.5.73.73,0,0,1,.5-.209c.188,0,4.875.188,7.636,3.264a8.157,8.157,0,0,1,1.925,6.381.675.675,0,0,1-.628.628A6.629,6.629,0,0,1,284.945,326.514Z" transform="translate(-242.245 -272.202)" fill-rule="evenodd"/>
            <path id="_308435688" d="M319.916,325.154a6.628,6.628,0,0,0,4.749-1.611,9.884,9.884,0,0,0,2.741-5.879,10.012,10.012,0,0,0-5.879,2.741A6.755,6.755,0,0,0,319.916,325.154Zm.188,1.36c-.293,0-.586-.021-.9-.042a.675.675,0,0,1-.628-.628,8.262,8.262,0,0,1,1.925-6.381c2.783-3.1,7.448-3.264,7.636-3.264a.649.649,0,0,1,.5.209.731.731,0,0,1,.209.5c0,.188-.188,4.875-3.264,7.636A7.775,7.775,0,0,1,320.1,326.514Z" transform="translate(-275.73 -272.202)" fill-rule="evenodd"/>
            <path id="_308435592" d="M277.052,301.281H246.59a.69.69,0,1,1,0-1.381h30.441a.691.691,0,0,1,.021,1.381Z" transform="translate(-218.284 -259.312)" fill-rule="evenodd"/>
            <path id="_308435400" d="M277.052,376.781H246.59a.69.69,0,1,1,0-1.381h30.441a.691.691,0,0,1,.021,1.381Z" transform="translate(-218.284 -319.017)" fill-rule="evenodd"/>
          </g>
          <path id="_308435376" d="M120.6,116.47h25.085v-3.787a.09.09,0,0,0-.084-.084H120.684a.09.09,0,0,0-.084.084Z" transform="translate(-119.198 -111.198)" fill="#fe679f" fill-rule="evenodd"/>
          <path id="_308434536" d="M145.838,137.6H120.9l1.255,12.657a40.339,40.339,0,0,1,22.428,0Z" transform="translate(-119.436 -130.968)" fill="#fd0097" fill-rule="evenodd"/>
          <path id="_308435064" d="M138.688,197.1a37.258,37.258,0,0,0-11.088,1.611l1.653,16.591a37.987,37.987,0,0,0,9.436,1.13,39,39,0,0,0,9.436-1.13l1.653-16.591A37.36,37.36,0,0,0,138.688,197.1Zm-8.2,4.875c.188,0,4.5.167,7.071,3.034a7.148,7.148,0,0,1,1.109,1.653,6.73,6.73,0,0,1,1.109-1.653c2.573-2.866,6.883-3.034,7.071-3.034a.649.649,0,0,1,.5.209.731.731,0,0,1,.209.5c0,.188-.167,4.5-3.034,7.071a7.319,7.319,0,0,1-5.084,1.82c-.251,0-.5,0-.774-.021-.272.021-.523.021-.774.021a7.318,7.318,0,0,1-5.084-1.82c-2.866-2.573-3.034-6.883-3.034-7.071a.649.649,0,0,1,.209-.5A.61.61,0,0,1,130.487,201.975Z" transform="translate(-124.734 -178.02)" fill="#fe679f" fill-rule="evenodd"/>
          <path id="_308434824" d="M190.637,227.2a8.828,8.828,0,0,0-5.314,2.511,5.723,5.723,0,0,0-1.423,3.431c.021.272.021.565.021.837a6.151,6.151,0,0,0,4.226-1.464A9.031,9.031,0,0,0,190.637,227.2Z" transform="translate(-169.255 -201.822)" fill="#fd0097" fill-rule="evenodd"/>
          <path id="_308434584" d="M151.737,233.142a5.852,5.852,0,0,0-1.423-3.431A9.078,9.078,0,0,0,145,227.2a8.828,8.828,0,0,0,2.511,5.314,6.079,6.079,0,0,0,4.226,1.464A5.586,5.586,0,0,1,151.737,233.142Z" transform="translate(-138.493 -201.822)" fill="#fd0097" fill-rule="evenodd"/>
          <path id="_308434656" d="M145.489,291.967A39.247,39.247,0,0,1,136.2,290.9l1.193,12.134h16.193l1.193-12.134A38.431,38.431,0,0,1,145.489,291.967Z" transform="translate(-131.535 -252.195)" fill="#fd0097" fill-rule="evenodd"/>
          <path id="_308434416" d="M158.168,355.5H142.1v2.615h16.068Z" transform="translate(-136.2 -303.28)" fill="#fe679f" fill-rule="evenodd"/>
          <path id="_308435136" d="M158.247,374.5H142.2v3.264a1.964,1.964,0,0,0,1.967,1.967h1.883V377.7a1.777,1.777,0,0,1,1.778-1.778h4.791A1.777,1.777,0,0,1,154.4,377.7v2.029h1.883a1.964,1.964,0,0,0,1.967-1.967Z" transform="translate(-136.279 -318.305)" fill="#fe679f" fill-rule="evenodd"/>
          <path id="_308434896" d="M172.289,387.9H167.5a.4.4,0,0,0-.4.4v2.029h5.628V388.3A.436.436,0,0,0,172.289,387.9Z" transform="translate(-155.97 -328.902)" fill="#fe679f" fill-rule="evenodd"/>
          <path id="_308434320" d="M252.6,382.418a3.246,3.246,0,0,0,3.243,3.243h22.574a3.246,3.246,0,0,0,3.243-3.243V382H252.6Z" transform="translate(-223.582 -324.236)" fill="#32d736" fill-rule="evenodd"/>
          <path id="_308434224" d="M252.6,320.936h29.06V306.5H252.6Zm8.2-4.038c-3.1-2.783-3.264-7.448-3.264-7.636a.649.649,0,0,1,.209-.5.731.731,0,0,1,.5-.209c.188,0,4.875.188,7.636,3.264a7.083,7.083,0,0,1,1.234,1.9,7.627,7.627,0,0,1,1.234-1.9c2.762-3.1,7.448-3.264,7.636-3.264a.649.649,0,0,1,.5.209.73.73,0,0,1,.209.5c0,.188-.188,4.875-3.264,7.636a7.931,7.931,0,0,1-5.481,1.967c-.272,0-.544,0-.837-.021-.293.021-.565.021-.837.021A7.967,7.967,0,0,1,260.8,316.9Z" transform="translate(-223.582 -264.532)" fill="#05ff77" fill-rule="evenodd"/>
          <g id="Group_1198139" data-name="Group 1198139" transform="translate(28.997 30.315)">
            <path id="_308433768" d="M326.869,326.041a6.331,6.331,0,0,0-1.569,3.766,7.634,7.634,0,0,1,.021.983,6.657,6.657,0,0,0,4.686-1.611,9.885,9.885,0,0,0,2.741-5.879A9.71,9.71,0,0,0,326.869,326.041Z" transform="translate(-310.069 -308.132)" fill="#32d736" fill-rule="evenodd"/>
            <path id="_308434008" d="M290.448,329.807a6.462,6.462,0,0,0-1.569-3.766A9.884,9.884,0,0,0,283,323.3a10.012,10.012,0,0,0,2.741,5.879,6.657,6.657,0,0,0,4.686,1.611C290.427,330.455,290.427,330.12,290.448,329.807Z" transform="translate(-276.619 -308.132)" fill="#32d736" fill-rule="evenodd"/>
            <path id="_308433840" d="M265.4,256.051h23.683v-4.184a1.071,1.071,0,0,0-1.067-1.067H266.467a1.071,1.071,0,0,0-1.067,1.067Z" transform="translate(-262.701 -250.8)" fill="#32d736" fill-rule="evenodd"/>
            <path id="_308433984" d="M279.572,282.4H254.488a1.991,1.991,0,0,0-1.988,2.008v1.674h29.06v-1.674A1.978,1.978,0,0,0,279.572,282.4Z" transform="translate(-252.5 -275.789)" fill="#32d736" fill-rule="evenodd"/>
          </g>
        </g>
      </g>
    </g>
  </g>
</svg>
