<svg xmlns="http://www.w3.org/2000/svg" xmlns:xlink="http://www.w3.org/1999/xlink" width="86.423" height="86.423" viewBox="0 0 86.423 86.423">
  <defs>
    <filter id="Path_874925" x="0" y="0" width="86.423" height="86.423" filterUnits="userSpaceOnUse">
      <feOffset dy="3" input="SourceAlpha"/>
      <feGaussianBlur stdDeviation="3" result="blur"/>
      <feFlood flood-opacity="0.161"/>
      <feComposite operator="in" in2="blur"/>
      <feComposite in="SourceGraphic"/>
    </filter>
  </defs>
  <g id="Group_1198240" data-name="Group 1198240" transform="translate(-1127.525 -1027.934)">
    <g id="Group_1109835" data-name="Group 1109835" transform="translate(1136.525 1033.934)">
      <g id="Group_1107913" data-name="Group 1107913" transform="translate(0 0)">
        <g transform="matrix(1, 0, 0, 1, -9, -6)" filter="url(#Path_874925)">
          <g id="Path_874925-2" data-name="Path 874925" transform="translate(9 6)" fill="#a8cf89">
            <path d="M 34.21131896972656 66.92303466796875 C 29.79465866088867 66.92303466796875 25.51090812683105 66.05836486816406 21.47905921936035 64.35303497314453 C 17.58399963378906 62.70556640625 14.08555889129639 60.34674835205078 11.08091926574707 57.34211730957031 C 8.076289176940918 54.33747863769531 5.717468738555908 50.83903884887695 4.069998741149902 46.94397735595703 C 2.36466908454895 42.91212844848633 1.499998927116394 38.62837600708008 1.499998927116394 34.21171569824219 C 1.499998927116394 29.79465675354004 2.36466908454895 25.51090812683105 4.069998741149902 21.47905731201172 C 5.717468738555908 17.58399772644043 8.076289176940918 14.08555698394775 11.08091926574707 11.08091735839844 C 14.08555889129639 8.076287269592285 17.58399963378906 5.717467308044434 21.47905921936035 4.069997310638428 C 25.51090812683105 2.364667415618896 29.79465866088867 1.49999737739563 34.21131896972656 1.49999737739563 C 38.62797927856445 1.49999737739563 42.91172790527344 2.364667415618896 46.94358062744141 4.069997310638428 C 50.83863830566406 5.717467308044434 54.33707809448242 8.076287269592285 57.34172058105469 11.08091735839844 C 60.34634780883789 14.08555698394775 62.70516967773438 17.58399772644043 64.35263824462891 21.47905731201172 C 66.05796813964844 25.51090812683105 66.92263793945312 29.79465675354004 66.92263793945312 34.21131896972656 C 66.92263793945312 38.62837600708008 66.05796813964844 42.91212844848633 64.35263824462891 46.94397735595703 C 62.70516967773438 50.83903884887695 60.34634780883789 54.33747863769531 57.34172058105469 57.34211730957031 C 54.33707809448242 60.34674835205078 50.83863830566406 62.70556640625 46.94358062744141 64.35303497314453 C 42.91172790527344 66.05836486816406 38.62797927856445 66.92303466796875 34.21131896972656 66.92303466796875 Z" stroke="none"/>
            <path d="M 34.21131896972656 3 C 29.99649429321289 3 25.90934371948242 3.824813842773438 22.06338882446289 5.451503753662109 C 18.34711837768555 7.023353576660156 15.00894165039062 9.274223327636719 12.1415901184082 12.14158630371094 C 9.274223327636719 15.00894165039062 7.023353576660156 18.34711837768555 5.451507568359375 22.06338882446289 C 3.824813842773438 25.90933990478516 3 29.99649429321289 3 34.21171569824219 C 3 38.42654037475586 3.824813842773438 42.51369476318359 5.451507568359375 46.35964584350586 C 7.023353576660156 50.07592010498047 9.274223327636719 53.41409301757812 12.1415901184082 56.28144836425781 C 15.00894165039062 59.14881134033203 18.34711837768555 61.39968109130859 22.06338882446289 62.97152709960938 C 25.90934371948242 64.59822082519531 29.99649429321289 65.42303466796875 34.21131896972656 65.42303466796875 C 38.42613983154297 65.42303466796875 42.51329803466797 64.59822082519531 46.35924911499023 62.97152709960938 C 50.07551956176758 61.39968109130859 53.4136962890625 59.14881134033203 56.28104782104492 56.28144836425781 C 59.14841461181641 53.41409301757812 61.39928436279297 50.07592010498047 62.97113037109375 46.35964584350586 C 64.59782409667969 42.51369476318359 65.42263793945312 38.42654037475586 65.42263793945312 34.21131896972656 C 65.42263793945312 29.99649429321289 64.59782409667969 25.90933990478516 62.97113037109375 22.06338882446289 C 61.39928436279297 18.34711837768555 59.14841461181641 15.00894165039062 56.28104782104492 12.14158630371094 C 53.4136962890625 9.274223327636719 50.07551956176758 7.023353576660156 46.35924911499023 5.451503753662109 C 42.51329803466797 3.824813842773438 38.42613983154297 3 34.21131896972656 3 M 34.21131896972656 0 C 53.10570526123047 0 68.42263793945312 15.31692886352539 68.42263793945312 34.21131896972656 L 68.42263793945312 34.21171569824219 C 68.42263793945312 53.10610580444336 53.10570526123047 68.42303466796875 34.21131896972656 68.42303466796875 C 15.31692886352539 68.42303466796875 0 53.10610580444336 0 34.21171569824219 L 0 34.21131896972656 C 0 15.31692886352539 15.31692886352539 0 34.21131896972656 0 Z" stroke="none" fill="#fff"/>
          </g>
        </g>
        <g id="Path_874923" data-name="Path 874923" transform="translate(0 0)" fill="none">
          <path d="M34.211,0A34.211,34.211,0,0,1,68.423,34.211h0A34.211,34.211,0,0,1,0,34.212H0A34.211,34.211,0,0,1,34.211,0Z" stroke="none"/>
          <path d="M 34.21131896972656 3 C 29.99649429321289 3 25.90934371948242 3.824813842773438 22.06338882446289 5.451503753662109 C 18.34711837768555 7.023353576660156 15.00894165039062 9.274223327636719 12.1415901184082 12.14158630371094 C 9.274223327636719 15.00894165039062 7.023353576660156 18.34711837768555 5.451507568359375 22.06338882446289 C 3.824813842773438 25.90933990478516 3 29.99649429321289 3 34.21171569824219 C 3 38.42654037475586 3.824813842773438 42.51369476318359 5.451507568359375 46.35964584350586 C 7.023353576660156 50.07592010498047 9.274223327636719 53.41409301757812 12.1415901184082 56.28144836425781 C 15.00894165039062 59.14881134033203 18.34711837768555 61.39968109130859 22.06338882446289 62.97152709960938 C 25.90934371948242 64.59822082519531 29.99649429321289 65.42303466796875 34.21131896972656 65.42303466796875 C 38.42613983154297 65.42303466796875 42.51329803466797 64.59822082519531 46.35924911499023 62.97152709960938 C 50.07551956176758 61.39968109130859 53.4136962890625 59.14881134033203 56.28104782104492 56.28144836425781 C 59.14841461181641 53.41409301757812 61.39928436279297 50.07592010498047 62.97113037109375 46.35964584350586 C 64.59782409667969 42.51369476318359 65.42263793945312 38.42654037475586 65.42263793945312 34.21131896972656 C 65.42263793945312 29.99649429321289 64.59782409667969 25.90933990478516 62.97113037109375 22.06338882446289 C 61.39928436279297 18.34711837768555 59.14841461181641 15.00894165039062 56.28104782104492 12.14158630371094 C 53.4136962890625 9.274223327636719 50.07551956176758 7.023353576660156 46.35924911499023 5.451503753662109 C 42.51329803466797 3.824813842773438 38.42613983154297 3 34.21131896972656 3 M 34.21131896972656 0 C 53.10570526123047 0 68.42263793945312 15.31692886352539 68.42263793945312 34.21131896972656 L 68.42263793945312 34.21171569824219 C 68.42263793945312 53.10610580444336 53.10570526123047 68.42303466796875 34.21131896972656 68.42303466796875 C 15.31692886352539 68.42303466796875 0 53.10610580444336 0 34.21171569824219 L 0 34.21131896972656 C 0 15.31692886352539 15.31692886352539 0 34.21131896972656 0 Z" stroke="none" fill="#fff"/>
        </g>
      </g>
    </g>
    <g id="paleta-de-color" transform="translate(1137.59 1048.333)">
      <g id="Group_1198274" data-name="Group 1198274" transform="translate(15.034 0.58)">
        <g id="Group_1198272" data-name="Group 1198272" transform="translate(0 2.238)">
          <g id="Group_1198270" data-name="Group 1198270" transform="translate(0.001 0)">
            <path id="Path_1065538" data-name="Path 1065538" d="M327.785,104.967l-6.4,2.422-1.457,5.437v0a6.975,6.975,0,0,1,2.049,4.946v0l4.535,2.857,6.583-2.857v0A18.061,18.061,0,0,0,327.785,104.967Z" transform="translate(-296.864 -99.661)" fill="#d1a08f"/>
            <path id="Path_1065539" data-name="Path 1065539" d="M27.281,250.385a18.059,18.059,0,0,1-5.3-12.807v0l5.3-2.757,5.812,2.757v0a6.976,6.976,0,0,0,2.049,4.946l-.72,5.539Z" transform="translate(-21.977 -219.464)" fill="#dff6fd"/>
            <path id="Path_1065540" data-name="Path 1065540" d="M228.855,347.55l-2.277-5.932,2.277-5.184a6.981,6.981,0,0,0,4.947-2.049l5.559,1.455,2.3,6.4A18.052,18.052,0,0,1,228.855,347.55Z" transform="translate(-210.743 -311.323)" fill="#ffe177"/>
            <path id="Path_1065541" data-name="Path 1065541" d="M103.314,347.528a18.055,18.055,0,0,1-12.808-5.306l7.861-7.861a6.971,6.971,0,0,0,4.947,2.051Z" transform="translate(-85.202 -311.301)" fill="#86e8d0"/>
            <path id="Path_1065542" data-name="Path 1065542" d="M327.785,283.246l-7.861-7.859v0a6.975,6.975,0,0,0,2.049-4.946v0h11.118v0A18.061,18.061,0,0,1,327.785,283.246Z" transform="translate(-296.864 -252.325)" fill="#fe7c66"/>
            <path id="Path_1065543" data-name="Path 1065543" d="M103.314,36.414A18.055,18.055,0,0,0,90.506,41.72l1.279,6.589,6.582,1.272a6.971,6.971,0,0,1,4.947-2.051l2.6-4.978Z" transform="translate(-85.202 -36.414)" fill="#d9b1ee"/>
            <path id="Path_1065544" data-name="Path 1065544" d="M256,36.414V47.53a6.981,6.981,0,0,1,4.947,2.049l7.861-7.859A18.052,18.052,0,0,0,256,36.414Z" transform="translate(-237.888 -36.414)" fill="#9e9797"/>
            <path id="Path_1065545" data-name="Path 1065545" d="M27.281,104.967a18.059,18.059,0,0,0-5.3,12.807v0H33.093v0a6.976,6.976,0,0,1,2.049-4.946Z" transform="translate(-21.977 -99.661)" fill="#8ac9fe"/>
          </g>
          <g id="Group_1198271" data-name="Group 1198271" transform="translate(0 0.001)">
            <path id="Path_1065546" data-name="Path 1065546" d="M30.242,257.615l-2.969.965a18.058,18.058,0,0,1-5.3-12.807v0l3.983-2.07a18.332,18.332,0,0,0-.117,2.07v0A18.044,18.044,0,0,0,30.242,257.615Z" transform="translate(-21.969 -227.659)" fill="#c8effe"/>
            <path id="Path_1065547" data-name="Path 1065547" d="M103.307,416.051v.413A18.056,18.056,0,0,1,90.5,411.158l2.08-2.079a18.134,18.134,0,0,0,10.729,6.972Z" transform="translate(-85.194 -380.238)" fill="#5de1c4"/>
            <path id="Path_1065548" data-name="Path 1065548" d="M103.468,36.809a18.14,18.14,0,0,0-12.175,9.017L90.5,41.734a18.059,18.059,0,0,1,12.809-5.305Z" transform="translate(-85.195 -36.429)" fill="#cb97e7"/>
            <path id="Path_1065549" data-name="Path 1065549" d="M29.353,107.059a18.023,18.023,0,0,0-3.518,10.727v0H21.969v0a18.058,18.058,0,0,1,5.3-12.806Z" transform="translate(-21.969 -99.674)" fill="#60b7ff"/>
          </g>
        </g>
        <g id="Group_1198273" data-name="Group 1198273" transform="translate(13.586)">
          <path id="Path_1065550" data-name="Path 1065550" d="M224.822,7.5a2.647,2.647,0,0,0-2.647,2.647v4.606l2.618,1.392,2.675-1.392V10.147A2.647,2.647,0,0,0,224.822,7.5Z" transform="translate(-220.266 -7.5)" fill="#ffe177"/>
          <path id="Path_1065551" data-name="Path 1065551" d="M224.188,14.747l1.623.863-1.017.528-2.619-1.391V10.141a2.647,2.647,0,0,1,2.647-2.647,2.618,2.618,0,0,1,1.006.2,2.645,2.645,0,0,0-1.64,2.448Z" transform="translate(-220.266 -7.494)" fill="#ffd15b"/>
          <path id="Path_1065552" data-name="Path 1065552" d="M227.468,120.571v8.693a2.743,2.743,0,0,1-.014.276,2.642,2.642,0,0,1-1.31,2.015v.31a1.323,1.323,0,0,1-2.646,0v-.31a2.641,2.641,0,0,1-1.323-2.291v-8.693L224,119.6l.792-.421Z" transform="translate(-220.266 -110.535)" fill="#dff6fd"/>
          <path id="Path_1065553" data-name="Path 1065553" d="M227.454,134.554a2.642,2.642,0,0,1-1.31,2.015v.273a1.347,1.347,0,0,1-1.26,1.358,1.323,1.323,0,0,1-1.387-1.321v-.31a2.641,2.641,0,0,1-1.323-2.291v-8.693l1.826-.971v8.394a1.546,1.546,0,0,0,1.546,1.546h1.907Z" transform="translate(-220.266 -115.549)" fill="#c8effe"/>
          <path id="Path_1065554" data-name="Path 1065554" d="M205.168,103.987H198.9a1.392,1.392,0,1,1,0-2.783h6.272a1.392,1.392,0,0,1,0,2.783Z" transform="translate(-197.504 -93.951)" fill="#ffe177"/>
          <path id="Path_1065555" data-name="Path 1065555" d="M201.755,103.983H198.9a1.392,1.392,0,0,1,0-2.784h2.86a1.392,1.392,0,0,0,0,2.784Z" transform="translate(-197.504 -93.947)" fill="#ffd15b"/>
        </g>
      </g>
      <path id="Path_1065556" data-name="Path 1065556" d="M47.252,8.663A18.694,18.694,0,0,0,36.32,2.506a3.226,3.226,0,0,0-6.287-.01,18.7,18.7,0,1,0,12.516,34.6.58.58,0,1,0-.585-1,17.514,17.514,0,0,1-8.237,2.366V28.487a7.543,7.543,0,0,0,4.349-1.805l7.051,7.051q-.483.451-1,.871a.58.58,0,1,0,.727.9,18.695,18.695,0,0,0,2.4-26.846Zm3.417,11.687H40.7A7.551,7.551,0,0,0,38.9,16l7.046-7.046q.218.233.429.474A17.52,17.52,0,0,1,50.669,20.351ZM28.213,15.177,21.167,8.131a17.514,17.514,0,0,1,8.782-4.44V7.254a1.971,1.971,0,0,0,0,3.941v2.869a7.606,7.606,0,0,0-1.735,1.113Zm1.8-5.142a.811.811,0,0,1,0-1.622h6.272a.811.811,0,0,1,0,1.622H30.011ZM36.4,11.192a1.972,1.972,0,0,0,0-3.936V3.7a17.514,17.514,0,0,1,8.724,4.429l-7.047,7.047A7.587,7.587,0,0,0,36.4,14.09ZM33.175,1.161a2.068,2.068,0,0,1,2.066,2.066V7.252H31.109V3.227a2.068,2.068,0,0,1,2.066-2.066ZM19.934,9.405c.134-.154.272-.3.411-.453L27.39,16a7.541,7.541,0,0,0-1.8,4.355H15.624A17.516,17.516,0,0,1,19.934,9.405Zm3.939,20.8a.58.58,0,0,0,.821,0l3.523-3.523a7.544,7.544,0,0,0,4.348,1.805v9.968a17.4,17.4,0,0,1-11.4-4.722l1.614-1.614a.58.58,0,0,0-.821-.821l-1.614,1.614a17.4,17.4,0,0,1-4.722-11.4h9.969a7.545,7.545,0,0,0,1.8,4.348l-3.523,3.523a.58.58,0,0,0,0,.821Zm9.273-2.856a6.416,6.416,0,0,1-3.2-11.978v3.939a3.236,3.236,0,0,0,1.323,2.6,1.9,1.9,0,0,0,3.807,0,3.235,3.235,0,0,0,1.323-2.6v-.618a.58.58,0,0,0-1.161,0v.618A2.07,2.07,0,0,1,34.208,21.1a.58.58,0,0,0-.29.5v.31a.743.743,0,0,1-1.485,0V21.6a.581.581,0,0,0-.29-.5,2.071,2.071,0,0,1-1.033-1.788V11.2h4.132v4.791a.58.58,0,1,0,1.161,0V15.4a6.416,6.416,0,0,1-3.255,11.945Zm12.8,5.566L38.9,25.861a7.545,7.545,0,0,0,1.8-4.349H50.67a17.435,17.435,0,0,1-4.72,11.4Z"/>
    </g>
  </g>
</svg>
