<svg xmlns="http://www.w3.org/2000/svg" xmlns:xlink="http://www.w3.org/1999/xlink" width="86.423" height="86.423" viewBox="0 0 86.423 86.423">
  <defs>
    <filter id="Path_874925" x="0" y="0" width="86.423" height="86.423" filterUnits="userSpaceOnUse">
      <feOffset dy="3" input="SourceAlpha"/>
      <feGaussianBlur stdDeviation="3" result="blur"/>
      <feFlood flood-opacity="0.161"/>
      <feComposite operator="in" in2="blur"/>
      <feComposite in="SourceGraphic"/>
    </filter>
  </defs>
  <g id="Group_1198242" data-name="Group 1198242" transform="translate(-1127.525 -1027.934)">
    <g id="Group_1109835" data-name="Group 1109835" transform="translate(1136.525 1033.934)">
      <g id="Group_1107913" data-name="Group 1107913" transform="translate(0 0)">
        <g transform="matrix(1, 0, 0, 1, -9, -6)" filter="url(#Path_874925)">
          <g id="Path_874925-2" data-name="Path 874925" transform="translate(9 6)" fill="#a8cf89">
            <path d="M 34.21131896972656 66.92303466796875 C 29.79465866088867 66.92303466796875 25.51090812683105 66.05836486816406 21.47905921936035 64.35303497314453 C 17.58399963378906 62.70556640625 14.08555889129639 60.34674835205078 11.08091926574707 57.34211730957031 C 8.076289176940918 54.33747863769531 5.717468738555908 50.83903884887695 4.069998741149902 46.94397735595703 C 2.36466908454895 42.91212844848633 1.499998927116394 38.62837600708008 1.499998927116394 34.21171569824219 C 1.499998927116394 29.79465675354004 2.36466908454895 25.51090812683105 4.069998741149902 21.47905731201172 C 5.717468738555908 17.58399772644043 8.076289176940918 14.08555698394775 11.08091926574707 11.08091735839844 C 14.08555889129639 8.076287269592285 17.58399963378906 5.717467308044434 21.47905921936035 4.069997310638428 C 25.51090812683105 2.364667415618896 29.79465866088867 1.49999737739563 34.21131896972656 1.49999737739563 C 38.62797927856445 1.49999737739563 42.91172790527344 2.364667415618896 46.94358062744141 4.069997310638428 C 50.83863830566406 5.717467308044434 54.33707809448242 8.076287269592285 57.34172058105469 11.08091735839844 C 60.34634780883789 14.08555698394775 62.70516967773438 17.58399772644043 64.35263824462891 21.47905731201172 C 66.05796813964844 25.51090812683105 66.92263793945312 29.79465675354004 66.92263793945312 34.21131896972656 C 66.92263793945312 38.62837600708008 66.05796813964844 42.91212844848633 64.35263824462891 46.94397735595703 C 62.70516967773438 50.83903884887695 60.34634780883789 54.33747863769531 57.34172058105469 57.34211730957031 C 54.33707809448242 60.34674835205078 50.83863830566406 62.70556640625 46.94358062744141 64.35303497314453 C 42.91172790527344 66.05836486816406 38.62797927856445 66.92303466796875 34.21131896972656 66.92303466796875 Z" stroke="none"/>
            <path d="M 34.21131896972656 3 C 29.99649429321289 3 25.90934371948242 3.824813842773438 22.06338882446289 5.451503753662109 C 18.34711837768555 7.023353576660156 15.00894165039062 9.274223327636719 12.1415901184082 12.14158630371094 C 9.274223327636719 15.00894165039062 7.023353576660156 18.34711837768555 5.451507568359375 22.06338882446289 C 3.824813842773438 25.90933990478516 3 29.99649429321289 3 34.21171569824219 C 3 38.42654037475586 3.824813842773438 42.51369476318359 5.451507568359375 46.35964584350586 C 7.023353576660156 50.07592010498047 9.274223327636719 53.41409301757812 12.1415901184082 56.28144836425781 C 15.00894165039062 59.14881134033203 18.34711837768555 61.39968109130859 22.06338882446289 62.97152709960938 C 25.90934371948242 64.59822082519531 29.99649429321289 65.42303466796875 34.21131896972656 65.42303466796875 C 38.42613983154297 65.42303466796875 42.51329803466797 64.59822082519531 46.35924911499023 62.97152709960938 C 50.07551956176758 61.39968109130859 53.4136962890625 59.14881134033203 56.28104782104492 56.28144836425781 C 59.14841461181641 53.41409301757812 61.39928436279297 50.07592010498047 62.97113037109375 46.35964584350586 C 64.59782409667969 42.51369476318359 65.42263793945312 38.42654037475586 65.42263793945312 34.21131896972656 C 65.42263793945312 29.99649429321289 64.59782409667969 25.90933990478516 62.97113037109375 22.06338882446289 C 61.39928436279297 18.34711837768555 59.14841461181641 15.00894165039062 56.28104782104492 12.14158630371094 C 53.4136962890625 9.274223327636719 50.07551956176758 7.023353576660156 46.35924911499023 5.451503753662109 C 42.51329803466797 3.824813842773438 38.42613983154297 3 34.21131896972656 3 M 34.21131896972656 0 C 53.10570526123047 0 68.42263793945312 15.31692886352539 68.42263793945312 34.21131896972656 L 68.42263793945312 34.21171569824219 C 68.42263793945312 53.10610580444336 53.10570526123047 68.42303466796875 34.21131896972656 68.42303466796875 C 15.31692886352539 68.42303466796875 0 53.10610580444336 0 34.21171569824219 L 0 34.21131896972656 C 0 15.31692886352539 15.31692886352539 0 34.21131896972656 0 Z" stroke="none" fill="#fff"/>
          </g>
        </g>
        <g id="Path_874923" data-name="Path 874923" transform="translate(0 0)" fill="none">
          <path d="M34.211,0A34.211,34.211,0,0,1,68.423,34.211h0A34.211,34.211,0,0,1,0,34.212H0A34.211,34.211,0,0,1,34.211,0Z" stroke="none"/>
          <path d="M 34.21131896972656 3 C 29.99649429321289 3 25.90934371948242 3.824813842773438 22.06338882446289 5.451503753662109 C 18.34711837768555 7.023353576660156 15.00894165039062 9.274223327636719 12.1415901184082 12.14158630371094 C 9.274223327636719 15.00894165039062 7.023353576660156 18.34711837768555 5.451507568359375 22.06338882446289 C 3.824813842773438 25.90933990478516 3 29.99649429321289 3 34.21171569824219 C 3 38.42654037475586 3.824813842773438 42.51369476318359 5.451507568359375 46.35964584350586 C 7.023353576660156 50.07592010498047 9.274223327636719 53.41409301757812 12.1415901184082 56.28144836425781 C 15.00894165039062 59.14881134033203 18.34711837768555 61.39968109130859 22.06338882446289 62.97152709960938 C 25.90934371948242 64.59822082519531 29.99649429321289 65.42303466796875 34.21131896972656 65.42303466796875 C 38.42613983154297 65.42303466796875 42.51329803466797 64.59822082519531 46.35924911499023 62.97152709960938 C 50.07551956176758 61.39968109130859 53.4136962890625 59.14881134033203 56.28104782104492 56.28144836425781 C 59.14841461181641 53.41409301757812 61.39928436279297 50.07592010498047 62.97113037109375 46.35964584350586 C 64.59782409667969 42.51369476318359 65.42263793945312 38.42654037475586 65.42263793945312 34.21131896972656 C 65.42263793945312 29.99649429321289 64.59782409667969 25.90933990478516 62.97113037109375 22.06338882446289 C 61.39928436279297 18.34711837768555 59.14841461181641 15.00894165039062 56.28104782104492 12.14158630371094 C 53.4136962890625 9.274223327636719 50.07551956176758 7.023353576660156 46.35924911499023 5.451503753662109 C 42.51329803466797 3.824813842773438 38.42613983154297 3 34.21131896972656 3 M 34.21131896972656 0 C 53.10570526123047 0 68.42263793945312 15.31692886352539 68.42263793945312 34.21131896972656 L 68.42263793945312 34.21171569824219 C 68.42263793945312 53.10610580444336 53.10570526123047 68.42303466796875 34.21131896972656 68.42303466796875 C 15.31692886352539 68.42303466796875 0 53.10610580444336 0 34.21171569824219 L 0 34.21131896972656 C 0 15.31692886352539 15.31692886352539 0 34.21131896972656 0 Z" stroke="none" fill="#fff"/>
        </g>
      </g>
    </g>
    <g id="medicina" transform="translate(1149.261 1046.679)">
      <path id="Path_1065574" data-name="Path 1065574" d="M20.539,123.719a7.64,7.64,0,1,0,0,10.8A7.64,7.64,0,0,0,20.539,123.719Zm0,0" transform="translate(-6.868 -111.291)" fill="#ffd039"/>
      <path id="Path_1065575" data-name="Path 1065575" d="M20.545,203.333a7.64,7.64,0,0,1-12.958-4.27,7.64,7.64,0,1,0,15.111,0A7.6,7.6,0,0,1,20.545,203.333Zm0,0" transform="translate(-6.874 -182.364)" fill="#ffae47"/>
      <path id="Path_1065576" data-name="Path 1065576" d="M172.28,7.494c-5.1-.082-9.261,1.726-9.3,4.036s4.066,4.25,9.165,4.332,9.261-1.726,9.3-4.036S177.379,7.576,172.28,7.494Zm0,0" transform="translate(-149.31 -6.863)" fill="#ff9522"/>
      <path id="Path_1065577" data-name="Path 1065577" d="M172.138,45.735c-4.209-.067-7.74-1.4-8.822-3.164a2.124,2.124,0,0,0-.342,1.1c-.037,2.311,4.066,4.25,9.164,4.331s9.261-1.726,9.3-4.036a2.147,2.147,0,0,0-.342-1.167C180,44.554,176.395,45.8,172.138,45.735Zm0,0" transform="translate(-149.303 -38.999)" fill="#dd7917"/>
      <path id="Path_1065578" data-name="Path 1065578" d="M141.074,267.732l8-7.986,10.369,10.382-8,7.986a7.337,7.337,0,1,1-10.369-10.382Zm0,0" transform="translate(-127.268 -237.957)" fill="#f9f1ef"/>
      <path id="Path_1065579" data-name="Path 1065579" d="M267.907,141.112l-8,7.986,10.369,10.382,8-7.986a7.337,7.337,0,0,0-10.369-10.382Zm0,0" transform="translate(-238.108 -127.31)" fill="#e93234"/>
      <path id="Path_1065580" data-name="Path 1065580" d="M173.234,364.43l-8,7.986a7.339,7.339,0,0,1-9.51.735,7.413,7.413,0,0,0,.736.859,7.337,7.337,0,0,0,10.376.007l8-7.986Zm0,0" transform="translate(-142.663 -333.86)" fill="#ccc"/>
      <path id="Path_1065581" data-name="Path 1065581" d="M374.045,156.52a7.379,7.379,0,0,0-.865-.742,7.338,7.338,0,0,1-.743,9.517l-8,7.985,1.6,1.6,8-7.986A7.336,7.336,0,0,0,374.045,156.52Zm0,0" transform="translate(-333.87 -142.71)" fill="#bf161c"/>
      <path id="Path_1065582" data-name="Path 1065582" d="M161.021,133.805a7.913,7.913,0,0,0-5.631-2.337h-.006a7.912,7.912,0,0,0-5.628,2.329L137,146.542a.629.629,0,1,0,.889.89l4.318-4.314,9.48,9.492-7.552,7.542a6.664,6.664,0,0,1-4.74,1.961h0a6.708,6.708,0,0,1-4.736-11.454l1.453-1.451a.629.629,0,1,0-.889-.89l-1.453,1.451a7.966,7.966,0,0,0,5.624,13.6h.005a7.912,7.912,0,0,0,5.629-2.329l15.994-15.972a7.966,7.966,0,0,0,.007-11.265Zm-.9,10.375-7.552,7.542-9.48-9.492,7.552-7.542a6.664,6.664,0,0,1,4.74-1.961h0a6.708,6.708,0,0,1,4.736,11.454Zm0,0" transform="translate(-120.401 -120.441)"/>
      <path id="Path_1065583" data-name="Path 1065583" d="M14.116,116.448a8.265,8.265,0,1,0,0,11.694A8.278,8.278,0,0,0,14.116,116.448ZM3.777,127.677l6.6-6.6a.629.629,0,0,0-.889-.889l-6.6,6.6a7.01,7.01,0,0,1,9.874-9.874l-1.5,1.5a.629.629,0,1,0,.889.89l1.5-1.5a7.01,7.01,0,0,1-9.873,9.873Zm0,0" transform="translate(0 -104.465)"/>
      <path id="Path_1065584" data-name="Path 1065584" d="M158.493,8.238a16.9,16.9,0,0,0,6.767,1.39h.01l.332,0a16.662,16.662,0,0,0,6.466-1.176c2-.866,3.107-2.1,3.129-3.482a3.679,3.679,0,0,0-2.029-3.038.629.629,0,1,0-.679,1.059c.548.351,1.464,1.072,1.45,1.959-.013.844-.878,1.7-2.373,2.348a15.153,15.153,0,0,1-5.658,1.069l.113-7.089a16.4,16.4,0,0,1,4.672.859.629.629,0,1,0,.422-1.185,18.119,18.119,0,0,0-5.7-.953,16.92,16.92,0,0,0-6.808,1.173c-2,.867-3.107,2.1-3.129,3.482S156.526,7.308,158.493,8.238Zm.614-5.909a15.144,15.144,0,0,1,5.658-1.068l-.113,7.088A15.141,15.141,0,0,1,159.031,7.1c-1.473-.7-2.31-1.579-2.3-2.423S157.613,2.978,159.107,2.329Zm0,0" transform="translate(-142.434 0)"/>
    </g>
  </g>
</svg>
