<svg xmlns="http://www.w3.org/2000/svg" xmlns:xlink="http://www.w3.org/1999/xlink" width="118" height="118" viewBox="0 0 118 118">
  <defs>
    <filter id="Ellipse_12115" x="0" y="0" width="118" height="118" filterUnits="userSpaceOnUse">
      <feOffset dy="3" input="SourceAlpha"/>
      <feGaussianBlur stdDeviation="3" result="blur"/>
      <feFlood flood-opacity="0.161"/>
      <feComposite operator="in" in2="blur"/>
      <feComposite in="SourceGraphic"/>
    </filter>
  </defs>
  <g id="Group_1198082" data-name="Group 1198082" transform="translate(9 6)">
    <g transform="matrix(1, 0, 0, 1, -9, -6)" filter="url(#Ellipse_12115)">
      <g id="Ellipse_12115-2" data-name="Ellipse 12115" transform="translate(9 6)" fill="#a4c0c4" stroke="#1d636d" stroke-width="1">
        <circle cx="50" cy="50" r="50" stroke="none"/>
        <circle cx="50" cy="50" r="49.5" fill="none"/>
      </g>
    </g>
    <g id="casco" transform="translate(18.529 -39.664)">
      <path id="Path_1065300" data-name="Path 1065300" d="M54.263,92.337a28.276,28.276,0,0,0-28.276,28.276v6.525H82.54v-6.525A28.276,28.276,0,0,0,54.263,92.337Z" transform="translate(-22.792 -22.792)" fill="#ffdc64"/>
      <path id="Path_1065301" data-name="Path 1065301" d="M68.109,127.139H25.694a1.088,1.088,0,0,1-1.088-1.088v-5.438a38.092,38.092,0,0,1,2.627-14.137.68.68,0,0,1,1.3.147L30.82,119.9a2.175,2.175,0,0,0,2.144,1.806H44.525a2.175,2.175,0,0,0,2.144-1.806l4.275-24.8a28.277,28.277,0,0,0-23.874-.234v0l-.521.259a28.259,28.259,0,0,0-16.08,25.493v6.525H9.381a1.088,1.088,0,0,0-1.088,1.088v1.386a1.084,1.084,0,0,0,.741,1.037c7.779,2.543,18.222,4.1,29.71,4.1s21.931-1.559,29.71-4.1a1.084,1.084,0,0,0,.741-1.037v-1.386A1.088,1.088,0,0,0,68.109,127.139Z" transform="translate(-7.274 -22.792)" fill="#ffc850"/>
      <path id="Path_1065302" data-name="Path 1065302" d="M220,106.183h-4.5a2.175,2.175,0,0,1-2.174-2.1l-.938-27.189a2.175,2.175,0,0,1,2.174-2.25h6.373a2.175,2.175,0,0,1,2.174,2.25l-.938,27.189A2.175,2.175,0,0,1,220,106.183Z" transform="translate(-186.279 -7.274)" fill="#fff082"/>
      <g id="Group_1198078" data-name="Group 1198078" transform="translate(1.02 67.37)">
        <path id="Path_1065303" data-name="Path 1065303" d="M68.456,383.1a136.121,136.121,0,0,1-29.71,2.93,136.121,136.121,0,0,1-29.71-2.93.931.931,0,0,1-.7-.544,1.043,1.043,0,0,0-.043.212v1.386a1.084,1.084,0,0,0,.741,1.037c7.779,2.544,18.222,4.1,29.71,4.1s21.931-1.559,29.71-4.1a1.084,1.084,0,0,0,.741-1.037v-1.386a1.043,1.043,0,0,0-.043-.212A.931.931,0,0,1,68.456,383.1Z" transform="translate(-8.294 -344.7)" fill="#ffdc64"/>
        <path id="Path_1065304" data-name="Path 1065304" d="M216.243,104.083l-.666-27.189c-.03-1.23.67-2.25,1.543-2.25h-2.555a2.175,2.175,0,0,0-2.174,2.25l.938,27.189a2.175,2.175,0,0,0,2.174,2.1h2.284C216.954,106.183,216.271,105.254,216.243,104.083Z" transform="translate(-187.3 -74.644)" fill="#ffdc64"/>
      </g>
      <path id="Path_1065305" data-name="Path 1065305" d="M60.835,103.327h-.068V97.821a29.336,29.336,0,0,0-22.932-28.6,3.194,3.194,0,0,0-3.178-2.869H28.285a3.194,3.194,0,0,0-3.178,2.869,29.336,29.336,0,0,0-22.932,28.6v5.506H2.107A2.109,2.109,0,0,0,0,105.434v1.386a2.1,2.1,0,0,0,1.444,2.006c8.19,2.678,18.854,4.153,30.027,4.153S53.308,111.5,61.5,108.826a2.1,2.1,0,0,0,1.444-2.006v-1.386A2.109,2.109,0,0,0,60.835,103.327ZM27.454,68.742a1.146,1.146,0,0,1,.831-.353h6.373a1.156,1.156,0,0,1,1.155,1.2l-.937,27.189a1.151,1.151,0,0,1-1.155,1.116h-4.5a1.151,1.151,0,0,1-1.155-1.116L27.13,69.585A1.145,1.145,0,0,1,27.454,68.742ZM60.9,106.82a.069.069,0,0,1-.039.068c-7.991,2.613-18.43,4.052-29.393,4.052s-21.4-1.439-29.393-4.052a.068.068,0,0,1-.039-.068v-1.386a.068.068,0,0,1,.068-.068H41.259a1.02,1.02,0,1,0,0-2.039H4.214V97.821a27.321,27.321,0,0,1,14.4-24.042l2.212,15.487a1.02,1.02,0,0,0,1.008.876,1.044,1.044,0,0,0,.145-.01,1.02,1.02,0,0,0,.865-1.154L20.543,72.841A27.031,27.031,0,0,1,25.149,71.3l.881,25.542a3.183,3.183,0,0,0,3.193,3.085h4.5a3.183,3.183,0,0,0,3.193-3.085L37.794,71.3A27.056,27.056,0,0,1,42.4,72.842L40.095,88.978a1.02,1.02,0,0,0,.865,1.153,1.044,1.044,0,0,0,.145.01,1.02,1.02,0,0,0,1.008-.876l2.212-15.487a27.32,27.32,0,0,1,14.4,24.042v5.506H52.135a1.02,1.02,0,0,0,0,2.039h8.7a.068.068,0,0,1,.068.068v1.386Z"/>
      <path id="Path_1065306" data-name="Path 1065306" d="M365.908,367.136h-2.175a1.02,1.02,0,0,0,0,2.039h2.175a1.02,1.02,0,0,0,0-2.039Z" transform="translate(-318.123 -263.809)"/>
      <path id="Path_1065307" data-name="Path 1065307" d="M176.434,279.54a1.02,1.02,0,1,0-2.019.288l.311,2.176a1.02,1.02,0,0,0,1.008.876,1.042,1.042,0,0,0,.145-.01,1.02,1.02,0,0,0,.865-1.153Z" transform="translate(-152.964 -186.214)"/>
      <path id="Path_1065308" data-name="Path 1065308" d="M319.953,278.674a1.019,1.019,0,0,0-1.154.865l-.311,2.176a1.02,1.02,0,0,0,.865,1.153,1.031,1.031,0,0,0,.145.01,1.02,1.02,0,0,0,1.008-.876l.311-2.176A1.02,1.02,0,0,0,319.953,278.674Z" transform="translate(-279.327 -186.213)"/>
    </g>
  </g>
</svg>
