<svg xmlns="http://www.w3.org/2000/svg" xmlns:xlink="http://www.w3.org/1999/xlink" width="118" height="118" viewBox="0 0 118 118">
  <defs>
    <filter id="Ellipse_12115" x="0" y="0" width="118" height="118" filterUnits="userSpaceOnUse">
      <feOffset dy="3" input="SourceAlpha"/>
      <feGaussianBlur stdDeviation="3" result="blur"/>
      <feFlood flood-opacity="0.161"/>
      <feComposite operator="in" in2="blur"/>
      <feComposite in="SourceGraphic"/>
    </filter>
  </defs>
  <g id="Group_1198081" data-name="Group 1198081" transform="translate(9 6)">
    <g transform="matrix(1, 0, 0, 1, -9, -6)" filter="url(#Ellipse_12115)">
      <g id="Ellipse_12115-2" data-name="Ellipse 12115" transform="translate(9 6)" fill="#a4c0c4" stroke="#1d636d" stroke-width="1">
        <circle cx="50" cy="50" r="50" stroke="none"/>
        <circle cx="50" cy="50" r="49.5" fill="none"/>
      </g>
    </g>
    <g id="proteccion-auditiva" transform="translate(16.796 13.106)">
      <path id="Path_1065294" data-name="Path 1065294" d="M53.35,29.589a2.212,2.212,0,0,1,.26.031c.156.021.3.031.467.062.1.01.208.031.312.052.2.031.395.062.613.1.125.021.249.052.384.083.218.052.436.114.665.177l.405.125c.062.021.125.031.2.062-.633-4-4.434-20.365-23.771-20.365S9.743,26.3,9.11,30.3c.062-.021.125-.042.2-.062l.405-.125c.228-.062.447-.125.665-.177.135-.031.26-.062.384-.083.218-.042.415-.083.613-.1.1-.021.218-.031.312-.052q.249-.031.467-.062a1.975,1.975,0,0,0,.26-.031l.27-.031c.239-4.611,2.949-9.939,3.074-10.177a.517.517,0,0,1,.312-.26L17.9,18.56c5.483-6.75,13.511-6.532,15.079-6.428a18.081,18.081,0,0,1,14.9,6.428l1.828.571a.517.517,0,0,1,.312.26c.114.228,2.825,5.566,3.074,10.167.093.01.166.021.27.031Z" transform="translate(0.312 0.039)" fill="#4c4845"/>
      <path id="Path_1065295" data-name="Path 1065295" d="M44.773,54.344a5.547,5.547,0,0,0,2.939.644c.052-.031.093-.062.145-.093A1.4,1.4,0,0,0,48,54.78c.062-.052.114-.114.177-.177.042-.052.093-.093.135-.145l.156-.218a1.691,1.691,0,0,0,.114-.177c.052-.083.093-.177.145-.27.031-.073.073-.135.1-.208.042-.093.093-.208.135-.312.031-.073.062-.145.093-.228.042-.114.083-.239.125-.363.031-.083.052-.156.083-.239.042-.135.073-.27.114-.415.021-.083.042-.156.062-.249.042-.156.073-.312.1-.478.021-.083.031-.156.052-.239.031-.187.073-.384.1-.582a1.171,1.171,0,0,1,.031-.187c.083-.53.145-1.08.208-1.662a2.017,2.017,0,0,1,.021-.249c.021-.208.042-.426.052-.644a2.742,2.742,0,0,1,.021-.3c.01-.208.031-.405.042-.613a2.015,2.015,0,0,1,.021-.353c0-.2.021-.384.021-.582,0-.135,0-.27.01-.405,0-.187,0-.374.01-.561v-3c0-.156,0-.3-.01-.457,0-.187,0-.363-.01-.55,0-.166-.01-.322-.021-.488s-.01-.343-.021-.519-.01-.332-.021-.5-.021-.343-.021-.509-.021-.322-.021-.478c0-.177-.021-.343-.031-.519s-.021-.322-.031-.488-.021-.322-.031-.488l-.031-.5c-.01-.156-.021-.312-.031-.457-.01-.166-.021-.332-.042-.5l-.031-.436c-.01-.166-.031-.332-.042-.5-.01-.135-.021-.28-.031-.415-.01-.166-.031-.322-.042-.478-.01-.135-.021-.26-.042-.395-.01-.156-.031-.322-.042-.478-.01-.125-.021-.239-.031-.363-.021-.156-.031-.312-.052-.457-.01-.114-.021-.239-.042-.353-.01-.145-.031-.28-.042-.426-.01-.114-.021-.218-.042-.332-.021-.135-.031-.27-.052-.405-.01-.093-.021-.187-.031-.27-.021-.135-.031-.27-.052-.405V29.7c-2.492.031-3.354.509-3.645.8-.9,1.07-2.222,14.56-1.516,21.051.249,2.3.665,2.721.748,2.783Z" transform="translate(1.651 0.801)" fill="#1b1d1e"/>
      <path id="Path_1065296" data-name="Path 1065296" d="M60.694,52.193c1.734-2.119,2.222-5.556,1.423-10.209-.987-5.795-3.2-9.533-6.584-11.133a10.266,10.266,0,0,0-3.043-.862c-.291-.042-.55-.073-.789-.1-.291-.031-.55-.062-.748-.1,0,0-.363-.031-.893-.062.5,3.946,2.337,20.562-1.08,25.288a60.136,60.136,0,0,0,7.82-.769h.073a5.45,5.45,0,0,0,3.8-2.035Z" transform="translate(1.847 0.801)" fill="#ffce00"/>
      <path id="Path_1065297" data-name="Path 1065297" d="M58.107,30.854c-.53-6.366-5.9-21.944-24.914-21.944S8.809,24.488,8.28,30.854C4.728,32.681,2.4,36.617,1.384,42.61c-.841,5-.28,8.723,1.672,11.081a6.582,6.582,0,0,0,4.507,2.4,58.9,58.9,0,0,0,8.37.789c.332,0,.665,0,.976-.021a6.719,6.719,0,0,0,3.707-.872c.426-.322,1.018-1.163,1.257-4.663.436-6.387-.6-19.43-1.921-20.749-.768-.768-2.378-1.1-4.86-1.111-.405,0-.737.021-1.018.042.26-3.874,2.368-8.4,2.846-9.388l1.765-.561a.555.555,0,0,0,.26-.177c5.151-6.47,12.794-6.262,14.279-6.158h.1a17.015,17.015,0,0,1,14.144,6.158.508.508,0,0,0,.26.177l1.765.561c.478.987,2.586,5.514,2.846,9.388-.28-.021-.623-.031-1.018-.042-2.513-.01-4.092.343-4.86,1.111-1.319,1.319-2.357,14.363-1.921,20.749.239,3.51.831,4.341,1.257,4.663a6.811,6.811,0,0,0,3.707.872c.322.01.644.021.976.021a58.905,58.905,0,0,0,8.329-.779,6.606,6.606,0,0,0,4.538-2.4c1.952-2.357,2.513-6.086,1.672-11.081-1.018-5.992-3.344-9.928-6.9-11.756Zm-10.915.457c.291-.291,1.153-.768,3.645-.8v.062c.021.135.031.27.052.405.01.093.021.177.031.27.021.135.031.27.052.405.01.114.021.218.042.332.01.135.031.28.042.426.01.114.021.228.042.353.021.145.031.3.052.457.01.114.021.239.031.363.01.156.031.312.042.478.01.135.021.26.042.395.01.156.031.322.042.478.01.135.021.27.031.415.01.166.031.332.042.5l.031.436c.01.166.021.332.042.5s.021.312.031.457l.031.5c.01.166.021.322.031.488s.021.322.031.488.021.343.031.519c0,.156.021.322.021.478s.021.343.021.509.01.332.021.5.01.343.021.519.01.322.021.488c0,.187.01.363.01.55,0,.156,0,.3.01.457v3c0,.187,0,.374-.01.561,0,.135,0,.27-.01.405,0,.2-.021.395-.021.582a2.015,2.015,0,0,1-.021.353c-.01.208-.021.415-.042.613a2.743,2.743,0,0,1-.021.3c-.021.218-.031.426-.052.644a2.016,2.016,0,0,1-.021.249c-.052.582-.125,1.142-.208,1.662a1.171,1.171,0,0,1-.031.187c-.031.2-.062.395-.1.582-.021.083-.031.156-.052.239-.031.166-.062.322-.1.478l-.062.249c-.031.145-.073.28-.114.415a1.614,1.614,0,0,1-.083.239c-.042.125-.083.249-.125.363-.031.083-.062.156-.093.228a2.817,2.817,0,0,1-.135.312c-.031.073-.073.135-.1.208-.052.093-.093.187-.145.27a1.692,1.692,0,0,0-.114.177c-.052.073-.1.156-.156.218a1.725,1.725,0,0,1-.135.145,1.417,1.417,0,0,1-.177.177,1.776,1.776,0,0,1-.145.114c-.042.031-.093.062-.145.093a5.512,5.512,0,0,1-2.939-.644c-.083-.062-.5-.478-.748-2.783-.706-6.491.613-19.981,1.516-21.051ZM58.658,55.04a61.215,61.215,0,0,1-7.82.768c3.417-4.725,1.568-21.341,1.08-25.288.53.021.883.062.893.062.208.042.457.062.748.1.239.031.5.062.789.1a10.59,10.59,0,0,1,3.043.862c3.386,1.6,5.6,5.348,6.584,11.133.789,4.663.312,8.1-1.423,10.209a5.484,5.484,0,0,1-3.8,2.035h-.073Zm-8.64-35.88-1.828-.571a18.116,18.116,0,0,0-14.9-6.428c-1.568-.114-9.606-.332-15.079,6.428l-1.828.571a.517.517,0,0,0-.312.26c-.114.228-2.835,5.566-3.074,10.177-.083,0-.166.021-.27.031a2.213,2.213,0,0,0-.26.031c-.156.021-.3.031-.467.062-.1.01-.208.031-.312.052-.2.031-.395.062-.613.1-.125.021-.249.052-.384.083-.218.052-.436.114-.665.177-.135.042-.26.083-.405.125-.062.021-.125.042-.2.062.633-4,4.434-20.365,23.771-20.365S56.331,26.326,56.965,30.324c-.062-.021-.125-.042-.2-.062-.135-.052-.27-.083-.405-.125-.228-.062-.447-.125-.665-.177-.135-.031-.26-.062-.384-.083-.218-.042-.415-.083-.613-.1-.1-.021-.218-.031-.312-.052q-.249-.031-.467-.062a1.975,1.975,0,0,1-.26-.031c-.1-.01-.177-.021-.27-.031-.239-4.6-2.949-9.939-3.074-10.167a.517.517,0,0,0-.312-.26ZM20.711,52.351c-.249,2.3-.665,2.721-.748,2.783a5.512,5.512,0,0,1-2.939.644c-.052-.031-.093-.062-.145-.093a1.4,1.4,0,0,1-.145-.114c-.062-.052-.114-.114-.177-.177-.042-.052-.093-.093-.135-.145l-.156-.218a1.691,1.691,0,0,1-.114-.177c-.052-.083-.093-.177-.145-.27-.031-.073-.073-.135-.1-.208-.042-.093-.093-.208-.135-.312-.031-.073-.062-.145-.093-.228-.042-.114-.083-.239-.125-.363-.031-.083-.052-.156-.083-.239-.042-.135-.073-.27-.114-.415-.021-.083-.042-.156-.062-.249-.042-.156-.073-.312-.1-.478-.021-.083-.031-.156-.052-.239-.031-.187-.073-.384-.1-.582A1.171,1.171,0,0,0,15,51.084c-.083-.53-.145-1.08-.208-1.662a2.017,2.017,0,0,0-.021-.249c-.021-.208-.042-.426-.052-.644a2.743,2.743,0,0,0-.021-.3c-.01-.208-.031-.405-.042-.613a2.015,2.015,0,0,0-.021-.353c0-.2-.021-.384-.021-.582,0-.135,0-.27-.01-.405,0-.187,0-.374-.01-.561v-3c0-.156,0-.3.01-.457,0-.187,0-.363.01-.55,0-.166.01-.322.021-.488s.01-.343.021-.519.01-.332.021-.5.021-.343.021-.509.021-.322.021-.478c0-.177.021-.343.031-.519s.021-.322.031-.488.021-.322.031-.488l.031-.5c.01-.156.021-.312.031-.457.01-.166.021-.332.042-.5l.031-.436c.01-.166.031-.332.042-.5.01-.135.021-.28.031-.415.01-.166.031-.322.042-.478.01-.135.021-.26.042-.395.01-.156.031-.322.042-.478.01-.125.021-.239.031-.363.021-.156.031-.312.052-.457.01-.114.021-.239.042-.353.01-.145.031-.28.042-.426.01-.114.021-.218.042-.332.021-.135.031-.27.052-.405.01-.093.021-.187.031-.27.021-.135.031-.27.052-.405V30.49c2.492.031,3.354.509,3.645.8.914,1.08,2.233,14.57,1.527,21.051ZM15.549,55.8a61.065,61.065,0,0,1-7.9-.779,5.45,5.45,0,0,1-3.8-2.035c-1.734-2.119-2.222-5.556-1.433-10.209C3.4,36.981,5.611,33.242,9,31.643a11.554,11.554,0,0,1,3.832-.966c.291-.031.55-.062.717-.093,0,0,.374-.042.924-.062-.5,3.946-2.337,20.562,1.08,25.288Z"/>
      <path id="Path_1065298" data-name="Path 1065298" d="M15.043,29.71v.062c-.021.135-.031.27-.052.405-.01.093-.021.177-.031.27-.021.135-.031.27-.052.405-.01.114-.021.218-.042.332-.01.135-.031.28-.042.426-.01.114-.021.228-.042.353-.021.145-.031.3-.052.457-.01.114-.021.239-.031.363-.01.156-.031.312-.042.478-.01.135-.021.26-.042.395-.01.156-.031.322-.042.478-.01.135-.021.27-.031.415-.01.166-.031.332-.042.5l-.031.436c-.01.166-.021.332-.042.5s-.021.312-.031.457l-.031.5c-.01.166-.021.322-.031.488s-.021.322-.031.488-.021.343-.031.519c0,.156-.021.322-.021.478s-.021.343-.021.509-.01.332-.021.5-.01.343-.021.519-.01.322-.021.488c0,.187-.01.363-.01.55,0,.156,0,.3-.01.457v3c0,.187,0,.374.01.561,0,.135,0,.27.01.405,0,.2.021.395.021.582a2.015,2.015,0,0,0,.021.353c.01.208.021.415.042.613a2.743,2.743,0,0,0,.021.3c.021.218.031.426.052.644a2.017,2.017,0,0,0,.021.249c.052.582.125,1.142.208,1.662a1.17,1.17,0,0,0,.031.187c.031.2.062.395.1.582.021.083.031.156.052.239.031.166.062.322.1.478l.062.249c.031.145.073.28.114.415a1.614,1.614,0,0,0,.083.239c.042.125.083.249.125.363.031.083.062.156.093.228a2.816,2.816,0,0,0,.135.312c.031.073.073.135.1.208.052.093.093.187.145.27a1.692,1.692,0,0,1,.114.177c.052.073.1.156.156.218a1.724,1.724,0,0,0,.135.145,1.418,1.418,0,0,0,.177.177,1.776,1.776,0,0,0,.145.114c.042.031.093.062.145.093a5.512,5.512,0,0,0,2.939-.644c.083-.062.5-.478.748-2.783.706-6.491-.613-19.981-1.527-21.051-.291-.291-1.142-.768-3.645-.8Z" transform="translate(0.506 0.801)" fill="#1b1d1e"/>
      <path id="Path_1065299" data-name="Path 1065299" d="M13.516,29.783c-.166.031-.426.062-.717.093a11.554,11.554,0,0,0-3.832.966c-3.386,1.6-5.6,5.348-6.584,11.133-.789,4.663-.312,8.1,1.433,10.209a5.484,5.484,0,0,0,3.8,2.035,62.917,62.917,0,0,0,7.9.779c-3.417-4.725-1.568-21.341-1.08-25.288-.55.021-.914.062-.924.062Z" transform="translate(0.039 0.801)" fill="#ffce00"/>
    </g>
  </g>
</svg>
